G04*
G04 #@! TF.GenerationSoftware,Altium Limited,Altium Designer,23.11.1 (41)*
G04*
G04 Layer_Color=65535*
%FSLAX25Y25*%
%MOIN*%
G70*
G04*
G04 #@! TF.SameCoordinates,3206F265-2646-4181-9204-0E6D39A93BEF*
G04*
G04*
G04 #@! TF.FilePolarity,Positive*
G04*
G01*
G75*
%ADD10C,0.00787*%
%ADD11C,0.00984*%
%ADD12C,0.01000*%
%ADD13C,0.00591*%
%ADD14C,0.00394*%
%ADD15C,0.00500*%
%ADD16C,0.00800*%
%ADD17C,0.00400*%
%ADD18C,0.00600*%
D10*
X33119Y279359D02*
G03*
X33119Y279359I-394J0D01*
G01*
X103169Y80000D02*
G03*
X103169Y80000I-197J0D01*
G01*
X272072Y279359D02*
G03*
X272072Y279359I-394J0D01*
G01*
X147683Y275843D02*
G03*
X147683Y275843I-106J0D01*
G01*
X46191Y317400D02*
G03*
X46585Y317400I197J0D01*
G01*
D02*
G03*
X46191Y317400I-197J0D01*
G01*
D02*
G03*
X46585Y317400I197J0D01*
G01*
X32969Y275422D02*
Y276800D01*
Y76800D02*
Y78178D01*
X52973Y76800D02*
Y78178D01*
Y275422D02*
Y276800D01*
X32969Y76800D02*
X52973D01*
X32969Y276800D02*
X52973D01*
X164760Y71122D02*
X166335D01*
X164760Y73878D02*
X166335D01*
X245713Y92878D02*
X247287D01*
X245713Y90122D02*
X247287D01*
X177713Y63122D02*
X179287D01*
X177713Y65878D02*
X179287D01*
X253059Y40232D02*
Y41807D01*
X255815Y40232D02*
Y41807D01*
X217460Y89124D02*
X219035D01*
X217460Y86368D02*
X219035D01*
X216966Y119934D02*
Y211666D01*
X125234Y119934D02*
X216966D01*
X125234D02*
Y211666D01*
X216966D01*
X232122Y227213D02*
Y228787D01*
X234878Y227213D02*
Y228787D01*
X241878Y239387D02*
Y240962D01*
X239122Y239387D02*
Y240962D01*
X82287Y181484D02*
X83862D01*
X82287Y178728D02*
X83862D01*
X99648D02*
X101223D01*
X99648Y181484D02*
X101223D01*
X237713Y187122D02*
X239287D01*
X237713Y189878D02*
X239287D01*
X197475Y293213D02*
Y294787D01*
X200231Y293213D02*
Y294787D01*
X229260Y96878D02*
X230835D01*
X229260Y94122D02*
X230835D01*
X271922Y276800D02*
X291926D01*
X271922Y76800D02*
X291926D01*
Y275422D02*
Y276800D01*
Y76800D02*
Y78178D01*
X271922Y76800D02*
Y78178D01*
Y275422D02*
Y276800D01*
X284713Y304878D02*
X286287D01*
X284713Y302122D02*
X286287D01*
X150348Y310476D02*
X151922D01*
X150348Y313232D02*
X151922D01*
X160213Y298622D02*
X161787D01*
X160213Y301378D02*
X161787D01*
X171213Y276359D02*
X172787D01*
X171213Y279115D02*
X172787D01*
X220634Y323744D02*
X247366D01*
Y283256D02*
Y323744D01*
X220634Y283256D02*
X247366D01*
X220634D02*
Y323744D01*
X211657Y323756D02*
X219256D01*
X52884Y321731D02*
X77294D01*
X52884Y297321D02*
X77294D01*
X52884Y305589D02*
Y313463D01*
X77294Y305589D02*
Y313463D01*
D11*
X216868Y217769D02*
G03*
X216868Y217769I-492J0D01*
G01*
D12*
X234142Y19180D02*
G03*
X234142Y19180I-551J0D01*
G01*
X135760Y325169D02*
G03*
X135760Y325169I-177J0D01*
G01*
X192417Y23183D02*
X248087D01*
Y39396D02*
Y71345D01*
X192417Y44648D02*
Y71959D01*
X205669Y82042D02*
X226764D01*
X236217D02*
X245055D01*
X135791Y311264D02*
Y323075D01*
X117287Y311264D02*
Y323075D01*
X242834Y218333D02*
X242167Y218999D01*
X240834D01*
X240168Y218333D01*
Y215667D01*
X240834Y215001D01*
X242167D01*
X242834Y215667D01*
X244166Y218999D02*
X246832D01*
Y218333D01*
X244166Y215667D01*
Y215001D01*
X282564Y26501D02*
Y32499D01*
X285563D01*
X286563Y31499D01*
Y29500D01*
X285563Y28500D01*
X282564D01*
X284563D02*
X286563Y26501D01*
X288562Y31499D02*
X289562Y32499D01*
X291561D01*
X292561Y31499D01*
Y30500D01*
X291561Y29500D01*
X292561Y28500D01*
Y27501D01*
X291561Y26501D01*
X289562D01*
X288562Y27501D01*
Y28500D01*
X289562Y29500D01*
X288562Y30500D01*
Y31499D01*
X289562Y29500D02*
X291561D01*
X257502Y26501D02*
Y32499D01*
X260501D01*
X261500Y31499D01*
Y29500D01*
X260501Y28500D01*
X257502D01*
X259501D02*
X261500Y26501D01*
X263500Y32499D02*
X267498D01*
Y31499D01*
X263500Y27501D01*
Y26501D01*
X291004Y59999D02*
Y54001D01*
X295002D01*
X301000Y59999D02*
X297002D01*
Y54001D01*
X301000D01*
X297002Y57000D02*
X299001D01*
X303000Y59999D02*
Y54001D01*
X305999D01*
X306998Y55001D01*
Y58999D01*
X305999Y59999D01*
X303000D01*
X312997Y54001D02*
X308998D01*
X312997Y58000D01*
Y58999D01*
X311997Y59999D01*
X309997D01*
X308998Y58999D01*
X265503Y59999D02*
Y54001D01*
X269502D01*
X275500Y59999D02*
X271501D01*
Y54001D01*
X275500D01*
X271501Y57000D02*
X273501D01*
X277499Y59999D02*
Y54001D01*
X280498D01*
X281498Y55001D01*
Y58999D01*
X280498Y59999D01*
X277499D01*
X283497Y54001D02*
X285497D01*
X284497D01*
Y59999D01*
X283497Y58999D01*
X117502Y334499D02*
Y329501D01*
X118501Y328501D01*
X120501D01*
X121500Y329501D01*
Y334499D01*
X126499Y328501D02*
Y334499D01*
X123500Y331500D01*
X127498D01*
X211600Y334198D02*
Y329200D01*
X212600Y328200D01*
X214599D01*
X215599Y329200D01*
Y334198D01*
X217598Y333198D02*
X218598Y334198D01*
X220597D01*
X221597Y333198D01*
Y332199D01*
X220597Y331199D01*
X219597D01*
X220597D01*
X221597Y330199D01*
Y329200D01*
X220597Y328200D01*
X218598D01*
X217598Y329200D01*
X208801Y232499D02*
Y227501D01*
X209801Y226501D01*
X211800D01*
X212800Y227501D01*
Y232499D01*
X214799Y226501D02*
X216799D01*
X215799D01*
Y232499D01*
X214799Y231499D01*
X54000Y331499D02*
X53000Y332499D01*
X51001D01*
X50001Y331499D01*
Y330500D01*
X51001Y329500D01*
X53000D01*
X54000Y328500D01*
Y327501D01*
X53000Y326501D01*
X51001D01*
X50001Y327501D01*
X55999Y326501D02*
X57999D01*
X56999D01*
Y332499D01*
X55999Y331499D01*
X286472Y289299D02*
X284472D01*
X285472D01*
Y284301D01*
X284472Y283301D01*
X283473D01*
X282473Y284301D01*
X288471Y283301D02*
X290471D01*
X289471D01*
Y289299D01*
X288471Y288299D01*
X297468Y283301D02*
X293470D01*
X297468Y287300D01*
Y288299D01*
X296468Y289299D01*
X294469D01*
X293470Y288299D01*
X30399Y289098D02*
X28399D01*
X29399D01*
Y284100D01*
X28399Y283100D01*
X27400D01*
X26400Y284100D01*
X32398Y283100D02*
X34397D01*
X33398D01*
Y289098D01*
X32398Y288098D01*
X37396Y283100D02*
X39396D01*
X38396D01*
Y289098D01*
X37396Y288098D01*
X183000Y83761D02*
X181001D01*
X182001D01*
Y78763D01*
X181001Y77763D01*
X180001D01*
X179002Y78763D01*
X185000Y83761D02*
X188998D01*
Y82762D01*
X185000Y78763D01*
Y77763D01*
X146000Y79499D02*
X144001D01*
X145000D01*
Y74501D01*
X144001Y73501D01*
X143001D01*
X142001Y74501D01*
X147999Y73501D02*
X149999D01*
X148999D01*
Y79499D01*
X147999Y78499D01*
X137034Y279501D02*
Y283500D01*
X139033Y285499D01*
X141033Y283500D01*
Y279501D01*
Y282500D01*
X137034D01*
X147031Y284499D02*
X146031Y285499D01*
X144032D01*
X143032Y284499D01*
Y280501D01*
X144032Y279501D01*
X146031D01*
X147031Y280501D01*
X149030Y279501D02*
X151029D01*
X150030D01*
Y285499D01*
X149030Y284499D01*
D13*
X237588Y120704D02*
Y122279D01*
X200963Y105285D02*
X202538D01*
X181736Y107527D02*
Y109102D01*
X164648Y107587D02*
Y109162D01*
X112422Y117213D02*
Y118787D01*
X112222Y136847D02*
Y138422D01*
X109403Y156797D02*
Y158372D01*
X108855Y167278D02*
Y168852D01*
X112428Y204186D02*
X114003D01*
X237500Y149213D02*
Y150787D01*
X229833Y199983D02*
Y201558D01*
Y204724D02*
Y206299D01*
X128322Y224776D02*
X129897D01*
X232081Y217228D02*
X234444D01*
X232081Y212897D02*
X234444D01*
D14*
X142500Y58051D02*
Y68051D01*
X102500D02*
X142500D01*
X102500Y58051D02*
Y68051D01*
Y58051D02*
X142500D01*
D15*
X294925Y27685D02*
Y28315D01*
X298075Y27685D02*
Y28315D01*
X269925Y27539D02*
Y28169D01*
X273075Y27539D02*
Y28169D01*
D16*
X162315Y104867D02*
X161649Y105533D01*
X160316D01*
X159649Y104867D01*
Y102201D01*
X160316Y101535D01*
X161649D01*
X162315Y102201D01*
X163648Y101535D02*
X164981D01*
X164315D01*
Y105533D01*
X163648Y104867D01*
X169646Y105533D02*
X168313Y104867D01*
X166980Y103534D01*
Y102201D01*
X167647Y101535D01*
X168980D01*
X169646Y102201D01*
Y102867D01*
X168980Y103534D01*
X166980D01*
X228751Y242807D02*
Y245806D01*
X230251D01*
X230751Y245306D01*
Y244306D01*
X230251Y243807D01*
X228751D01*
X229751D02*
X230751Y242807D01*
X231750D02*
X232750D01*
X232250D01*
Y245806D01*
X231750Y245306D01*
X236249Y242807D02*
X234249D01*
X236249Y244806D01*
Y245306D01*
X235749Y245806D01*
X234749D01*
X234249Y245306D01*
X237366Y158032D02*
X236699Y158699D01*
X235366D01*
X234700Y158032D01*
Y155367D01*
X235366Y154700D01*
X236699D01*
X237366Y155367D01*
X241365Y154700D02*
X238699D01*
X241365Y157366D01*
Y158032D01*
X240698Y158699D01*
X239365D01*
X238699Y158032D01*
X242697D02*
X243364Y158699D01*
X244697D01*
X245363Y158032D01*
Y155367D01*
X244697Y154700D01*
X243364D01*
X242697Y155367D01*
Y158032D01*
X235619Y115079D02*
X234953Y115746D01*
X233620D01*
X232954Y115079D01*
Y112413D01*
X233620Y111747D01*
X234953D01*
X235619Y112413D01*
X236952Y111747D02*
X238285D01*
X237619D01*
Y115746D01*
X236952Y115079D01*
X240284Y112413D02*
X240951Y111747D01*
X242284D01*
X242950Y112413D01*
Y115079D01*
X242284Y115746D01*
X240951D01*
X240284Y115079D01*
Y114413D01*
X240951Y113746D01*
X242950D01*
X191544Y106618D02*
X190877Y107284D01*
X189544D01*
X188878Y106618D01*
Y103952D01*
X189544Y103285D01*
X190877D01*
X191544Y103952D01*
X192877Y103285D02*
X194210D01*
X193543D01*
Y107284D01*
X192877Y106618D01*
X196209D02*
X196875Y107284D01*
X198208D01*
X198875Y106618D01*
Y105951D01*
X198208Y105285D01*
X198875Y104618D01*
Y103952D01*
X198208Y103285D01*
X196875D01*
X196209Y103952D01*
Y104618D01*
X196875Y105285D01*
X196209Y105951D01*
Y106618D01*
X196875Y105285D02*
X198208D01*
X179403Y104807D02*
X178737Y105474D01*
X177404D01*
X176737Y104807D01*
Y102142D01*
X177404Y101475D01*
X178737D01*
X179403Y102142D01*
X180736Y101475D02*
X182069D01*
X181403D01*
Y105474D01*
X180736Y104807D01*
X184069Y105474D02*
X186734D01*
Y104807D01*
X184069Y102142D01*
Y101475D01*
X111272Y219333D02*
X110605Y219999D01*
X109272D01*
X108606Y219333D01*
Y216667D01*
X109272Y216001D01*
X110605D01*
X111272Y216667D01*
X112604Y216001D02*
X113937D01*
X113271D01*
Y219999D01*
X112604Y219333D01*
X115937Y216001D02*
X117270D01*
X116603D01*
Y219999D01*
X115937Y219333D01*
X242334Y203833D02*
X241667Y204499D01*
X240334D01*
X239668Y203833D01*
Y201167D01*
X240334Y200501D01*
X241667D01*
X242334Y201167D01*
X243667Y203833D02*
X244333Y204499D01*
X245666D01*
X246332Y203833D01*
Y203167D01*
X245666Y202500D01*
X246332Y201834D01*
Y201167D01*
X245666Y200501D01*
X244333D01*
X243667Y201167D01*
Y201834D01*
X244333Y202500D01*
X243667Y203167D01*
Y203833D01*
X244333Y202500D02*
X245666D01*
X120730Y237833D02*
X120064Y238499D01*
X118731D01*
X118064Y237833D01*
Y235167D01*
X118731Y234501D01*
X120064D01*
X120730Y235167D01*
X122063Y234501D02*
X123396D01*
X122730D01*
Y238499D01*
X122063Y237833D01*
X125395D02*
X126062Y238499D01*
X127395D01*
X128061Y237833D01*
Y235167D01*
X127395Y234501D01*
X126062D01*
X125395Y235167D01*
Y237833D01*
X236100Y210243D02*
X235433Y210909D01*
X234101D01*
X233434Y210243D01*
Y207577D01*
X234101Y206910D01*
X235433D01*
X236100Y207577D01*
X237433D02*
X238099Y206910D01*
X239432D01*
X240099Y207577D01*
Y210243D01*
X239432Y210909D01*
X238099D01*
X237433Y210243D01*
Y209576D01*
X238099Y208910D01*
X240099D01*
X248668Y186063D02*
Y190062D01*
X250667D01*
X251334Y189395D01*
Y188062D01*
X250667Y187396D01*
X248668D01*
X250001D02*
X251334Y186063D01*
X252667D02*
X254000D01*
X253333D01*
Y190062D01*
X252667Y189395D01*
X255999Y186063D02*
X257332D01*
X256665D01*
Y190062D01*
X255999Y189395D01*
X185502Y294501D02*
Y298499D01*
X187501D01*
X188167Y297833D01*
Y296500D01*
X187501Y295834D01*
X185502D01*
X186835D02*
X188167Y294501D01*
X189500D02*
X190833D01*
X190167D01*
Y298499D01*
X189500Y297833D01*
X192833D02*
X193499Y298499D01*
X194832D01*
X195498Y297833D01*
Y295167D01*
X194832Y294501D01*
X193499D01*
X192833Y295167D01*
Y297833D01*
X230668Y88001D02*
Y91999D01*
X232667D01*
X233334Y91333D01*
Y90000D01*
X232667Y89334D01*
X230668D01*
X232001D02*
X233334Y88001D01*
X234666Y88667D02*
X235333Y88001D01*
X236666D01*
X237332Y88667D01*
Y91333D01*
X236666Y91999D01*
X235333D01*
X234666Y91333D01*
Y90666D01*
X235333Y90000D01*
X237332D01*
X271668Y301501D02*
Y305499D01*
X273667D01*
X274334Y304833D01*
Y303500D01*
X273667Y302834D01*
X271668D01*
X273001D02*
X274334Y301501D01*
X277666D02*
Y305499D01*
X275666Y303500D01*
X278332D01*
X163333Y260387D02*
X162667Y261053D01*
X161334D01*
X160668Y260387D01*
Y257721D01*
X161334Y257054D01*
X162667D01*
X163333Y257721D01*
X167332Y257054D02*
X164666D01*
X167332Y259720D01*
Y260387D01*
X166666Y261053D01*
X165333D01*
X164666Y260387D01*
X182752Y269725D02*
X182086Y270391D01*
X180753D01*
X180086Y269725D01*
Y267059D01*
X180753Y266392D01*
X182086D01*
X182752Y267059D01*
X184085Y269725D02*
X184751Y270391D01*
X186084D01*
X186751Y269725D01*
Y269058D01*
X186084Y268392D01*
X185418D01*
X186084D01*
X186751Y267725D01*
Y267059D01*
X186084Y266392D01*
X184751D01*
X184085Y267059D01*
X95746Y314333D02*
X95080Y314999D01*
X93747D01*
X93080Y314333D01*
Y311667D01*
X93747Y311001D01*
X95080D01*
X95746Y311667D01*
X97079Y311001D02*
X98412D01*
X97746D01*
Y314999D01*
X97079Y314333D01*
X91834Y300198D02*
X91167Y300864D01*
X89834D01*
X89168Y300198D01*
Y297532D01*
X89834Y296865D01*
X91167D01*
X91834Y297532D01*
X95832Y300864D02*
X94499Y300198D01*
X93167Y298865D01*
Y297532D01*
X93833Y296865D01*
X95166D01*
X95832Y297532D01*
Y298198D01*
X95166Y298865D01*
X93167D01*
X179168Y275738D02*
Y279737D01*
X181167D01*
X181834Y279070D01*
Y277737D01*
X181167Y277071D01*
X179168D01*
X180501D02*
X181834Y275738D01*
X183167Y279070D02*
X183833Y279737D01*
X185166D01*
X185832Y279070D01*
Y278404D01*
X185166Y277737D01*
X184499D01*
X185166D01*
X185832Y277071D01*
Y276404D01*
X185166Y275738D01*
X183833D01*
X183167Y276404D01*
X157555Y310249D02*
Y314247D01*
X159554D01*
X160221Y313581D01*
Y312248D01*
X159554Y311582D01*
X157555D01*
X158888D02*
X160221Y310249D01*
X164219D02*
X161554D01*
X164219Y312914D01*
Y313581D01*
X163553Y314247D01*
X162220D01*
X161554Y313581D01*
X167334Y298001D02*
Y301999D01*
X169334D01*
X170000Y301333D01*
Y300000D01*
X169334Y299334D01*
X167334D01*
X168667D02*
X170000Y298001D01*
X171333D02*
X172666D01*
X171999D01*
Y301999D01*
X171333Y301333D01*
X199259Y323507D02*
X198592Y324174D01*
X197259D01*
X196593Y323507D01*
Y320842D01*
X197259Y320175D01*
X198592D01*
X199259Y320842D01*
X202591Y320175D02*
Y324174D01*
X200592Y322175D01*
X203257D01*
D17*
X172048Y71500D02*
Y73500D01*
X173048D01*
X173381Y73167D01*
Y72500D01*
X173048Y72167D01*
X172048D01*
X172714D02*
X173381Y71500D01*
X174047D02*
X174714D01*
X174381D01*
Y73500D01*
X174047Y73167D01*
X175714D02*
X176047Y73500D01*
X176713D01*
X177046Y73167D01*
Y72833D01*
X176713Y72500D01*
X177046Y72167D01*
Y71834D01*
X176713Y71500D01*
X176047D01*
X175714Y71834D01*
Y72167D01*
X176047Y72500D01*
X175714Y72833D01*
Y73167D01*
X176047Y72500D02*
X176713D01*
X245096Y94938D02*
Y96937D01*
X246095D01*
X246429Y96604D01*
Y95938D01*
X246095Y95604D01*
X245096D01*
X245762D02*
X246429Y94938D01*
X247095D02*
X247762D01*
X247428D01*
Y96937D01*
X247095Y96604D01*
X248761Y96937D02*
X250094D01*
Y96604D01*
X248761Y95271D01*
Y94938D01*
X208273Y91456D02*
Y93456D01*
X209273D01*
X209606Y93123D01*
Y92456D01*
X209273Y92123D01*
X208273D01*
X208940D02*
X209606Y91456D01*
X210273D02*
X210939D01*
X210606D01*
Y93456D01*
X210273Y93123D01*
X213271Y93456D02*
X212605Y93123D01*
X211939Y92456D01*
Y91790D01*
X212272Y91456D01*
X212938D01*
X213271Y91790D01*
Y92123D01*
X212938Y92456D01*
X211939D01*
X185001Y63500D02*
Y65500D01*
X186001D01*
X186334Y65166D01*
Y64500D01*
X186001Y64167D01*
X185001D01*
X185667D02*
X186334Y63500D01*
X187000D02*
X187667D01*
X187333D01*
Y65500D01*
X187000Y65166D01*
X189999Y65500D02*
X188666D01*
Y64500D01*
X189333Y64833D01*
X189666D01*
X189999Y64500D01*
Y63834D01*
X189666Y63500D01*
X188999D01*
X188666Y63834D01*
X258238Y37067D02*
Y39066D01*
X259238D01*
X259571Y38733D01*
Y38067D01*
X259238Y37734D01*
X258238D01*
X258905D02*
X259571Y37067D01*
X260237D02*
X260904D01*
X260571D01*
Y39066D01*
X260237Y38733D01*
X262903Y37067D02*
Y39066D01*
X261904Y38067D01*
X263236D01*
X73934Y183817D02*
Y185816D01*
X74934D01*
X75267Y185483D01*
Y184816D01*
X74934Y184483D01*
X73934D01*
X74600D02*
X75267Y183817D01*
X77266Y185816D02*
X76600Y185483D01*
X75933Y184816D01*
Y184150D01*
X76266Y183817D01*
X76933D01*
X77266Y184150D01*
Y184483D01*
X76933Y184816D01*
X75933D01*
X105897Y179107D02*
Y181106D01*
X106896D01*
X107230Y180773D01*
Y180106D01*
X106896Y179773D01*
X105897D01*
X106563D02*
X107230Y179107D01*
X109229Y181106D02*
X107896D01*
Y180106D01*
X108563Y180439D01*
X108896D01*
X109229Y180106D01*
Y179440D01*
X108896Y179107D01*
X108229D01*
X107896Y179440D01*
X110891Y122253D02*
X110558Y122586D01*
X109892D01*
X109559Y122253D01*
Y120920D01*
X109892Y120587D01*
X110558D01*
X110891Y120920D01*
X111558Y120587D02*
X112224D01*
X111891D01*
Y122586D01*
X111558Y122253D01*
X114557Y122586D02*
X113224D01*
Y121587D01*
X113891Y121920D01*
X114224D01*
X114557Y121587D01*
Y120920D01*
X114224Y120587D01*
X113557D01*
X113224Y120920D01*
X112453Y141654D02*
X112120Y141988D01*
X111453D01*
X111120Y141654D01*
Y140322D01*
X111453Y139988D01*
X112120D01*
X112453Y140322D01*
X113120Y139988D02*
X113786D01*
X113453D01*
Y141988D01*
X113120Y141654D01*
X115785Y139988D02*
Y141988D01*
X114786Y140988D01*
X116119D01*
X104281Y154918D02*
X103948Y155251D01*
X103281D01*
X102948Y154918D01*
Y153585D01*
X103281Y153251D01*
X103948D01*
X104281Y153585D01*
X104947Y153251D02*
X105614D01*
X105280D01*
Y155251D01*
X104947Y154918D01*
X106613D02*
X106947Y155251D01*
X107613D01*
X107946Y154918D01*
Y154584D01*
X107613Y154251D01*
X107280D01*
X107613D01*
X107946Y153918D01*
Y153585D01*
X107613Y153251D01*
X106947D01*
X106613Y153585D01*
X98256Y171569D02*
X97923Y171902D01*
X97256D01*
X96923Y171569D01*
Y170236D01*
X97256Y169903D01*
X97923D01*
X98256Y170236D01*
X98922Y169903D02*
X99589D01*
X99256D01*
Y171902D01*
X98922Y171569D01*
X101921Y169903D02*
X100588D01*
X101921Y171236D01*
Y171569D01*
X101588Y171902D01*
X100922D01*
X100588Y171569D01*
D18*
X237145Y228135D02*
Y231135D01*
X238644D01*
X239144Y230635D01*
Y229635D01*
X238644Y229135D01*
X237145D01*
X238145D02*
X239144Y228135D01*
X240144D02*
X241144D01*
X240644D01*
Y231135D01*
X240144Y230635D01*
X242643D02*
X243143Y231135D01*
X244143D01*
X244642Y230635D01*
Y230135D01*
X244143Y229635D01*
X243643D01*
X244143D01*
X244642Y229135D01*
Y228635D01*
X244143Y228135D01*
X243143D01*
X242643Y228635D01*
M02*
