G04*
G04 #@! TF.GenerationSoftware,Altium Limited,Altium Designer,23.11.1 (41)*
G04*
G04 Layer_Color=16711935*
%FSLAX25Y25*%
%MOIN*%
G70*
G04*
G04 #@! TF.SameCoordinates,3206F265-2646-4181-9204-0E6D39A93BEF*
G04*
G04*
G04 #@! TF.FilePolarity,Negative*
G04*
G01*
G75*
G04:AMPARAMS|DCode=47|XSize=25.65mil|YSize=23.68mil|CornerRadius=4.46mil|HoleSize=0mil|Usage=FLASHONLY|Rotation=90.000|XOffset=0mil|YOffset=0mil|HoleType=Round|Shape=RoundedRectangle|*
%AMROUNDEDRECTD47*
21,1,0.02565,0.01476,0,0,90.0*
21,1,0.01673,0.02368,0,0,90.0*
1,1,0.00892,0.00738,0.00837*
1,1,0.00892,0.00738,-0.00837*
1,1,0.00892,-0.00738,-0.00837*
1,1,0.00892,-0.00738,0.00837*
%
%ADD47ROUNDEDRECTD47*%
%ADD69C,0.07408*%
%ADD70C,0.03904*%
%ADD71O,0.06699X0.12998*%
%ADD72C,0.05943*%
%ADD73R,0.05943X0.05943*%
%ADD74C,0.17000*%
%ADD75C,0.02800*%
%ADD86R,0.09416X0.05400*%
%ADD87R,0.07880X0.04613*%
D47*
X205000Y179500D02*
D03*
X208543D02*
D03*
D69*
X42973Y86800D02*
D03*
Y266800D02*
D03*
X281926D02*
D03*
Y86800D02*
D03*
D70*
X81959Y266800D02*
D03*
Y86800D02*
D03*
X311000Y86800D02*
D03*
Y266800D02*
D03*
X132500Y63051D02*
D03*
X112500D02*
D03*
D71*
X86606Y42500D02*
D03*
X37394D02*
D03*
D72*
X62000D02*
D03*
X50189D02*
D03*
D73*
X73811D02*
D03*
D74*
X20000Y20000D02*
D03*
X334000D02*
D03*
Y334000D02*
D03*
X20000D02*
D03*
D75*
X96062Y166500D02*
D03*
X144674Y126091D02*
D03*
X108000Y271500D02*
D03*
X24000Y231500D02*
D03*
X252500Y112500D02*
D03*
X245115Y153185D02*
D03*
X250145Y131951D02*
D03*
X249637Y151983D02*
D03*
X101726Y257500D02*
D03*
X124000Y268562D02*
D03*
X103427Y168065D02*
D03*
X113040Y133757D02*
D03*
X101000Y103000D02*
D03*
X64500Y93388D02*
D03*
X101462Y199200D02*
D03*
X100508Y80000D02*
D03*
X97500Y71746D02*
D03*
X96500Y146538D02*
D03*
X112500Y93800D02*
D03*
Y98400D02*
D03*
X111794Y148738D02*
D03*
X106500Y231000D02*
D03*
X99399Y175662D02*
D03*
X239272Y146500D02*
D03*
X159772Y69284D02*
D03*
X252949Y88365D02*
D03*
X177500Y68847D02*
D03*
X172000Y60559D02*
D03*
X221200Y92728D02*
D03*
X259500Y44760D02*
D03*
X134864Y221000D02*
D03*
X170123Y262086D02*
D03*
X176159Y108374D02*
D03*
X229795Y125437D02*
D03*
X240518Y118153D02*
D03*
X238834Y129751D02*
D03*
X201500Y179500D02*
D03*
X212769D02*
D03*
X214634Y174829D02*
D03*
X226335Y160879D02*
D03*
X215071Y158910D02*
D03*
X171853Y108434D02*
D03*
X201681Y110257D02*
D03*
X158877Y108374D02*
D03*
X198754Y101000D02*
D03*
X186746Y108392D02*
D03*
X228467Y120018D02*
D03*
X187945Y121500D02*
D03*
X174053D02*
D03*
X125925Y114417D02*
D03*
X107063Y119937D02*
D03*
X107631Y139742D02*
D03*
X127300Y137360D02*
D03*
X127187Y133320D02*
D03*
X103976Y157585D02*
D03*
X115470Y153005D02*
D03*
X114500Y166055D02*
D03*
X127300Y170721D02*
D03*
X248329Y244744D02*
D03*
X215000Y223623D02*
D03*
X114700Y198540D02*
D03*
X112500Y212254D02*
D03*
X127720Y204241D02*
D03*
X236766Y202658D02*
D03*
X213423Y205658D02*
D03*
Y202217D02*
D03*
X252000Y241500D02*
D03*
X236766Y220677D02*
D03*
X230200Y209347D02*
D03*
X147800Y178200D02*
D03*
X129000Y230200D02*
D03*
X203540Y222513D02*
D03*
X190500Y222839D02*
D03*
X166270Y225000D02*
D03*
X138620Y224251D02*
D03*
X118500Y213500D02*
D03*
X129500Y157500D02*
D03*
X135500Y122500D02*
D03*
X245683Y188500D02*
D03*
X198853Y301000D02*
D03*
X240000Y95500D02*
D03*
X117500Y70500D02*
D03*
X71466Y75200D02*
D03*
X297500Y74500D02*
D03*
X89332Y54668D02*
D03*
X122500Y96433D02*
D03*
X200000Y87000D02*
D03*
X221200Y102700D02*
D03*
X151521Y255292D02*
D03*
X143578Y274937D02*
D03*
X199000Y242500D02*
D03*
X204460Y97200D02*
D03*
X204495Y90200D02*
D03*
X262500Y293000D02*
D03*
X212903Y44361D02*
D03*
X196988Y309962D02*
D03*
X202500Y308637D02*
D03*
X157045Y254329D02*
D03*
X153000Y304000D02*
D03*
X176600Y284045D02*
D03*
X176756Y262500D02*
D03*
X163953Y292647D02*
D03*
X138000Y307600D02*
D03*
X304731Y25146D02*
D03*
X278500Y25000D02*
D03*
X219418Y37300D02*
D03*
X242200Y86500D02*
D03*
X263000Y53000D02*
D03*
X204300Y256700D02*
D03*
X288000Y50500D02*
D03*
X94500Y322400D02*
D03*
X55244Y281000D02*
D03*
X42825Y317400D02*
D03*
X292244Y279000D02*
D03*
X228705Y154973D02*
D03*
X130500Y186469D02*
D03*
X158305Y208554D02*
D03*
X164070Y208925D02*
D03*
X152399Y208116D02*
D03*
X233600Y307500D02*
D03*
X148447Y245002D02*
D03*
X144016Y269016D02*
D03*
X253800Y231500D02*
D03*
X231205Y149300D02*
D03*
X133100Y164816D02*
D03*
X90800Y280500D02*
D03*
D86*
X72018Y271800D02*
D03*
X91900D02*
D03*
X72018Y261800D02*
D03*
X91900D02*
D03*
X72018Y251800D02*
D03*
X91900D02*
D03*
X72018Y241800D02*
D03*
X91900D02*
D03*
X72018Y231800D02*
D03*
X91900D02*
D03*
X72018Y221800D02*
D03*
X91900D02*
D03*
X72018Y211800D02*
D03*
X91900D02*
D03*
X72018Y201800D02*
D03*
X91900D02*
D03*
X72018Y191800D02*
D03*
X91900D02*
D03*
X72018Y181800D02*
D03*
X91900D02*
D03*
X72018Y171800D02*
D03*
X91900D02*
D03*
X72018Y161800D02*
D03*
X91900D02*
D03*
X72018Y151800D02*
D03*
X91900D02*
D03*
X72018Y141800D02*
D03*
X91900D02*
D03*
X72018Y131800D02*
D03*
X91900D02*
D03*
X72018Y121800D02*
D03*
X91900D02*
D03*
X72018Y111800D02*
D03*
X91900D02*
D03*
X72018Y101800D02*
D03*
X91900D02*
D03*
X72018Y91800D02*
D03*
X91900D02*
D03*
X72018Y81800D02*
D03*
X91900D02*
D03*
X320941Y81800D02*
D03*
X301059D02*
D03*
X320941Y91800D02*
D03*
X301059D02*
D03*
X320941Y101800D02*
D03*
X301059D02*
D03*
X320941Y111800D02*
D03*
X301059D02*
D03*
X320941Y121800D02*
D03*
X301059D02*
D03*
X320941Y131800D02*
D03*
X301059D02*
D03*
X320941Y141800D02*
D03*
X301059D02*
D03*
X320941Y151800D02*
D03*
X301059D02*
D03*
X320941Y161800D02*
D03*
X301059D02*
D03*
X320941Y171800D02*
D03*
X301059D02*
D03*
X320941Y181800D02*
D03*
X301059D02*
D03*
X320941Y191800D02*
D03*
X301059D02*
D03*
X320941Y201800D02*
D03*
X301059D02*
D03*
X320941Y211800D02*
D03*
X301059D02*
D03*
X320941Y221800D02*
D03*
X301059D02*
D03*
X320941Y231800D02*
D03*
X301059D02*
D03*
X320941Y241800D02*
D03*
X301059D02*
D03*
X320941Y251800D02*
D03*
X301059D02*
D03*
X320941Y261800D02*
D03*
X301059D02*
D03*
X320941Y271800D02*
D03*
X301059D02*
D03*
D87*
X152762Y102700D02*
D03*
Y97700D02*
D03*
Y92700D02*
D03*
Y87700D02*
D03*
Y82700D02*
D03*
Y77700D02*
D03*
X210400Y62700D02*
D03*
Y67700D02*
D03*
X152762Y72700D02*
D03*
X210400Y77700D02*
D03*
Y82700D02*
D03*
Y87700D02*
D03*
Y92700D02*
D03*
Y97700D02*
D03*
Y102700D02*
D03*
Y107700D02*
D03*
Y112700D02*
D03*
Y117700D02*
D03*
Y122700D02*
D03*
X152762Y67700D02*
D03*
X210400Y127700D02*
D03*
Y132700D02*
D03*
Y137700D02*
D03*
X152762D02*
D03*
Y132700D02*
D03*
Y127700D02*
D03*
Y122700D02*
D03*
Y117700D02*
D03*
Y112700D02*
D03*
Y107700D02*
D03*
Y62700D02*
D03*
X210400Y72700D02*
D03*
M02*
