G04*
G04 #@! TF.GenerationSoftware,Altium Limited,Altium Designer,23.11.1 (41)*
G04*
G04 Layer_Physical_Order=3*
G04 Layer_Color=36540*
%FSLAX25Y25*%
%MOIN*%
G70*
G04*
G04 #@! TF.SameCoordinates,3206F265-2646-4181-9204-0E6D39A93BEF*
G04*
G04*
G04 #@! TF.FilePolarity,Positive*
G04*
G01*
G75*
%ADD18C,0.00600*%
%ADD76C,0.07008*%
%ADD77C,0.03504*%
%ADD78O,0.06299X0.12598*%
%ADD79C,0.05543*%
%ADD81C,0.06000*%
%ADD82C,0.02400*%
G36*
X348667Y352264D02*
X349644Y351859D01*
X350524Y351272D01*
X351272Y350524D01*
X351859Y349644D01*
X352264Y348667D01*
X352471Y347629D01*
Y347100D01*
Y321634D01*
X336419Y305581D01*
X336087Y305085D01*
X335971Y304500D01*
Y49500D01*
X336087Y48915D01*
X336419Y48419D01*
X352471Y32366D01*
X352471Y7000D01*
X352471Y6461D01*
X352260Y5404D01*
X351848Y4409D01*
X351249Y3513D01*
X350487Y2751D01*
X349591Y2152D01*
X348596Y1740D01*
X347539Y1529D01*
X347000Y1529D01*
X321634D01*
X305581Y17581D01*
X305085Y17913D01*
X304500Y18029D01*
X49500D01*
X48915Y17913D01*
X48419Y17581D01*
X32366Y1529D01*
X7000D01*
X6461Y1529D01*
X5404Y1740D01*
X4409Y2152D01*
X3513Y2751D01*
X2751Y3513D01*
X2152Y4409D01*
X1740Y5404D01*
X1529Y6461D01*
X1529Y7000D01*
Y32366D01*
X17581Y48419D01*
X17913Y48915D01*
X18029Y49500D01*
Y304500D01*
X17913Y305085D01*
X17581Y305581D01*
X1529Y321634D01*
Y347000D01*
Y347539D01*
X1740Y348596D01*
X2152Y349591D01*
X2751Y350487D01*
X3513Y351249D01*
X4409Y351848D01*
X5404Y352260D01*
X6461Y352471D01*
X32366D01*
X48419Y336419D01*
X48915Y336087D01*
X49500Y335971D01*
X304500D01*
X305085Y336087D01*
X305581Y336419D01*
X321634Y352471D01*
X347629D01*
X348667Y352264D01*
D02*
G37*
%LPC*%
G36*
X334837Y342500D02*
X333163D01*
X331521Y342173D01*
X329974Y341533D01*
X328582Y340602D01*
X327398Y339418D01*
X326467Y338026D01*
X325827Y336479D01*
X325500Y334837D01*
Y333163D01*
X325827Y331521D01*
X326467Y329974D01*
X327398Y328582D01*
X328582Y327398D01*
X329974Y326467D01*
X331521Y325827D01*
X333163Y325500D01*
X334837D01*
X336479Y325827D01*
X338026Y326467D01*
X339418Y327398D01*
X340602Y328582D01*
X341533Y329974D01*
X342173Y331521D01*
X342500Y333163D01*
Y334837D01*
X342173Y336479D01*
X341533Y338026D01*
X340602Y339418D01*
X339418Y340602D01*
X338026Y341533D01*
X336479Y342173D01*
X334837Y342500D01*
D02*
G37*
G36*
X20837D02*
X19163D01*
X17521Y342173D01*
X15974Y341533D01*
X14582Y340602D01*
X13398Y339418D01*
X12467Y338026D01*
X11827Y336479D01*
X11500Y334837D01*
Y333163D01*
X11827Y331521D01*
X12467Y329974D01*
X13398Y328582D01*
X14582Y327398D01*
X15974Y326467D01*
X17521Y325827D01*
X19163Y325500D01*
X20837D01*
X22479Y325827D01*
X24026Y326467D01*
X25418Y327398D01*
X26602Y328582D01*
X27533Y329974D01*
X28173Y331521D01*
X28500Y333163D01*
Y334837D01*
X28173Y336479D01*
X27533Y338026D01*
X26602Y339418D01*
X25418Y340602D01*
X24026Y341533D01*
X22479Y342173D01*
X20837Y342500D01*
D02*
G37*
G36*
X43263Y319600D02*
X42388D01*
X41579Y319265D01*
X40960Y318646D01*
X40625Y317838D01*
Y316962D01*
X40960Y316154D01*
X41579Y315535D01*
X42388Y315200D01*
X43263D01*
X44072Y315535D01*
X44690Y316154D01*
X45025Y316962D01*
Y317838D01*
X44690Y318646D01*
X44072Y319265D01*
X43263Y319600D01*
D02*
G37*
G36*
X197426Y312162D02*
X196551D01*
X195742Y311827D01*
X195123Y311209D01*
X194788Y310400D01*
Y309525D01*
X195123Y308716D01*
X195742Y308097D01*
X196551Y307762D01*
X197426D01*
X198234Y308097D01*
X198853Y308716D01*
X199188Y309525D01*
Y310400D01*
X198853Y311209D01*
X198234Y311827D01*
X197426Y312162D01*
D02*
G37*
G36*
X138438Y309800D02*
X137562D01*
X136754Y309465D01*
X136135Y308846D01*
X135800Y308038D01*
Y307162D01*
X136135Y306354D01*
X136754Y305735D01*
X137562Y305400D01*
X138326D01*
X140663Y303063D01*
X141093Y302775D01*
X141600Y302675D01*
X151214D01*
X151754Y302135D01*
X152562Y301800D01*
X153438D01*
X154246Y302135D01*
X154865Y302754D01*
X155200Y303562D01*
Y304438D01*
X154865Y305246D01*
X154246Y305865D01*
X153438Y306200D01*
X152562D01*
X151754Y305865D01*
X151214Y305326D01*
X142149D01*
X140200Y307275D01*
Y308038D01*
X139865Y308846D01*
X139246Y309465D01*
X138438Y309800D01*
D02*
G37*
G36*
X262938Y295200D02*
X262062D01*
X261254Y294865D01*
X260635Y294246D01*
X260300Y293438D01*
Y292562D01*
X260635Y291754D01*
X261254Y291135D01*
X262062Y290800D01*
X262938D01*
X263746Y291135D01*
X264365Y291754D01*
X264700Y292562D01*
Y293438D01*
X264365Y294246D01*
X263746Y294865D01*
X262938Y295200D01*
D02*
G37*
G36*
X55682Y283200D02*
X54807D01*
X53998Y282865D01*
X53379Y282246D01*
X53044Y281438D01*
Y280562D01*
X53379Y279754D01*
X53998Y279135D01*
X54807Y278800D01*
X55682D01*
X56490Y279135D01*
X57109Y279754D01*
X57444Y280562D01*
Y281438D01*
X57109Y282246D01*
X56490Y282865D01*
X55682Y283200D01*
D02*
G37*
G36*
X91238Y282700D02*
X90362D01*
X89554Y282365D01*
X88935Y281746D01*
X88600Y280938D01*
Y280062D01*
X88935Y279254D01*
X89554Y278635D01*
X90362Y278300D01*
X91238D01*
X92046Y278635D01*
X92665Y279254D01*
X93000Y280062D01*
Y280938D01*
X92665Y281746D01*
X92046Y282365D01*
X91238Y282700D01*
D02*
G37*
G36*
X292682Y281200D02*
X291807D01*
X290998Y280865D01*
X290379Y280246D01*
X290044Y279438D01*
Y278562D01*
X290379Y277754D01*
X290998Y277135D01*
X291807Y276800D01*
X292682D01*
X293490Y277135D01*
X294109Y277754D01*
X294444Y278562D01*
Y279438D01*
X294109Y280246D01*
X293490Y280865D01*
X292682Y281200D01*
D02*
G37*
G36*
X144016Y277137D02*
X143141D01*
X142332Y276802D01*
X141713Y276183D01*
X141378Y275375D01*
Y274499D01*
X141713Y273691D01*
X142332Y273072D01*
X143141Y272737D01*
X144016D01*
X144824Y273072D01*
X145443Y273691D01*
X145778Y274499D01*
Y275375D01*
X145443Y276183D01*
X144824Y276802D01*
X144016Y277137D01*
D02*
G37*
G36*
X144453Y271216D02*
X143578D01*
X142770Y270881D01*
X142151Y270262D01*
X142090Y270114D01*
X125559D01*
X125246Y270427D01*
X124438Y270762D01*
X123562D01*
X122754Y270427D01*
X122135Y269809D01*
X121800Y269000D01*
Y268125D01*
X122135Y267316D01*
X122754Y266697D01*
X123562Y266362D01*
X124438D01*
X125246Y266697D01*
X125865Y267316D01*
X125926Y267463D01*
X142457D01*
X142770Y267151D01*
X143578Y266816D01*
X144453D01*
X145262Y267151D01*
X145881Y267770D01*
X146216Y268578D01*
Y269453D01*
X145881Y270262D01*
X145262Y270881D01*
X144453Y271216D01*
D02*
G37*
G36*
X108438Y273700D02*
X107562D01*
X106754Y273365D01*
X106135Y272746D01*
X105800Y271938D01*
Y271062D01*
X106135Y270254D01*
X106754Y269635D01*
X107562Y269300D01*
X108438D01*
X109246Y269635D01*
X109865Y270254D01*
X110200Y271062D01*
Y271938D01*
X109865Y272746D01*
X109246Y273365D01*
X108438Y273700D01*
D02*
G37*
G36*
X311593Y271304D02*
X310407D01*
X309261Y270997D01*
X308235Y270404D01*
X307396Y269566D01*
X306803Y268538D01*
X306496Y267393D01*
Y266207D01*
X306803Y265061D01*
X307396Y264035D01*
X308235Y263196D01*
X309261Y262603D01*
X310407Y262296D01*
X311593D01*
X312738Y262603D01*
X313766Y263196D01*
X314604Y264035D01*
X315197Y265061D01*
X315504Y266207D01*
Y267393D01*
X315197Y268538D01*
X314604Y269566D01*
X313766Y270404D01*
X312738Y270997D01*
X311593Y271304D01*
D02*
G37*
G36*
X282519D02*
X281333D01*
X280188Y270997D01*
X279161Y270404D01*
X278322Y269566D01*
X277729Y268538D01*
X277422Y267393D01*
Y266207D01*
X277729Y265061D01*
X278322Y264035D01*
X279161Y263196D01*
X280188Y262603D01*
X281333Y262296D01*
X282519D01*
X283665Y262603D01*
X284692Y263196D01*
X285530Y264035D01*
X286123Y265061D01*
X286430Y266207D01*
Y267393D01*
X286123Y268538D01*
X285530Y269566D01*
X284692Y270404D01*
X283665Y270997D01*
X282519Y271304D01*
D02*
G37*
G36*
X43566D02*
X42380D01*
X41235Y270997D01*
X40208Y270404D01*
X39369Y269566D01*
X38776Y268538D01*
X38469Y267393D01*
Y266207D01*
X38776Y265061D01*
X39369Y264035D01*
X40208Y263196D01*
X41235Y262603D01*
X42380Y262296D01*
X43566D01*
X44712Y262603D01*
X45739Y263196D01*
X46577Y264035D01*
X47170Y265061D01*
X47477Y266207D01*
Y267393D01*
X47170Y268538D01*
X46577Y269566D01*
X45739Y270404D01*
X44712Y270997D01*
X43566Y271304D01*
D02*
G37*
G36*
X82552Y271304D02*
X81366D01*
X80221Y270997D01*
X79194Y270404D01*
X78355Y269565D01*
X77762Y268538D01*
X77455Y267393D01*
Y266207D01*
X77762Y265061D01*
X78355Y264035D01*
X79194Y263196D01*
X80221Y262603D01*
X81366Y262296D01*
X82552D01*
X83697Y262603D01*
X84724Y263196D01*
X85563Y264035D01*
X86156Y265061D01*
X86463Y266207D01*
Y267393D01*
X86156Y268538D01*
X85563Y269565D01*
X84724Y270404D01*
X83697Y270997D01*
X82552Y271304D01*
D02*
G37*
G36*
X177193Y264700D02*
X176318D01*
X175510Y264365D01*
X174891Y263746D01*
X174556Y262938D01*
Y262062D01*
X174891Y261254D01*
X175510Y260635D01*
X176318Y260300D01*
X177193D01*
X178002Y260635D01*
X178621Y261254D01*
X178956Y262062D01*
Y262938D01*
X178621Y263746D01*
X178002Y264365D01*
X177193Y264700D01*
D02*
G37*
G36*
X157483Y256529D02*
X156608D01*
X155799Y256194D01*
X155180Y255575D01*
X154845Y254766D01*
Y253891D01*
X155180Y253082D01*
X155799Y252464D01*
X156608Y252129D01*
X157483D01*
X158291Y252464D01*
X158910Y253082D01*
X159245Y253891D01*
Y254766D01*
X158910Y255575D01*
X158291Y256194D01*
X157483Y256529D01*
D02*
G37*
G36*
X234038Y309700D02*
X233162D01*
X232354Y309365D01*
X231735Y308746D01*
X231400Y307938D01*
Y307062D01*
X231735Y306254D01*
X232275Y305714D01*
Y305488D01*
X169049Y242263D01*
X160626D01*
X156950Y245939D01*
X156520Y246227D01*
X156012Y246328D01*
X150233D01*
X149693Y246867D01*
X148885Y247202D01*
X148010D01*
X147201Y246867D01*
X146582Y246248D01*
X146247Y245440D01*
Y244565D01*
X146582Y243756D01*
X147201Y243137D01*
X148010Y242802D01*
X148885D01*
X149693Y243137D01*
X150233Y243677D01*
X155463D01*
X159140Y240000D01*
X159570Y239713D01*
X160077Y239612D01*
X169598D01*
X170106Y239713D01*
X170536Y240000D01*
X234537Y304001D01*
X234825Y304432D01*
X234926Y304939D01*
Y305714D01*
X235465Y306254D01*
X235800Y307062D01*
Y307938D01*
X235465Y308746D01*
X234846Y309365D01*
X234038Y309700D01*
D02*
G37*
G36*
X102163Y259700D02*
X101288D01*
X100479Y259365D01*
X99861Y258746D01*
X99526Y257938D01*
Y257062D01*
X99861Y256254D01*
X100479Y255635D01*
X101288Y255300D01*
X102051D01*
X105175Y252177D01*
Y232786D01*
X104635Y232246D01*
X104300Y231438D01*
Y230562D01*
X104635Y229754D01*
X105254Y229135D01*
X106062Y228800D01*
X106938D01*
X107746Y229135D01*
X108365Y229754D01*
X108700Y230562D01*
Y231438D01*
X108365Y232246D01*
X107826Y232786D01*
Y252726D01*
X107725Y253233D01*
X107437Y253663D01*
X103926Y257174D01*
Y257938D01*
X103591Y258746D01*
X102972Y259365D01*
X102163Y259700D01*
D02*
G37*
G36*
X129438Y232400D02*
X128562D01*
X127754Y232065D01*
X127135Y231446D01*
X126800Y230638D01*
Y229762D01*
X127135Y228954D01*
X127754Y228335D01*
X128562Y228000D01*
X129438D01*
X130246Y228335D01*
X130865Y228954D01*
X131200Y229762D01*
Y230638D01*
X130865Y231446D01*
X130246Y232065D01*
X129438Y232400D01*
D02*
G37*
G36*
X166707Y227200D02*
X165832D01*
X165024Y226865D01*
X164405Y226246D01*
X164070Y225438D01*
Y224562D01*
X164405Y223754D01*
X165024Y223135D01*
X165832Y222800D01*
X166707D01*
X167516Y223135D01*
X168135Y223754D01*
X168470Y224562D01*
Y225438D01*
X168135Y226246D01*
X167516Y226865D01*
X166707Y227200D01*
D02*
G37*
G36*
X139057Y226451D02*
X138182D01*
X137373Y226116D01*
X136755Y225497D01*
X136420Y224689D01*
Y223813D01*
X136755Y223005D01*
X137373Y222386D01*
X138182Y222051D01*
X139057D01*
X139866Y222386D01*
X140485Y223005D01*
X140820Y223813D01*
Y224689D01*
X140485Y225497D01*
X139866Y226116D01*
X139057Y226451D01*
D02*
G37*
G36*
X252438Y243700D02*
X251562D01*
X250754Y243365D01*
X250135Y242746D01*
X249800Y241938D01*
Y241175D01*
X239663Y231037D01*
X239375Y230607D01*
X239275Y230100D01*
Y221677D01*
X238774Y221578D01*
X238632Y221923D01*
X238013Y222542D01*
X237204Y222877D01*
X236329D01*
X235520Y222542D01*
X234901Y221923D01*
X234566Y221115D01*
Y220240D01*
X234901Y219431D01*
X235520Y218812D01*
X236329Y218477D01*
X237204D01*
X238013Y218812D01*
X238632Y219431D01*
X238774Y219776D01*
X239275Y219677D01*
Y203658D01*
X238774Y203559D01*
X238632Y203904D01*
X238013Y204523D01*
X237204Y204858D01*
X236329D01*
X235520Y204523D01*
X234901Y203904D01*
X234566Y203096D01*
Y202220D01*
X234901Y201412D01*
X235520Y200793D01*
X236329Y200458D01*
X237204D01*
X238013Y200793D01*
X238632Y201412D01*
X238774Y201757D01*
X239275Y201658D01*
Y166922D01*
X230069Y157717D01*
X229718Y157647D01*
X229288Y157360D01*
X229101Y157173D01*
X228267D01*
X227459Y156838D01*
X226840Y156219D01*
X226505Y155411D01*
Y154536D01*
X226840Y153727D01*
X227459Y153108D01*
X228267Y152773D01*
X229142D01*
X229951Y153108D01*
X230570Y153727D01*
X230905Y154536D01*
Y155148D01*
X231157Y155198D01*
X231587Y155485D01*
X240715Y164614D01*
X241177Y164422D01*
Y161147D01*
X231530Y151500D01*
X230767D01*
X229959Y151165D01*
X229340Y150546D01*
X229005Y149738D01*
Y148862D01*
X229340Y148054D01*
X229959Y147435D01*
X230767Y147100D01*
X231642D01*
X232451Y147435D01*
X233070Y148054D01*
X233405Y148862D01*
Y149626D01*
X243440Y159660D01*
X243727Y160090D01*
X243828Y160598D01*
Y219653D01*
X253474Y229300D01*
X254238D01*
X255046Y229635D01*
X255665Y230254D01*
X256000Y231062D01*
Y231938D01*
X255665Y232746D01*
X255046Y233365D01*
X254238Y233700D01*
X253362D01*
X252554Y233365D01*
X251935Y232746D01*
X251600Y231938D01*
Y231174D01*
X242387Y221962D01*
X241926Y222153D01*
Y229551D01*
X251675Y239300D01*
X252438D01*
X253246Y239635D01*
X253865Y240254D01*
X254200Y241062D01*
Y241938D01*
X253865Y242746D01*
X253246Y243365D01*
X252438Y243700D01*
D02*
G37*
G36*
X190938Y225039D02*
X190062D01*
X189254Y224704D01*
X188635Y224085D01*
X188300Y223277D01*
Y222401D01*
X188635Y221593D01*
X189254Y220974D01*
X190062Y220639D01*
X190938D01*
X191746Y220974D01*
X192365Y221593D01*
X192700Y222401D01*
Y223277D01*
X192365Y224085D01*
X191746Y224704D01*
X190938Y225039D01*
D02*
G37*
G36*
X203978Y224713D02*
X203103D01*
X202294Y224378D01*
X201675Y223759D01*
X201340Y222950D01*
Y222075D01*
X201675Y221266D01*
X202294Y220648D01*
X203103Y220313D01*
X203978D01*
X204786Y220648D01*
X205405Y221266D01*
X205740Y222075D01*
Y222950D01*
X205405Y223759D01*
X204786Y224378D01*
X203978Y224713D01*
D02*
G37*
G36*
X118938Y215700D02*
X118062D01*
X117254Y215365D01*
X116635Y214746D01*
X116300Y213938D01*
Y213062D01*
X116635Y212254D01*
X117254Y211635D01*
X118062Y211300D01*
X118938D01*
X119746Y211635D01*
X120365Y212254D01*
X120700Y213062D01*
Y213938D01*
X120365Y214746D01*
X119746Y215365D01*
X118938Y215700D01*
D02*
G37*
G36*
X112938Y214454D02*
X112062D01*
X111254Y214119D01*
X110635Y213500D01*
X110300Y212691D01*
Y211816D01*
X110635Y211008D01*
X111254Y210389D01*
X112062Y210054D01*
X112938D01*
X113746Y210389D01*
X114365Y211008D01*
X114700Y211816D01*
Y212691D01*
X114365Y213500D01*
X113746Y214119D01*
X112938Y214454D01*
D02*
G37*
G36*
X204738Y258900D02*
X203862D01*
X203054Y258565D01*
X202435Y257946D01*
X202100Y257138D01*
Y256262D01*
X202435Y255454D01*
X202883Y255006D01*
X158630Y210754D01*
X157867D01*
X157059Y210419D01*
X156440Y209800D01*
X156105Y208991D01*
Y208116D01*
X156440Y207308D01*
X157059Y206689D01*
X157867Y206354D01*
X158742D01*
X159551Y206689D01*
X160170Y207308D01*
X160505Y208116D01*
Y208879D01*
X161569Y209944D01*
X161993Y209661D01*
X161870Y209362D01*
Y208487D01*
X162205Y207679D01*
X162824Y207060D01*
X163632Y206725D01*
X164507D01*
X165316Y207060D01*
X165935Y207679D01*
X166270Y208487D01*
Y209250D01*
X174985Y217965D01*
X175791D01*
X176298Y218066D01*
X176728Y218353D01*
X198674Y240300D01*
X199438D01*
X200246Y240635D01*
X200865Y241254D01*
X201200Y242062D01*
Y242938D01*
X200865Y243746D01*
X200246Y244365D01*
X199438Y244700D01*
X198562D01*
X197754Y244365D01*
X197135Y243746D01*
X196800Y242938D01*
Y242175D01*
X175242Y220616D01*
X174436D01*
X173929Y220515D01*
X173499Y220228D01*
X164395Y211125D01*
X163632D01*
X163334Y211001D01*
X163051Y211425D01*
X205237Y253612D01*
X205525Y254042D01*
X205626Y254549D01*
Y254914D01*
X206165Y255454D01*
X206500Y256262D01*
Y257138D01*
X206165Y257946D01*
X205546Y258565D01*
X204738Y258900D01*
D02*
G37*
G36*
X24438Y233700D02*
X23562D01*
X22754Y233365D01*
X22135Y232746D01*
X21800Y231938D01*
Y231062D01*
X22135Y230254D01*
X22754Y229635D01*
X23562Y229300D01*
X24438D01*
X25246Y229635D01*
X25865Y230254D01*
X25894Y230325D01*
X38188D01*
X38238Y230275D01*
X38668Y229988D01*
X39175Y229887D01*
X52775D01*
X53282Y229988D01*
X53712Y230275D01*
X53761Y230325D01*
X82501D01*
X105647Y207179D01*
X106077Y206892D01*
X106584Y206791D01*
X126821D01*
X126920Y206291D01*
X126473Y206106D01*
X125855Y205487D01*
X125520Y204678D01*
Y203803D01*
X125855Y202994D01*
X126473Y202376D01*
X127282Y202041D01*
X128157D01*
X128966Y202376D01*
X129585Y202994D01*
X129920Y203803D01*
Y204678D01*
X129585Y205487D01*
X128966Y206106D01*
X128519Y206291D01*
X128619Y206791D01*
X150613D01*
X151153Y206251D01*
X151962Y205916D01*
X152837D01*
X153645Y206251D01*
X154264Y206870D01*
X154599Y207679D01*
Y208554D01*
X154264Y209362D01*
X153645Y209981D01*
X152837Y210316D01*
X151962D01*
X151153Y209981D01*
X150613Y209442D01*
X107133D01*
X83987Y232587D01*
X83557Y232875D01*
X83050Y232976D01*
X53212D01*
X52705Y232875D01*
X52275Y232587D01*
X52226Y232538D01*
X39724D01*
X39674Y232587D01*
X39244Y232875D01*
X38737Y232976D01*
X25636D01*
X25246Y233365D01*
X24438Y233700D01*
D02*
G37*
G36*
X213860Y207858D02*
X212985D01*
X212177Y207523D01*
X211558Y206904D01*
X211223Y206096D01*
Y205220D01*
X211558Y204412D01*
X212032Y203938D01*
X211558Y203464D01*
X211223Y202655D01*
Y201780D01*
X211558Y200971D01*
X212177Y200352D01*
X212985Y200017D01*
X213860D01*
X214669Y200352D01*
X215288Y200971D01*
X215623Y201780D01*
Y202655D01*
X215288Y203464D01*
X214814Y203938D01*
X215288Y204412D01*
X215623Y205220D01*
Y206096D01*
X215288Y206904D01*
X214669Y207523D01*
X213860Y207858D01*
D02*
G37*
G36*
X215438Y225823D02*
X214562D01*
X213754Y225488D01*
X213135Y224869D01*
X212800Y224060D01*
Y223185D01*
X213135Y222377D01*
X213674Y221837D01*
Y221549D01*
X182473Y190348D01*
X118584D01*
X118077Y190247D01*
X117647Y189959D01*
X96387Y168700D01*
X95624D01*
X94815Y168365D01*
X94196Y167746D01*
X94125Y167575D01*
X93625Y167674D01*
Y191451D01*
X99863Y197688D01*
X100216Y197335D01*
X101024Y197000D01*
X101900D01*
X102708Y197335D01*
X103327Y197954D01*
X103662Y198762D01*
Y199638D01*
X103327Y200446D01*
X102708Y201065D01*
X101900Y201400D01*
X101024D01*
X100216Y201065D01*
X99597Y200446D01*
X99573Y200388D01*
X99362D01*
X98855Y200287D01*
X98425Y199999D01*
X91363Y192937D01*
X91075Y192507D01*
X90974Y192000D01*
Y150738D01*
X91075Y150230D01*
X91363Y149800D01*
X94300Y146863D01*
Y146100D01*
X94635Y145291D01*
X95254Y144673D01*
X96062Y144338D01*
X96938D01*
X97746Y144673D01*
X98097Y144318D01*
X63563Y109783D01*
X63275Y109353D01*
X63174Y108846D01*
Y95174D01*
X62635Y94634D01*
X62300Y93825D01*
Y92950D01*
X62635Y92142D01*
X63254Y91523D01*
X64062Y91188D01*
X64938D01*
X65746Y91523D01*
X66365Y92142D01*
X66700Y92950D01*
Y93825D01*
X66365Y94634D01*
X65825Y95174D01*
Y108297D01*
X109208Y151679D01*
X113684D01*
X114224Y151140D01*
X115032Y150805D01*
X115907D01*
X116716Y151140D01*
X117335Y151759D01*
X117670Y152567D01*
Y153442D01*
X117335Y154251D01*
X116716Y154870D01*
X115907Y155205D01*
X115032D01*
X114224Y154870D01*
X113684Y154330D01*
X108659D01*
X108151Y154229D01*
X107721Y153942D01*
X98720Y144940D01*
X98365Y145291D01*
X98700Y146100D01*
Y146975D01*
X98365Y147784D01*
X97746Y148403D01*
X96938Y148738D01*
X96175D01*
X93625Y151287D01*
Y165326D01*
X94125Y165425D01*
X94196Y165254D01*
X94815Y164635D01*
X95624Y164300D01*
X96499D01*
X97308Y164635D01*
X97927Y165254D01*
X98262Y166062D01*
Y166825D01*
X119133Y187697D01*
X128177D01*
X128455Y187281D01*
X128300Y186907D01*
Y186032D01*
X128635Y185223D01*
X129254Y184604D01*
X130062Y184269D01*
X130938D01*
X131746Y184604D01*
X132286Y185144D01*
X142517D01*
X146973Y180689D01*
X146875Y180198D01*
X146554Y180065D01*
X145935Y179446D01*
X145600Y178638D01*
Y177762D01*
X145935Y176954D01*
X146480Y176409D01*
X146633Y127950D01*
X146134Y127742D01*
X145920Y127956D01*
X145111Y128291D01*
X144236D01*
X143428Y127956D01*
X142809Y127337D01*
X142474Y126528D01*
Y125653D01*
X142809Y124844D01*
X143428Y124225D01*
X144236Y123891D01*
X145111D01*
X145920Y124225D01*
X146122Y124427D01*
X146620Y124219D01*
X146475Y101955D01*
X146475Y101951D01*
X146475Y101947D01*
Y98546D01*
X146575Y98039D01*
X146863Y97609D01*
X175300Y69172D01*
Y68409D01*
X175635Y67600D01*
X176254Y66982D01*
X177062Y66647D01*
X177938D01*
X178746Y66982D01*
X179365Y67600D01*
X179700Y68409D01*
Y69284D01*
X179365Y70093D01*
X178746Y70712D01*
X177938Y71047D01*
X177174D01*
X149126Y99095D01*
Y101943D01*
X149285Y126241D01*
X149292Y126738D01*
X149295Y126763D01*
X149294Y126775D01*
X149286Y127274D01*
X149131Y176420D01*
X149665Y176954D01*
X149798Y177275D01*
X150288Y177373D01*
X222632Y105029D01*
X222348Y104606D01*
X221638Y104900D01*
X220762D01*
X219954Y104565D01*
X219335Y103946D01*
X219000Y103138D01*
Y102262D01*
X219335Y101454D01*
X219954Y100835D01*
X220762Y100500D01*
X221638D01*
X222446Y100835D01*
X223065Y101454D01*
X223400Y102262D01*
Y103138D01*
X223106Y103848D01*
X223529Y104132D01*
X240212Y87449D01*
X240000Y86938D01*
Y86062D01*
X240335Y85254D01*
X240954Y84635D01*
X241762Y84300D01*
X242638D01*
X243446Y84635D01*
X244065Y85254D01*
X244400Y86062D01*
Y86938D01*
X244065Y87746D01*
X243446Y88365D01*
X242761Y88649D01*
X144213Y187197D01*
X144421Y187697D01*
X183022D01*
X183529Y187798D01*
X183959Y188085D01*
X215937Y220063D01*
X216225Y220493D01*
X216325Y221000D01*
Y221837D01*
X216865Y222377D01*
X217200Y223185D01*
Y224060D01*
X216865Y224869D01*
X216246Y225488D01*
X215438Y225823D01*
D02*
G37*
G36*
X201938Y181700D02*
X201062D01*
X200254Y181365D01*
X199635Y180746D01*
X199300Y179938D01*
Y179062D01*
X199635Y178254D01*
X200254Y177635D01*
X201062Y177300D01*
X201938D01*
X202746Y177635D01*
X203365Y178254D01*
X203700Y179062D01*
Y179938D01*
X203365Y180746D01*
X202746Y181365D01*
X201938Y181700D01*
D02*
G37*
G36*
X215071Y177029D02*
X214196D01*
X213387Y176694D01*
X212769Y176075D01*
X212434Y175267D01*
Y174392D01*
X212769Y173583D01*
X213387Y172964D01*
X214196Y172629D01*
X215071D01*
X215880Y172964D01*
X216499Y173583D01*
X216834Y174392D01*
Y175267D01*
X216499Y176075D01*
X215880Y176694D01*
X215071Y177029D01*
D02*
G37*
G36*
X127738Y172921D02*
X126862D01*
X126054Y172586D01*
X125435Y171967D01*
X125100Y171159D01*
Y170284D01*
X125435Y169475D01*
X126054Y168856D01*
X126862Y168521D01*
X127738D01*
X128546Y168856D01*
X129165Y169475D01*
X129500Y170284D01*
Y171159D01*
X129165Y171967D01*
X128546Y172586D01*
X127738Y172921D01*
D02*
G37*
G36*
X103864Y170265D02*
X102989D01*
X102180Y169930D01*
X101561Y169311D01*
X101227Y168503D01*
Y167627D01*
X101561Y166819D01*
X102180Y166200D01*
X102989Y165865D01*
X103864D01*
X104673Y166200D01*
X105292Y166819D01*
X105627Y167627D01*
Y168503D01*
X105292Y169311D01*
X104673Y169930D01*
X103864Y170265D01*
D02*
G37*
G36*
X133538Y167016D02*
X132662D01*
X131854Y166681D01*
X131235Y166062D01*
X130900Y165253D01*
Y164378D01*
X131235Y163570D01*
X131774Y163030D01*
Y158990D01*
X131700Y158946D01*
X131274Y158837D01*
X130746Y159365D01*
X129938Y159700D01*
X129062D01*
X128254Y159365D01*
X127635Y158746D01*
X127300Y157938D01*
Y157062D01*
X127635Y156254D01*
X128254Y155635D01*
X129062Y155300D01*
X129938D01*
X130746Y155635D01*
X131274Y156163D01*
X131700Y156054D01*
X131774Y156010D01*
Y131049D01*
X105051Y104325D01*
X102786D01*
X102246Y104865D01*
X101438Y105200D01*
X100562D01*
X99754Y104865D01*
X99135Y104246D01*
X98800Y103438D01*
Y102562D01*
X99135Y101754D01*
X99754Y101135D01*
X100562Y100800D01*
X101438D01*
X102246Y101135D01*
X102786Y101674D01*
X105600D01*
X106107Y101775D01*
X106537Y102063D01*
X134037Y129563D01*
X134325Y129993D01*
X134425Y130500D01*
Y163030D01*
X134965Y163570D01*
X135300Y164378D01*
Y165253D01*
X134965Y166062D01*
X134346Y166681D01*
X133538Y167016D01*
D02*
G37*
G36*
X215509Y161110D02*
X214634D01*
X213825Y160775D01*
X213206Y160156D01*
X212871Y159348D01*
Y158473D01*
X213206Y157664D01*
X213825Y157045D01*
X214634Y156710D01*
X215509D01*
X216317Y157045D01*
X216936Y157664D01*
X217271Y158473D01*
Y159348D01*
X216936Y160156D01*
X216317Y160775D01*
X215509Y161110D01*
D02*
G37*
G36*
X104413Y159785D02*
X103538D01*
X102729Y159450D01*
X102111Y158831D01*
X101776Y158022D01*
Y157147D01*
X102111Y156339D01*
X102729Y155720D01*
X103538Y155385D01*
X104413D01*
X105222Y155720D01*
X105841Y156339D01*
X106176Y157147D01*
Y158022D01*
X105841Y158831D01*
X105222Y159450D01*
X104413Y159785D01*
D02*
G37*
G36*
X239709Y148700D02*
X238834D01*
X238025Y148365D01*
X237406Y147746D01*
X237072Y146938D01*
Y146062D01*
X237406Y145254D01*
X238025Y144635D01*
X238834Y144300D01*
X239709D01*
X240518Y144635D01*
X241137Y145254D01*
X241472Y146062D01*
Y146938D01*
X241137Y147746D01*
X240518Y148365D01*
X239709Y148700D01*
D02*
G37*
G36*
X108069Y141942D02*
X107193D01*
X106385Y141607D01*
X105766Y140988D01*
X105431Y140179D01*
Y139304D01*
X105766Y138496D01*
X106385Y137877D01*
X107193Y137542D01*
X108069D01*
X108877Y137877D01*
X109496Y138496D01*
X109831Y139304D01*
Y140179D01*
X109496Y140988D01*
X108877Y141607D01*
X108069Y141942D01*
D02*
G37*
G36*
X127738Y139560D02*
X126862D01*
X126054Y139225D01*
X125435Y138606D01*
X125100Y137798D01*
Y136923D01*
X125435Y136114D01*
X125857Y135691D01*
X125928Y135261D01*
X125826Y135070D01*
X125321Y134566D01*
X124987Y133757D01*
Y132882D01*
X125321Y132073D01*
X125940Y131455D01*
X126749Y131120D01*
X127624D01*
X128433Y131455D01*
X129052Y132073D01*
X129387Y132882D01*
Y133757D01*
X129052Y134566D01*
X128629Y134988D01*
X128559Y135419D01*
X128661Y135610D01*
X129165Y136114D01*
X129500Y136923D01*
Y137798D01*
X129165Y138606D01*
X128546Y139225D01*
X127738Y139560D01*
D02*
G37*
G36*
X239272Y131951D02*
X238396D01*
X237588Y131616D01*
X236969Y130997D01*
X236634Y130189D01*
Y129313D01*
X236969Y128505D01*
X237588Y127886D01*
X238396Y127551D01*
X239272D01*
X240080Y127886D01*
X240699Y128505D01*
X241034Y129313D01*
Y130189D01*
X240699Y130997D01*
X240080Y131616D01*
X239272Y131951D01*
D02*
G37*
G36*
X135938Y124700D02*
X135062D01*
X134254Y124365D01*
X133635Y123746D01*
X133300Y122938D01*
Y122062D01*
X133635Y121254D01*
X134254Y120635D01*
X135062Y120300D01*
X135938D01*
X136746Y120635D01*
X137365Y121254D01*
X137700Y122062D01*
Y122938D01*
X137365Y123746D01*
X136746Y124365D01*
X135938Y124700D01*
D02*
G37*
G36*
X188383Y123700D02*
X187508D01*
X186699Y123365D01*
X186080Y122746D01*
X185745Y121938D01*
Y121062D01*
X186080Y120254D01*
X186699Y119635D01*
X187508Y119300D01*
X188383D01*
X189192Y119635D01*
X189811Y120254D01*
X190145Y121062D01*
Y121938D01*
X189811Y122746D01*
X189192Y123365D01*
X188383Y123700D01*
D02*
G37*
G36*
X174490D02*
X173615D01*
X172807Y123365D01*
X172188Y122746D01*
X171853Y121938D01*
Y121062D01*
X172188Y120254D01*
X172807Y119635D01*
X173615Y119300D01*
X174490D01*
X175299Y119635D01*
X175918Y120254D01*
X176253Y121062D01*
Y121938D01*
X175918Y122746D01*
X175299Y123365D01*
X174490Y123700D01*
D02*
G37*
G36*
X228905Y122218D02*
X228030D01*
X227221Y121883D01*
X226602Y121264D01*
X226267Y120455D01*
Y119580D01*
X226602Y118772D01*
X227221Y118153D01*
X228030Y117818D01*
X228905D01*
X229713Y118153D01*
X230332Y118772D01*
X230667Y119580D01*
Y120455D01*
X230332Y121264D01*
X229713Y121883D01*
X228905Y122218D01*
D02*
G37*
G36*
X107500Y122137D02*
X106625D01*
X105817Y121802D01*
X105198Y121183D01*
X104863Y120375D01*
Y119500D01*
X105198Y118691D01*
X105817Y118072D01*
X106625Y117737D01*
X107500D01*
X108309Y118072D01*
X108928Y118691D01*
X109263Y119500D01*
Y120375D01*
X108928Y121183D01*
X108309Y121802D01*
X107500Y122137D01*
D02*
G37*
G36*
X240955Y120353D02*
X240080D01*
X239272Y120018D01*
X238653Y119399D01*
X238318Y118590D01*
Y117715D01*
X238653Y116907D01*
X239272Y116288D01*
X240080Y115953D01*
X240955D01*
X241764Y116288D01*
X242383Y116907D01*
X242718Y117715D01*
Y118590D01*
X242383Y119399D01*
X241764Y120018D01*
X240955Y120353D01*
D02*
G37*
G36*
X245553Y155385D02*
X244678D01*
X243869Y155050D01*
X243250Y154431D01*
X242915Y153622D01*
Y152747D01*
X243250Y151938D01*
X243790Y151399D01*
Y133444D01*
X243891Y132937D01*
X244178Y132507D01*
X251174Y125511D01*
Y114286D01*
X250635Y113746D01*
X250300Y112938D01*
Y112062D01*
X250635Y111254D01*
X251254Y110635D01*
X252062Y110300D01*
X252938D01*
X253746Y110635D01*
X254365Y111254D01*
X254700Y112062D01*
Y112938D01*
X254365Y113746D01*
X253825Y114286D01*
Y126060D01*
X253725Y126567D01*
X253437Y126997D01*
X250972Y129463D01*
X251069Y129953D01*
X251391Y130086D01*
X252010Y130705D01*
X252344Y131513D01*
Y132389D01*
X252010Y133197D01*
X251391Y133816D01*
X251216Y133888D01*
Y150450D01*
X251502Y150736D01*
X251837Y151545D01*
Y152420D01*
X251502Y153229D01*
X250883Y153848D01*
X250075Y154183D01*
X249200D01*
X248391Y153848D01*
X247815Y153272D01*
X247615Y153297D01*
X247315Y153425D01*
Y153622D01*
X246981Y154431D01*
X246362Y155050D01*
X245553Y155385D01*
D02*
G37*
G36*
X172290Y110634D02*
X171415D01*
X170607Y110299D01*
X169988Y109680D01*
X169653Y108871D01*
Y107996D01*
X169988Y107188D01*
X170607Y106569D01*
X171415Y106234D01*
X172290D01*
X173099Y106569D01*
X173718Y107188D01*
X174053Y107996D01*
Y108871D01*
X173718Y109680D01*
X173099Y110299D01*
X172290Y110634D01*
D02*
G37*
G36*
X187184Y110592D02*
X186309D01*
X185500Y110257D01*
X184881Y109638D01*
X184546Y108830D01*
Y107954D01*
X184881Y107146D01*
X185500Y106527D01*
X186309Y106192D01*
X187184D01*
X187992Y106527D01*
X188611Y107146D01*
X188946Y107954D01*
Y108830D01*
X188611Y109638D01*
X187992Y110257D01*
X187184Y110592D01*
D02*
G37*
G36*
X199191Y103200D02*
X198316D01*
X197508Y102865D01*
X196889Y102246D01*
X196554Y101438D01*
Y100562D01*
X196889Y99754D01*
X197508Y99135D01*
X198316Y98800D01*
X199191D01*
X200000Y99135D01*
X200619Y99754D01*
X200954Y100562D01*
Y101438D01*
X200619Y102246D01*
X200000Y102865D01*
X199191Y103200D01*
D02*
G37*
G36*
X112938Y100600D02*
X112062D01*
X111254Y100265D01*
X110635Y99646D01*
X110300Y98838D01*
Y97962D01*
X110635Y97154D01*
X111254Y96535D01*
X112062Y96200D01*
X112938D01*
X113746Y96535D01*
X114365Y97154D01*
X114700Y97962D01*
Y98838D01*
X114365Y99646D01*
X113746Y100265D01*
X112938Y100600D01*
D02*
G37*
G36*
X122938Y98633D02*
X122062D01*
X121254Y98298D01*
X120635Y97679D01*
X120300Y96871D01*
Y95995D01*
X120635Y95187D01*
X121254Y94568D01*
X122062Y94233D01*
X122938D01*
X123746Y94568D01*
X124365Y95187D01*
X124700Y95995D01*
Y96871D01*
X124365Y97679D01*
X123746Y98298D01*
X122938Y98633D01*
D02*
G37*
G36*
X200438Y89200D02*
X199562D01*
X198754Y88865D01*
X198135Y88246D01*
X197800Y87438D01*
Y86562D01*
X198135Y85754D01*
X198754Y85135D01*
X199562Y84800D01*
X200438D01*
X201246Y85135D01*
X201865Y85754D01*
X202200Y86562D01*
Y87438D01*
X201865Y88246D01*
X201246Y88865D01*
X200438Y89200D01*
D02*
G37*
G36*
X311593Y91304D02*
X310407D01*
X309261Y90997D01*
X308235Y90404D01*
X307396Y89565D01*
X306803Y88538D01*
X306496Y87393D01*
Y86207D01*
X306803Y85062D01*
X307396Y84035D01*
X308235Y83196D01*
X309261Y82603D01*
X310407Y82296D01*
X311593D01*
X312738Y82603D01*
X313766Y83196D01*
X314604Y84035D01*
X315197Y85062D01*
X315504Y86207D01*
Y87393D01*
X315197Y88538D01*
X314604Y89565D01*
X313766Y90404D01*
X312738Y90997D01*
X311593Y91304D01*
D02*
G37*
G36*
X282519D02*
X281333D01*
X280188Y90997D01*
X279161Y90404D01*
X278322Y89565D01*
X277729Y88538D01*
X277422Y87393D01*
Y86207D01*
X277729Y85062D01*
X278322Y84035D01*
X279161Y83196D01*
X280188Y82603D01*
X281333Y82296D01*
X282519D01*
X283665Y82603D01*
X284692Y83196D01*
X285530Y84035D01*
X286123Y85062D01*
X286430Y86207D01*
Y87393D01*
X286123Y88538D01*
X285530Y89565D01*
X284692Y90404D01*
X283665Y90997D01*
X282519Y91304D01*
D02*
G37*
G36*
X43566D02*
X42380D01*
X41235Y90997D01*
X40208Y90404D01*
X39369Y89565D01*
X38776Y88538D01*
X38469Y87393D01*
Y86207D01*
X38776Y85062D01*
X39369Y84035D01*
X40208Y83196D01*
X41235Y82603D01*
X42380Y82296D01*
X43566D01*
X44712Y82603D01*
X45739Y83196D01*
X46577Y84035D01*
X47170Y85062D01*
X47477Y86207D01*
Y87393D01*
X47170Y88538D01*
X46577Y89565D01*
X45739Y90404D01*
X44712Y90997D01*
X43566Y91304D01*
D02*
G37*
G36*
X82552Y91304D02*
X81366D01*
X80221Y90997D01*
X79194Y90404D01*
X78355Y89565D01*
X77762Y88538D01*
X77455Y87393D01*
Y86207D01*
X77762Y85062D01*
X78355Y84035D01*
X79194Y83196D01*
X80221Y82603D01*
X81366Y82296D01*
X82552D01*
X83697Y82603D01*
X84724Y83196D01*
X85563Y84035D01*
X86156Y85062D01*
X86463Y86207D01*
Y87393D01*
X86156Y88538D01*
X85563Y89565D01*
X84724Y90404D01*
X83697Y90997D01*
X82552Y91304D01*
D02*
G37*
G36*
X100945Y82200D02*
X100070D01*
X99262Y81865D01*
X98643Y81246D01*
X98308Y80438D01*
Y79562D01*
X98643Y78754D01*
X99262Y78135D01*
X100070Y77800D01*
X100945D01*
X101754Y78135D01*
X102373Y78754D01*
X102708Y79562D01*
Y80438D01*
X102373Y81246D01*
X101754Y81865D01*
X100945Y82200D01*
D02*
G37*
G36*
X297938Y76700D02*
X297062D01*
X296254Y76365D01*
X295635Y75746D01*
X295300Y74938D01*
Y74062D01*
X295635Y73254D01*
X296254Y72635D01*
X297062Y72300D01*
X297938D01*
X298746Y72635D01*
X299365Y73254D01*
X299700Y74062D01*
Y74938D01*
X299365Y75746D01*
X298746Y76365D01*
X297938Y76700D01*
D02*
G37*
G36*
X97938Y73946D02*
X97062D01*
X96254Y73611D01*
X95635Y72992D01*
X95300Y72184D01*
Y71309D01*
X95635Y70500D01*
X96254Y69881D01*
X97062Y69546D01*
X97938D01*
X98746Y69881D01*
X99365Y70500D01*
X99700Y71309D01*
Y72184D01*
X99365Y72992D01*
X98746Y73611D01*
X97938Y73946D01*
D02*
G37*
G36*
X117938Y72700D02*
X117062D01*
X116254Y72365D01*
X115635Y71746D01*
X115300Y70938D01*
Y70062D01*
X115635Y69254D01*
X116254Y68635D01*
X117062Y68300D01*
X117938D01*
X118746Y68635D01*
X119365Y69254D01*
X119700Y70062D01*
Y70938D01*
X119365Y71746D01*
X118746Y72365D01*
X117938Y72700D01*
D02*
G37*
G36*
X133093Y67555D02*
X131907D01*
X130762Y67248D01*
X129735Y66655D01*
X128896Y65817D01*
X128303Y64790D01*
X127996Y63644D01*
Y62458D01*
X128303Y61313D01*
X128896Y60286D01*
X129735Y59447D01*
X130762Y58854D01*
X131907Y58547D01*
X133093D01*
X134238Y58854D01*
X135266Y59447D01*
X136104Y60286D01*
X136697Y61313D01*
X137004Y62458D01*
Y63644D01*
X136697Y64790D01*
X136104Y65817D01*
X135266Y66655D01*
X134238Y67248D01*
X133093Y67555D01*
D02*
G37*
G36*
X113093D02*
X111907D01*
X110762Y67248D01*
X109734Y66655D01*
X108896Y65817D01*
X108303Y64790D01*
X107996Y63644D01*
Y62458D01*
X108303Y61313D01*
X108896Y60286D01*
X109734Y59447D01*
X110762Y58854D01*
X111907Y58547D01*
X113093D01*
X114238Y58854D01*
X115266Y59447D01*
X116104Y60286D01*
X116697Y61313D01*
X117004Y62458D01*
Y63644D01*
X116697Y64790D01*
X116104Y65817D01*
X115266Y66655D01*
X114238Y67248D01*
X113093Y67555D01*
D02*
G37*
G36*
X204898Y99400D02*
X204022D01*
X203214Y99065D01*
X202595Y98446D01*
X202260Y97638D01*
Y96762D01*
X202595Y95954D01*
X203214Y95335D01*
X204022Y95000D01*
X204785D01*
X247460Y52325D01*
X247253Y51825D01*
X244744D01*
X206695Y89875D01*
Y90638D01*
X206361Y91446D01*
X205742Y92065D01*
X204933Y92400D01*
X204058D01*
X203249Y92065D01*
X202630Y91446D01*
X202295Y90638D01*
Y89762D01*
X202630Y88954D01*
X203249Y88335D01*
X204058Y88000D01*
X204821D01*
X243258Y49563D01*
X243688Y49275D01*
X244195Y49174D01*
X286214D01*
X286754Y48635D01*
X287562Y48300D01*
X288438D01*
X289246Y48635D01*
X289865Y49254D01*
X290200Y50062D01*
Y50938D01*
X289865Y51746D01*
X289246Y52365D01*
X288438Y52700D01*
X287562D01*
X286754Y52365D01*
X286214Y51825D01*
X265345D01*
X265067Y52241D01*
X265200Y52562D01*
Y53438D01*
X264865Y54246D01*
X264246Y54865D01*
X263438Y55200D01*
X262562D01*
X261754Y54865D01*
X261214Y54325D01*
X249209D01*
X206660Y96874D01*
Y97638D01*
X206325Y98446D01*
X205706Y99065D01*
X204898Y99400D01*
D02*
G37*
G36*
X74311Y46271D02*
Y43000D01*
X77582D01*
X77326Y43956D01*
X76829Y44816D01*
X76127Y45518D01*
X75267Y46015D01*
X74311Y46271D01*
D02*
G37*
G36*
X73311D02*
X72355Y46015D01*
X71495Y45518D01*
X70793Y44816D01*
X70296Y43956D01*
X70040Y43000D01*
X73311D01*
Y46271D01*
D02*
G37*
G36*
X213341Y46561D02*
X212466D01*
X211657Y46226D01*
X211038Y45607D01*
X210703Y44798D01*
Y43923D01*
X211038Y43114D01*
X211657Y42496D01*
X212466Y42161D01*
X213341D01*
X214150Y42496D01*
X214769Y43114D01*
X215103Y43923D01*
Y44798D01*
X214769Y45607D01*
X214150Y46226D01*
X213341Y46561D01*
D02*
G37*
G36*
X77582Y42000D02*
X74311D01*
Y38729D01*
X75267Y38985D01*
X76127Y39482D01*
X76829Y40184D01*
X77326Y41044D01*
X77582Y42000D01*
D02*
G37*
G36*
X73311D02*
X70040D01*
X70296Y41044D01*
X70793Y40184D01*
X71495Y39482D01*
X72355Y38985D01*
X73311Y38729D01*
Y42000D01*
D02*
G37*
G36*
X62497Y46272D02*
X61503D01*
X60544Y46015D01*
X59684Y45518D01*
X58982Y44816D01*
X58485Y43956D01*
X58228Y42997D01*
Y42003D01*
X58485Y41044D01*
X58982Y40184D01*
X59684Y39482D01*
X60544Y38985D01*
X61503Y38728D01*
X62497D01*
X63456Y38985D01*
X64316Y39482D01*
X65018Y40184D01*
X65515Y41044D01*
X65772Y42003D01*
Y42997D01*
X65515Y43956D01*
X65018Y44816D01*
X64316Y45518D01*
X63456Y46015D01*
X62497Y46272D01*
D02*
G37*
G36*
X50686D02*
X49692D01*
X48733Y46015D01*
X47873Y45518D01*
X47171Y44816D01*
X46674Y43956D01*
X46417Y42997D01*
Y42003D01*
X46674Y41044D01*
X47171Y40184D01*
X47873Y39482D01*
X48733Y38985D01*
X49692Y38728D01*
X50686D01*
X51645Y38985D01*
X52505Y39482D01*
X53207Y40184D01*
X53704Y41044D01*
X53961Y42003D01*
Y42997D01*
X53704Y43956D01*
X53207Y44816D01*
X52505Y45518D01*
X51645Y46015D01*
X50686Y46272D01*
D02*
G37*
G36*
X86606Y49835D02*
X85523Y49692D01*
X84514Y49274D01*
X83647Y48609D01*
X82982Y47742D01*
X82564Y46733D01*
X82421Y45650D01*
Y39350D01*
X82564Y38267D01*
X82982Y37258D01*
X83647Y36391D01*
X84514Y35726D01*
X85523Y35308D01*
X86606Y35165D01*
X87690Y35308D01*
X88699Y35726D01*
X89566Y36391D01*
X90231Y37258D01*
X90649Y38267D01*
X90792Y39350D01*
Y45650D01*
X90649Y46733D01*
X90231Y47742D01*
X89566Y48609D01*
X88699Y49274D01*
X87690Y49692D01*
X86606Y49835D01*
D02*
G37*
G36*
X37394D02*
X36310Y49692D01*
X35301Y49274D01*
X34434Y48609D01*
X33769Y47742D01*
X33351Y46733D01*
X33208Y45650D01*
Y39350D01*
X33351Y38267D01*
X33769Y37258D01*
X34434Y36391D01*
X35301Y35726D01*
X36310Y35308D01*
X37394Y35165D01*
X38477Y35308D01*
X39487Y35726D01*
X40353Y36391D01*
X41019Y37258D01*
X41437Y38267D01*
X41579Y39350D01*
Y45650D01*
X41437Y46733D01*
X41019Y47742D01*
X40353Y48609D01*
X39487Y49274D01*
X38477Y49692D01*
X37394Y49835D01*
D02*
G37*
G36*
X305169Y27346D02*
X304293D01*
X303485Y27011D01*
X302866Y26392D01*
X302531Y25583D01*
Y24708D01*
X302866Y23899D01*
X303485Y23280D01*
X304293Y22946D01*
X305169D01*
X305977Y23280D01*
X306596Y23899D01*
X306931Y24708D01*
Y25583D01*
X306596Y26392D01*
X305977Y27011D01*
X305169Y27346D01*
D02*
G37*
G36*
X278938Y27200D02*
X278062D01*
X277254Y26865D01*
X276635Y26246D01*
X276300Y25438D01*
Y24562D01*
X276635Y23754D01*
X277254Y23135D01*
X278062Y22800D01*
X278938D01*
X279746Y23135D01*
X280365Y23754D01*
X280700Y24562D01*
Y25438D01*
X280365Y26246D01*
X279746Y26865D01*
X278938Y27200D01*
D02*
G37*
G36*
X334837Y28500D02*
X333163D01*
X331521Y28173D01*
X329974Y27533D01*
X328582Y26602D01*
X327398Y25418D01*
X326467Y24026D01*
X325827Y22479D01*
X325500Y20837D01*
Y19163D01*
X325827Y17521D01*
X326467Y15974D01*
X327398Y14582D01*
X328582Y13398D01*
X329974Y12467D01*
X331521Y11827D01*
X333163Y11500D01*
X334837D01*
X336479Y11827D01*
X338026Y12467D01*
X339418Y13398D01*
X340602Y14582D01*
X341533Y15974D01*
X342173Y17521D01*
X342500Y19163D01*
Y20837D01*
X342173Y22479D01*
X341533Y24026D01*
X340602Y25418D01*
X339418Y26602D01*
X338026Y27533D01*
X336479Y28173D01*
X334837Y28500D01*
D02*
G37*
G36*
X20837D02*
X19163D01*
X17521Y28173D01*
X15974Y27533D01*
X14582Y26602D01*
X13398Y25418D01*
X12467Y24026D01*
X11827Y22479D01*
X11500Y20837D01*
Y19163D01*
X11827Y17521D01*
X12467Y15974D01*
X13398Y14582D01*
X14582Y13398D01*
X15974Y12467D01*
X17521Y11827D01*
X19163Y11500D01*
X20837D01*
X22479Y11827D01*
X24026Y12467D01*
X25418Y13398D01*
X26602Y14582D01*
X27533Y15974D01*
X28173Y17521D01*
X28500Y19163D01*
Y20837D01*
X28173Y22479D01*
X27533Y24026D01*
X26602Y25418D01*
X25418Y26602D01*
X24026Y27533D01*
X22479Y28173D01*
X20837Y28500D01*
D02*
G37*
%LPD*%
G36*
X247138Y151871D02*
X247437Y151742D01*
Y151545D01*
X247772Y150736D01*
X248391Y150118D01*
X248565Y150045D01*
Y133483D01*
X248279Y133197D01*
X248146Y132876D01*
X247656Y132779D01*
X246441Y133994D01*
Y151399D01*
X246937Y151895D01*
X247138Y151871D01*
D02*
G37*
D18*
X147962Y126747D02*
G03*
X147962Y126771I-2500J16D01*
G01*
X147962Y126747D02*
G03*
X147962Y126771I-2500J16D01*
G01*
X96062Y166500D02*
X118584Y189022D01*
X183022D01*
X24150Y231650D02*
X38737D01*
X24000Y231500D02*
X24150Y231650D01*
X38737D02*
X39175Y231212D01*
X245115Y133444D02*
X252500Y126060D01*
X245115Y133444D02*
Y153185D01*
X252500Y112500D02*
Y126060D01*
X249891Y132205D02*
X250145Y131951D01*
X249637Y151983D02*
X249891Y151729D01*
Y132205D02*
Y151729D01*
X147800Y101947D02*
X147962Y126747D01*
X147800Y101947D02*
X147962Y126747D01*
X106500Y231000D02*
Y252726D01*
X101726Y257500D02*
X106500Y252726D01*
X124000Y268562D02*
X124227Y268789D01*
X143789D01*
X144016Y269016D01*
X101000Y103000D02*
X105600D01*
X39175Y231212D02*
X52775D01*
X53212Y231650D01*
X83050D01*
X106584Y208116D01*
X64500Y93388D02*
Y108846D01*
X108659Y153005D01*
X115470D01*
X106584Y208116D02*
X152399D01*
X101324Y199062D02*
X101462Y199200D01*
X99362Y199062D02*
X101324D01*
X92300Y192000D02*
X99362Y199062D01*
X92300Y150738D02*
Y192000D01*
Y150738D02*
X96500Y146538D01*
X105600Y103000D02*
X133100Y130500D01*
Y164816D01*
X147800Y98546D02*
Y101947D01*
Y98546D02*
X177500Y68847D01*
X147800Y178200D02*
X147962Y126771D01*
X215000Y221000D02*
Y223623D01*
X240600Y230100D02*
X252000Y241500D01*
X240600Y166373D02*
Y230100D01*
X242502Y160598D02*
Y220202D01*
X253800Y231500D01*
X230649Y156423D02*
X240600Y166373D01*
X143066Y186469D02*
X241856Y87680D01*
Y86844D02*
X242200Y86500D01*
X130500Y186469D02*
X143066D01*
X241856Y86844D02*
Y87680D01*
X138000Y307600D02*
X141600Y304000D01*
X153000D01*
X174436Y219291D02*
X175791D01*
X199000Y242500D01*
X204460Y97200D02*
X248660Y53000D01*
X263000D01*
X204495Y90200D02*
X244195Y50500D01*
X288000D01*
X183022Y189022D02*
X215000Y221000D01*
X233600Y304939D02*
Y307500D01*
X169598Y240937D02*
X233600Y304939D01*
X160077Y240937D02*
X169598D01*
X156012Y245002D02*
X160077Y240937D01*
X148447Y245002D02*
X156012D01*
X204300Y254549D02*
Y256700D01*
X158305Y208554D02*
X204300Y254549D01*
X231205Y149300D02*
X242502Y160598D01*
X228776Y154973D02*
X230225Y156423D01*
X230649D01*
X228705Y154973D02*
X228776D01*
X164070Y208925D02*
X174436Y219291D01*
D76*
X42973Y86800D02*
D03*
Y266800D02*
D03*
X281926D02*
D03*
Y86800D02*
D03*
D77*
X81959Y266800D02*
D03*
Y86800D02*
D03*
X311000Y86800D02*
D03*
Y266800D02*
D03*
X132500Y63051D02*
D03*
X112500D02*
D03*
D78*
X86606Y42500D02*
D03*
X37394D02*
D03*
D79*
X62000D02*
D03*
X73811D02*
D03*
X50189D02*
D03*
D81*
X20000Y20000D02*
D03*
X334000D02*
D03*
Y334000D02*
D03*
X20000D02*
D03*
D82*
X96062Y166500D02*
D03*
X144674Y126091D02*
D03*
X108000Y271500D02*
D03*
X24000Y231500D02*
D03*
X252500Y112500D02*
D03*
X245115Y153185D02*
D03*
X250145Y131951D02*
D03*
X249637Y151983D02*
D03*
X101726Y257500D02*
D03*
X124000Y268562D02*
D03*
X103427Y168065D02*
D03*
X113040Y133757D02*
D03*
X101000Y103000D02*
D03*
X64500Y93388D02*
D03*
X101462Y199200D02*
D03*
X100508Y80000D02*
D03*
X97500Y71746D02*
D03*
X96500Y146538D02*
D03*
X112500Y93800D02*
D03*
Y98400D02*
D03*
X111794Y148738D02*
D03*
X106500Y231000D02*
D03*
X99399Y175662D02*
D03*
X239272Y146500D02*
D03*
X159772Y69284D02*
D03*
X252949Y88365D02*
D03*
X177500Y68847D02*
D03*
X172000Y60559D02*
D03*
X221200Y92728D02*
D03*
X259500Y44760D02*
D03*
X134864Y221000D02*
D03*
X170123Y262086D02*
D03*
X176159Y108374D02*
D03*
X229795Y125437D02*
D03*
X240518Y118153D02*
D03*
X238834Y129751D02*
D03*
X201500Y179500D02*
D03*
X212769D02*
D03*
X214634Y174829D02*
D03*
X226335Y160879D02*
D03*
X215071Y158910D02*
D03*
X171853Y108434D02*
D03*
X201681Y110257D02*
D03*
X158877Y108374D02*
D03*
X198754Y101000D02*
D03*
X186746Y108392D02*
D03*
X228467Y120018D02*
D03*
X187945Y121500D02*
D03*
X174053D02*
D03*
X125925Y114417D02*
D03*
X107063Y119937D02*
D03*
X107631Y139742D02*
D03*
X127300Y137360D02*
D03*
X127187Y133320D02*
D03*
X103976Y157585D02*
D03*
X115470Y153005D02*
D03*
X114500Y166055D02*
D03*
X127300Y170721D02*
D03*
X248329Y244744D02*
D03*
X215000Y223623D02*
D03*
X114700Y198540D02*
D03*
X112500Y212254D02*
D03*
X127720Y204241D02*
D03*
X236766Y202658D02*
D03*
X213423Y205658D02*
D03*
Y202217D02*
D03*
X252000Y241500D02*
D03*
X236766Y220677D02*
D03*
X230200Y209347D02*
D03*
X147800Y178200D02*
D03*
X129000Y230200D02*
D03*
X203540Y222513D02*
D03*
X190500Y222839D02*
D03*
X166270Y225000D02*
D03*
X138620Y224251D02*
D03*
X118500Y213500D02*
D03*
X129500Y157500D02*
D03*
X135500Y122500D02*
D03*
X245683Y188500D02*
D03*
X198853Y301000D02*
D03*
X240000Y95500D02*
D03*
X117500Y70500D02*
D03*
X71466Y75200D02*
D03*
X297500Y74500D02*
D03*
X89332Y54668D02*
D03*
X122500Y96433D02*
D03*
X200000Y87000D02*
D03*
X221200Y102700D02*
D03*
X151521Y255292D02*
D03*
X143578Y274937D02*
D03*
X199000Y242500D02*
D03*
X204460Y97200D02*
D03*
X204495Y90200D02*
D03*
X262500Y293000D02*
D03*
X212903Y44361D02*
D03*
X196988Y309962D02*
D03*
X202500Y308637D02*
D03*
X157045Y254329D02*
D03*
X153000Y304000D02*
D03*
X176600Y284045D02*
D03*
X176756Y262500D02*
D03*
X163953Y292647D02*
D03*
X138000Y307600D02*
D03*
X304731Y25146D02*
D03*
X278500Y25000D02*
D03*
X219418Y37300D02*
D03*
X242200Y86500D02*
D03*
X263000Y53000D02*
D03*
X204300Y256700D02*
D03*
X288000Y50500D02*
D03*
X94500Y322400D02*
D03*
X55244Y281000D02*
D03*
X42825Y317400D02*
D03*
X292244Y279000D02*
D03*
X228705Y154973D02*
D03*
X130500Y186469D02*
D03*
X158305Y208554D02*
D03*
X164070Y208925D02*
D03*
X152399Y208116D02*
D03*
X233600Y307500D02*
D03*
X148447Y245002D02*
D03*
X144016Y269016D02*
D03*
X253800Y231500D02*
D03*
X231205Y149300D02*
D03*
X133100Y164816D02*
D03*
X90800Y280500D02*
D03*
M02*
