G04*
G04 #@! TF.GenerationSoftware,Altium Limited,Altium Designer,23.11.1 (41)*
G04*
G04 Layer_Color=255*
%FSLAX25Y25*%
%MOIN*%
G70*
G04*
G04 #@! TF.SameCoordinates,3206F265-2646-4181-9204-0E6D39A93BEF*
G04*
G04*
G04 #@! TF.FilePolarity,Positive*
G04*
G01*
G75*
G04:AMPARAMS|DCode=22|XSize=21.65mil|YSize=19.68mil|CornerRadius=2.46mil|HoleSize=0mil|Usage=FLASHONLY|Rotation=90.000|XOffset=0mil|YOffset=0mil|HoleType=Round|Shape=RoundedRectangle|*
%AMROUNDEDRECTD22*
21,1,0.02165,0.01476,0,0,90.0*
21,1,0.01673,0.01968,0,0,90.0*
1,1,0.00492,0.00738,0.00837*
1,1,0.00492,0.00738,-0.00837*
1,1,0.00492,-0.00738,-0.00837*
1,1,0.00492,-0.00738,0.00837*
%
%ADD22ROUNDEDRECTD22*%
%ADD76C,0.07008*%
%ADD77C,0.03504*%
%ADD78O,0.06299X0.12598*%
%ADD79C,0.05543*%
%ADD80R,0.05543X0.05543*%
%ADD81C,0.06000*%
%ADD84R,0.09016X0.05000*%
%ADD85R,0.07480X0.04213*%
D22*
X205000Y179500D02*
D03*
X208543D02*
D03*
D76*
X42973Y86800D02*
D03*
Y266800D02*
D03*
X281926D02*
D03*
Y86800D02*
D03*
D77*
X81959Y266800D02*
D03*
Y86800D02*
D03*
X311000Y86800D02*
D03*
Y266800D02*
D03*
X132500Y63051D02*
D03*
X112500D02*
D03*
D78*
X86606Y42500D02*
D03*
X37394D02*
D03*
D79*
X62000D02*
D03*
X50189D02*
D03*
D80*
X73811D02*
D03*
D81*
X20000Y20000D02*
D03*
X334000D02*
D03*
Y334000D02*
D03*
X20000D02*
D03*
D84*
X72018Y271800D02*
D03*
X91900D02*
D03*
X72018Y261800D02*
D03*
X91900D02*
D03*
X72018Y251800D02*
D03*
X91900D02*
D03*
X72018Y241800D02*
D03*
X91900D02*
D03*
X72018Y231800D02*
D03*
X91900D02*
D03*
X72018Y221800D02*
D03*
X91900D02*
D03*
X72018Y211800D02*
D03*
X91900D02*
D03*
X72018Y201800D02*
D03*
X91900D02*
D03*
X72018Y191800D02*
D03*
X91900D02*
D03*
X72018Y181800D02*
D03*
X91900D02*
D03*
X72018Y171800D02*
D03*
X91900D02*
D03*
X72018Y161800D02*
D03*
X91900D02*
D03*
X72018Y151800D02*
D03*
X91900D02*
D03*
X72018Y141800D02*
D03*
X91900D02*
D03*
X72018Y131800D02*
D03*
X91900D02*
D03*
X72018Y121800D02*
D03*
X91900D02*
D03*
X72018Y111800D02*
D03*
X91900D02*
D03*
X72018Y101800D02*
D03*
X91900D02*
D03*
X72018Y91800D02*
D03*
X91900D02*
D03*
X72018Y81800D02*
D03*
X91900D02*
D03*
X320941Y81800D02*
D03*
X301059D02*
D03*
X320941Y91800D02*
D03*
X301059D02*
D03*
X320941Y101800D02*
D03*
X301059D02*
D03*
X320941Y111800D02*
D03*
X301059D02*
D03*
X320941Y121800D02*
D03*
X301059D02*
D03*
X320941Y131800D02*
D03*
X301059D02*
D03*
X320941Y141800D02*
D03*
X301059D02*
D03*
X320941Y151800D02*
D03*
X301059D02*
D03*
X320941Y161800D02*
D03*
X301059D02*
D03*
X320941Y171800D02*
D03*
X301059D02*
D03*
X320941Y181800D02*
D03*
X301059D02*
D03*
X320941Y191800D02*
D03*
X301059D02*
D03*
X320941Y201800D02*
D03*
X301059D02*
D03*
X320941Y211800D02*
D03*
X301059D02*
D03*
X320941Y221800D02*
D03*
X301059D02*
D03*
X320941Y231800D02*
D03*
X301059D02*
D03*
X320941Y241800D02*
D03*
X301059D02*
D03*
X320941Y251800D02*
D03*
X301059D02*
D03*
X320941Y261800D02*
D03*
X301059D02*
D03*
X320941Y271800D02*
D03*
X301059D02*
D03*
D85*
X152762Y102700D02*
D03*
Y97700D02*
D03*
Y92700D02*
D03*
Y87700D02*
D03*
Y82700D02*
D03*
Y77700D02*
D03*
X210400Y62700D02*
D03*
Y67700D02*
D03*
X152762Y72700D02*
D03*
X210400Y77700D02*
D03*
Y82700D02*
D03*
Y87700D02*
D03*
Y92700D02*
D03*
Y97700D02*
D03*
Y102700D02*
D03*
Y107700D02*
D03*
Y112700D02*
D03*
Y117700D02*
D03*
Y122700D02*
D03*
X152762Y67700D02*
D03*
X210400Y127700D02*
D03*
Y132700D02*
D03*
Y137700D02*
D03*
X152762D02*
D03*
Y132700D02*
D03*
Y127700D02*
D03*
Y122700D02*
D03*
Y117700D02*
D03*
Y112700D02*
D03*
Y107700D02*
D03*
Y62700D02*
D03*
X210400Y72700D02*
D03*
M02*
