G04*
G04 #@! TF.GenerationSoftware,Altium Limited,Altium Designer,23.11.1 (41)*
G04*
G04 Layer_Color=255*
%FSLAX25Y25*%
%MOIN*%
G70*
G04*
G04 #@! TF.SameCoordinates,3206F265-2646-4181-9204-0E6D39A93BEF*
G04*
G04*
G04 #@! TF.FilePolarity,Positive*
G04*
G01*
G75*
%ADD19R,0.12500X0.04488*%
%ADD20R,0.02756X0.03543*%
%ADD21R,0.03543X0.02756*%
G04:AMPARAMS|DCode=22|XSize=21.65mil|YSize=19.68mil|CornerRadius=2.46mil|HoleSize=0mil|Usage=FLASHONLY|Rotation=90.000|XOffset=0mil|YOffset=0mil|HoleType=Round|Shape=RoundedRectangle|*
%AMROUNDEDRECTD22*
21,1,0.02165,0.01476,0,0,90.0*
21,1,0.01673,0.01968,0,0,90.0*
1,1,0.00492,0.00738,0.00837*
1,1,0.00492,0.00738,-0.00837*
1,1,0.00492,-0.00738,-0.00837*
1,1,0.00492,-0.00738,0.00837*
%
%ADD22ROUNDEDRECTD22*%
G04:AMPARAMS|DCode=23|XSize=21.65mil|YSize=19.68mil|CornerRadius=2.46mil|HoleSize=0mil|Usage=FLASHONLY|Rotation=0.000|XOffset=0mil|YOffset=0mil|HoleType=Round|Shape=RoundedRectangle|*
%AMROUNDEDRECTD23*
21,1,0.02165,0.01476,0,0,0.0*
21,1,0.01673,0.01968,0,0,0.0*
1,1,0.00492,0.00837,-0.00738*
1,1,0.00492,-0.00837,-0.00738*
1,1,0.00492,-0.00837,0.00738*
1,1,0.00492,0.00837,0.00738*
%
%ADD23ROUNDEDRECTD23*%
%ADD24R,0.01181X0.05709*%
%ADD25R,0.05709X0.01181*%
G04:AMPARAMS|DCode=26|XSize=51.18mil|YSize=29.92mil|CornerRadius=3.74mil|HoleSize=0mil|Usage=FLASHONLY|Rotation=90.000|XOffset=0mil|YOffset=0mil|HoleType=Round|Shape=RoundedRectangle|*
%AMROUNDEDRECTD26*
21,1,0.05118,0.02244,0,0,90.0*
21,1,0.04370,0.02992,0,0,90.0*
1,1,0.00748,0.01122,0.02185*
1,1,0.00748,0.01122,-0.02185*
1,1,0.00748,-0.01122,-0.02185*
1,1,0.00748,-0.01122,0.02185*
%
%ADD26ROUNDEDRECTD26*%
%ADD27R,0.05000X0.12520*%
%ADD28R,0.03150X0.03543*%
%ADD29R,0.03150X0.04882*%
%ADD30R,0.03740X0.09843*%
%ADD31R,0.04528X0.08661*%
%ADD32R,0.04567X0.04921*%
%ADD33R,0.04567X0.04724*%
%ADD34R,0.05906X0.04528*%
%ADD35R,0.00984X0.01870*%
%ADD36R,0.01870X0.00984*%
%ADD37R,0.03543X0.02559*%
%ADD38R,0.03740X0.03543*%
%ADD39R,0.02205X0.01575*%
%ADD40R,0.07598X0.02756*%
%ADD41R,0.02362X0.04331*%
%ADD42R,0.06693X0.05512*%
%ADD43R,0.03543X0.03150*%
%ADD76C,0.07008*%
%ADD77C,0.03504*%
%ADD78O,0.06299X0.12598*%
%ADD79C,0.05543*%
%ADD80R,0.05543X0.05543*%
%ADD81C,0.06000*%
D19*
X53218Y81800D02*
D03*
X32725D02*
D03*
X53218Y91800D02*
D03*
X32725D02*
D03*
X53218Y101800D02*
D03*
X32725D02*
D03*
X53218Y111800D02*
D03*
X32725D02*
D03*
X53218Y121800D02*
D03*
X32725D02*
D03*
X53218Y131800D02*
D03*
X32725D02*
D03*
X53218Y141800D02*
D03*
X32725D02*
D03*
X53218Y151800D02*
D03*
X32725D02*
D03*
X53218Y161800D02*
D03*
X32725D02*
D03*
X53218Y171800D02*
D03*
X32725D02*
D03*
X53218Y181800D02*
D03*
X32725D02*
D03*
X53218Y191800D02*
D03*
X32725D02*
D03*
X53218Y201800D02*
D03*
X32725D02*
D03*
X53218Y211800D02*
D03*
X32725D02*
D03*
X53218Y221800D02*
D03*
X32725D02*
D03*
X53218Y231800D02*
D03*
X32725D02*
D03*
X53218Y241800D02*
D03*
X32725D02*
D03*
X53218Y251800D02*
D03*
X32725D02*
D03*
X53218Y261800D02*
D03*
X32725D02*
D03*
X53218Y271800D02*
D03*
X32725D02*
D03*
X271678Y251800D02*
D03*
Y271800D02*
D03*
X292171D02*
D03*
X271678Y261800D02*
D03*
X292171D02*
D03*
Y251800D02*
D03*
X271678Y241800D02*
D03*
X292171D02*
D03*
X271678Y231800D02*
D03*
X292171D02*
D03*
X271678Y221800D02*
D03*
X292171D02*
D03*
X271678Y211800D02*
D03*
X292171D02*
D03*
X271678Y201800D02*
D03*
X292171D02*
D03*
X271678Y191800D02*
D03*
X292171D02*
D03*
X271678Y181800D02*
D03*
X292171D02*
D03*
X271678Y171800D02*
D03*
X292171D02*
D03*
X271678Y161800D02*
D03*
X292171D02*
D03*
X271678Y151800D02*
D03*
X292171D02*
D03*
X271678Y141800D02*
D03*
X292171D02*
D03*
X271678Y131800D02*
D03*
X292171D02*
D03*
X271678Y121800D02*
D03*
X292171D02*
D03*
X271678Y111800D02*
D03*
X292171D02*
D03*
X271678Y101800D02*
D03*
X292171D02*
D03*
X271678Y91800D02*
D03*
X292171D02*
D03*
X271678Y81800D02*
D03*
X292171D02*
D03*
D20*
X162594Y72500D02*
D03*
X168500D02*
D03*
X249453Y91500D02*
D03*
X243547D02*
D03*
X175547Y64500D02*
D03*
X181453D02*
D03*
X221200Y87746D02*
D03*
X215294D02*
D03*
X86028Y180106D02*
D03*
X80122D02*
D03*
X97483D02*
D03*
X103388D02*
D03*
X235547Y188500D02*
D03*
X241453D02*
D03*
X233000Y95500D02*
D03*
X227094D02*
D03*
X288453Y303500D02*
D03*
X282547D02*
D03*
X154088Y311854D02*
D03*
X148182D02*
D03*
X158047Y300000D02*
D03*
X163953D02*
D03*
X169047Y277737D02*
D03*
X174953D02*
D03*
D21*
X254437Y43972D02*
D03*
Y38067D02*
D03*
X233500Y230953D02*
D03*
Y225047D02*
D03*
X240500Y237222D02*
D03*
Y243127D02*
D03*
X198853Y296953D02*
D03*
Y291047D02*
D03*
D22*
X239359Y121492D02*
D03*
X235816D02*
D03*
X183508Y108315D02*
D03*
X179964D02*
D03*
X166419Y108374D02*
D03*
X162876D02*
D03*
X110650Y118000D02*
D03*
X114194D02*
D03*
X110451Y137635D02*
D03*
X113994D02*
D03*
X107631Y157585D02*
D03*
X111174D02*
D03*
X107084Y168065D02*
D03*
X110627D02*
D03*
X239272Y150000D02*
D03*
X235728D02*
D03*
X231604Y200770D02*
D03*
X228061D02*
D03*
X231604Y205511D02*
D03*
X228061D02*
D03*
D23*
X201750Y103513D02*
D03*
Y107056D02*
D03*
X113215Y205957D02*
D03*
Y202414D02*
D03*
X129109Y226548D02*
D03*
Y223005D02*
D03*
D24*
X132714Y215898D02*
D03*
X207517Y115702D02*
D03*
X213423Y215898D02*
D03*
X211454D02*
D03*
X209486D02*
D03*
X207517D02*
D03*
X205549D02*
D03*
X203580D02*
D03*
X201612D02*
D03*
X199643D02*
D03*
X197675D02*
D03*
X195706D02*
D03*
X193738D02*
D03*
X191769D02*
D03*
X189801D02*
D03*
X187832D02*
D03*
X185864D02*
D03*
X183895D02*
D03*
X181927D02*
D03*
X179958D02*
D03*
X177990D02*
D03*
X176021D02*
D03*
X174053D02*
D03*
X172084D02*
D03*
X170116D02*
D03*
X168147D02*
D03*
X166179D02*
D03*
X164210D02*
D03*
X162242D02*
D03*
X160273D02*
D03*
X158305D02*
D03*
X156336D02*
D03*
X154368D02*
D03*
X152399D02*
D03*
X150431D02*
D03*
X148462D02*
D03*
X146494D02*
D03*
X144525D02*
D03*
X142557D02*
D03*
X140588D02*
D03*
X138620D02*
D03*
X136651D02*
D03*
X134683D02*
D03*
X130746D02*
D03*
X128777D02*
D03*
Y115702D02*
D03*
X130746D02*
D03*
X132714D02*
D03*
X134683D02*
D03*
X136651D02*
D03*
X138620D02*
D03*
X140588D02*
D03*
X142557D02*
D03*
X144525D02*
D03*
X146494D02*
D03*
X148462D02*
D03*
X150431D02*
D03*
X152399D02*
D03*
X154368D02*
D03*
X156336D02*
D03*
X158305D02*
D03*
X160273D02*
D03*
X162242D02*
D03*
X164210D02*
D03*
X166179D02*
D03*
X168147D02*
D03*
X170116D02*
D03*
X172084D02*
D03*
X174053D02*
D03*
X176021D02*
D03*
X177990D02*
D03*
X179958D02*
D03*
X181927D02*
D03*
X183895D02*
D03*
X185864D02*
D03*
X187832D02*
D03*
X189801D02*
D03*
X191769D02*
D03*
X193738D02*
D03*
X195706D02*
D03*
X197675D02*
D03*
X199643D02*
D03*
X201612D02*
D03*
X203580D02*
D03*
X205549D02*
D03*
X209486D02*
D03*
X211454D02*
D03*
X213423D02*
D03*
D25*
X221198Y186469D02*
D03*
X121002Y208123D02*
D03*
Y206154D02*
D03*
Y204186D02*
D03*
Y202217D02*
D03*
Y200249D02*
D03*
Y198280D02*
D03*
Y196312D02*
D03*
Y194343D02*
D03*
Y192375D02*
D03*
Y190406D02*
D03*
Y188438D02*
D03*
Y186469D02*
D03*
Y184501D02*
D03*
Y182532D02*
D03*
Y180564D02*
D03*
Y178595D02*
D03*
Y176627D02*
D03*
Y174658D02*
D03*
Y172690D02*
D03*
Y170721D02*
D03*
Y168753D02*
D03*
Y166784D02*
D03*
Y164816D02*
D03*
Y162847D02*
D03*
Y160879D02*
D03*
Y158910D02*
D03*
Y156942D02*
D03*
Y154973D02*
D03*
Y153005D02*
D03*
Y151036D02*
D03*
Y149068D02*
D03*
Y147099D02*
D03*
Y145131D02*
D03*
Y143162D02*
D03*
Y141194D02*
D03*
Y139225D02*
D03*
Y137257D02*
D03*
Y135288D02*
D03*
Y133320D02*
D03*
Y131351D02*
D03*
Y129383D02*
D03*
Y127414D02*
D03*
Y125446D02*
D03*
Y123477D02*
D03*
X221198D02*
D03*
Y125446D02*
D03*
Y127414D02*
D03*
Y129383D02*
D03*
Y131351D02*
D03*
Y133320D02*
D03*
Y135288D02*
D03*
Y137257D02*
D03*
Y139225D02*
D03*
Y141194D02*
D03*
Y143162D02*
D03*
Y145131D02*
D03*
Y147099D02*
D03*
Y149068D02*
D03*
Y151036D02*
D03*
Y153005D02*
D03*
Y154973D02*
D03*
Y156942D02*
D03*
Y158910D02*
D03*
Y160879D02*
D03*
Y162847D02*
D03*
Y164816D02*
D03*
Y166784D02*
D03*
Y168753D02*
D03*
Y170721D02*
D03*
Y172690D02*
D03*
Y174658D02*
D03*
Y176627D02*
D03*
Y178595D02*
D03*
Y180564D02*
D03*
Y182532D02*
D03*
Y184501D02*
D03*
Y188438D02*
D03*
Y190406D02*
D03*
Y192375D02*
D03*
Y194343D02*
D03*
Y196312D02*
D03*
Y198280D02*
D03*
Y200249D02*
D03*
Y202217D02*
D03*
Y204186D02*
D03*
Y206154D02*
D03*
Y208123D02*
D03*
D26*
X236766Y215062D02*
D03*
X229719D02*
D03*
D27*
X137500Y96496D02*
D03*
Y80000D02*
D03*
X127500Y96496D02*
D03*
Y80000D02*
D03*
X117500Y96496D02*
D03*
Y80000D02*
D03*
X107500Y96496D02*
D03*
Y80000D02*
D03*
D28*
X157541Y260905D02*
D03*
X152029D02*
D03*
X170763Y268392D02*
D03*
X176275D02*
D03*
X196988Y316175D02*
D03*
X202500D02*
D03*
D29*
X231472Y30546D02*
D03*
X227142D02*
D03*
X222811D02*
D03*
X218480D02*
D03*
X214150D02*
D03*
X209819D02*
D03*
X205488D02*
D03*
X201157D02*
D03*
D30*
X248579Y33026D02*
D03*
D31*
X191925Y32435D02*
D03*
X248579Y77632D02*
D03*
D32*
X193500Y40900D02*
D03*
D33*
X193717Y76333D02*
D03*
D34*
X201000Y80762D02*
D03*
X231630D02*
D03*
D35*
X153108Y275577D02*
D03*
X155077D02*
D03*
X157045D02*
D03*
Y268392D02*
D03*
X155077D02*
D03*
X153108D02*
D03*
D36*
X159653Y274937D02*
D03*
Y272969D02*
D03*
Y271000D02*
D03*
Y269032D02*
D03*
X150500D02*
D03*
Y271000D02*
D03*
Y272969D02*
D03*
Y274937D02*
D03*
D37*
X296500Y25146D02*
D03*
Y30854D02*
D03*
X271500Y25000D02*
D03*
Y30709D02*
D03*
D38*
X296500Y41020D02*
D03*
Y48500D02*
D03*
X271500Y41020D02*
D03*
Y48500D02*
D03*
D39*
X293921Y44760D02*
D03*
X299079D02*
D03*
X268921D02*
D03*
X274079D02*
D03*
D40*
X215457Y321000D02*
D03*
Y316000D02*
D03*
Y311000D02*
D03*
Y306000D02*
D03*
Y301000D02*
D03*
Y296000D02*
D03*
Y291000D02*
D03*
Y286000D02*
D03*
X252543D02*
D03*
Y291000D02*
D03*
Y296000D02*
D03*
Y301000D02*
D03*
Y306000D02*
D03*
Y311000D02*
D03*
Y316000D02*
D03*
Y321000D02*
D03*
D41*
X133921Y321500D02*
D03*
X129000D02*
D03*
X124079D02*
D03*
X119157D02*
D03*
Y312839D02*
D03*
X124079D02*
D03*
X129000D02*
D03*
X133921D02*
D03*
D42*
X51900Y317400D02*
D03*
X78278D02*
D03*
X51900Y301652D02*
D03*
X78278D02*
D03*
D43*
X103000Y310244D02*
D03*
Y315756D02*
D03*
X90826Y293000D02*
D03*
Y287488D02*
D03*
D76*
X42973Y86800D02*
D03*
Y266800D02*
D03*
X281926D02*
D03*
Y86800D02*
D03*
D77*
X81959Y266800D02*
D03*
Y86800D02*
D03*
X311000Y86800D02*
D03*
Y266800D02*
D03*
X132500Y63051D02*
D03*
X112500D02*
D03*
D78*
X86606Y42500D02*
D03*
X37394D02*
D03*
D79*
X62000D02*
D03*
X50189D02*
D03*
D80*
X73811D02*
D03*
D81*
X20000Y20000D02*
D03*
X334000D02*
D03*
Y334000D02*
D03*
X20000D02*
D03*
M02*
