G04*
G04 #@! TF.GenerationSoftware,Altium Limited,Altium Designer,23.11.1 (41)*
G04*
G04 Layer_Physical_Order=4*
G04 Layer_Color=16711680*
%FSLAX25Y25*%
%MOIN*%
G70*
G04*
G04 #@! TF.SameCoordinates,3206F265-2646-4181-9204-0E6D39A93BEF*
G04*
G04*
G04 #@! TF.FilePolarity,Positive*
G04*
G01*
G75*
%ADD18C,0.00600*%
G04:AMPARAMS|DCode=22|XSize=21.65mil|YSize=19.68mil|CornerRadius=2.46mil|HoleSize=0mil|Usage=FLASHONLY|Rotation=90.000|XOffset=0mil|YOffset=0mil|HoleType=Round|Shape=RoundedRectangle|*
%AMROUNDEDRECTD22*
21,1,0.02165,0.01476,0,0,90.0*
21,1,0.01673,0.01968,0,0,90.0*
1,1,0.00492,0.00738,0.00837*
1,1,0.00492,0.00738,-0.00837*
1,1,0.00492,-0.00738,-0.00837*
1,1,0.00492,-0.00738,0.00837*
%
%ADD22ROUNDEDRECTD22*%
%ADD76C,0.07008*%
%ADD77C,0.03504*%
%ADD78O,0.06299X0.12598*%
%ADD79C,0.05543*%
%ADD80R,0.05543X0.05543*%
%ADD81C,0.06000*%
%ADD82C,0.02400*%
%ADD83C,0.00600*%
%ADD84R,0.09016X0.05000*%
%ADD85R,0.07480X0.04213*%
D18*
X98098Y95290D02*
G03*
X98091Y95283I418J-431D01*
G01*
X98098Y95290D02*
G03*
X98091Y95283I418J-431D01*
G01*
X72018Y271800D02*
X91900D01*
X298708Y131800D02*
Y141800D01*
Y211800D02*
Y221800D01*
Y151800D02*
Y161500D01*
Y171800D01*
X318590Y241800D02*
Y251800D01*
Y141800D02*
Y151800D01*
Y101800D02*
Y111800D01*
Y191800D02*
Y201800D01*
Y131800D02*
Y141800D01*
X298708Y251800D02*
Y261800D01*
Y181800D02*
Y191800D01*
Y261800D02*
Y271500D01*
X318590Y91500D02*
Y101800D01*
X298708Y201800D02*
Y211800D01*
X318590Y111800D02*
Y121800D01*
Y201800D02*
Y211800D01*
Y171800D02*
Y181800D01*
X298708Y231800D02*
Y241500D01*
Y221800D02*
Y231800D01*
X318590D02*
Y241800D01*
X301059Y91800D02*
X320941D01*
X318590Y151800D02*
Y161500D01*
Y261800D02*
Y271500D01*
X298708Y241500D02*
Y251800D01*
X318590Y161500D02*
Y171800D01*
X298708D02*
Y181800D01*
Y91500D02*
Y101800D01*
Y141800D02*
Y151800D01*
Y111800D02*
Y121800D01*
Y191800D02*
Y201800D01*
X318590Y221800D02*
Y231800D01*
X298708Y121800D02*
Y131800D01*
X318590Y181800D02*
Y191800D01*
Y211800D02*
Y221800D01*
X298708Y101800D02*
Y111800D01*
X318590Y121800D02*
Y131800D01*
Y251800D02*
Y261800D01*
X71466Y75200D02*
Y81909D01*
Y75200D02*
Y81909D01*
X138000Y118925D02*
X141575Y122500D01*
X152562D01*
X92200Y271500D02*
X108000D01*
X92200Y261500D02*
Y271500D01*
Y251500D02*
Y261500D01*
Y241500D02*
Y251500D01*
Y231500D02*
Y241500D01*
Y221500D02*
Y231500D01*
Y211500D02*
Y221500D01*
Y201500D02*
Y211500D01*
Y191500D02*
Y201500D01*
Y181500D02*
Y191500D01*
Y171500D02*
Y181500D01*
Y161500D02*
Y171500D01*
Y151500D02*
Y161500D01*
Y141500D02*
Y151500D01*
Y131500D02*
Y141500D01*
Y121500D02*
Y131500D01*
Y111500D02*
Y121500D01*
Y101500D02*
Y111500D01*
Y91500D02*
Y101500D01*
X298708Y81500D02*
X318590D01*
X97915Y95107D02*
X98091Y95283D01*
X98098Y95290D02*
X98098Y95290D01*
X298708Y241500D02*
Y271500D01*
X98098Y95290D02*
X98098Y95290D01*
X97915Y95107D02*
X98091Y95283D01*
X298708Y76695D02*
Y81500D01*
X70868Y82507D02*
X71466Y81909D01*
X72318Y91500D02*
Y101500D01*
Y111500D01*
Y121500D01*
Y131500D01*
Y141500D01*
Y151500D01*
Y161500D01*
Y171500D01*
Y181500D01*
Y191500D01*
Y201500D01*
Y211500D01*
Y221500D01*
Y231500D01*
Y241500D01*
Y251500D01*
Y261500D01*
Y271500D01*
X97915Y94631D02*
Y94859D01*
Y94859D02*
Y95107D01*
X98098Y95290D02*
X133609Y128660D01*
X143959D01*
X146405Y131107D01*
X151169D02*
X152762Y132700D01*
X146405Y131107D02*
X151169D01*
X98008Y72998D02*
Y94538D01*
X97500Y71746D02*
X97844Y72091D01*
Y72834D01*
X98008Y72998D01*
X100000Y82400D02*
Y93000D01*
Y82400D02*
X100508Y80000D01*
X100000Y93000D02*
X125925Y118925D01*
X97915Y94631D02*
X98008Y94538D01*
X125925Y118925D02*
X138000D01*
X72318Y81500D02*
X92200D01*
X112500Y98400D02*
X131607Y79294D01*
X151169D01*
X193847Y141107D02*
X227479D01*
X238834Y129751D01*
X201500Y179500D02*
X205000D01*
X209438D02*
X212769D01*
X177034Y124294D02*
X193847Y141107D01*
X154356Y124294D02*
X177034D01*
X152762Y122700D02*
X154356Y124294D01*
X152562Y122500D02*
X152762Y122700D01*
X122500Y96433D02*
X143767Y117700D01*
X152762D01*
X71466Y75200D02*
X71810Y75544D01*
X297500Y74500D02*
Y74987D01*
X298704Y76691D02*
X298708Y76695D01*
X297500Y74987D02*
X298704Y76191D01*
Y76691D01*
X77164Y42500D02*
X89332Y54668D01*
X73811Y42500D02*
X77164D01*
X62000D02*
X71099Y33401D01*
X210400Y72700D02*
X211994Y71107D01*
X71099Y33401D02*
X188786D01*
X215440Y60055D01*
Y70345D01*
X214678Y71107D02*
X215440Y70345D01*
X211994Y71107D02*
X214678D01*
X151169Y79294D02*
X152762Y77700D01*
X190700D02*
X200000Y87000D01*
X152762Y77700D02*
X190700D01*
X210400Y102700D02*
X221200D01*
X294500Y273700D02*
Y276744D01*
X296700Y271500D02*
X298708D01*
X294500Y273700D02*
X296700Y271500D01*
X292244Y279000D02*
X294500Y276744D01*
D22*
X205000Y179500D02*
D03*
X208543D02*
D03*
D76*
X42973Y86800D02*
D03*
Y266800D02*
D03*
X281926D02*
D03*
Y86800D02*
D03*
D77*
X81959Y266800D02*
D03*
Y86800D02*
D03*
X311000Y86800D02*
D03*
Y266800D02*
D03*
X132500Y63051D02*
D03*
X112500D02*
D03*
D78*
X86606Y42500D02*
D03*
X37394D02*
D03*
D79*
X62000D02*
D03*
X50189D02*
D03*
D80*
X73811D02*
D03*
D81*
X20000Y20000D02*
D03*
X334000D02*
D03*
Y334000D02*
D03*
X20000D02*
D03*
D82*
X96062Y166500D02*
D03*
X144674Y126091D02*
D03*
X108000Y271500D02*
D03*
X24000Y231500D02*
D03*
X252500Y112500D02*
D03*
X245115Y153185D02*
D03*
X250145Y131951D02*
D03*
X249637Y151983D02*
D03*
X101726Y257500D02*
D03*
X124000Y268562D02*
D03*
X103427Y168065D02*
D03*
X113040Y133757D02*
D03*
X101000Y103000D02*
D03*
X64500Y93388D02*
D03*
X101462Y199200D02*
D03*
X100508Y80000D02*
D03*
X97500Y71746D02*
D03*
X96500Y146538D02*
D03*
X112500Y93800D02*
D03*
Y98400D02*
D03*
X111794Y148738D02*
D03*
X106500Y231000D02*
D03*
X99399Y175662D02*
D03*
X239272Y146500D02*
D03*
X159772Y69284D02*
D03*
X252949Y88365D02*
D03*
X177500Y68847D02*
D03*
X172000Y60559D02*
D03*
X221200Y92728D02*
D03*
X259500Y44760D02*
D03*
X134864Y221000D02*
D03*
X170123Y262086D02*
D03*
X176159Y108374D02*
D03*
X229795Y125437D02*
D03*
X240518Y118153D02*
D03*
X238834Y129751D02*
D03*
X201500Y179500D02*
D03*
X212769D02*
D03*
X214634Y174829D02*
D03*
X226335Y160879D02*
D03*
X215071Y158910D02*
D03*
X171853Y108434D02*
D03*
X201681Y110257D02*
D03*
X158877Y108374D02*
D03*
X198754Y101000D02*
D03*
X186746Y108392D02*
D03*
X228467Y120018D02*
D03*
X187945Y121500D02*
D03*
X174053D02*
D03*
X125925Y114417D02*
D03*
X107063Y119937D02*
D03*
X107631Y139742D02*
D03*
X127300Y137360D02*
D03*
X127187Y133320D02*
D03*
X103976Y157585D02*
D03*
X115470Y153005D02*
D03*
X114500Y166055D02*
D03*
X127300Y170721D02*
D03*
X248329Y244744D02*
D03*
X215000Y223623D02*
D03*
X114700Y198540D02*
D03*
X112500Y212254D02*
D03*
X127720Y204241D02*
D03*
X236766Y202658D02*
D03*
X213423Y205658D02*
D03*
Y202217D02*
D03*
X252000Y241500D02*
D03*
X236766Y220677D02*
D03*
X230200Y209347D02*
D03*
X147800Y178200D02*
D03*
X129000Y230200D02*
D03*
X203540Y222513D02*
D03*
X190500Y222839D02*
D03*
X166270Y225000D02*
D03*
X138620Y224251D02*
D03*
X118500Y213500D02*
D03*
X129500Y157500D02*
D03*
X135500Y122500D02*
D03*
X245683Y188500D02*
D03*
X198853Y301000D02*
D03*
X240000Y95500D02*
D03*
X117500Y70500D02*
D03*
X71466Y75200D02*
D03*
X297500Y74500D02*
D03*
X89332Y54668D02*
D03*
X122500Y96433D02*
D03*
X200000Y87000D02*
D03*
X221200Y102700D02*
D03*
X151521Y255292D02*
D03*
X143578Y274937D02*
D03*
X199000Y242500D02*
D03*
X204460Y97200D02*
D03*
X204495Y90200D02*
D03*
X262500Y293000D02*
D03*
X212903Y44361D02*
D03*
X196988Y309962D02*
D03*
X202500Y308637D02*
D03*
X157045Y254329D02*
D03*
X153000Y304000D02*
D03*
X176600Y284045D02*
D03*
X176756Y262500D02*
D03*
X163953Y292647D02*
D03*
X138000Y307600D02*
D03*
X304731Y25146D02*
D03*
X278500Y25000D02*
D03*
X219418Y37300D02*
D03*
X242200Y86500D02*
D03*
X263000Y53000D02*
D03*
X204300Y256700D02*
D03*
X288000Y50500D02*
D03*
X94500Y322400D02*
D03*
X55244Y281000D02*
D03*
X42825Y317400D02*
D03*
X292244Y279000D02*
D03*
X228705Y154973D02*
D03*
X130500Y186469D02*
D03*
X158305Y208554D02*
D03*
X164070Y208925D02*
D03*
X152399Y208116D02*
D03*
X233600Y307500D02*
D03*
X148447Y245002D02*
D03*
X144016Y269016D02*
D03*
X253800Y231500D02*
D03*
X231205Y149300D02*
D03*
X133100Y164816D02*
D03*
X90800Y280500D02*
D03*
D83*
X98098Y95290D02*
D03*
D03*
X97915Y94859D02*
D03*
D84*
X72018Y271800D02*
D03*
X91900D02*
D03*
X72018Y261800D02*
D03*
X91900D02*
D03*
X72018Y251800D02*
D03*
X91900D02*
D03*
X72018Y241800D02*
D03*
X91900D02*
D03*
X72018Y231800D02*
D03*
X91900D02*
D03*
X72018Y221800D02*
D03*
X91900D02*
D03*
X72018Y211800D02*
D03*
X91900D02*
D03*
X72018Y201800D02*
D03*
X91900D02*
D03*
X72018Y191800D02*
D03*
X91900D02*
D03*
X72018Y181800D02*
D03*
X91900D02*
D03*
X72018Y171800D02*
D03*
X91900D02*
D03*
X72018Y161800D02*
D03*
X91900D02*
D03*
X72018Y151800D02*
D03*
X91900D02*
D03*
X72018Y141800D02*
D03*
X91900D02*
D03*
X72018Y131800D02*
D03*
X91900D02*
D03*
X72018Y121800D02*
D03*
X91900D02*
D03*
X72018Y111800D02*
D03*
X91900D02*
D03*
X72018Y101800D02*
D03*
X91900D02*
D03*
X72018Y91800D02*
D03*
X91900D02*
D03*
X72018Y81800D02*
D03*
X91900D02*
D03*
X320941Y81800D02*
D03*
X301059D02*
D03*
X320941Y91800D02*
D03*
X301059D02*
D03*
X320941Y101800D02*
D03*
X301059D02*
D03*
X320941Y111800D02*
D03*
X301059D02*
D03*
X320941Y121800D02*
D03*
X301059D02*
D03*
X320941Y131800D02*
D03*
X301059D02*
D03*
X320941Y141800D02*
D03*
X301059D02*
D03*
X320941Y151800D02*
D03*
X301059D02*
D03*
X320941Y161800D02*
D03*
X301059D02*
D03*
X320941Y171800D02*
D03*
X301059D02*
D03*
X320941Y181800D02*
D03*
X301059D02*
D03*
X320941Y191800D02*
D03*
X301059D02*
D03*
X320941Y201800D02*
D03*
X301059D02*
D03*
X320941Y211800D02*
D03*
X301059D02*
D03*
X320941Y221800D02*
D03*
X301059D02*
D03*
X320941Y231800D02*
D03*
X301059D02*
D03*
X320941Y241800D02*
D03*
X301059D02*
D03*
X320941Y251800D02*
D03*
X301059D02*
D03*
X320941Y261800D02*
D03*
X301059D02*
D03*
X320941Y271800D02*
D03*
X301059D02*
D03*
D85*
X152762Y102700D02*
D03*
Y97700D02*
D03*
Y92700D02*
D03*
Y87700D02*
D03*
Y82700D02*
D03*
Y77700D02*
D03*
X210400Y62700D02*
D03*
Y67700D02*
D03*
X152762Y72700D02*
D03*
X210400Y77700D02*
D03*
Y82700D02*
D03*
Y87700D02*
D03*
Y92700D02*
D03*
Y97700D02*
D03*
Y102700D02*
D03*
Y107700D02*
D03*
Y112700D02*
D03*
Y117700D02*
D03*
Y122700D02*
D03*
X152762Y67700D02*
D03*
X210400Y127700D02*
D03*
Y132700D02*
D03*
Y137700D02*
D03*
X152762D02*
D03*
Y132700D02*
D03*
Y127700D02*
D03*
Y122700D02*
D03*
Y117700D02*
D03*
Y112700D02*
D03*
Y107700D02*
D03*
Y62700D02*
D03*
X210400Y72700D02*
D03*
M02*
