G04*
G04 #@! TF.GenerationSoftware,Altium Limited,Altium Designer,23.11.1 (41)*
G04*
G04 Layer_Color=32896*
%FSLAX25Y25*%
%MOIN*%
G70*
G04*
G04 #@! TF.SameCoordinates,3206F265-2646-4181-9204-0E6D39A93BEF*
G04*
G04*
G04 #@! TF.FilePolarity,Positive*
G04*
G01*
G75*
%ADD10C,0.00787*%
%ADD12C,0.01000*%
%ADD13C,0.00591*%
%ADD14C,0.00394*%
%ADD15C,0.00500*%
%ADD16C,0.00800*%
G36*
X315411Y332085D02*
X315293D01*
Y331966D01*
X315175D01*
Y331730D01*
X315057D01*
Y331611D01*
X314938D01*
Y331493D01*
X314820D01*
Y331257D01*
X314702D01*
Y331138D01*
X314584D01*
Y331020D01*
X314465D01*
Y330784D01*
X314347D01*
Y330665D01*
X314229D01*
Y330547D01*
X314111D01*
Y330311D01*
X313992D01*
Y330192D01*
X314111D01*
Y326881D01*
X314229D01*
Y326644D01*
X314347D01*
Y326526D01*
X314465D01*
Y326289D01*
X314584D01*
Y326171D01*
X314702D01*
Y326053D01*
X314820D01*
Y325816D01*
X314938D01*
Y325698D01*
X315057D01*
Y325580D01*
X315175D01*
Y325343D01*
X315293D01*
Y325225D01*
X315411D01*
Y325107D01*
X308670D01*
Y325225D01*
X308434D01*
Y325462D01*
X308315D01*
Y325580D01*
X308197D01*
Y325698D01*
X308079D01*
Y325816D01*
X307961D01*
Y325935D01*
X307842D01*
Y326053D01*
X307724D01*
Y326171D01*
X307606D01*
Y326289D01*
X307488D01*
Y326408D01*
X307369D01*
Y326526D01*
X307251D01*
Y326644D01*
X307133D01*
Y326763D01*
X307014D01*
Y326881D01*
X306896D01*
Y326999D01*
X287973D01*
Y327117D01*
X274017D01*
Y326999D01*
X267631D01*
Y327117D01*
X265975D01*
Y327236D01*
X264792D01*
Y327354D01*
X263846D01*
Y327472D01*
X263137D01*
Y327590D01*
X262427D01*
Y327709D01*
X261954D01*
Y327827D01*
X261363D01*
Y327945D01*
X260889D01*
Y328064D01*
X260416D01*
Y328182D01*
X259943D01*
Y328300D01*
X259589D01*
Y328418D01*
X259234D01*
Y328537D01*
X258879D01*
Y328773D01*
X259234D01*
Y328891D01*
X259589D01*
Y329010D01*
X260062D01*
Y329128D01*
X260416D01*
Y329246D01*
X260889D01*
Y329364D01*
X261363D01*
Y329483D01*
X261954D01*
Y329601D01*
X262545D01*
Y329719D01*
X263137D01*
Y329837D01*
X263846D01*
Y329956D01*
X264792D01*
Y330074D01*
X265857D01*
Y330192D01*
X267394D01*
Y330311D01*
X306896D01*
Y330429D01*
X307014D01*
Y330547D01*
X307133D01*
Y330665D01*
X307251D01*
Y330784D01*
X307369D01*
Y330902D01*
X307488D01*
Y331020D01*
X307606D01*
Y331138D01*
X307724D01*
Y331257D01*
X307842D01*
Y331375D01*
X307961D01*
Y331493D01*
X308079D01*
Y331611D01*
X308197D01*
Y331848D01*
X308315D01*
Y331966D01*
X308552D01*
Y332085D01*
X308788D01*
Y332203D01*
X315411D01*
Y332085D01*
D02*
G37*
G36*
X321089Y330192D02*
X321798D01*
Y330074D01*
X322271D01*
Y329956D01*
X322626D01*
Y329837D01*
X322981D01*
Y329719D01*
X323336D01*
Y329601D01*
X323572D01*
Y329483D01*
X323809D01*
Y329364D01*
X324045D01*
Y329246D01*
X324282D01*
Y329128D01*
X324518D01*
Y329010D01*
X324637D01*
Y328891D01*
X324873D01*
Y328773D01*
X324991D01*
Y328655D01*
X325110D01*
Y328537D01*
X325346D01*
Y328418D01*
X325464D01*
Y328300D01*
X325583D01*
Y328182D01*
X325701D01*
Y328064D01*
X325819D01*
Y327945D01*
X325938D01*
Y327827D01*
X326056D01*
Y327709D01*
X326174D01*
Y327590D01*
X326292D01*
Y327472D01*
X326411D01*
Y327236D01*
X326529D01*
Y327117D01*
X326647D01*
Y326999D01*
X326765D01*
Y326763D01*
X326884D01*
Y326644D01*
X327002D01*
Y326408D01*
X327120D01*
Y326171D01*
X327238D01*
Y325935D01*
X327357D01*
Y325698D01*
X327475D01*
Y325462D01*
X327593D01*
Y325107D01*
X327712D01*
Y324870D01*
X327830D01*
Y324397D01*
X327948D01*
Y323924D01*
X328066D01*
Y323333D01*
X328185D01*
Y321914D01*
X328303D01*
Y321677D01*
X328185D01*
Y320258D01*
X328066D01*
Y319548D01*
X327948D01*
Y318957D01*
X327830D01*
Y318602D01*
X327712D01*
Y318247D01*
X327593D01*
Y317892D01*
X327475D01*
Y317537D01*
X327357D01*
Y317183D01*
X327238D01*
Y316946D01*
X327120D01*
Y316710D01*
X327002D01*
Y316473D01*
X326884D01*
Y316236D01*
X326765D01*
Y316118D01*
X326647D01*
Y315882D01*
X326529D01*
Y315645D01*
X326411D01*
Y315527D01*
X326292D01*
Y315409D01*
X326174D01*
Y315172D01*
X326056D01*
Y315054D01*
X325938D01*
Y314936D01*
X325819D01*
Y314817D01*
X325701D01*
Y314699D01*
X325583D01*
Y314581D01*
X325464D01*
Y314462D01*
X325346D01*
Y314344D01*
X325228D01*
Y314226D01*
X325110D01*
Y314108D01*
X324991D01*
Y313989D01*
X324873D01*
Y313871D01*
X324637D01*
Y313753D01*
X324518D01*
Y313635D01*
X324400D01*
Y313516D01*
X324164D01*
Y313398D01*
X323927D01*
Y313280D01*
X323809D01*
Y313161D01*
X323572D01*
Y313043D01*
X323217D01*
Y312925D01*
X322981D01*
Y312807D01*
X322626D01*
Y312688D01*
X322271D01*
Y312570D01*
X321798D01*
Y312452D01*
X321325D01*
Y312334D01*
X320497D01*
Y312215D01*
X319078D01*
Y312097D01*
X316121D01*
Y312215D01*
X312691D01*
Y312097D01*
X312336D01*
Y311979D01*
X311982D01*
Y311861D01*
X311745D01*
Y311742D01*
X311509D01*
Y311624D01*
X311272D01*
Y311506D01*
X311154D01*
Y311387D01*
X310917D01*
Y311269D01*
X310799D01*
Y311151D01*
X310681D01*
Y311033D01*
X310562D01*
Y310914D01*
X310444D01*
Y310796D01*
X310326D01*
Y310678D01*
X310208D01*
Y310560D01*
X310089D01*
Y310441D01*
X309971D01*
Y310323D01*
X309853D01*
Y310205D01*
X309735D01*
Y309968D01*
X309616D01*
Y309850D01*
X309498D01*
Y309613D01*
X309380D01*
Y309377D01*
X309261D01*
Y309140D01*
X309143D01*
Y308904D01*
X309025D01*
Y308549D01*
X308907D01*
Y308194D01*
X308788D01*
Y307603D01*
X308670D01*
Y306302D01*
X308552D01*
Y305947D01*
X308670D01*
Y304646D01*
X308788D01*
Y304173D01*
X308907D01*
Y303818D01*
X309025D01*
Y303464D01*
X309143D01*
Y303227D01*
X309261D01*
Y303109D01*
X309380D01*
Y302872D01*
X309498D01*
Y302754D01*
X309616D01*
Y302517D01*
X309735D01*
Y302399D01*
X309853D01*
Y302281D01*
X309971D01*
Y302163D01*
X310089D01*
Y302044D01*
X310208D01*
Y301926D01*
X310326D01*
Y301808D01*
X310562D01*
Y301689D01*
X310681D01*
Y301571D01*
X310917D01*
Y301453D01*
X311036D01*
Y301335D01*
X311272D01*
Y301216D01*
X311509D01*
Y301098D01*
X311863D01*
Y300980D01*
X312218D01*
Y300862D01*
X312810D01*
Y300743D01*
X327712D01*
Y300625D01*
X327948D01*
Y300507D01*
X328066D01*
Y300389D01*
X328185D01*
Y300270D01*
X328421D01*
Y300152D01*
X328539D01*
Y300034D01*
X328776D01*
Y299915D01*
X328894D01*
Y299797D01*
X329131D01*
Y299679D01*
X329249D01*
Y299561D01*
X329486D01*
Y299442D01*
X329604D01*
Y299324D01*
X329722D01*
Y299206D01*
X329959D01*
Y299088D01*
X330077D01*
Y298969D01*
X330313D01*
Y298851D01*
X330432D01*
Y298733D01*
X330668D01*
Y298614D01*
X330786D01*
Y298496D01*
X331023D01*
Y298378D01*
X331141D01*
Y298260D01*
X331378D01*
Y298141D01*
X331496D01*
Y298023D01*
X331614D01*
Y297905D01*
X331851D01*
Y297786D01*
X331969D01*
Y297668D01*
X332206D01*
Y297432D01*
X313992D01*
Y297550D01*
X311745D01*
Y297668D01*
X311154D01*
Y297786D01*
X310799D01*
Y297905D01*
X310444D01*
Y298023D01*
X310089D01*
Y298141D01*
X309853D01*
Y298260D01*
X309616D01*
Y298378D01*
X309380D01*
Y298496D01*
X309143D01*
Y298614D01*
X309025D01*
Y298733D01*
X308788D01*
Y298851D01*
X308670D01*
Y298969D01*
X308434D01*
Y299088D01*
X308315D01*
Y299206D01*
X308197D01*
Y299324D01*
X308079D01*
Y299442D01*
X307961D01*
Y299561D01*
X307842D01*
Y299679D01*
X307724D01*
Y299797D01*
X307606D01*
Y299915D01*
X307488D01*
Y300034D01*
X307369D01*
Y300152D01*
X307251D01*
Y300270D01*
X307133D01*
Y300507D01*
X307014D01*
Y300625D01*
X306896D01*
Y300743D01*
X306778D01*
Y300980D01*
X306660D01*
Y301098D01*
X306541D01*
Y301335D01*
X306423D01*
Y301571D01*
X306305D01*
Y301808D01*
X306187D01*
Y302044D01*
X306068D01*
Y302281D01*
X305950D01*
Y302517D01*
X305832D01*
Y302872D01*
X305714D01*
Y303227D01*
X305595D01*
Y303582D01*
X305477D01*
Y304055D01*
X305359D01*
Y304883D01*
X305240D01*
Y307012D01*
X305359D01*
Y307839D01*
X305477D01*
Y308431D01*
X305595D01*
Y308904D01*
X305714D01*
Y309377D01*
X305832D01*
Y309732D01*
X305950D01*
Y310086D01*
X306068D01*
Y310323D01*
X306187D01*
Y310678D01*
X306305D01*
Y310914D01*
X306423D01*
Y311151D01*
X306541D01*
Y311269D01*
X306660D01*
Y311506D01*
X306778D01*
Y311742D01*
X306896D01*
Y311861D01*
X307014D01*
Y312097D01*
X307133D01*
Y312215D01*
X307251D01*
Y312334D01*
X307369D01*
Y312452D01*
X307488D01*
Y312688D01*
X307606D01*
Y312807D01*
X307724D01*
Y312925D01*
X307842D01*
Y313043D01*
X307961D01*
Y313161D01*
X308079D01*
Y313280D01*
X308197D01*
Y313398D01*
X308315D01*
Y313516D01*
X308434D01*
Y313635D01*
X308552D01*
Y313753D01*
X308788D01*
Y313871D01*
X308907D01*
Y313989D01*
X309025D01*
Y314108D01*
X309261D01*
Y314226D01*
X309380D01*
Y314344D01*
X309616D01*
Y314462D01*
X309853D01*
Y314581D01*
X309971D01*
Y314699D01*
X310208D01*
Y314817D01*
X310444D01*
Y314936D01*
X310799D01*
Y315054D01*
X311036D01*
Y315172D01*
X311390D01*
Y315290D01*
X311863D01*
Y315409D01*
X312336D01*
Y315527D01*
X315057D01*
Y315409D01*
X315411D01*
Y315527D01*
X318250D01*
Y315645D01*
X319314D01*
Y315527D01*
X320615D01*
Y315645D01*
X321207D01*
Y315763D01*
X321562D01*
Y315882D01*
X321798D01*
Y316000D01*
X322035D01*
Y316118D01*
X322271D01*
Y316236D01*
X322389D01*
Y316355D01*
X322508D01*
Y316473D01*
X322744D01*
Y316591D01*
X322863D01*
Y316710D01*
X322981D01*
Y316828D01*
X323099D01*
Y316946D01*
X323217D01*
Y317064D01*
X323336D01*
Y317183D01*
X323454D01*
Y317301D01*
X323572D01*
Y317537D01*
X323690D01*
Y317656D01*
X323809D01*
Y317892D01*
X323927D01*
Y318011D01*
X324045D01*
Y318247D01*
X324164D01*
Y318484D01*
X324282D01*
Y318720D01*
X324400D01*
Y318957D01*
X324518D01*
Y319311D01*
X324637D01*
Y319666D01*
X324755D01*
Y320139D01*
X324873D01*
Y322860D01*
X324755D01*
Y323333D01*
X324637D01*
Y323806D01*
X324518D01*
Y324161D01*
X324400D01*
Y324397D01*
X324282D01*
Y324634D01*
X324164D01*
Y324870D01*
X324045D01*
Y325107D01*
X323927D01*
Y325225D01*
X323809D01*
Y325343D01*
X323690D01*
Y325462D01*
X323572D01*
Y325698D01*
X323454D01*
Y325816D01*
X323217D01*
Y325935D01*
X323099D01*
Y326053D01*
X322981D01*
Y326171D01*
X322744D01*
Y326289D01*
X322626D01*
Y326408D01*
X322389D01*
Y326526D01*
X322153D01*
Y326644D01*
X321798D01*
Y326763D01*
X321443D01*
Y326881D01*
X320852D01*
Y326999D01*
X316003D01*
Y327117D01*
X315885D01*
Y329719D01*
X315766D01*
Y330192D01*
X315885D01*
Y330311D01*
X321089D01*
Y330192D01*
D02*
G37*
G36*
X281941Y320258D02*
X282769D01*
Y320139D01*
X283242D01*
Y320021D01*
X283597D01*
Y319903D01*
X283952D01*
Y319785D01*
X284189D01*
Y319666D01*
X284425D01*
Y319548D01*
X284662D01*
Y319430D01*
X284898D01*
Y319311D01*
X285016D01*
Y319193D01*
X285253D01*
Y319075D01*
X285371D01*
Y318957D01*
X285608D01*
Y318839D01*
X285726D01*
Y318720D01*
X285844D01*
Y318602D01*
X285963D01*
Y318484D01*
X286081D01*
Y318365D01*
X286199D01*
Y318247D01*
X286317D01*
Y318129D01*
X286436D01*
Y318011D01*
X286554D01*
Y317774D01*
X286672D01*
Y317656D01*
X286790D01*
Y317419D01*
X286909D01*
Y317301D01*
X287027D01*
Y317064D01*
X287145D01*
Y316828D01*
X287263D01*
Y316591D01*
X287382D01*
Y316355D01*
X287500D01*
Y316000D01*
X287618D01*
Y315527D01*
X287737D01*
Y315054D01*
X287855D01*
Y310205D01*
X287973D01*
Y307248D01*
X287855D01*
Y302281D01*
X287737D01*
Y301689D01*
X287618D01*
Y301335D01*
X287500D01*
Y300980D01*
X287382D01*
Y300743D01*
X287263D01*
Y300507D01*
X287145D01*
Y300270D01*
X287027D01*
Y300034D01*
X286909D01*
Y299915D01*
X286790D01*
Y299797D01*
X286672D01*
Y299561D01*
X286554D01*
Y299442D01*
X286436D01*
Y299324D01*
X286317D01*
Y299206D01*
X286199D01*
Y299088D01*
X286081D01*
Y298969D01*
X285963D01*
Y298851D01*
X285844D01*
Y298733D01*
X285726D01*
Y298614D01*
X285608D01*
Y298496D01*
X285489D01*
Y298378D01*
X285371D01*
Y298260D01*
X285016D01*
Y308313D01*
X284780D01*
Y308194D01*
X284543D01*
Y308076D01*
X284425D01*
Y307958D01*
X284307D01*
Y307839D01*
X284070D01*
Y307721D01*
X283952D01*
Y307603D01*
X283715D01*
Y307485D01*
X283597D01*
Y307366D01*
X283361D01*
Y307248D01*
X283242D01*
Y307130D01*
X283124D01*
Y306539D01*
X283242D01*
Y306184D01*
X283124D01*
Y306302D01*
X282414D01*
Y306420D01*
X281705D01*
Y306539D01*
X281587D01*
Y306420D01*
X281350D01*
Y304883D01*
X281114D01*
Y304764D01*
X280877D01*
Y304883D01*
X280759D01*
Y305001D01*
X280640D01*
Y306065D01*
X280759D01*
Y306184D01*
X280640D01*
Y306420D01*
X280404D01*
Y306539D01*
X280286D01*
Y306420D01*
X279694D01*
Y306302D01*
X278748D01*
Y306539D01*
X278866D01*
Y307012D01*
X278748D01*
Y307248D01*
X278512D01*
Y307366D01*
X278393D01*
Y307485D01*
X278275D01*
Y307603D01*
X278039D01*
Y307721D01*
X277920D01*
Y307839D01*
X277684D01*
Y307958D01*
X277565D01*
Y308076D01*
X277329D01*
Y308194D01*
X277211D01*
Y308313D01*
X276974D01*
Y308194D01*
X276856D01*
Y298141D01*
X276737D01*
Y298260D01*
X276619D01*
Y298378D01*
X276383D01*
Y298496D01*
X276264D01*
Y298614D01*
X276146D01*
Y298733D01*
X276028D01*
Y298851D01*
X275910D01*
Y298969D01*
X275791D01*
Y299088D01*
X275673D01*
Y299206D01*
X275555D01*
Y299324D01*
X275436D01*
Y299561D01*
X275318D01*
Y299679D01*
X275200D01*
Y299797D01*
X275082D01*
Y300034D01*
X274963D01*
Y300152D01*
X274845D01*
Y300389D01*
X274727D01*
Y300625D01*
X274609D01*
Y300862D01*
X274490D01*
Y301216D01*
X274372D01*
Y301571D01*
X274254D01*
Y302044D01*
X274136D01*
Y303109D01*
X274017D01*
Y314226D01*
X274136D01*
Y315172D01*
X274254D01*
Y315645D01*
X274372D01*
Y316118D01*
X274490D01*
Y316473D01*
X274609D01*
Y316710D01*
X274727D01*
Y316946D01*
X274845D01*
Y317183D01*
X274963D01*
Y317301D01*
X275082D01*
Y317537D01*
X275200D01*
Y317656D01*
X275318D01*
Y317892D01*
X275436D01*
Y318011D01*
X275555D01*
Y318129D01*
X275673D01*
Y318247D01*
X275791D01*
Y318365D01*
X275910D01*
Y318484D01*
X276028D01*
Y318602D01*
X276146D01*
Y318720D01*
X276264D01*
Y318839D01*
X276383D01*
Y318957D01*
X276619D01*
Y319075D01*
X276737D01*
Y319193D01*
X276856D01*
Y319311D01*
X277092D01*
Y319430D01*
X277329D01*
Y319548D01*
X277565D01*
Y319666D01*
X277802D01*
Y319785D01*
X278039D01*
Y319903D01*
X278393D01*
Y320021D01*
X278748D01*
Y320139D01*
X279221D01*
Y320258D01*
X280167D01*
Y320376D01*
X281941D01*
Y320258D01*
D02*
G37*
G36*
X265620Y319903D02*
X266803D01*
Y319785D01*
X267276D01*
Y319666D01*
X267631D01*
Y319548D01*
X267986D01*
Y319430D01*
X268222D01*
Y319311D01*
X268459D01*
Y319193D01*
X268695D01*
Y319075D01*
X268932D01*
Y318957D01*
X269050D01*
Y318839D01*
X269286D01*
Y318720D01*
X269405D01*
Y318602D01*
X269523D01*
Y318484D01*
X269641D01*
Y318365D01*
X269878D01*
Y318247D01*
X269996D01*
Y318129D01*
X270114D01*
Y318011D01*
X270233D01*
Y317892D01*
X270351D01*
Y317774D01*
X270469D01*
Y317537D01*
X270587D01*
Y317419D01*
X270706D01*
Y317301D01*
X270824D01*
Y317064D01*
X270942D01*
Y316946D01*
X271061D01*
Y316710D01*
X271179D01*
Y316591D01*
X271297D01*
Y316355D01*
X271415D01*
Y316000D01*
X271534D01*
Y315763D01*
X271652D01*
Y315409D01*
X271770D01*
Y314817D01*
X271888D01*
Y312452D01*
X272007D01*
Y302636D01*
X271888D01*
Y301808D01*
X271770D01*
Y301216D01*
X271652D01*
Y300862D01*
X271534D01*
Y300507D01*
X271415D01*
Y300270D01*
X271297D01*
Y300034D01*
X271179D01*
Y299797D01*
X271061D01*
Y299561D01*
X270942D01*
Y299442D01*
X270824D01*
Y299206D01*
X270706D01*
Y299088D01*
X270587D01*
Y298969D01*
X270469D01*
Y298851D01*
X270351D01*
Y298733D01*
X270233D01*
Y298614D01*
X270114D01*
Y298496D01*
X269996D01*
Y298378D01*
X269878D01*
Y298260D01*
X269760D01*
Y298141D01*
X269641D01*
Y298023D01*
X269523D01*
Y297905D01*
X269405D01*
Y297786D01*
X269168D01*
Y297905D01*
X269050D01*
Y298141D01*
X269168D01*
Y307130D01*
X269050D01*
Y307366D01*
X268695D01*
Y307248D01*
X268459D01*
Y307130D01*
X268104D01*
Y307012D01*
X267867D01*
Y306893D01*
X267631D01*
Y306775D01*
X267394D01*
Y306657D01*
X267039D01*
Y306539D01*
X266803D01*
Y306420D01*
X266566D01*
Y306302D01*
X266212D01*
Y306184D01*
X265975D01*
Y306065D01*
X265739D01*
Y305947D01*
X265502D01*
Y305829D01*
X265147D01*
Y305711D01*
X264911D01*
Y305592D01*
X264674D01*
Y305474D01*
X264319D01*
Y305356D01*
X264083D01*
Y305238D01*
X263846D01*
Y305119D01*
X263491D01*
Y305001D01*
X263255D01*
Y304883D01*
X263018D01*
Y304764D01*
X262664D01*
Y304646D01*
X262427D01*
Y304528D01*
X262190D01*
Y304410D01*
X261836D01*
Y304291D01*
X261599D01*
Y304173D01*
X261481D01*
Y303937D01*
X261363D01*
Y299561D01*
Y299442D01*
Y297668D01*
X261244D01*
Y297786D01*
X261008D01*
Y297905D01*
X260889D01*
Y298023D01*
X260771D01*
Y298141D01*
X260653D01*
Y298260D01*
X260535D01*
Y298378D01*
X260298D01*
Y298496D01*
X260180D01*
Y298614D01*
X260062D01*
Y298851D01*
X259943D01*
Y298969D01*
X259825D01*
Y299088D01*
X259707D01*
Y299206D01*
X259589D01*
Y299442D01*
X259470D01*
Y299561D01*
X259352D01*
Y299797D01*
X259234D01*
Y300034D01*
X259115D01*
Y300270D01*
X258997D01*
Y300507D01*
X258879D01*
Y300862D01*
X258761D01*
Y301335D01*
X258642D01*
Y302044D01*
X258524D01*
Y306065D01*
X258642D01*
Y306302D01*
X258879D01*
Y306420D01*
X259115D01*
Y306539D01*
X259470D01*
Y306657D01*
X259825D01*
Y306775D01*
X260180D01*
Y306893D01*
X260535D01*
Y307012D01*
X260771D01*
Y307130D01*
X261126D01*
Y307248D01*
X261481D01*
Y307366D01*
X261836D01*
Y307485D01*
X262190D01*
Y307603D01*
X262427D01*
Y307721D01*
X262782D01*
Y307839D01*
X263137D01*
Y307958D01*
X263491D01*
Y308076D01*
X263846D01*
Y308194D01*
X264083D01*
Y308313D01*
X263964D01*
Y308431D01*
X263491D01*
Y308549D01*
X262900D01*
Y308667D01*
X262427D01*
Y308786D01*
X261836D01*
Y308904D01*
X261244D01*
Y309022D01*
X260771D01*
Y309140D01*
X260180D01*
Y309259D01*
X259589D01*
Y309377D01*
X258997D01*
Y309495D01*
X258761D01*
Y309613D01*
X258642D01*
Y309732D01*
X258524D01*
Y314699D01*
X258642D01*
Y315290D01*
X258761D01*
Y315645D01*
X258879D01*
Y316000D01*
X258997D01*
Y316236D01*
X259115D01*
Y316473D01*
X259234D01*
Y316710D01*
X259352D01*
Y316828D01*
X259470D01*
Y317064D01*
X259589D01*
Y317183D01*
X259707D01*
Y317419D01*
X259825D01*
Y317537D01*
X259943D01*
Y317656D01*
X260062D01*
Y317774D01*
X260180D01*
Y318011D01*
X260298D01*
Y318129D01*
X260416D01*
Y318247D01*
X260535D01*
Y318365D01*
X260771D01*
Y318484D01*
X260889D01*
Y318602D01*
X261008D01*
Y318720D01*
X261126D01*
Y318839D01*
X261363D01*
Y318957D01*
X261481D01*
Y319075D01*
X261717D01*
Y319193D01*
X261954D01*
Y319311D01*
X262190D01*
Y319430D01*
X262427D01*
Y319548D01*
X262782D01*
Y319666D01*
X263137D01*
Y319785D01*
X263728D01*
Y319903D01*
X264911D01*
Y320021D01*
X265620D01*
Y319903D01*
D02*
G37*
G36*
X297789Y320258D02*
X298499D01*
Y320139D01*
X298854D01*
Y320021D01*
X299209D01*
Y319903D01*
X299564D01*
Y319785D01*
X299800D01*
Y319666D01*
X300037D01*
Y319548D01*
X300273D01*
Y319430D01*
X300510D01*
Y319311D01*
X300628D01*
Y319193D01*
X300864D01*
Y319075D01*
X300983D01*
Y318957D01*
X301101D01*
Y318839D01*
X301219D01*
Y318720D01*
X301338D01*
Y318602D01*
X301456D01*
Y318484D01*
X301574D01*
Y318365D01*
X301692D01*
Y318247D01*
X301811D01*
Y318129D01*
X301929D01*
Y318011D01*
X302047D01*
Y317892D01*
X302165D01*
Y317656D01*
X302284D01*
Y317537D01*
X302402D01*
Y317301D01*
X302520D01*
Y317183D01*
X302639D01*
Y316946D01*
X302757D01*
Y316710D01*
X302875D01*
Y316473D01*
X302993D01*
Y316118D01*
X303112D01*
Y315763D01*
X303230D01*
Y315290D01*
X303348D01*
Y314344D01*
X303466D01*
Y313753D01*
X303348D01*
Y302163D01*
X303230D01*
Y301571D01*
X303112D01*
Y301216D01*
X302993D01*
Y300980D01*
X302875D01*
Y300625D01*
X302757D01*
Y300389D01*
X302639D01*
Y300270D01*
X302520D01*
Y300034D01*
X302402D01*
Y299797D01*
X302284D01*
Y299679D01*
X302165D01*
Y299561D01*
X302047D01*
Y299324D01*
X301929D01*
Y299206D01*
X301811D01*
Y299088D01*
X301692D01*
Y298969D01*
X301574D01*
Y298851D01*
X301456D01*
Y298733D01*
X301338D01*
Y298614D01*
X301219D01*
Y298496D01*
X301101D01*
Y298378D01*
X300864D01*
Y298260D01*
X300746D01*
Y298141D01*
X300628D01*
Y298023D01*
X300391D01*
Y297905D01*
X300155D01*
Y297786D01*
X300037D01*
Y297668D01*
X299800D01*
Y297550D01*
X299445D01*
Y297432D01*
X299209D01*
Y297313D01*
X298854D01*
Y297195D01*
X298263D01*
Y297077D01*
X297435D01*
Y296959D01*
X295779D01*
Y297077D01*
X294951D01*
Y297195D01*
X294478D01*
Y297313D01*
X294123D01*
Y297432D01*
X293886D01*
Y297550D01*
X293650D01*
Y297668D01*
X293413D01*
Y297786D01*
X293177D01*
Y297905D01*
X292940D01*
Y298023D01*
X292822D01*
Y298141D01*
X292586D01*
Y298260D01*
X292467D01*
Y298378D01*
X292349D01*
Y298496D01*
X292112D01*
Y298614D01*
X291994D01*
Y298733D01*
X291876D01*
Y298851D01*
X291758D01*
Y298969D01*
X291639D01*
Y299088D01*
X291521D01*
Y299206D01*
X291403D01*
Y299442D01*
X291285D01*
Y299561D01*
X291166D01*
Y299679D01*
X291048D01*
Y299915D01*
X290930D01*
Y300034D01*
X290811D01*
Y300270D01*
X290693D01*
Y300507D01*
X290575D01*
Y300743D01*
X290457D01*
Y300980D01*
X290338D01*
Y301335D01*
X290220D01*
Y301689D01*
X290102D01*
Y302163D01*
X289984D01*
Y315054D01*
X290102D01*
Y315645D01*
X290220D01*
Y316000D01*
X290338D01*
Y316355D01*
X290457D01*
Y316591D01*
X290575D01*
Y316946D01*
X290693D01*
Y317064D01*
X290811D01*
Y317301D01*
X290930D01*
Y317537D01*
X291048D01*
Y317656D01*
X291166D01*
Y317892D01*
X291285D01*
Y318011D01*
X291403D01*
Y318129D01*
X291521D01*
Y318247D01*
X291639D01*
Y318365D01*
X291758D01*
Y318484D01*
X291876D01*
Y318602D01*
X291994D01*
Y318720D01*
X292112D01*
Y318839D01*
X292231D01*
Y318957D01*
X292349D01*
Y319075D01*
X292586D01*
Y319193D01*
X292704D01*
Y319311D01*
X292940D01*
Y319430D01*
X293059D01*
Y319548D01*
X293295D01*
Y319666D01*
X293532D01*
Y319785D01*
X293886D01*
Y319903D01*
X294123D01*
Y320021D01*
X294478D01*
Y320139D01*
X294951D01*
Y320258D01*
X295542D01*
Y320376D01*
X297789D01*
Y320258D01*
D02*
G37*
%LPC*%
G36*
X282060Y317537D02*
X279813D01*
Y317419D01*
X279339D01*
Y317301D01*
X278985D01*
Y317183D01*
X278748D01*
Y317064D01*
X278630D01*
Y316946D01*
X278393D01*
Y316828D01*
X278275D01*
Y316710D01*
X278157D01*
Y316591D01*
X277920D01*
Y316473D01*
X277802D01*
Y316236D01*
X277684D01*
Y316118D01*
X277565D01*
Y316000D01*
X277447D01*
Y315763D01*
X277329D01*
Y315527D01*
X277211D01*
Y315290D01*
X277092D01*
Y314936D01*
X276974D01*
Y314226D01*
Y314108D01*
X276856D01*
Y309140D01*
X276974D01*
Y308786D01*
X277092D01*
Y308904D01*
X277211D01*
Y309613D01*
X277092D01*
Y310205D01*
X277211D01*
Y310086D01*
X277802D01*
Y309968D01*
X278039D01*
Y310086D01*
X278393D01*
Y310205D01*
X278512D01*
Y310441D01*
X278748D01*
Y310323D01*
X278866D01*
Y310205D01*
X279103D01*
Y310086D01*
X279221D01*
Y309968D01*
X279339D01*
Y309850D01*
X279576D01*
Y309968D01*
X279694D01*
Y310086D01*
X279576D01*
Y310560D01*
X279458D01*
Y311269D01*
X279339D01*
Y311742D01*
X279458D01*
Y311624D01*
X279694D01*
Y311506D01*
X279813D01*
Y311387D01*
X280167D01*
Y311506D01*
X280286D01*
Y311624D01*
X280404D01*
Y311742D01*
X280522D01*
Y311979D01*
X280640D01*
Y312215D01*
X280759D01*
Y312334D01*
X280877D01*
Y312570D01*
X281114D01*
Y312452D01*
X281232D01*
Y312334D01*
X281350D01*
Y312097D01*
X281468D01*
Y311861D01*
X281587D01*
Y311624D01*
X281705D01*
Y311506D01*
X281823D01*
Y311387D01*
X282178D01*
Y311506D01*
X282296D01*
Y311624D01*
X282533D01*
Y311742D01*
X282769D01*
Y311624D01*
X282651D01*
Y310914D01*
X282533D01*
Y310205D01*
X282414D01*
Y309850D01*
X282651D01*
Y309968D01*
X282769D01*
Y310086D01*
X282888D01*
Y310205D01*
X283006D01*
Y310323D01*
X283124D01*
Y310441D01*
X283479D01*
Y310205D01*
X283597D01*
Y310086D01*
X283715D01*
Y309968D01*
X284189D01*
Y310086D01*
X284898D01*
Y309968D01*
X284780D01*
Y309377D01*
X284662D01*
Y308904D01*
X285016D01*
Y311151D01*
X285135D01*
Y313280D01*
X285016D01*
Y314817D01*
X284898D01*
Y315290D01*
X284780D01*
Y315645D01*
X284662D01*
Y315882D01*
X284543D01*
Y316000D01*
X284425D01*
Y316118D01*
X284307D01*
Y316355D01*
X284189D01*
Y316473D01*
X284070D01*
Y316591D01*
X283952D01*
Y316710D01*
X283715D01*
Y316828D01*
X283597D01*
Y316946D01*
X283361D01*
Y317064D01*
X283124D01*
Y317183D01*
X282888D01*
Y317301D01*
X282533D01*
Y317419D01*
X282060D01*
Y317537D01*
D02*
G37*
G36*
X266212Y317064D02*
X264201D01*
Y316946D01*
X263728D01*
Y316828D01*
X263373D01*
Y316710D01*
X263137D01*
Y316591D01*
X263018D01*
Y316473D01*
X262782D01*
Y316355D01*
X262664D01*
Y316236D01*
X262545D01*
Y316118D01*
X262427D01*
Y316000D01*
X262309D01*
Y315882D01*
X262190D01*
Y315763D01*
X262072D01*
Y315645D01*
X261954D01*
Y315409D01*
X261836D01*
Y315290D01*
X261717D01*
Y314936D01*
X261599D01*
Y314699D01*
X261481D01*
Y314462D01*
Y314344D01*
Y314226D01*
X261363D01*
Y311979D01*
X261481D01*
Y311861D01*
X261599D01*
Y311742D01*
X261954D01*
Y311624D01*
X262545D01*
Y311506D01*
X263137D01*
Y311387D01*
X263728D01*
Y311269D01*
X264201D01*
Y311151D01*
X264792D01*
Y311033D01*
X265265D01*
Y310914D01*
X265857D01*
Y310796D01*
X266330D01*
Y310678D01*
X266921D01*
Y310560D01*
X267512D01*
Y310441D01*
X267986D01*
Y310323D01*
X268577D01*
Y310205D01*
X268932D01*
Y310323D01*
X269050D01*
Y310441D01*
X269168D01*
Y310914D01*
X269050D01*
Y311624D01*
X269168D01*
Y313161D01*
X269050D01*
Y314226D01*
X268932D01*
Y314699D01*
X268813D01*
Y315054D01*
X268695D01*
Y315290D01*
X268577D01*
Y315409D01*
X268459D01*
Y315645D01*
X268340D01*
Y315763D01*
X268222D01*
Y315882D01*
X268104D01*
Y316000D01*
X267986D01*
Y316118D01*
X267867D01*
Y316236D01*
X267749D01*
Y316355D01*
X267631D01*
Y316473D01*
X267394D01*
Y316591D01*
X267276D01*
Y316710D01*
X267039D01*
Y316828D01*
X266685D01*
Y316946D01*
X266212D01*
Y317064D01*
D02*
G37*
G36*
X297553Y317537D02*
X295897D01*
Y317419D01*
X295424D01*
Y317301D01*
X295069D01*
Y317183D01*
X294714D01*
Y317064D01*
X294596D01*
Y316946D01*
X294360D01*
Y316828D01*
X294241D01*
Y316710D01*
X294005D01*
Y316591D01*
X293886D01*
Y316473D01*
X293768D01*
Y316355D01*
X293650D01*
Y316236D01*
X293532D01*
Y316000D01*
X293413D01*
Y315882D01*
X293295D01*
Y315645D01*
X293177D01*
Y315409D01*
X293059D01*
Y314936D01*
X292940D01*
Y314226D01*
X292822D01*
Y309495D01*
Y309377D01*
Y306065D01*
X292704D01*
Y303227D01*
X292822D01*
Y302517D01*
X292940D01*
Y302044D01*
X293059D01*
Y301808D01*
X293177D01*
Y301571D01*
X293295D01*
Y301335D01*
X293413D01*
Y301216D01*
X293532D01*
Y301098D01*
X293650D01*
Y300862D01*
X293768D01*
Y300743D01*
X294005D01*
Y300625D01*
X294123D01*
Y300507D01*
X294360D01*
Y300389D01*
X294478D01*
Y300270D01*
X294714D01*
Y300152D01*
X295069D01*
Y300034D01*
X295542D01*
Y299915D01*
X296134D01*
Y299797D01*
X297316D01*
Y299915D01*
X297908D01*
Y300034D01*
X298263D01*
Y300152D01*
X298499D01*
Y300270D01*
X298736D01*
Y300389D01*
X298972D01*
Y300507D01*
X299090D01*
Y300625D01*
X299209D01*
Y300743D01*
X299445D01*
Y300862D01*
X299564D01*
Y301098D01*
X299682D01*
Y301216D01*
X299800D01*
Y301335D01*
X299918D01*
Y301571D01*
X300037D01*
Y301808D01*
X300155D01*
Y302044D01*
X300273D01*
Y302399D01*
X300391D01*
Y302872D01*
X300510D01*
Y313398D01*
X300628D01*
Y313989D01*
X300510D01*
Y314817D01*
X300391D01*
Y315172D01*
X300273D01*
Y315527D01*
X300155D01*
Y315763D01*
X300037D01*
Y316000D01*
X299918D01*
Y316118D01*
X299800D01*
Y316236D01*
X299682D01*
Y316355D01*
X299564D01*
Y316473D01*
X299445D01*
Y316591D01*
X299327D01*
Y316710D01*
X299209D01*
Y316828D01*
X299090D01*
Y316946D01*
X298854D01*
Y317064D01*
X298617D01*
Y317183D01*
X298381D01*
Y317301D01*
X298026D01*
Y317419D01*
X297553D01*
Y317537D01*
D02*
G37*
%LPD*%
D10*
X98987Y81603D02*
G03*
X98987Y81603I-197J0D01*
G01*
X328028D02*
G03*
X328028Y81603I-197J0D01*
G01*
X146148Y62676D02*
G03*
X146148Y62676I-394J0D01*
G01*
X74205Y56500D02*
G03*
X74205Y56500I-394J0D01*
G01*
D12*
X85801Y65298D02*
X86801Y66298D01*
X88800D01*
X89800Y65298D01*
Y64299D01*
X88800Y63299D01*
X86801D01*
X85801Y62299D01*
Y61300D01*
X86801Y60300D01*
X88800D01*
X89800Y61300D01*
X79803Y60300D02*
X83802D01*
X79803Y64299D01*
Y65298D01*
X80803Y66298D01*
X82802D01*
X83802Y65298D01*
X156000Y151798D02*
Y146800D01*
X155000Y145800D01*
X153001D01*
X152001Y146800D01*
Y151798D01*
X146003D02*
X150002D01*
Y148799D01*
X148003Y149799D01*
X147003D01*
X146003Y148799D01*
Y146800D01*
X147003Y145800D01*
X149002D01*
X150002Y146800D01*
X327301Y290598D02*
X329301D01*
X328301D01*
Y285600D01*
X329301Y284600D01*
X330300D01*
X331300Y285600D01*
X321303Y290598D02*
X325302D01*
Y287599D01*
X323303Y288599D01*
X322303D01*
X321303Y287599D01*
Y285600D01*
X322303Y284600D01*
X324302D01*
X325302Y285600D01*
X98201Y290598D02*
X100201D01*
X99201D01*
Y285600D01*
X100201Y284600D01*
X101200D01*
X102200Y285600D01*
X93203Y284600D02*
Y290598D01*
X96202Y287599D01*
X92203D01*
D13*
X206772Y178713D02*
Y180287D01*
D14*
X71959Y276800D02*
X91959D01*
X71959Y76800D02*
X91959D01*
X301000Y76800D02*
X321000D01*
X301000Y276800D02*
X321000D01*
D15*
X162681Y19400D02*
G03*
X158381Y23700I-4300J0D01*
G01*
X204781D02*
G03*
X200481Y19400I0J-4300D01*
G01*
X211581Y23700D02*
Y59113D01*
X162681Y19400D02*
X200481D01*
X204781Y23700D02*
X211581D01*
X151581D02*
X158381D01*
X151581D02*
Y59113D01*
Y141700D02*
X211581D01*
X36409Y50059D02*
Y53524D01*
Y31476D02*
Y34941D01*
X87591Y50059D02*
Y53524D01*
Y31476D02*
Y34941D01*
X36409Y53524D02*
X87591D01*
X36409Y31476D02*
X50386D01*
X73614D01*
X87591D01*
D16*
X210634Y187532D02*
X211301Y188199D01*
X212634D01*
X213300Y187532D01*
Y184866D01*
X212634Y184200D01*
X211301D01*
X210634Y184866D01*
X206635Y184200D02*
X209301D01*
X206635Y186866D01*
Y187532D01*
X207302Y188199D01*
X208635D01*
X209301Y187532D01*
X205303Y184200D02*
X203970D01*
X204636D01*
Y188199D01*
X205303Y187532D01*
M02*
