G04*
G04 #@! TF.GenerationSoftware,Altium Limited,Altium Designer,24.0.1 (36)*
G04*
G04 Layer_Physical_Order=2*
G04 Layer_Color=16711680*
%FSLAX25Y25*%
%MOIN*%
G70*
G04*
G04 #@! TF.SameCoordinates,EC2407A8-7C3A-46FB-840E-4377B73232B9*
G04*
G04*
G04 #@! TF.FilePolarity,Positive*
G04*
G01*
G75*
%ADD12C,0.01000*%
%ADD73C,0.02800*%
%ADD74C,0.08445*%
%ADD75C,0.07008*%
%ADD76C,0.03150*%
%ADD77C,0.05941*%
%ADD78R,0.05941X0.05941*%
%ADD79C,0.06000*%
%ADD80C,0.02300*%
G36*
X-205667Y-1204D02*
X-205656Y-1202D01*
X-205645Y-1204D01*
X-183435D01*
X-165451Y-19189D01*
X-165060Y-19450D01*
X-164599Y-19542D01*
X-164599Y-19542D01*
X87401D01*
X87401Y-19542D01*
X87862Y-19450D01*
X88252Y-19189D01*
X106237Y-1204D01*
X128627Y-1192D01*
X129493Y-1195D01*
X131191Y-1537D01*
X132319Y-2008D01*
X136587Y-6276D01*
X137068Y-7445D01*
X137401Y-9145D01*
X137399Y-10011D01*
X137399Y-10013D01*
X137399Y-10014D01*
X137399Y-282636D01*
X137398Y-343833D01*
X137404Y-343864D01*
X137399Y-343896D01*
X137444Y-344761D01*
X137195Y-346476D01*
X137040Y-346912D01*
X131175Y-352776D01*
X129935Y-353090D01*
X129101Y-353133D01*
X105900D01*
X89052Y-336286D01*
X89052Y-336286D01*
X88662Y-336025D01*
X88201Y-335933D01*
X-165399D01*
X-165399Y-335933D01*
X-165860Y-336025D01*
X-166251Y-336286D01*
X-183098Y-353133D01*
X-205835Y-353128D01*
X-206697Y-353124D01*
X-207762Y-352906D01*
X-214362Y-346306D01*
X-214585Y-345153D01*
X-214581Y-344287D01*
X-214581Y-344284D01*
X-214581Y-344280D01*
X-214581Y-10375D01*
X-214540Y-10169D01*
X-214493Y-9942D01*
X-214489Y-9075D01*
X-214253Y-7922D01*
X-207758Y-1427D01*
X-206525Y-1189D01*
X-205667Y-1204D01*
D02*
G37*
%LPC*%
G36*
X119219Y-11913D02*
X117586D01*
X115985Y-12231D01*
X114477Y-12856D01*
X113119Y-13763D01*
X111965Y-14917D01*
X111058Y-16274D01*
X110433Y-17783D01*
X110115Y-19384D01*
Y-21016D01*
X110433Y-22617D01*
X111058Y-24126D01*
X111965Y-25483D01*
X113119Y-26637D01*
X114477Y-27544D01*
X115985Y-28169D01*
X117586Y-28488D01*
X119219D01*
X120820Y-28169D01*
X122328Y-27544D01*
X123685Y-26637D01*
X124839Y-25483D01*
X125746Y-24126D01*
X126371Y-22617D01*
X126690Y-21016D01*
Y-19384D01*
X126371Y-17783D01*
X125746Y-16274D01*
X124839Y-14917D01*
X123685Y-13763D01*
X122328Y-12856D01*
X120820Y-12231D01*
X119219Y-11913D01*
D02*
G37*
G36*
X-194769D02*
X-196401D01*
X-198002Y-12231D01*
X-199510Y-12856D01*
X-200868Y-13763D01*
X-202022Y-14917D01*
X-202929Y-16274D01*
X-203554Y-17783D01*
X-203872Y-19384D01*
Y-21016D01*
X-203554Y-22617D01*
X-202929Y-24126D01*
X-202022Y-25483D01*
X-200868Y-26637D01*
X-199510Y-27544D01*
X-198002Y-28169D01*
X-196401Y-28488D01*
X-194769D01*
X-193167Y-28169D01*
X-191659Y-27544D01*
X-190302Y-26637D01*
X-189148Y-25483D01*
X-188241Y-24126D01*
X-187616Y-22617D01*
X-187297Y-21016D01*
Y-19384D01*
X-187616Y-17783D01*
X-188241Y-16274D01*
X-189148Y-14917D01*
X-190302Y-13763D01*
X-191659Y-12856D01*
X-193167Y-12231D01*
X-194769Y-11913D01*
D02*
G37*
G36*
X-150119Y-33258D02*
X-150306D01*
Y-37980D01*
X-145584D01*
Y-37793D01*
X-145940Y-36464D01*
X-146627Y-35274D01*
X-147599Y-34301D01*
X-148790Y-33614D01*
X-150119Y-33258D01*
D02*
G37*
G36*
X-151306D02*
X-151494D01*
X-152822Y-33614D01*
X-154013Y-34301D01*
X-154985Y-35274D01*
X-155673Y-36464D01*
X-156029Y-37793D01*
Y-37980D01*
X-151306D01*
Y-33258D01*
D02*
G37*
G36*
X74263Y-33470D02*
X72944D01*
X71670Y-33812D01*
X70527Y-34471D01*
X69594Y-35404D01*
X68935Y-36546D01*
X68594Y-37821D01*
Y-39140D01*
X68935Y-40414D01*
X69594Y-41556D01*
X70527Y-42489D01*
X71670Y-43149D01*
X72944Y-43490D01*
X74263D01*
X75537Y-43149D01*
X76679Y-42489D01*
X77612Y-41556D01*
X78272Y-40414D01*
X78613Y-39140D01*
Y-37821D01*
X78272Y-36546D01*
X77612Y-35404D01*
X76679Y-34471D01*
X75537Y-33812D01*
X74263Y-33470D01*
D02*
G37*
G36*
X-9357Y-28092D02*
X-67845D01*
X-68699Y-28262D01*
X-69423Y-28746D01*
X-74400Y-33723D01*
X-75343Y-33470D01*
X-76663D01*
X-77937Y-33812D01*
X-79079Y-34471D01*
X-80012Y-35404D01*
X-80671Y-36546D01*
X-81013Y-37821D01*
Y-39140D01*
X-80671Y-40414D01*
X-80012Y-41556D01*
X-79079Y-42489D01*
X-77937Y-43149D01*
X-76663Y-43490D01*
X-75343D01*
X-74069Y-43149D01*
X-72927Y-42489D01*
X-71994Y-41556D01*
X-71335Y-40414D01*
X-70993Y-39140D01*
Y-37821D01*
X-71246Y-36877D01*
X-66922Y-32553D01*
X-53552D01*
X-53486Y-33053D01*
X-53779Y-33131D01*
X-54677Y-33650D01*
X-55410Y-34383D01*
X-55928Y-35280D01*
X-56196Y-36282D01*
Y-37318D01*
X-55928Y-38320D01*
X-55410Y-39217D01*
X-54677Y-39950D01*
X-53779Y-40469D01*
X-52778Y-40737D01*
X-51741D01*
X-50740Y-40469D01*
X-49842Y-39950D01*
X-49109Y-39217D01*
X-48591Y-38320D01*
X-48322Y-37318D01*
Y-36282D01*
X-48591Y-35280D01*
X-49109Y-34383D01*
X-49842Y-33650D01*
X-50740Y-33131D01*
X-51032Y-33053D01*
X-50966Y-32553D01*
X-26151D01*
X-26085Y-33053D01*
X-26377Y-33131D01*
X-27275Y-33650D01*
X-28008Y-34383D01*
X-28526Y-35280D01*
X-28795Y-36282D01*
Y-37318D01*
X-28526Y-38320D01*
X-28008Y-39217D01*
X-27275Y-39950D01*
X-26377Y-40469D01*
X-25376Y-40737D01*
X-24339D01*
X-23338Y-40469D01*
X-22440Y-39950D01*
X-21707Y-39217D01*
X-21189Y-38320D01*
X-20921Y-37318D01*
Y-36282D01*
X-21189Y-35280D01*
X-21707Y-34383D01*
X-22440Y-33650D01*
X-23338Y-33131D01*
X-23631Y-33053D01*
X-23565Y-32553D01*
X-10281D01*
X-5957Y-36877D01*
X-6210Y-37821D01*
Y-39140D01*
X-5868Y-40414D01*
X-5209Y-41556D01*
X-4276Y-42489D01*
X-3134Y-43149D01*
X-1859Y-43490D01*
X-540D01*
X734Y-43149D01*
X1876Y-42489D01*
X2809Y-41556D01*
X3469Y-40414D01*
X3810Y-39140D01*
Y-37821D01*
X3469Y-36546D01*
X2809Y-35404D01*
X1876Y-34471D01*
X734Y-33812D01*
X-540Y-33470D01*
X-1859D01*
X-2803Y-33723D01*
X-7780Y-28746D01*
X-8504Y-28262D01*
X-9357Y-28092D01*
D02*
G37*
G36*
X-145584Y-38980D02*
X-150306D01*
Y-43703D01*
X-150119D01*
X-148790Y-43347D01*
X-147599Y-42659D01*
X-146627Y-41687D01*
X-145940Y-40496D01*
X-145584Y-39168D01*
Y-38980D01*
D02*
G37*
G36*
X-151306D02*
X-156029D01*
Y-39168D01*
X-155673Y-40496D01*
X-154985Y-41687D01*
X-154013Y-42659D01*
X-152822Y-43347D01*
X-151494Y-43703D01*
X-151306D01*
Y-38980D01*
D02*
G37*
G36*
X-28800Y-52180D02*
Y-53800D01*
X-27180D01*
X-27477Y-53082D01*
X-28082Y-52477D01*
X-28800Y-52180D01*
D02*
G37*
G36*
X-29800D02*
X-30518Y-52477D01*
X-31123Y-53082D01*
X-31420Y-53800D01*
X-29800D01*
Y-52180D01*
D02*
G37*
G36*
X-27180Y-54800D02*
X-28800D01*
Y-56420D01*
X-28082Y-56123D01*
X-27477Y-55518D01*
X-27180Y-54800D01*
D02*
G37*
G36*
X-29800D02*
X-31420D01*
X-31123Y-55518D01*
X-30518Y-56123D01*
X-29800Y-56420D01*
Y-54800D01*
D02*
G37*
G36*
X-175500Y-62337D02*
Y-63957D01*
X-173880D01*
X-174177Y-63239D01*
X-174782Y-62634D01*
X-175500Y-62337D01*
D02*
G37*
G36*
X-176500D02*
X-177218Y-62634D01*
X-177823Y-63239D01*
X-178120Y-63957D01*
X-176500D01*
Y-62337D01*
D02*
G37*
G36*
X-173880Y-64957D02*
X-175500D01*
Y-66577D01*
X-174782Y-66279D01*
X-174177Y-65675D01*
X-173880Y-64957D01*
D02*
G37*
G36*
X-176500D02*
X-178120D01*
X-177823Y-65675D01*
X-177218Y-66279D01*
X-176500Y-66577D01*
Y-64957D01*
D02*
G37*
G36*
X85892Y-72508D02*
Y-74128D01*
X87512D01*
X87215Y-73410D01*
X86610Y-72806D01*
X85892Y-72508D01*
D02*
G37*
G36*
X84892D02*
X84174Y-72806D01*
X83569Y-73410D01*
X83272Y-74128D01*
X84892D01*
Y-72508D01*
D02*
G37*
G36*
X106956Y-72618D02*
Y-74238D01*
X108576D01*
X108279Y-73520D01*
X107674Y-72915D01*
X106956Y-72618D01*
D02*
G37*
G36*
X105956D02*
X105238Y-72915D01*
X104633Y-73520D01*
X104336Y-74238D01*
X105956D01*
Y-72618D01*
D02*
G37*
G36*
X-143529Y-72890D02*
Y-74510D01*
X-141909D01*
X-142206Y-73792D01*
X-142811Y-73187D01*
X-143529Y-72890D01*
D02*
G37*
G36*
X-144529D02*
X-145247Y-73187D01*
X-145852Y-73792D01*
X-146149Y-74510D01*
X-144529D01*
Y-72890D01*
D02*
G37*
G36*
X-123233Y-72899D02*
Y-74519D01*
X-121613D01*
X-121911Y-73801D01*
X-122515Y-73196D01*
X-123233Y-72899D01*
D02*
G37*
G36*
X-124233D02*
X-124951Y-73196D01*
X-125556Y-73801D01*
X-125853Y-74519D01*
X-124233D01*
Y-72899D01*
D02*
G37*
G36*
X87512Y-75128D02*
X85892D01*
Y-76748D01*
X86610Y-76451D01*
X87215Y-75846D01*
X87512Y-75128D01*
D02*
G37*
G36*
X84892D02*
X83272D01*
X83569Y-75846D01*
X84174Y-76451D01*
X84892Y-76748D01*
Y-75128D01*
D02*
G37*
G36*
X108576Y-75238D02*
X106956D01*
Y-76858D01*
X107674Y-76560D01*
X108279Y-75955D01*
X108576Y-75238D01*
D02*
G37*
G36*
X105956D02*
X104336D01*
X104633Y-75955D01*
X105238Y-76560D01*
X105956Y-76858D01*
Y-75238D01*
D02*
G37*
G36*
X-141909Y-75510D02*
X-143529D01*
Y-77130D01*
X-142811Y-76832D01*
X-142206Y-76227D01*
X-141909Y-75510D01*
D02*
G37*
G36*
X-144529D02*
X-146149D01*
X-145852Y-76227D01*
X-145247Y-76832D01*
X-144529Y-77130D01*
Y-75510D01*
D02*
G37*
G36*
X-121613Y-75519D02*
X-123233D01*
Y-77139D01*
X-122515Y-76841D01*
X-121911Y-76237D01*
X-121613Y-75519D01*
D02*
G37*
G36*
X-124233D02*
X-125853D01*
X-125556Y-76237D01*
X-124951Y-76841D01*
X-124233Y-77139D01*
Y-75519D01*
D02*
G37*
G36*
X-55788Y-82421D02*
Y-84041D01*
X-54168D01*
X-54466Y-83323D01*
X-55070Y-82719D01*
X-55788Y-82421D01*
D02*
G37*
G36*
X-56788D02*
X-57506Y-82719D01*
X-58111Y-83323D01*
X-58408Y-84041D01*
X-56788D01*
Y-82421D01*
D02*
G37*
G36*
X-54168Y-85041D02*
X-55788D01*
Y-86661D01*
X-55070Y-86364D01*
X-54466Y-85759D01*
X-54168Y-85041D01*
D02*
G37*
G36*
X-56788D02*
X-58408D01*
X-58111Y-85759D01*
X-57506Y-86364D01*
X-56788Y-86661D01*
Y-85041D01*
D02*
G37*
G36*
X33684Y-85416D02*
Y-87036D01*
X35304D01*
X35007Y-86318D01*
X34402Y-85713D01*
X33684Y-85416D01*
D02*
G37*
G36*
X32684D02*
X31966Y-85713D01*
X31362Y-86318D01*
X31064Y-87036D01*
X32684D01*
Y-85416D01*
D02*
G37*
G36*
X35304Y-88036D02*
X33684D01*
Y-89656D01*
X34402Y-89359D01*
X35007Y-88754D01*
X35304Y-88036D01*
D02*
G37*
G36*
X32684D02*
X31064D01*
X31362Y-88754D01*
X31966Y-89359D01*
X32684Y-89656D01*
Y-88036D01*
D02*
G37*
G36*
X96164Y-82909D02*
X95034D01*
X93943Y-83201D01*
X92964Y-83766D01*
X92165Y-84565D01*
X91601Y-85544D01*
X91308Y-86635D01*
Y-87765D01*
X91601Y-88856D01*
X92165Y-89835D01*
X92964Y-90634D01*
X93943Y-91199D01*
X95034Y-91491D01*
X96164D01*
X97256Y-91199D01*
X98234Y-90634D01*
X99033Y-89835D01*
X99598Y-88856D01*
X99891Y-87765D01*
Y-86635D01*
X99598Y-85544D01*
X99033Y-84565D01*
X98234Y-83766D01*
X97256Y-83201D01*
X96164Y-82909D01*
D02*
G37*
G36*
X-133220D02*
X-134350D01*
X-135441Y-83201D01*
X-136420Y-83766D01*
X-137219Y-84565D01*
X-137784Y-85544D01*
X-138076Y-86635D01*
Y-87765D01*
X-137784Y-88856D01*
X-137219Y-89835D01*
X-136420Y-90634D01*
X-135441Y-91199D01*
X-134350Y-91491D01*
X-133220D01*
X-132128Y-91199D01*
X-131150Y-90634D01*
X-130351Y-89835D01*
X-129786Y-88856D01*
X-129493Y-87765D01*
Y-86635D01*
X-129786Y-85544D01*
X-130351Y-84565D01*
X-131150Y-83766D01*
X-132128Y-83201D01*
X-133220Y-82909D01*
D02*
G37*
G36*
X-3018Y-96206D02*
X-3789D01*
X-4501Y-96501D01*
X-4844Y-96845D01*
X-62086D01*
X-62406Y-96526D01*
X-63118Y-96231D01*
X-63888D01*
X-64600Y-96526D01*
X-64930Y-96855D01*
X-67487D01*
X-67609Y-96831D01*
X-99582D01*
X-99912Y-96501D01*
X-100624Y-96206D01*
X-101395D01*
X-102107Y-96501D01*
X-102652Y-97046D01*
X-102947Y-97759D01*
Y-98529D01*
X-102652Y-99241D01*
X-102107Y-99786D01*
X-101395Y-100081D01*
X-100624D01*
X-99912Y-99786D01*
X-99582Y-99457D01*
X-67706D01*
X-67585Y-99481D01*
X-64930D01*
X-64600Y-99811D01*
X-63888Y-100106D01*
X-63118D01*
X-62406Y-99811D01*
X-62065Y-99470D01*
X-4817D01*
X-4501Y-99786D01*
X-3789Y-100081D01*
X-3018D01*
X-2306Y-99786D01*
X-1761Y-99241D01*
X-1466Y-98529D01*
Y-97759D01*
X-1761Y-97046D01*
X-2306Y-96501D01*
X-3018Y-96206D01*
D02*
G37*
G36*
X-106985Y-106957D02*
Y-108577D01*
X-105365D01*
X-105663Y-107859D01*
X-106267Y-107254D01*
X-106985Y-106957D01*
D02*
G37*
G36*
X-107985D02*
X-108703Y-107254D01*
X-109308Y-107859D01*
X-109605Y-108577D01*
X-107985D01*
Y-106957D01*
D02*
G37*
G36*
X-81778Y-108481D02*
Y-110101D01*
X-80158D01*
X-80455Y-109383D01*
X-81060Y-108779D01*
X-81778Y-108481D01*
D02*
G37*
G36*
X-82778D02*
X-83496Y-108779D01*
X-84100Y-109383D01*
X-84398Y-110101D01*
X-82778D01*
Y-108481D01*
D02*
G37*
G36*
X-105365Y-109577D02*
X-106985D01*
Y-111197D01*
X-106267Y-110900D01*
X-105663Y-110295D01*
X-105365Y-109577D01*
D02*
G37*
G36*
X-107985D02*
X-109605D01*
X-109308Y-110295D01*
X-108703Y-110900D01*
X-107985Y-111197D01*
Y-109577D01*
D02*
G37*
G36*
X-80158Y-111101D02*
X-81778D01*
Y-112721D01*
X-81060Y-112424D01*
X-80455Y-111819D01*
X-80158Y-111101D01*
D02*
G37*
G36*
X-82778D02*
X-84398D01*
X-84100Y-111819D01*
X-83496Y-112424D01*
X-82778Y-112721D01*
Y-111101D01*
D02*
G37*
G36*
X-161442Y-114242D02*
X-168958D01*
Y-121758D01*
X-161442D01*
Y-114242D01*
D02*
G37*
G36*
X-194242D02*
X-201758D01*
Y-121758D01*
X-194242D01*
Y-114242D01*
D02*
G37*
G36*
X-32700Y-123286D02*
Y-124906D01*
X-31080D01*
X-31377Y-124188D01*
X-31982Y-123583D01*
X-32700Y-123286D01*
D02*
G37*
G36*
X-33700D02*
X-34418Y-123583D01*
X-35023Y-124188D01*
X-35320Y-124906D01*
X-33700D01*
Y-123286D01*
D02*
G37*
G36*
X-31080Y-125906D02*
X-32700D01*
Y-127526D01*
X-31982Y-127228D01*
X-31377Y-126624D01*
X-31080Y-125906D01*
D02*
G37*
G36*
X-33700D02*
X-35320D01*
X-35023Y-126624D01*
X-34418Y-127228D01*
X-33700Y-127526D01*
Y-125906D01*
D02*
G37*
G36*
X-164705Y-136053D02*
X-165695D01*
X-166650Y-136309D01*
X-167507Y-136804D01*
X-168207Y-137504D01*
X-168702Y-138361D01*
X-168958Y-139316D01*
Y-140306D01*
X-168702Y-141261D01*
X-168207Y-142118D01*
X-167507Y-142818D01*
X-166650Y-143313D01*
X-165695Y-143569D01*
X-164705D01*
X-163750Y-143313D01*
X-162893Y-142818D01*
X-162193Y-142118D01*
X-161698Y-141261D01*
X-161442Y-140306D01*
Y-139316D01*
X-161698Y-138361D01*
X-162193Y-137504D01*
X-162893Y-136804D01*
X-163750Y-136309D01*
X-164705Y-136053D01*
D02*
G37*
G36*
X-197505D02*
X-198495D01*
X-199451Y-136309D01*
X-200307Y-136804D01*
X-201007Y-137504D01*
X-201502Y-138361D01*
X-201758Y-139316D01*
Y-140306D01*
X-201502Y-141261D01*
X-201007Y-142118D01*
X-200307Y-142818D01*
X-199451Y-143313D01*
X-198495Y-143569D01*
X-197505D01*
X-196549Y-143313D01*
X-195693Y-142818D01*
X-194993Y-142118D01*
X-194498Y-141261D01*
X-194242Y-140306D01*
Y-139316D01*
X-194498Y-138361D01*
X-194993Y-137504D01*
X-195693Y-136804D01*
X-196549Y-136309D01*
X-197505Y-136053D01*
D02*
G37*
G36*
X-3018Y-147016D02*
X-3789D01*
X-4501Y-147311D01*
X-4831Y-147641D01*
X-8222D01*
X-8724Y-147741D01*
X-9150Y-148025D01*
X-58000Y-196876D01*
X-58467D01*
X-59179Y-197171D01*
X-59724Y-197716D01*
X-60019Y-198428D01*
Y-199198D01*
X-59724Y-199911D01*
X-59179Y-200456D01*
X-58467Y-200751D01*
X-57696D01*
X-56984Y-200456D01*
X-56439Y-199911D01*
X-56144Y-199198D01*
Y-198732D01*
X-7678Y-150266D01*
X-4831D01*
X-4501Y-150596D01*
X-3789Y-150891D01*
X-3018D01*
X-2306Y-150596D01*
X-1761Y-150051D01*
X-1466Y-149339D01*
Y-148568D01*
X-1761Y-147856D01*
X-2306Y-147311D01*
X-3018Y-147016D01*
D02*
G37*
G36*
X-44685Y-150103D02*
Y-151723D01*
X-43065D01*
X-43363Y-151005D01*
X-43967Y-150401D01*
X-44685Y-150103D01*
D02*
G37*
G36*
X-45685D02*
X-46403Y-150401D01*
X-47008Y-151005D01*
X-47305Y-151723D01*
X-45685D01*
Y-150103D01*
D02*
G37*
G36*
X-43065Y-152723D02*
X-44685D01*
Y-154343D01*
X-43967Y-154046D01*
X-43363Y-153441D01*
X-43065Y-152723D01*
D02*
G37*
G36*
X-45685D02*
X-47305D01*
X-47008Y-153441D01*
X-46403Y-154046D01*
X-45685Y-154343D01*
Y-152723D01*
D02*
G37*
G36*
X-194029Y-162429D02*
X-197500D01*
Y-165900D01*
X-194029D01*
Y-162429D01*
D02*
G37*
G36*
X-198500D02*
X-201971D01*
Y-165900D01*
X-198500D01*
Y-162429D01*
D02*
G37*
G36*
X-161442Y-162642D02*
X-168958D01*
Y-170158D01*
X-161442D01*
Y-162642D01*
D02*
G37*
G36*
X-194029Y-166900D02*
X-197500D01*
Y-170370D01*
X-194029D01*
Y-166900D01*
D02*
G37*
G36*
X-198500D02*
X-201971D01*
Y-170370D01*
X-198500D01*
Y-166900D01*
D02*
G37*
G36*
X-197477Y-184241D02*
X-197500D01*
Y-187711D01*
X-194029D01*
Y-187688D01*
X-194300Y-186679D01*
X-194823Y-185773D01*
X-195562Y-185034D01*
X-196467Y-184511D01*
X-197477Y-184241D01*
D02*
G37*
G36*
X-198500D02*
X-198523D01*
X-199532Y-184511D01*
X-200438Y-185034D01*
X-201177Y-185773D01*
X-201700Y-186679D01*
X-201971Y-187688D01*
Y-187711D01*
X-198500D01*
Y-184241D01*
D02*
G37*
G36*
X-164705Y-184453D02*
X-165695D01*
X-166650Y-184709D01*
X-167507Y-185204D01*
X-168207Y-185904D01*
X-168702Y-186760D01*
X-168958Y-187716D01*
Y-188706D01*
X-168702Y-189662D01*
X-168207Y-190518D01*
X-167507Y-191218D01*
X-166650Y-191713D01*
X-165695Y-191969D01*
X-164705D01*
X-163750Y-191713D01*
X-162893Y-191218D01*
X-162193Y-190518D01*
X-161698Y-189662D01*
X-161442Y-188706D01*
Y-187716D01*
X-161698Y-186760D01*
X-162193Y-185904D01*
X-162893Y-185204D01*
X-163750Y-184709D01*
X-164705Y-184453D01*
D02*
G37*
G36*
X-194029Y-188711D02*
X-197500D01*
Y-192182D01*
X-197477D01*
X-196467Y-191911D01*
X-195562Y-191388D01*
X-194823Y-190649D01*
X-194300Y-189744D01*
X-194029Y-188734D01*
Y-188711D01*
D02*
G37*
G36*
X-198500D02*
X-201971D01*
Y-188734D01*
X-201700Y-189744D01*
X-201177Y-190649D01*
X-200438Y-191388D01*
X-199532Y-191911D01*
X-198523Y-192182D01*
X-198500D01*
Y-188711D01*
D02*
G37*
G36*
X-22688Y-191881D02*
X-23459D01*
X-24171Y-192176D01*
X-24716Y-192721D01*
X-25010Y-193433D01*
Y-194203D01*
X-24716Y-194916D01*
X-24171Y-195461D01*
X-23459Y-195756D01*
X-22688D01*
X-21976Y-195461D01*
X-21646Y-195131D01*
X12820D01*
X27335Y-209645D01*
Y-210112D01*
X27630Y-210824D01*
X28175Y-211369D01*
X28887Y-211664D01*
X29658D01*
X30370Y-211369D01*
X30915Y-210824D01*
X31210Y-210112D01*
Y-209341D01*
X30915Y-208629D01*
X30370Y-208084D01*
X29658Y-207789D01*
X29191D01*
X14292Y-192890D01*
X13866Y-192605D01*
X13364Y-192506D01*
X-21646D01*
X-21976Y-192176D01*
X-22688Y-191881D01*
D02*
G37*
G36*
X-50570Y-210077D02*
Y-211697D01*
X-48950D01*
X-49247Y-210980D01*
X-49852Y-210375D01*
X-50570Y-210077D01*
D02*
G37*
G36*
X-51570D02*
X-52288Y-210375D01*
X-52893Y-210980D01*
X-53190Y-211697D01*
X-51570D01*
Y-210077D01*
D02*
G37*
G36*
X-91323Y-210080D02*
Y-211700D01*
X-89703D01*
X-90000Y-210982D01*
X-90605Y-210377D01*
X-91323Y-210080D01*
D02*
G37*
G36*
X-92323D02*
X-93041Y-210377D01*
X-93646Y-210982D01*
X-93943Y-211700D01*
X-92323D01*
Y-210080D01*
D02*
G37*
G36*
X-48950Y-212697D02*
X-50570D01*
Y-214317D01*
X-49852Y-214020D01*
X-49247Y-213415D01*
X-48950Y-212697D01*
D02*
G37*
G36*
X-51570D02*
X-53190D01*
X-52893Y-213415D01*
X-52288Y-214020D01*
X-51570Y-214317D01*
Y-212697D01*
D02*
G37*
G36*
X-89703Y-212700D02*
X-91323D01*
Y-214320D01*
X-90605Y-214023D01*
X-90000Y-213418D01*
X-89703Y-212700D01*
D02*
G37*
G36*
X-92323D02*
X-93943D01*
X-93646Y-213418D01*
X-93041Y-214023D01*
X-92323Y-214320D01*
Y-212700D01*
D02*
G37*
G36*
X-161442Y-211042D02*
X-168958D01*
Y-218558D01*
X-161442D01*
Y-211042D01*
D02*
G37*
G36*
X-194242D02*
X-201758D01*
Y-218558D01*
X-194242D01*
Y-211042D01*
D02*
G37*
G36*
X-55381Y-225348D02*
Y-226968D01*
X-53761D01*
X-54058Y-226251D01*
X-54663Y-225646D01*
X-55381Y-225348D01*
D02*
G37*
G36*
X-56381D02*
X-57099Y-225646D01*
X-57704Y-226251D01*
X-58001Y-226968D01*
X-56381D01*
Y-225348D01*
D02*
G37*
G36*
X-53761Y-227968D02*
X-55381D01*
Y-229588D01*
X-54663Y-229291D01*
X-54058Y-228686D01*
X-53761Y-227968D01*
D02*
G37*
G36*
X-56381D02*
X-58001D01*
X-57704Y-228686D01*
X-57099Y-229291D01*
X-56381Y-229588D01*
Y-227968D01*
D02*
G37*
G36*
X-34638Y-235880D02*
Y-237500D01*
X-33018D01*
X-33315Y-236782D01*
X-33920Y-236177D01*
X-34638Y-235880D01*
D02*
G37*
G36*
X-35638D02*
X-36356Y-236177D01*
X-36960Y-236782D01*
X-37258Y-237500D01*
X-35638D01*
Y-235880D01*
D02*
G37*
G36*
X-33018Y-238500D02*
X-34638D01*
Y-240120D01*
X-33920Y-239823D01*
X-33315Y-239218D01*
X-33018Y-238500D01*
D02*
G37*
G36*
X-35638D02*
X-37258D01*
X-36960Y-239218D01*
X-36356Y-239823D01*
X-35638Y-240120D01*
Y-238500D01*
D02*
G37*
G36*
X-164705Y-232853D02*
X-165695D01*
X-166650Y-233109D01*
X-167507Y-233604D01*
X-168207Y-234304D01*
X-168702Y-235160D01*
X-168958Y-236116D01*
Y-237106D01*
X-168702Y-238061D01*
X-168207Y-238918D01*
X-167507Y-239618D01*
X-166650Y-240113D01*
X-165695Y-240369D01*
X-164705D01*
X-163750Y-240113D01*
X-162893Y-239618D01*
X-162193Y-238918D01*
X-161698Y-238061D01*
X-161442Y-237106D01*
Y-236116D01*
X-161698Y-235160D01*
X-162193Y-234304D01*
X-162893Y-233604D01*
X-163750Y-233109D01*
X-164705Y-232853D01*
D02*
G37*
G36*
X-197505D02*
X-198495D01*
X-199451Y-233109D01*
X-200307Y-233604D01*
X-201007Y-234304D01*
X-201502Y-235160D01*
X-201758Y-236116D01*
Y-237106D01*
X-201502Y-238061D01*
X-201007Y-238918D01*
X-200307Y-239618D01*
X-199451Y-240113D01*
X-198495Y-240369D01*
X-197505D01*
X-196549Y-240113D01*
X-195693Y-239618D01*
X-194993Y-238918D01*
X-194498Y-238061D01*
X-194242Y-237106D01*
Y-236116D01*
X-194498Y-235160D01*
X-194993Y-234304D01*
X-195693Y-233604D01*
X-196549Y-233109D01*
X-197505Y-232853D01*
D02*
G37*
G36*
X-92459Y-231642D02*
X-93230D01*
X-93942Y-231937D01*
X-94487Y-232482D01*
X-94782Y-233194D01*
Y-233965D01*
X-94487Y-234677D01*
X-94157Y-235007D01*
Y-244613D01*
X-94487Y-244943D01*
X-94782Y-245655D01*
Y-246426D01*
X-94487Y-247138D01*
X-93942Y-247683D01*
X-93230Y-247978D01*
X-92459D01*
X-91747Y-247683D01*
X-91202Y-247138D01*
X-90907Y-246426D01*
Y-245655D01*
X-91202Y-244943D01*
X-91532Y-244613D01*
Y-235007D01*
X-91202Y-234677D01*
X-90907Y-233965D01*
Y-233194D01*
X-91202Y-232482D01*
X-91747Y-231937D01*
X-92459Y-231642D01*
D02*
G37*
G36*
X-68823Y-247321D02*
Y-248941D01*
X-67203D01*
X-67501Y-248223D01*
X-68105Y-247619D01*
X-68823Y-247321D01*
D02*
G37*
G36*
X-69823D02*
X-70541Y-247619D01*
X-71146Y-248223D01*
X-71443Y-248941D01*
X-69823D01*
Y-247321D01*
D02*
G37*
G36*
X-67203Y-249941D02*
X-68823D01*
Y-251561D01*
X-68105Y-251264D01*
X-67501Y-250659D01*
X-67203Y-249941D01*
D02*
G37*
G36*
X-69823D02*
X-71443D01*
X-71146Y-250659D01*
X-70541Y-251264D01*
X-69823Y-251561D01*
Y-249941D01*
D02*
G37*
G36*
X-93146Y-262088D02*
Y-263709D01*
X-91526D01*
X-91823Y-262991D01*
X-92428Y-262386D01*
X-93146Y-262088D01*
D02*
G37*
G36*
X-94146D02*
X-94864Y-262386D01*
X-95469Y-262991D01*
X-95766Y-263709D01*
X-94146D01*
Y-262088D01*
D02*
G37*
G36*
X-91526Y-264709D02*
X-93146D01*
Y-266329D01*
X-92428Y-266031D01*
X-91823Y-265426D01*
X-91526Y-264709D01*
D02*
G37*
G36*
X-94146D02*
X-95766D01*
X-95469Y-265426D01*
X-94864Y-266031D01*
X-94146Y-266329D01*
Y-264709D01*
D02*
G37*
G36*
X-189409Y-264792D02*
Y-266412D01*
X-187789D01*
X-188086Y-265694D01*
X-188691Y-265089D01*
X-189409Y-264792D01*
D02*
G37*
G36*
X-190409D02*
X-191127Y-265089D01*
X-191732Y-265694D01*
X-192029Y-266412D01*
X-190409D01*
Y-264792D01*
D02*
G37*
G36*
X-187789Y-267412D02*
X-189409D01*
Y-269032D01*
X-188691Y-268735D01*
X-188086Y-268130D01*
X-187789Y-267412D01*
D02*
G37*
G36*
X-190409D02*
X-192029D01*
X-191732Y-268130D01*
X-191127Y-268735D01*
X-190409Y-269032D01*
Y-267412D01*
D02*
G37*
G36*
X96164Y-262909D02*
X95034D01*
X93943Y-263201D01*
X92964Y-263766D01*
X92165Y-264565D01*
X91601Y-265544D01*
X91308Y-266635D01*
Y-267765D01*
X91601Y-268856D01*
X92165Y-269835D01*
X92964Y-270634D01*
X93943Y-271199D01*
X95034Y-271491D01*
X96164D01*
X97256Y-271199D01*
X98234Y-270634D01*
X99033Y-269835D01*
X99598Y-268856D01*
X99891Y-267765D01*
Y-266635D01*
X99598Y-265544D01*
X99033Y-264565D01*
X98234Y-263766D01*
X97256Y-263201D01*
X96164Y-262909D01*
D02*
G37*
G36*
X-133220D02*
X-134350D01*
X-135441Y-263201D01*
X-136420Y-263766D01*
X-137219Y-264565D01*
X-137784Y-265544D01*
X-138076Y-266635D01*
Y-267765D01*
X-137784Y-268856D01*
X-137219Y-269835D01*
X-136420Y-270634D01*
X-135441Y-271199D01*
X-134350Y-271491D01*
X-133220D01*
X-132128Y-271199D01*
X-131150Y-270634D01*
X-130351Y-269835D01*
X-129786Y-268856D01*
X-129493Y-267765D01*
Y-266635D01*
X-129786Y-265544D01*
X-130351Y-264565D01*
X-131150Y-263766D01*
X-132128Y-263201D01*
X-133220Y-262909D01*
D02*
G37*
G36*
X-179655Y-245453D02*
X-180425D01*
X-181137Y-245747D01*
X-181682Y-246292D01*
X-181977Y-247005D01*
Y-247775D01*
X-181682Y-248487D01*
X-181137Y-249032D01*
X-180425Y-249327D01*
X-179959D01*
X-173968Y-255318D01*
Y-268452D01*
X-174384Y-268868D01*
X-174679Y-269580D01*
Y-270351D01*
X-174384Y-271063D01*
X-173839Y-271608D01*
X-173126Y-271903D01*
X-172356D01*
X-171644Y-271608D01*
X-171099Y-271063D01*
X-170804Y-270351D01*
Y-269580D01*
X-171099Y-268868D01*
X-171343Y-268624D01*
Y-254775D01*
X-171442Y-254273D01*
X-171727Y-253847D01*
X-178103Y-247471D01*
Y-247005D01*
X-178398Y-246292D01*
X-178943Y-245747D01*
X-179655Y-245453D01*
D02*
G37*
G36*
X-162792Y-274377D02*
Y-275997D01*
X-161172D01*
X-161470Y-275279D01*
X-162074Y-274674D01*
X-162792Y-274377D01*
D02*
G37*
G36*
X-163792D02*
X-164510Y-274674D01*
X-165115Y-275279D01*
X-165412Y-275997D01*
X-163792D01*
Y-274377D01*
D02*
G37*
G36*
X-161172Y-276997D02*
X-162792D01*
Y-278617D01*
X-162074Y-278320D01*
X-161470Y-277715D01*
X-161172Y-276997D01*
D02*
G37*
G36*
X-163792D02*
X-165412D01*
X-165115Y-277715D01*
X-164510Y-278320D01*
X-163792Y-278617D01*
Y-276997D01*
D02*
G37*
G36*
X-48876Y-279096D02*
Y-280716D01*
X-47256D01*
X-47553Y-279998D01*
X-48158Y-279393D01*
X-48876Y-279096D01*
D02*
G37*
G36*
X-49876D02*
X-50594Y-279393D01*
X-51199Y-279998D01*
X-51496Y-280716D01*
X-49876D01*
Y-279096D01*
D02*
G37*
G36*
X-47256Y-281716D02*
X-48876D01*
Y-283336D01*
X-48158Y-283038D01*
X-47553Y-282434D01*
X-47256Y-281716D01*
D02*
G37*
G36*
X-49876D02*
X-51496D01*
X-51199Y-282434D01*
X-50594Y-283038D01*
X-49876Y-283336D01*
Y-281716D01*
D02*
G37*
G36*
X-23975Y-285047D02*
Y-286667D01*
X-22355D01*
X-22652Y-285949D01*
X-23257Y-285344D01*
X-23975Y-285047D01*
D02*
G37*
G36*
X-24975D02*
X-25693Y-285344D01*
X-26298Y-285949D01*
X-26595Y-286667D01*
X-24975D01*
Y-285047D01*
D02*
G37*
G36*
X-92294Y-287625D02*
Y-289245D01*
X-90674D01*
X-90972Y-288527D01*
X-91576Y-287922D01*
X-92294Y-287625D01*
D02*
G37*
G36*
X-93294D02*
X-94012Y-287922D01*
X-94617Y-288527D01*
X-94914Y-289245D01*
X-93294D01*
Y-287625D01*
D02*
G37*
G36*
X-22355Y-287667D02*
X-23975D01*
Y-289287D01*
X-23257Y-288989D01*
X-22652Y-288385D01*
X-22355Y-287667D01*
D02*
G37*
G36*
X-24975D02*
X-26595D01*
X-26298Y-288385D01*
X-25693Y-288989D01*
X-24975Y-289287D01*
Y-287667D01*
D02*
G37*
G36*
X-90674Y-290245D02*
X-92294D01*
Y-291865D01*
X-91576Y-291567D01*
X-90972Y-290963D01*
X-90674Y-290245D01*
D02*
G37*
G36*
X-93294D02*
X-94914D01*
X-94617Y-290963D01*
X-94012Y-291567D01*
X-93294Y-291865D01*
Y-290245D01*
D02*
G37*
G36*
X6468Y-304280D02*
Y-305900D01*
X8088D01*
X7791Y-305182D01*
X7186Y-304577D01*
X6468Y-304280D01*
D02*
G37*
G36*
X5468D02*
X4750Y-304577D01*
X4146Y-305182D01*
X3848Y-305900D01*
X5468D01*
Y-304280D01*
D02*
G37*
G36*
X61635Y-306789D02*
Y-308409D01*
X63255D01*
X62958Y-307691D01*
X62353Y-307086D01*
X61635Y-306789D01*
D02*
G37*
G36*
X60635D02*
X59917Y-307086D01*
X59312Y-307691D01*
X59015Y-308409D01*
X60635D01*
Y-306789D01*
D02*
G37*
G36*
X8088Y-306900D02*
X6468D01*
Y-308520D01*
X7186Y-308223D01*
X7791Y-307618D01*
X8088Y-306900D01*
D02*
G37*
G36*
X5468D02*
X3848D01*
X4146Y-307618D01*
X4750Y-308223D01*
X5468Y-308520D01*
Y-306900D01*
D02*
G37*
G36*
X63255Y-309409D02*
X61635D01*
Y-311029D01*
X62353Y-310732D01*
X62958Y-310127D01*
X63255Y-309409D01*
D02*
G37*
G36*
X60635D02*
X59015D01*
X59312Y-310127D01*
X59917Y-310732D01*
X60635Y-311029D01*
Y-309409D01*
D02*
G37*
G36*
X74262Y-311185D02*
X72943D01*
X71669Y-311526D01*
X70526Y-312186D01*
X69594Y-313119D01*
X68934Y-314261D01*
X68593Y-315535D01*
Y-316854D01*
X68934Y-318128D01*
X69594Y-319271D01*
X70526Y-320203D01*
X71669Y-320863D01*
X72943Y-321204D01*
X74262D01*
X75536Y-320863D01*
X76679Y-320203D01*
X77612Y-319271D01*
X78271Y-318128D01*
X78613Y-316854D01*
Y-315535D01*
X78271Y-314261D01*
X77612Y-313119D01*
X76679Y-312186D01*
X75536Y-311526D01*
X74262Y-311185D01*
D02*
G37*
G36*
X-541D02*
X-1860D01*
X-3134Y-311526D01*
X-4277Y-312186D01*
X-5209Y-313119D01*
X-5869Y-314261D01*
X-6210Y-315535D01*
Y-316854D01*
X-5869Y-318128D01*
X-5209Y-319271D01*
X-4277Y-320203D01*
X-3134Y-320863D01*
X-1860Y-321204D01*
X-541D01*
X733Y-320863D01*
X1876Y-320203D01*
X2808Y-319271D01*
X3468Y-318128D01*
X3809Y-316854D01*
Y-315535D01*
X3468Y-314261D01*
X2808Y-313119D01*
X1876Y-312186D01*
X733Y-311526D01*
X-541Y-311185D01*
D02*
G37*
G36*
X-80544D02*
X-81863D01*
X-83137Y-311526D01*
X-84280Y-312186D01*
X-85212Y-313119D01*
X-85872Y-314261D01*
X-86213Y-315535D01*
Y-316854D01*
X-85872Y-318128D01*
X-85212Y-319271D01*
X-84280Y-320203D01*
X-83137Y-320863D01*
X-81863Y-321204D01*
X-80544D01*
X-79270Y-320863D01*
X-78127Y-320203D01*
X-77195Y-319271D01*
X-76535Y-318128D01*
X-76194Y-316854D01*
Y-315535D01*
X-76535Y-314261D01*
X-77195Y-313119D01*
X-78127Y-312186D01*
X-79270Y-311526D01*
X-80544Y-311185D01*
D02*
G37*
G36*
X-150147D02*
X-151466D01*
X-152741Y-311526D01*
X-153883Y-312186D01*
X-154816Y-313119D01*
X-155475Y-314261D01*
X-155817Y-315535D01*
Y-316854D01*
X-155475Y-318128D01*
X-154816Y-319271D01*
X-153883Y-320203D01*
X-152741Y-320863D01*
X-151466Y-321204D01*
X-150147D01*
X-148873Y-320863D01*
X-147731Y-320203D01*
X-146798Y-319271D01*
X-146138Y-318128D01*
X-145797Y-316854D01*
Y-315535D01*
X-146138Y-314261D01*
X-146798Y-313119D01*
X-147731Y-312186D01*
X-148873Y-311526D01*
X-150147Y-311185D01*
D02*
G37*
G36*
X119219Y-325839D02*
X117586D01*
X115985Y-326157D01*
X114477Y-326782D01*
X113119Y-327689D01*
X111965Y-328843D01*
X111058Y-330201D01*
X110433Y-331709D01*
X110115Y-333310D01*
Y-334943D01*
X110433Y-336544D01*
X111058Y-338052D01*
X111965Y-339409D01*
X113119Y-340564D01*
X114477Y-341471D01*
X115985Y-342095D01*
X117586Y-342414D01*
X119219D01*
X120820Y-342095D01*
X122328Y-341471D01*
X123685Y-340564D01*
X124839Y-339409D01*
X125746Y-338052D01*
X126371Y-336544D01*
X126690Y-334943D01*
Y-333310D01*
X126371Y-331709D01*
X125746Y-330201D01*
X124839Y-328843D01*
X123685Y-327689D01*
X122328Y-326782D01*
X120820Y-326157D01*
X119219Y-325839D01*
D02*
G37*
G36*
X-194769D02*
X-196401D01*
X-198002Y-326157D01*
X-199510Y-326782D01*
X-200868Y-327689D01*
X-202022Y-328843D01*
X-202929Y-330201D01*
X-203554Y-331709D01*
X-203872Y-333310D01*
Y-334943D01*
X-203554Y-336544D01*
X-202929Y-338052D01*
X-202022Y-339409D01*
X-200868Y-340564D01*
X-199510Y-341471D01*
X-198002Y-342095D01*
X-196401Y-342414D01*
X-194769D01*
X-193167Y-342095D01*
X-191659Y-341471D01*
X-190302Y-340564D01*
X-189148Y-339409D01*
X-188241Y-338052D01*
X-187616Y-336544D01*
X-187297Y-334943D01*
Y-333310D01*
X-187616Y-331709D01*
X-188241Y-330201D01*
X-189148Y-328843D01*
X-190302Y-327689D01*
X-191659Y-326782D01*
X-193167Y-326157D01*
X-194769Y-325839D01*
D02*
G37*
%LPD*%
D12*
X-23073Y-193818D02*
X13364D01*
X29272Y-209726D01*
X-58082Y-198813D02*
X-8222Y-148953D01*
X-3403D01*
X-92845Y-246040D02*
Y-233579D01*
X-101010Y-98144D02*
X-67609D01*
X-67585Y-98168D01*
X-63492Y-98157D02*
X-3403D01*
X-172655Y-269879D02*
Y-254775D01*
X-180040Y-247390D02*
X-172655Y-254775D01*
X-3414Y-98155D02*
X-3403Y-98144D01*
X-63503Y-98168D02*
X-63492Y-98157D01*
X-67585Y-98168D02*
X-63503D01*
X-172741Y-269966D02*
X-172655Y-269879D01*
D73*
X-9357Y-30323D02*
X-1200Y-38480D01*
X-76003Y-38480D02*
X-67845Y-30323D01*
X-9357D01*
D74*
X-1201Y-316195D02*
D03*
X-81204D02*
D03*
X73603D02*
D03*
X-150807D02*
D03*
X-150806Y-38480D02*
D03*
X-76003D02*
D03*
X-1200D02*
D03*
X73603D02*
D03*
D75*
X-133785Y-87200D02*
D03*
Y-267200D02*
D03*
X95599D02*
D03*
Y-87200D02*
D03*
D76*
X-24858Y-36800D02*
D03*
X-52259D02*
D03*
D77*
X-165200Y-236611D02*
D03*
Y-188211D02*
D03*
X-198000Y-236611D02*
D03*
Y-188211D02*
D03*
X-165200Y-139811D02*
D03*
X-198000D02*
D03*
D78*
X-165200Y-214800D02*
D03*
Y-166400D02*
D03*
X-198000Y-214800D02*
D03*
Y-166400D02*
D03*
X-165200Y-118000D02*
D03*
X-198000D02*
D03*
D79*
X-195585Y-334126D02*
D03*
Y-20200D02*
D03*
X118402D02*
D03*
Y-334126D02*
D03*
D80*
X-29300Y-54300D02*
D03*
X-58082Y-198813D02*
D03*
X-92845Y-246040D02*
D03*
Y-233579D02*
D03*
X5968Y-306400D02*
D03*
X61135Y-308909D02*
D03*
X-69323Y-249441D02*
D03*
X-33200Y-125406D02*
D03*
X-101010Y-98144D02*
D03*
X-82278Y-110601D02*
D03*
X29272Y-209726D02*
D03*
X-51070Y-212197D02*
D03*
X-24475Y-287167D02*
D03*
X-23073Y-193818D02*
D03*
X-45185Y-152223D02*
D03*
X-3403Y-148953D02*
D03*
X-55881Y-227468D02*
D03*
X33184Y-87536D02*
D03*
X-56288Y-84541D02*
D03*
X-180040Y-247390D02*
D03*
X-3403Y-98144D02*
D03*
X-63503Y-98168D02*
D03*
X-107485Y-109077D02*
D03*
X-172741Y-269966D02*
D03*
X-91823Y-212200D02*
D03*
X106456Y-74738D02*
D03*
X85392Y-74628D02*
D03*
X-123733Y-75019D02*
D03*
X-144029Y-75010D02*
D03*
X-29823Y-253094D02*
D03*
X-33760D02*
D03*
X-25032Y-256568D02*
D03*
Y-260596D02*
D03*
Y-264536D02*
D03*
Y-268564D02*
D03*
X-33760Y-271704D02*
D03*
X-29823D02*
D03*
X-3403Y-159901D02*
D03*
X520D02*
D03*
X4578D02*
D03*
X8576D02*
D03*
X12573D02*
D03*
X16601D02*
D03*
X24566D02*
D03*
X20570D02*
D03*
X28593D02*
D03*
X32533D02*
D03*
X36561D02*
D03*
X39955Y-163918D02*
D03*
X39941Y-168118D02*
D03*
X39955Y-172118D02*
D03*
Y-176116D02*
D03*
X40000Y-180145D02*
D03*
Y-184237D02*
D03*
X40014Y-188145D02*
D03*
Y-192197D02*
D03*
X40007Y-196207D02*
D03*
X28044Y-143039D02*
D03*
X32054Y-143046D02*
D03*
X36106D02*
D03*
X40014Y-143032D02*
D03*
X44106D02*
D03*
X48135Y-142986D02*
D03*
X52133D02*
D03*
X56133Y-142972D02*
D03*
X60333Y-142986D02*
D03*
X63900Y-139197D02*
D03*
Y-135170D02*
D03*
Y-131230D02*
D03*
Y-127202D02*
D03*
Y-123207D02*
D03*
Y-119237D02*
D03*
Y-115209D02*
D03*
Y-111212D02*
D03*
Y-107215D02*
D03*
Y-103156D02*
D03*
Y-99233D02*
D03*
X60800Y-94797D02*
D03*
X56600Y-94784D02*
D03*
X52600Y-94797D02*
D03*
X48603D02*
D03*
X44574Y-94843D02*
D03*
X40481D02*
D03*
X36573Y-94857D02*
D03*
X28511Y-94850D02*
D03*
X32521Y-94857D02*
D03*
X-93646Y-264209D02*
D03*
X-163292Y-276497D02*
D03*
X-49376Y-281216D02*
D03*
X-58008Y-184600D02*
D03*
X-61932D02*
D03*
X-65990D02*
D03*
X-69988D02*
D03*
X-73985D02*
D03*
X-78013D02*
D03*
X-81982D02*
D03*
X-85978D02*
D03*
X-90005D02*
D03*
X-93945D02*
D03*
X-54098Y-149911D02*
D03*
X-54105Y-153921D02*
D03*
Y-157973D02*
D03*
X-54092Y-161881D02*
D03*
Y-165974D02*
D03*
X-54046Y-170003D02*
D03*
Y-174000D02*
D03*
X-54032Y-178000D02*
D03*
X-54046Y-182200D02*
D03*
X-97973Y-184600D02*
D03*
X-101948Y-182289D02*
D03*
X-101934Y-178089D02*
D03*
X-101948Y-174089D02*
D03*
Y-170092D02*
D03*
X-101993Y-166063D02*
D03*
Y-161970D02*
D03*
X-102007Y-158062D02*
D03*
Y-154010D02*
D03*
X-189909Y-266912D02*
D03*
X-35138Y-238000D02*
D03*
X-102000Y-150000D02*
D03*
X-176000Y-64457D02*
D03*
X-92794Y-289745D02*
D03*
M02*
