G04*
G04 #@! TF.GenerationSoftware,Altium Limited,Altium Designer,24.0.1 (36)*
G04*
G04 Layer_Color=65535*
%FSLAX25Y25*%
%MOIN*%
G70*
G04*
G04 #@! TF.SameCoordinates,EC2407A8-7C3A-46FB-840E-4377B73232B9*
G04*
G04*
G04 #@! TF.FilePolarity,Positive*
G04*
G01*
G75*
%ADD10C,0.00394*%
%ADD11C,0.00787*%
%ADD12C,0.01000*%
G36*
X71661Y-164306D02*
X72370D01*
Y-164425D01*
X72843D01*
Y-164543D01*
X73198D01*
Y-164661D01*
X73435D01*
Y-164779D01*
X73671D01*
Y-164898D01*
X73908D01*
Y-165016D01*
X74145D01*
Y-165134D01*
X74263D01*
Y-165252D01*
X74499D01*
Y-165371D01*
X74618D01*
Y-165489D01*
X74736D01*
Y-165607D01*
X74854D01*
Y-165726D01*
X75091D01*
Y-165844D01*
X75209D01*
Y-165962D01*
X75327D01*
Y-166199D01*
X75445D01*
Y-166317D01*
X75564D01*
Y-166435D01*
X75682D01*
Y-166553D01*
X75800D01*
Y-166672D01*
X75919D01*
Y-166908D01*
X76037D01*
Y-167026D01*
X69769D01*
Y-167145D01*
X69532D01*
Y-167263D01*
X69414D01*
Y-167500D01*
X69296D01*
Y-167854D01*
X69177D01*
Y-168091D01*
X69059D01*
Y-168327D01*
X68941D01*
Y-168682D01*
X68822D01*
Y-168919D01*
X68704D01*
Y-169155D01*
X68586D01*
Y-169510D01*
X68468D01*
Y-169747D01*
X68349D01*
Y-169983D01*
X68231D01*
Y-170338D01*
X68113D01*
Y-170575D01*
X67994D01*
Y-170811D01*
X67876D01*
Y-171166D01*
X67758D01*
Y-171403D01*
X67640D01*
Y-171639D01*
X67521D01*
Y-171876D01*
X67403D01*
Y-172230D01*
X67285D01*
Y-172467D01*
X67167D01*
Y-172703D01*
X67048D01*
Y-173058D01*
X66930D01*
Y-173295D01*
X66812D01*
Y-173531D01*
X66694D01*
Y-173768D01*
X66575D01*
Y-174123D01*
X66457D01*
Y-174359D01*
X66339D01*
Y-174714D01*
X66575D01*
Y-174832D01*
X75564D01*
Y-174714D01*
X75800D01*
Y-174832D01*
X75919D01*
Y-175069D01*
X75800D01*
Y-175187D01*
X75682D01*
Y-175305D01*
X75564D01*
Y-175424D01*
X75445D01*
Y-175542D01*
X75327D01*
Y-175660D01*
X75209D01*
Y-175778D01*
X75091D01*
Y-175897D01*
X74972D01*
Y-176015D01*
X74854D01*
Y-176133D01*
X74736D01*
Y-176251D01*
X74618D01*
Y-176370D01*
X74499D01*
Y-176488D01*
X74263D01*
Y-176606D01*
X74145D01*
Y-176725D01*
X73908D01*
Y-176843D01*
X73671D01*
Y-176961D01*
X73435D01*
Y-177079D01*
X73198D01*
Y-177198D01*
X72843D01*
Y-177316D01*
X72489D01*
Y-177434D01*
X71897D01*
Y-177552D01*
X71070D01*
Y-177671D01*
X61253D01*
Y-177552D01*
X58888D01*
Y-177434D01*
X58296D01*
Y-177316D01*
X57942D01*
Y-177198D01*
X57705D01*
Y-177079D01*
X57350D01*
Y-176961D01*
X57114D01*
Y-176843D01*
X56995D01*
Y-176725D01*
X56759D01*
Y-176606D01*
X56641D01*
Y-176488D01*
X56404D01*
Y-176370D01*
X56286D01*
Y-176251D01*
X56168D01*
Y-176133D01*
X55931D01*
Y-176015D01*
X55813D01*
Y-175897D01*
X55695D01*
Y-175778D01*
X55576D01*
Y-175660D01*
X55458D01*
Y-175542D01*
X55340D01*
Y-175305D01*
X55221D01*
Y-175187D01*
X55103D01*
Y-175069D01*
X54985D01*
Y-174951D01*
X54867D01*
Y-174714D01*
X54748D01*
Y-174596D01*
X54630D01*
Y-174359D01*
X54512D01*
Y-174123D01*
X54394D01*
Y-173886D01*
X54275D01*
Y-173650D01*
X54157D01*
Y-173295D01*
X54039D01*
Y-172940D01*
X53921D01*
Y-172467D01*
X53802D01*
Y-171284D01*
X53684D01*
Y-170575D01*
X53802D01*
Y-169392D01*
X53921D01*
Y-168800D01*
X54039D01*
Y-168446D01*
X54157D01*
Y-168091D01*
X54275D01*
Y-167854D01*
X54394D01*
Y-167618D01*
X54512D01*
Y-167381D01*
X54630D01*
Y-167145D01*
X54748D01*
Y-167026D01*
X54867D01*
Y-166790D01*
X54985D01*
Y-166672D01*
X55103D01*
Y-166553D01*
X55221D01*
Y-166435D01*
X55340D01*
Y-166199D01*
X55458D01*
Y-166080D01*
X55576D01*
Y-165962D01*
X55695D01*
Y-165844D01*
X55931D01*
Y-165726D01*
X56049D01*
Y-165607D01*
X56168D01*
Y-165489D01*
X56286D01*
Y-165371D01*
X56522D01*
Y-165252D01*
X56641D01*
Y-165134D01*
X56877D01*
Y-165016D01*
X56995D01*
Y-164898D01*
X57232D01*
Y-164779D01*
X57468D01*
Y-164661D01*
X57705D01*
Y-164543D01*
X58060D01*
Y-164425D01*
X58415D01*
Y-164306D01*
X59006D01*
Y-164188D01*
X63973D01*
Y-164306D01*
X64092D01*
Y-164425D01*
X64210D01*
Y-164661D01*
X64328D01*
Y-165252D01*
X64446D01*
Y-165844D01*
X64565D01*
Y-166435D01*
X64683D01*
Y-166908D01*
X64801D01*
Y-167500D01*
X64920D01*
Y-168091D01*
X65038D01*
Y-168564D01*
X65156D01*
Y-169155D01*
X65274D01*
Y-169628D01*
X65393D01*
Y-169747D01*
X65511D01*
Y-169510D01*
X65629D01*
Y-169155D01*
X65747D01*
Y-168800D01*
X65866D01*
Y-168446D01*
X65984D01*
Y-168091D01*
X66102D01*
Y-167854D01*
X66220D01*
Y-167500D01*
X66339D01*
Y-167145D01*
X66457D01*
Y-166790D01*
X66575D01*
Y-166435D01*
X66694D01*
Y-166199D01*
X66812D01*
Y-165844D01*
X66930D01*
Y-165489D01*
X67048D01*
Y-165134D01*
X67167D01*
Y-164779D01*
X67285D01*
Y-164543D01*
X67403D01*
Y-164306D01*
X67640D01*
Y-164188D01*
X71661D01*
Y-164306D01*
D02*
G37*
G36*
X70596Y-179800D02*
X71661D01*
Y-179918D01*
X72134D01*
Y-180036D01*
X72489D01*
Y-180154D01*
X72843D01*
Y-180273D01*
X73080D01*
Y-180391D01*
X73317D01*
Y-180509D01*
X73553D01*
Y-180628D01*
X73671D01*
Y-180746D01*
X73908D01*
Y-180864D01*
X74026D01*
Y-180982D01*
X74145D01*
Y-181100D01*
X74381D01*
Y-181219D01*
X74499D01*
Y-181337D01*
X74618D01*
Y-181455D01*
X74736D01*
Y-181574D01*
X74854D01*
Y-181692D01*
X74972D01*
Y-181810D01*
X75091D01*
Y-181928D01*
X75209D01*
Y-182047D01*
X75327D01*
Y-182283D01*
X75445D01*
Y-182402D01*
X75564D01*
Y-182520D01*
X65511D01*
Y-182638D01*
X65393D01*
Y-182875D01*
X65511D01*
Y-182993D01*
X65629D01*
Y-183229D01*
X65747D01*
Y-183348D01*
X65866D01*
Y-183584D01*
X65984D01*
Y-183703D01*
X66102D01*
Y-183939D01*
X66220D01*
Y-184057D01*
X66339D01*
Y-184176D01*
X66457D01*
Y-184412D01*
X66694D01*
Y-184530D01*
X67167D01*
Y-184412D01*
X67403D01*
Y-185358D01*
X67285D01*
Y-185950D01*
X67167D01*
Y-186068D01*
X67285D01*
Y-186304D01*
X67521D01*
Y-186423D01*
X67640D01*
Y-186304D01*
X68704D01*
Y-186423D01*
X68822D01*
Y-186541D01*
X68941D01*
Y-186777D01*
X68822D01*
Y-187014D01*
X67285D01*
Y-187250D01*
X67167D01*
Y-187369D01*
X67285D01*
Y-188078D01*
X67403D01*
Y-188788D01*
X67521D01*
Y-188906D01*
X67167D01*
Y-188788D01*
X66575D01*
Y-188906D01*
X66457D01*
Y-189025D01*
X66339D01*
Y-189261D01*
X66220D01*
Y-189379D01*
X66102D01*
Y-189616D01*
X65984D01*
Y-189734D01*
X65866D01*
Y-189971D01*
X65747D01*
Y-190089D01*
X65629D01*
Y-190207D01*
X65511D01*
Y-190444D01*
X65393D01*
Y-190680D01*
X75445D01*
Y-191035D01*
X75327D01*
Y-191153D01*
X75209D01*
Y-191272D01*
X75091D01*
Y-191390D01*
X74972D01*
Y-191508D01*
X74854D01*
Y-191627D01*
X74736D01*
Y-191745D01*
X74618D01*
Y-191863D01*
X74499D01*
Y-191981D01*
X74381D01*
Y-192100D01*
X74263D01*
Y-192218D01*
X74145D01*
Y-192336D01*
X73908D01*
Y-192454D01*
X73790D01*
Y-192573D01*
X73671D01*
Y-192691D01*
X73435D01*
Y-192809D01*
X73198D01*
Y-192928D01*
X72962D01*
Y-193046D01*
X72725D01*
Y-193164D01*
X72370D01*
Y-193282D01*
X72016D01*
Y-193401D01*
X71424D01*
Y-193519D01*
X66457D01*
Y-193637D01*
X63500D01*
Y-193519D01*
X58651D01*
Y-193401D01*
X58178D01*
Y-193282D01*
X57705D01*
Y-193164D01*
X57350D01*
Y-193046D01*
X57114D01*
Y-192928D01*
X56877D01*
Y-192809D01*
X56641D01*
Y-192691D01*
X56404D01*
Y-192573D01*
X56286D01*
Y-192454D01*
X56049D01*
Y-192336D01*
X55931D01*
Y-192218D01*
X55695D01*
Y-192100D01*
X55576D01*
Y-191981D01*
X55458D01*
Y-191863D01*
X55340D01*
Y-191745D01*
X55221D01*
Y-191627D01*
X55103D01*
Y-191508D01*
X54985D01*
Y-191390D01*
X54867D01*
Y-191272D01*
X54748D01*
Y-191035D01*
X54630D01*
Y-190917D01*
X54512D01*
Y-190680D01*
X54394D01*
Y-190562D01*
X54275D01*
Y-190325D01*
X54157D01*
Y-190089D01*
X54039D01*
Y-189852D01*
X53921D01*
Y-189616D01*
X53802D01*
Y-189261D01*
X53684D01*
Y-188906D01*
X53566D01*
Y-188433D01*
X53447D01*
Y-187605D01*
X53329D01*
Y-185831D01*
X53447D01*
Y-184885D01*
X53566D01*
Y-184412D01*
X53684D01*
Y-184057D01*
X53802D01*
Y-183703D01*
X53921D01*
Y-183466D01*
X54039D01*
Y-183229D01*
X54157D01*
Y-182993D01*
X54275D01*
Y-182756D01*
X54394D01*
Y-182520D01*
X54512D01*
Y-182402D01*
X54630D01*
Y-182283D01*
X54748D01*
Y-182047D01*
X54867D01*
Y-181928D01*
X54985D01*
Y-181810D01*
X55103D01*
Y-181692D01*
X55221D01*
Y-181574D01*
X55340D01*
Y-181455D01*
X55458D01*
Y-181337D01*
X55576D01*
Y-181219D01*
X55695D01*
Y-181100D01*
X55813D01*
Y-180982D01*
X56049D01*
Y-180864D01*
X56168D01*
Y-180746D01*
X56404D01*
Y-180628D01*
X56522D01*
Y-180509D01*
X56759D01*
Y-180391D01*
X56995D01*
Y-180273D01*
X57232D01*
Y-180154D01*
X57587D01*
Y-180036D01*
X58060D01*
Y-179918D01*
X58533D01*
Y-179800D01*
X59479D01*
Y-179681D01*
X70596D01*
Y-179800D01*
D02*
G37*
G36*
X71543Y-195766D02*
X72016D01*
Y-195884D01*
X72370D01*
Y-196002D01*
X72725D01*
Y-196121D01*
X72962D01*
Y-196239D01*
X73198D01*
Y-196357D01*
X73435D01*
Y-196476D01*
X73671D01*
Y-196594D01*
X73790D01*
Y-196712D01*
X74026D01*
Y-196830D01*
X74145D01*
Y-196949D01*
X74263D01*
Y-197067D01*
X74499D01*
Y-197185D01*
X74618D01*
Y-197303D01*
X74736D01*
Y-197422D01*
X74854D01*
Y-197540D01*
X74972D01*
Y-197658D01*
X75091D01*
Y-197776D01*
X75209D01*
Y-198013D01*
X75327D01*
Y-198131D01*
X75445D01*
Y-198250D01*
X75564D01*
Y-198486D01*
X75682D01*
Y-198604D01*
X75800D01*
Y-198841D01*
X75919D01*
Y-199077D01*
X76037D01*
Y-199314D01*
X76155D01*
Y-199550D01*
X76273D01*
Y-199787D01*
X76392D01*
Y-200142D01*
X76510D01*
Y-200615D01*
X76628D01*
Y-201443D01*
X76746D01*
Y-203099D01*
X76628D01*
Y-203926D01*
X76510D01*
Y-204518D01*
X76392D01*
Y-204873D01*
X76273D01*
Y-205109D01*
X76155D01*
Y-205464D01*
X76037D01*
Y-205701D01*
X75919D01*
Y-205819D01*
X75800D01*
Y-206055D01*
X75682D01*
Y-206292D01*
X75564D01*
Y-206410D01*
X75445D01*
Y-206528D01*
X75327D01*
Y-206765D01*
X75209D01*
Y-206883D01*
X75091D01*
Y-207001D01*
X74972D01*
Y-207120D01*
X74854D01*
Y-207238D01*
X74736D01*
Y-207356D01*
X74618D01*
Y-207475D01*
X74499D01*
Y-207593D01*
X74381D01*
Y-207711D01*
X74145D01*
Y-207829D01*
X74026D01*
Y-207948D01*
X73908D01*
Y-208066D01*
X73671D01*
Y-208184D01*
X73435D01*
Y-208302D01*
X73317D01*
Y-208421D01*
X73080D01*
Y-208539D01*
X72725D01*
Y-208657D01*
X72489D01*
Y-208776D01*
X72134D01*
Y-208894D01*
X71543D01*
Y-209012D01*
X59952D01*
Y-209130D01*
X59361D01*
Y-209012D01*
X58415D01*
Y-208894D01*
X57942D01*
Y-208776D01*
X57587D01*
Y-208657D01*
X57232D01*
Y-208539D01*
X56995D01*
Y-208421D01*
X56759D01*
Y-208302D01*
X56522D01*
Y-208184D01*
X56404D01*
Y-208066D01*
X56168D01*
Y-207948D01*
X56049D01*
Y-207829D01*
X55813D01*
Y-207711D01*
X55695D01*
Y-207593D01*
X55576D01*
Y-207475D01*
X55458D01*
Y-207356D01*
X55340D01*
Y-207238D01*
X55221D01*
Y-207120D01*
X55103D01*
Y-207001D01*
X54985D01*
Y-206883D01*
X54867D01*
Y-206765D01*
X54748D01*
Y-206647D01*
X54630D01*
Y-206528D01*
X54512D01*
Y-206292D01*
X54394D01*
Y-206174D01*
X54275D01*
Y-205937D01*
X54157D01*
Y-205701D01*
X54039D01*
Y-205464D01*
X53921D01*
Y-205227D01*
X53802D01*
Y-204873D01*
X53684D01*
Y-204518D01*
X53566D01*
Y-204163D01*
X53447D01*
Y-203453D01*
X53329D01*
Y-201206D01*
X53447D01*
Y-200615D01*
X53566D01*
Y-200142D01*
X53684D01*
Y-199787D01*
X53802D01*
Y-199550D01*
X53921D01*
Y-199196D01*
X54039D01*
Y-198959D01*
X54157D01*
Y-198723D01*
X54275D01*
Y-198604D01*
X54394D01*
Y-198368D01*
X54512D01*
Y-198250D01*
X54630D01*
Y-198013D01*
X54748D01*
Y-197895D01*
X54867D01*
Y-197776D01*
X54985D01*
Y-197658D01*
X55103D01*
Y-197540D01*
X55221D01*
Y-197422D01*
X55340D01*
Y-197303D01*
X55458D01*
Y-197185D01*
X55576D01*
Y-197067D01*
X55695D01*
Y-196949D01*
X55813D01*
Y-196830D01*
X56049D01*
Y-196712D01*
X56168D01*
Y-196594D01*
X56404D01*
Y-196476D01*
X56641D01*
Y-196357D01*
X56759D01*
Y-196239D01*
X57114D01*
Y-196121D01*
X57350D01*
Y-196002D01*
X57705D01*
Y-195884D01*
X58060D01*
Y-195766D01*
X58651D01*
Y-195648D01*
X71543D01*
Y-195766D01*
D02*
G37*
G36*
X45169Y-164898D02*
X45287D01*
Y-165252D01*
X45405D01*
Y-165607D01*
X45523D01*
Y-166080D01*
X45642D01*
Y-166553D01*
X45760D01*
Y-167026D01*
X45878D01*
Y-167618D01*
X45996D01*
Y-168091D01*
X46115D01*
Y-168800D01*
X46233D01*
Y-169510D01*
X46351D01*
Y-170456D01*
X46470D01*
Y-171639D01*
X46588D01*
Y-173295D01*
X46706D01*
Y-179681D01*
X46588D01*
Y-193637D01*
X46706D01*
Y-212560D01*
X46824D01*
Y-212678D01*
X46943D01*
Y-212797D01*
X47061D01*
Y-212915D01*
X47179D01*
Y-213033D01*
X47297D01*
Y-213152D01*
X47416D01*
Y-213270D01*
X47534D01*
Y-213388D01*
X47652D01*
Y-213506D01*
X47771D01*
Y-213625D01*
X47889D01*
Y-213743D01*
X48007D01*
Y-213861D01*
X48125D01*
Y-213979D01*
X48243D01*
Y-214098D01*
X48480D01*
Y-214334D01*
X48598D01*
Y-221076D01*
X48480D01*
Y-220957D01*
X48362D01*
Y-220839D01*
X48125D01*
Y-220721D01*
X48007D01*
Y-220602D01*
X47889D01*
Y-220484D01*
X47652D01*
Y-220366D01*
X47534D01*
Y-220248D01*
X47416D01*
Y-220129D01*
X47179D01*
Y-220011D01*
X47061D01*
Y-219893D01*
X46824D01*
Y-219775D01*
X43513D01*
Y-219656D01*
X43395D01*
Y-219775D01*
X43158D01*
Y-219893D01*
X43040D01*
Y-220011D01*
X42921D01*
Y-220129D01*
X42685D01*
Y-220248D01*
X42567D01*
Y-220366D01*
X42448D01*
Y-220484D01*
X42212D01*
Y-220602D01*
X42094D01*
Y-220721D01*
X41975D01*
Y-220839D01*
X41739D01*
Y-220957D01*
X41620D01*
Y-221076D01*
X41502D01*
Y-219775D01*
Y-219656D01*
Y-214453D01*
X41620D01*
Y-214216D01*
X41739D01*
Y-213979D01*
X41857D01*
Y-213861D01*
X42094D01*
Y-213743D01*
X42212D01*
Y-213625D01*
X42330D01*
Y-213506D01*
X42448D01*
Y-213388D01*
X42567D01*
Y-213270D01*
X42685D01*
Y-213152D01*
X42803D01*
Y-213033D01*
X42921D01*
Y-212915D01*
X43040D01*
Y-212797D01*
X43158D01*
Y-212678D01*
X43276D01*
Y-212560D01*
X43395D01*
Y-173058D01*
X43513D01*
Y-171521D01*
X43631D01*
Y-170456D01*
X43749D01*
Y-169510D01*
X43868D01*
Y-168800D01*
X43986D01*
Y-168209D01*
X44104D01*
Y-167618D01*
X44222D01*
Y-167026D01*
X44341D01*
Y-166553D01*
X44459D01*
Y-166080D01*
X44577D01*
Y-165726D01*
X44695D01*
Y-165252D01*
X44814D01*
Y-164898D01*
X44932D01*
Y-164543D01*
X45169D01*
Y-164898D01*
D02*
G37*
G36*
X68822Y-211023D02*
X69650D01*
Y-211141D01*
X70123D01*
Y-211259D01*
X70478D01*
Y-211378D01*
X70833D01*
Y-211496D01*
X71188D01*
Y-211614D01*
X71424D01*
Y-211732D01*
X71661D01*
Y-211851D01*
X71897D01*
Y-211969D01*
X72134D01*
Y-212087D01*
X72370D01*
Y-212205D01*
X72607D01*
Y-212324D01*
X72725D01*
Y-212442D01*
X72962D01*
Y-212560D01*
X73080D01*
Y-212678D01*
X73198D01*
Y-212797D01*
X73435D01*
Y-212915D01*
X73553D01*
Y-213033D01*
X73671D01*
Y-213152D01*
X73790D01*
Y-213270D01*
X73908D01*
Y-213388D01*
X74026D01*
Y-213506D01*
X74145D01*
Y-213625D01*
X74263D01*
Y-213743D01*
X74381D01*
Y-213861D01*
X74499D01*
Y-213979D01*
X74618D01*
Y-214098D01*
X74736D01*
Y-214334D01*
X74854D01*
Y-214453D01*
X74972D01*
Y-214689D01*
X75091D01*
Y-214807D01*
X75209D01*
Y-215044D01*
X75327D01*
Y-215280D01*
X75445D01*
Y-215517D01*
X75564D01*
Y-215753D01*
X75682D01*
Y-216108D01*
X75800D01*
Y-216463D01*
X75919D01*
Y-216818D01*
X76037D01*
Y-217409D01*
X76155D01*
Y-219656D01*
X76273D01*
Y-237870D01*
X76037D01*
Y-237633D01*
X75919D01*
Y-237515D01*
X75800D01*
Y-237278D01*
X75682D01*
Y-237160D01*
X75564D01*
Y-237042D01*
X75445D01*
Y-236805D01*
X75327D01*
Y-236687D01*
X75209D01*
Y-236451D01*
X75091D01*
Y-236332D01*
X74972D01*
Y-236096D01*
X74854D01*
Y-235978D01*
X74736D01*
Y-235741D01*
X74618D01*
Y-235623D01*
X74499D01*
Y-235386D01*
X74381D01*
Y-235268D01*
X74263D01*
Y-235150D01*
X74145D01*
Y-234913D01*
X74026D01*
Y-234795D01*
X73908D01*
Y-234558D01*
X73790D01*
Y-234440D01*
X73671D01*
Y-234203D01*
X73553D01*
Y-234085D01*
X73435D01*
Y-233849D01*
X73317D01*
Y-233730D01*
X73198D01*
Y-233612D01*
X73080D01*
Y-233376D01*
X72962D01*
Y-218474D01*
X72843D01*
Y-217882D01*
X72725D01*
Y-217528D01*
X72607D01*
Y-217173D01*
X72489D01*
Y-216936D01*
X72370D01*
Y-216700D01*
X72252D01*
Y-216581D01*
X72134D01*
Y-216345D01*
X72016D01*
Y-216227D01*
X71897D01*
Y-215990D01*
X71779D01*
Y-215872D01*
X71661D01*
Y-215753D01*
X71543D01*
Y-215635D01*
X71424D01*
Y-215517D01*
X71306D01*
Y-215399D01*
X71188D01*
Y-215280D01*
X70951D01*
Y-215162D01*
X70833D01*
Y-215044D01*
X70596D01*
Y-214926D01*
X70478D01*
Y-214807D01*
X70242D01*
Y-214689D01*
X69887D01*
Y-214571D01*
X69532D01*
Y-214453D01*
X69059D01*
Y-214334D01*
X67758D01*
Y-214216D01*
X67403D01*
Y-214334D01*
X66102D01*
Y-214453D01*
X65511D01*
Y-214571D01*
X65156D01*
Y-214689D01*
X64801D01*
Y-214807D01*
X64565D01*
Y-214926D01*
X64328D01*
Y-215044D01*
X64092D01*
Y-215162D01*
X63855D01*
Y-215280D01*
X63737D01*
Y-215399D01*
X63500D01*
Y-215517D01*
X63382D01*
Y-215635D01*
X63264D01*
Y-215753D01*
X63146D01*
Y-215872D01*
X63027D01*
Y-215990D01*
X62909D01*
Y-216108D01*
X62791D01*
Y-216227D01*
X62672D01*
Y-216345D01*
X62554D01*
Y-216463D01*
X62436D01*
Y-216581D01*
X62318D01*
Y-216818D01*
X62199D01*
Y-216936D01*
X62081D01*
Y-217173D01*
X61963D01*
Y-217409D01*
X61844D01*
Y-217646D01*
X61726D01*
Y-218001D01*
X61608D01*
Y-218355D01*
X61490D01*
Y-221785D01*
X61608D01*
Y-224742D01*
X61490D01*
Y-226161D01*
X61371D01*
Y-226989D01*
X61253D01*
Y-227462D01*
X61135D01*
Y-227935D01*
X61017D01*
Y-228290D01*
X60898D01*
Y-228645D01*
X60780D01*
Y-228881D01*
X60662D01*
Y-229236D01*
X60544D01*
Y-229473D01*
X60425D01*
Y-229591D01*
X60307D01*
Y-229827D01*
X60189D01*
Y-230064D01*
X60071D01*
Y-230182D01*
X59952D01*
Y-230301D01*
X59834D01*
Y-230537D01*
X59716D01*
Y-230655D01*
X59597D01*
Y-230774D01*
X59479D01*
Y-230892D01*
X59361D01*
Y-231010D01*
X59243D01*
Y-231128D01*
X59124D01*
Y-231247D01*
X59006D01*
Y-231365D01*
X58888D01*
Y-231483D01*
X58770D01*
Y-231602D01*
X58651D01*
Y-231720D01*
X58533D01*
Y-231838D01*
X58296D01*
Y-231956D01*
X58178D01*
Y-232075D01*
X58060D01*
Y-232193D01*
X57823D01*
Y-232311D01*
X57587D01*
Y-232429D01*
X57468D01*
Y-232548D01*
X57232D01*
Y-232666D01*
X56995D01*
Y-232784D01*
X56759D01*
Y-232903D01*
X56522D01*
Y-233021D01*
X56168D01*
Y-233139D01*
X55813D01*
Y-233257D01*
X55458D01*
Y-233376D01*
X55103D01*
Y-233494D01*
X54748D01*
Y-233612D01*
X54157D01*
Y-233730D01*
X53447D01*
Y-233849D01*
X52028D01*
Y-233967D01*
X51792D01*
Y-233849D01*
X50372D01*
Y-233730D01*
X49781D01*
Y-233612D01*
X49308D01*
Y-233494D01*
X48835D01*
Y-233376D01*
X48598D01*
Y-233257D01*
X48243D01*
Y-233139D01*
X48007D01*
Y-233021D01*
X47771D01*
Y-232903D01*
X47534D01*
Y-232784D01*
X47297D01*
Y-232666D01*
X47061D01*
Y-232548D01*
X46943D01*
Y-232429D01*
X46706D01*
Y-232311D01*
X46588D01*
Y-232193D01*
X46470D01*
Y-232075D01*
X46233D01*
Y-231956D01*
X46115D01*
Y-231838D01*
X45996D01*
Y-231720D01*
X45878D01*
Y-231602D01*
X45760D01*
Y-231483D01*
X45642D01*
Y-231365D01*
X45523D01*
Y-231247D01*
X45405D01*
Y-231128D01*
X45287D01*
Y-231010D01*
X45169D01*
Y-230774D01*
X45050D01*
Y-230655D01*
X44932D01*
Y-230537D01*
X44814D01*
Y-230301D01*
X44695D01*
Y-230182D01*
X44577D01*
Y-229946D01*
X44459D01*
Y-229709D01*
X44341D01*
Y-229473D01*
X44222D01*
Y-229236D01*
X44104D01*
Y-229000D01*
X43986D01*
Y-228645D01*
X43868D01*
Y-228290D01*
X43749D01*
Y-227935D01*
X43631D01*
Y-227462D01*
X43513D01*
Y-226752D01*
X43395D01*
Y-221549D01*
X43513D01*
Y-221430D01*
X43986D01*
Y-221549D01*
X46588D01*
Y-221667D01*
X46706D01*
Y-226516D01*
X46824D01*
Y-227107D01*
X46943D01*
Y-227462D01*
X47061D01*
Y-227817D01*
X47179D01*
Y-228053D01*
X47297D01*
Y-228290D01*
X47416D01*
Y-228408D01*
X47534D01*
Y-228645D01*
X47652D01*
Y-228763D01*
X47771D01*
Y-228881D01*
X47889D01*
Y-229118D01*
X48007D01*
Y-229236D01*
X48243D01*
Y-229354D01*
X48362D01*
Y-229473D01*
X48480D01*
Y-229591D01*
X48598D01*
Y-229709D01*
X48835D01*
Y-229827D01*
X49071D01*
Y-229946D01*
X49308D01*
Y-230064D01*
X49545D01*
Y-230182D01*
X49899D01*
Y-230301D01*
X50372D01*
Y-230419D01*
X50845D01*
Y-230537D01*
X53566D01*
Y-230419D01*
X54039D01*
Y-230301D01*
X54394D01*
Y-230182D01*
X54748D01*
Y-230064D01*
X54985D01*
Y-229946D01*
X55221D01*
Y-229827D01*
X55458D01*
Y-229709D01*
X55695D01*
Y-229591D01*
X55813D01*
Y-229473D01*
X56049D01*
Y-229354D01*
X56168D01*
Y-229236D01*
X56404D01*
Y-229118D01*
X56522D01*
Y-229000D01*
X56641D01*
Y-228881D01*
X56759D01*
Y-228763D01*
X56877D01*
Y-228645D01*
X56995D01*
Y-228526D01*
X57114D01*
Y-228408D01*
X57232D01*
Y-228172D01*
X57350D01*
Y-228053D01*
X57468D01*
Y-227935D01*
X57587D01*
Y-227699D01*
X57705D01*
Y-227462D01*
X57823D01*
Y-227226D01*
X57942D01*
Y-226871D01*
X58060D01*
Y-226279D01*
X58178D01*
Y-224978D01*
X58060D01*
Y-223914D01*
X58178D01*
Y-221076D01*
X58296D01*
Y-220721D01*
X58178D01*
Y-218001D01*
X58296D01*
Y-217528D01*
X58415D01*
Y-217054D01*
X58533D01*
Y-216700D01*
X58651D01*
Y-216463D01*
X58770D01*
Y-216108D01*
X58888D01*
Y-215872D01*
X59006D01*
Y-215635D01*
X59124D01*
Y-215517D01*
X59243D01*
Y-215280D01*
X59361D01*
Y-215044D01*
X59479D01*
Y-214926D01*
X59597D01*
Y-214689D01*
X59716D01*
Y-214571D01*
X59834D01*
Y-214453D01*
X59952D01*
Y-214216D01*
X60071D01*
Y-214098D01*
X60189D01*
Y-213979D01*
X60307D01*
Y-213861D01*
X60425D01*
Y-213743D01*
X60544D01*
Y-213625D01*
X60662D01*
Y-213506D01*
X60780D01*
Y-213388D01*
X60898D01*
Y-213270D01*
X61017D01*
Y-213152D01*
X61253D01*
Y-213033D01*
X61371D01*
Y-212915D01*
X61490D01*
Y-212797D01*
X61608D01*
Y-212678D01*
X61844D01*
Y-212560D01*
X61963D01*
Y-212442D01*
X62199D01*
Y-212324D01*
X62436D01*
Y-212205D01*
X62554D01*
Y-212087D01*
X62791D01*
Y-211969D01*
X63027D01*
Y-211851D01*
X63382D01*
Y-211732D01*
X63618D01*
Y-211614D01*
X63973D01*
Y-211496D01*
X64328D01*
Y-211378D01*
X64801D01*
Y-211259D01*
X65274D01*
Y-211141D01*
X65866D01*
Y-211023D01*
X66694D01*
Y-210904D01*
X68822D01*
Y-211023D01*
D02*
G37*
%LPC*%
G36*
X61726Y-167026D02*
X59479D01*
Y-167145D01*
X59006D01*
Y-167263D01*
X58770D01*
Y-167381D01*
X58415D01*
Y-167500D01*
X58296D01*
Y-167618D01*
X58060D01*
Y-167736D01*
X57942D01*
Y-167854D01*
X57823D01*
Y-167973D01*
X57705D01*
Y-168091D01*
X57587D01*
Y-168209D01*
X57468D01*
Y-168327D01*
X57350D01*
Y-168446D01*
X57232D01*
Y-168682D01*
X57114D01*
Y-168800D01*
X56995D01*
Y-169037D01*
X56877D01*
Y-169392D01*
X56759D01*
Y-169865D01*
X56641D01*
Y-171876D01*
X56759D01*
Y-172349D01*
X56877D01*
Y-172703D01*
X56995D01*
Y-172940D01*
X57114D01*
Y-173058D01*
X57232D01*
Y-173295D01*
X57350D01*
Y-173413D01*
X57468D01*
Y-173531D01*
X57587D01*
Y-173650D01*
X57705D01*
Y-173768D01*
X57823D01*
Y-173886D01*
X57942D01*
Y-174004D01*
X58060D01*
Y-174123D01*
X58296D01*
Y-174241D01*
X58415D01*
Y-174359D01*
X58651D01*
Y-174478D01*
X59006D01*
Y-174596D01*
X59479D01*
Y-174714D01*
X60544D01*
Y-174832D01*
X62081D01*
Y-174714D01*
X62791D01*
Y-174832D01*
X63264D01*
Y-174714D01*
X63382D01*
Y-174596D01*
X63500D01*
Y-174241D01*
X63382D01*
Y-173650D01*
X63264D01*
Y-173177D01*
X63146D01*
Y-172585D01*
X63027D01*
Y-171994D01*
X62909D01*
Y-171521D01*
X62791D01*
Y-170929D01*
X62672D01*
Y-170456D01*
X62554D01*
Y-169865D01*
X62436D01*
Y-169392D01*
X62318D01*
Y-168800D01*
X62199D01*
Y-168209D01*
X62081D01*
Y-167618D01*
X61963D01*
Y-167263D01*
X61844D01*
Y-167145D01*
X61726D01*
Y-167026D01*
D02*
G37*
G36*
X64565Y-182520D02*
X59597D01*
Y-182638D01*
X58770D01*
Y-182756D01*
X58415D01*
Y-182875D01*
X58178D01*
Y-182993D01*
X57942D01*
Y-183111D01*
X57705D01*
Y-183229D01*
X57587D01*
Y-183348D01*
X57468D01*
Y-183466D01*
X57232D01*
Y-183584D01*
X57114D01*
Y-183821D01*
X56995D01*
Y-183939D01*
X56877D01*
Y-184057D01*
X56759D01*
Y-184294D01*
X56641D01*
Y-184412D01*
X56522D01*
Y-184649D01*
X56404D01*
Y-185003D01*
X56286D01*
Y-185477D01*
X56168D01*
Y-187724D01*
X56286D01*
Y-188197D01*
X56404D01*
Y-188551D01*
X56522D01*
Y-188788D01*
X56641D01*
Y-189025D01*
X56759D01*
Y-189261D01*
X56877D01*
Y-189379D01*
X56995D01*
Y-189616D01*
X57114D01*
Y-189734D01*
X57232D01*
Y-189852D01*
X57350D01*
Y-189971D01*
X57587D01*
Y-190089D01*
X57705D01*
Y-190207D01*
X57823D01*
Y-190325D01*
X58060D01*
Y-190444D01*
X58415D01*
Y-190562D01*
X58888D01*
Y-190680D01*
X60425D01*
Y-190799D01*
X62554D01*
Y-190680D01*
X64801D01*
Y-190325D01*
X64328D01*
Y-190444D01*
X63737D01*
Y-190562D01*
X63618D01*
Y-189852D01*
X63737D01*
Y-189379D01*
X63618D01*
Y-189261D01*
X63500D01*
Y-189143D01*
X63264D01*
Y-188788D01*
X63382D01*
Y-188670D01*
X63500D01*
Y-188551D01*
X63618D01*
Y-188433D01*
X63737D01*
Y-188315D01*
X63855D01*
Y-188078D01*
X63500D01*
Y-188197D01*
X62791D01*
Y-188315D01*
X62081D01*
Y-188433D01*
X61963D01*
Y-188197D01*
X62081D01*
Y-187960D01*
X62199D01*
Y-187842D01*
X62318D01*
Y-187487D01*
X62199D01*
Y-187369D01*
X62081D01*
Y-187250D01*
X61844D01*
Y-187132D01*
X61608D01*
Y-187014D01*
X61371D01*
Y-186896D01*
X61253D01*
Y-186777D01*
X61135D01*
Y-186541D01*
X61371D01*
Y-186423D01*
X61490D01*
Y-186304D01*
X61726D01*
Y-186186D01*
X61963D01*
Y-186068D01*
X62081D01*
Y-185950D01*
X62199D01*
Y-185831D01*
X62318D01*
Y-185477D01*
X62199D01*
Y-185358D01*
X62081D01*
Y-185122D01*
X61963D01*
Y-185003D01*
X62436D01*
Y-185122D01*
X63146D01*
Y-185240D01*
X63618D01*
Y-185358D01*
X63737D01*
Y-185240D01*
X63855D01*
Y-185003D01*
X63737D01*
Y-184885D01*
X63618D01*
Y-184767D01*
X63500D01*
Y-184530D01*
X63382D01*
Y-184412D01*
X63264D01*
Y-184176D01*
X63500D01*
Y-184057D01*
X63618D01*
Y-183703D01*
X63737D01*
Y-183466D01*
X63618D01*
Y-182875D01*
X63500D01*
Y-182756D01*
X64092D01*
Y-182875D01*
X64801D01*
Y-182756D01*
X64920D01*
Y-182638D01*
X64565D01*
Y-182520D01*
D02*
G37*
G36*
X70478Y-198368D02*
X67640D01*
Y-198486D01*
X59479D01*
Y-198604D01*
X58770D01*
Y-198723D01*
X58296D01*
Y-198841D01*
X58060D01*
Y-198959D01*
X57823D01*
Y-199077D01*
X57705D01*
Y-199196D01*
X57468D01*
Y-199314D01*
X57350D01*
Y-199432D01*
X57232D01*
Y-199550D01*
X57114D01*
Y-199669D01*
X56995D01*
Y-199905D01*
X56877D01*
Y-200024D01*
X56759D01*
Y-200260D01*
X56641D01*
Y-200378D01*
X56522D01*
Y-200733D01*
X56404D01*
Y-201088D01*
X56286D01*
Y-201561D01*
X56168D01*
Y-203217D01*
X56286D01*
Y-203690D01*
X56404D01*
Y-204045D01*
X56522D01*
Y-204281D01*
X56641D01*
Y-204518D01*
X56759D01*
Y-204754D01*
X56877D01*
Y-204873D01*
X56995D01*
Y-204991D01*
X57114D01*
Y-205109D01*
X57232D01*
Y-205227D01*
X57350D01*
Y-205346D01*
X57468D01*
Y-205464D01*
X57587D01*
Y-205582D01*
X57705D01*
Y-205701D01*
X57942D01*
Y-205819D01*
X58178D01*
Y-205937D01*
X58533D01*
Y-206055D01*
X58888D01*
Y-206174D01*
X59716D01*
Y-206292D01*
X60307D01*
Y-206174D01*
X70833D01*
Y-206055D01*
X71306D01*
Y-205937D01*
X71661D01*
Y-205819D01*
X71897D01*
Y-205701D01*
X72134D01*
Y-205582D01*
X72370D01*
Y-205464D01*
X72489D01*
Y-205346D01*
X72607D01*
Y-205227D01*
X72843D01*
Y-205109D01*
X72962D01*
Y-204873D01*
X73080D01*
Y-204754D01*
X73198D01*
Y-204636D01*
X73317D01*
Y-204400D01*
X73435D01*
Y-204163D01*
X73553D01*
Y-203926D01*
X73671D01*
Y-203572D01*
X73790D01*
Y-202980D01*
X73908D01*
Y-201798D01*
X73790D01*
Y-201206D01*
X73671D01*
Y-200733D01*
X73553D01*
Y-200378D01*
X73435D01*
Y-200142D01*
X73317D01*
Y-200024D01*
X73198D01*
Y-199787D01*
X73080D01*
Y-199669D01*
X72962D01*
Y-199432D01*
X72843D01*
Y-199314D01*
X72607D01*
Y-199196D01*
X72489D01*
Y-199077D01*
X72370D01*
Y-198959D01*
X72134D01*
Y-198841D01*
X71897D01*
Y-198723D01*
X71661D01*
Y-198604D01*
X71188D01*
Y-198486D01*
X70478D01*
Y-198368D01*
D02*
G37*
%LPD*%
D10*
X-64238Y-114735D02*
G03*
X-63844Y-114735I197J0D01*
G01*
D02*
G03*
X-64238Y-114735I-197J0D01*
G01*
X-10372Y-263203D02*
G03*
X-10766Y-263203I-197J0D01*
G01*
D02*
G03*
X-10372Y-263203I197J0D01*
G01*
X-165200Y-207320D02*
G03*
X-165200Y-206926I0J197D01*
G01*
D02*
G03*
X-165200Y-207320I0J-197D01*
G01*
Y-158526D02*
G03*
X-165200Y-158920I0J-197D01*
G01*
D02*
G03*
X-165200Y-158526I0J197D01*
G01*
X-198000Y-206926D02*
G03*
X-198000Y-207320I0J-197D01*
G01*
D02*
G03*
X-198000Y-206926I0J197D01*
G01*
Y-110126D02*
G03*
X-198000Y-110520I0J-197D01*
G01*
D02*
G03*
X-198000Y-110126I0J197D01*
G01*
X-5858Y-104663D02*
G03*
X-5858Y-105057I0J-197D01*
G01*
D02*
G03*
X-5858Y-104663I0J197D01*
G01*
X-165200Y-110520D02*
G03*
X-165200Y-110126I0J197D01*
G01*
X-198000Y-158526D02*
G03*
X-198000Y-158920I0J-197D01*
G01*
X-165200Y-110126D02*
G03*
X-165200Y-110520I0J-197D01*
G01*
X-198000Y-158920D02*
G03*
X-198000Y-158526I0J197D01*
G01*
X-98017Y-129629D02*
X-94553D01*
X-98017Y-147806D02*
Y-129629D01*
X-61482D02*
X-58017D01*
Y-147806D02*
Y-129629D01*
X35926Y-204423D02*
Y-198813D01*
X-4153Y-204423D02*
X35926D01*
X-4153D02*
Y-198813D01*
X9036Y-138836D02*
Y-135372D01*
Y-98836D02*
X27213D01*
X9036Y-138836D02*
X27213D01*
X9036Y-102301D02*
Y-98836D01*
D11*
X-12094Y-212197D02*
G03*
X-12487Y-212197I-197J0D01*
G01*
D02*
G03*
X-12094Y-212197I197J0D01*
G01*
D02*
G03*
X-12487Y-212197I-197J0D01*
G01*
X2107Y-229915D02*
G03*
X2894Y-229915I394J0D01*
G01*
D02*
G03*
X2107Y-229915I-394J0D01*
G01*
X106241Y-279759D02*
G03*
X106241Y-279759I-394J0D01*
G01*
X-43558Y-54123D02*
G03*
X-43558Y-53729I0J197D01*
G01*
D02*
G03*
X-43558Y-54123I0J-197D01*
G01*
X-156676Y-217831D02*
G03*
X-173724Y-217831I-8524J0D01*
G01*
Y-233579D02*
G03*
X-156676Y-233579I8524J0D01*
G01*
X-173724Y-185179D02*
G03*
X-156676Y-185179I8524J0D01*
G01*
Y-169431D02*
G03*
X-173724Y-169431I-8524J0D01*
G01*
X-206524Y-233579D02*
G03*
X-189476Y-233579I8524J0D01*
G01*
Y-217831D02*
G03*
X-206524Y-217831I-8524J0D01*
G01*
Y-136779D02*
G03*
X-189476Y-136779I8524J0D01*
G01*
Y-121031D02*
G03*
X-206524Y-121031I-8524J0D01*
G01*
Y-185179D02*
G03*
X-189476Y-185179I8524J0D01*
G01*
Y-169431D02*
G03*
X-206524Y-169431I-8524J0D01*
G01*
X-156676Y-121031D02*
G03*
X-173724Y-121031I-8524J0D01*
G01*
Y-136779D02*
G03*
X-156676Y-136779I8524J0D01*
G01*
X13409Y-307778D02*
X14591D01*
X13409Y-305022D02*
X14591D01*
X-42306Y-142775D02*
Y-139625D01*
X-48212Y-142775D02*
Y-139625D01*
X-78378Y-100167D02*
X-75228D01*
X-78378Y-106072D02*
X-75228D01*
X-66352Y-261813D02*
Y-258664D01*
X-72257Y-261813D02*
Y-258664D01*
X-77363Y-291892D02*
Y-290710D01*
X-74607Y-291892D02*
Y-290710D01*
X-59547Y-250463D02*
X-52067D01*
X-50689Y-275266D02*
Y-249676D01*
X-36909Y-275266D02*
Y-249676D01*
X-50689Y-275266D02*
X-36909D01*
X-50689Y-249676D02*
X-36909D01*
X-57294Y-234991D02*
Y-233809D01*
X-54538Y-234991D02*
Y-233809D01*
X-56116Y-289009D02*
X-54935D01*
X-56116Y-286254D02*
X-54935D01*
X-43983Y-199205D02*
X-22133D01*
X-43983Y-206292D02*
Y-199205D01*
X-22133D02*
X-17999Y-204323D01*
X-43983Y-225189D02*
Y-218103D01*
X-17999Y-220071D02*
Y-218103D01*
Y-206292D02*
Y-204323D01*
X-43983Y-225189D02*
X-22133D01*
X-17999Y-220071D01*
X-36294Y-284214D02*
X-33145D01*
X-36294Y-290119D02*
X-33145D01*
X-7616Y-239580D02*
X39628D01*
Y-250604D02*
Y-239580D01*
X-7616Y-250604D02*
Y-239580D01*
X39628Y-286825D02*
Y-275801D01*
X-7616Y-286825D02*
X39628D01*
X-7616D02*
Y-275801D01*
X48208Y-301792D02*
Y-282304D01*
X74192Y-301792D02*
Y-271477D01*
X-123781Y-78578D02*
Y-77200D01*
X-143785Y-78578D02*
Y-77200D01*
X-123781D01*
X-141949Y-277200D02*
X-125632D01*
X-108800Y-101391D02*
Y-100209D01*
X-106044Y-101391D02*
Y-100209D01*
X-101365Y-297031D02*
X-100381D01*
X-97035D01*
X85599Y-277200D02*
Y-275822D01*
Y-277200D02*
X105603D01*
Y-275822D01*
Y-78578D02*
Y-77200D01*
X85599Y-78578D02*
Y-77200D01*
X105603D01*
X-25562Y-241543D02*
X-20129D01*
X-25562Y-234457D02*
X-20129D01*
X-56283Y-71079D02*
X-27149D01*
X-56283Y-58874D02*
X-27149D01*
X11066Y-76773D02*
Y-47639D01*
X23270Y-76773D02*
Y-47639D01*
X-144375Y-63079D02*
X-143194D01*
X-144375Y-65835D02*
X-143194D01*
X-89094Y-95130D02*
X-87912D01*
X-89094Y-92374D02*
X-87912D01*
X21246Y-90447D02*
X24396D01*
X21246Y-84541D02*
X24396D01*
X-24393Y-122554D02*
X-21244D01*
X-24393Y-128459D02*
X-21244D01*
X13012Y-147406D02*
X14193D01*
X13012Y-150162D02*
X14193D01*
X-49188Y-22627D02*
X-27929D01*
X-30291Y-48611D02*
X-27929D01*
X-49188D02*
X-46826D01*
X-173724Y-233579D02*
Y-217831D01*
X-156676Y-233579D02*
Y-217831D01*
X-173724Y-185179D02*
Y-169431D01*
X-156676Y-185179D02*
Y-169431D01*
X-206524Y-233579D02*
Y-217831D01*
X-189476Y-233579D02*
Y-217831D01*
X-24451Y-186007D02*
Y-184826D01*
X-21695Y-186007D02*
Y-184826D01*
X-189476Y-136779D02*
Y-121031D01*
X-114954Y-317006D02*
X-103930D01*
Y-308738D01*
X-206524Y-136779D02*
Y-121031D01*
X-173724Y-136779D02*
Y-121031D01*
X-156676Y-136779D02*
Y-121031D01*
X-206524Y-185179D02*
Y-169431D01*
X-189476Y-185179D02*
Y-169431D01*
X22513Y-317432D02*
Y-308968D01*
Y-317432D02*
X33340D01*
X22513Y-308968D02*
X33340D01*
X-114954Y-308738D02*
X-103930D01*
X-169985Y-286470D02*
X-168804D01*
X-166048Y-256991D02*
Y-255809D01*
X-163292Y-256991D02*
Y-255809D01*
X-181418Y-84591D02*
Y-83410D01*
X-169985Y-283714D02*
X-168804D01*
X-178662Y-84591D02*
Y-83410D01*
X-126578Y-299304D02*
Y-298123D01*
X-123822Y-299304D02*
Y-298123D01*
D12*
X60200Y-262550D02*
X59201Y-261550D01*
X57201D01*
X56202Y-262550D01*
Y-266549D01*
X57201Y-267549D01*
X59201D01*
X60200Y-266549D01*
X65199Y-267549D02*
Y-261550D01*
X62200Y-264550D01*
X66198D01*
X-40537Y-190601D02*
X-41537Y-189601D01*
X-43536D01*
X-44536Y-190601D01*
Y-194600D01*
X-43536Y-195599D01*
X-41537D01*
X-40537Y-194600D01*
X-38538Y-190601D02*
X-37538Y-189601D01*
X-35539D01*
X-34539Y-190601D01*
Y-191601D01*
X-35539Y-192600D01*
X-36539D01*
X-35539D01*
X-34539Y-193600D01*
Y-194600D01*
X-35539Y-195599D01*
X-37538D01*
X-38538Y-194600D01*
X-173085Y-205699D02*
Y-199701D01*
X-171085Y-201700D01*
X-169086Y-199701D01*
Y-205699D01*
X-167087D02*
Y-199701D01*
X-164087D01*
X-163088Y-200701D01*
Y-202700D01*
X-164087Y-203700D01*
X-167087D01*
X-157090Y-205699D02*
X-161089D01*
X-157090Y-201700D01*
Y-200701D01*
X-158089Y-199701D01*
X-160089D01*
X-161089Y-200701D01*
X-205498Y-205699D02*
Y-199701D01*
X-203498Y-201700D01*
X-201499Y-199701D01*
Y-205699D01*
X-199500D02*
Y-199701D01*
X-196501D01*
X-195501Y-200701D01*
Y-202700D01*
X-196501Y-203700D01*
X-199500D01*
X-193502Y-205699D02*
X-191502D01*
X-192502D01*
Y-199701D01*
X-193502Y-200701D01*
X-173085Y-158443D02*
Y-152445D01*
X-171085Y-154444D01*
X-169086Y-152445D01*
Y-158443D01*
X-167087D02*
Y-152445D01*
X-164087D01*
X-163088Y-153445D01*
Y-155444D01*
X-164087Y-156444D01*
X-167087D01*
X-158089Y-158443D02*
Y-152445D01*
X-161089Y-155444D01*
X-157090D01*
X-205872Y-158443D02*
Y-152445D01*
X-203873Y-154444D01*
X-201873Y-152445D01*
Y-158443D01*
X-199874D02*
Y-152445D01*
X-196875D01*
X-195875Y-153445D01*
Y-155444D01*
X-196875Y-156444D01*
X-199874D01*
X-193876Y-153445D02*
X-192876Y-152445D01*
X-190877D01*
X-189877Y-153445D01*
Y-154444D01*
X-190877Y-155444D01*
X-191876D01*
X-190877D01*
X-189877Y-156444D01*
Y-157443D01*
X-190877Y-158443D01*
X-192876D01*
X-193876Y-157443D01*
X-173197Y-109351D02*
Y-103353D01*
X-171198Y-105352D01*
X-169199Y-103353D01*
Y-109351D01*
X-167199D02*
Y-103353D01*
X-164200D01*
X-163201Y-104352D01*
Y-106352D01*
X-164200Y-107352D01*
X-167199D01*
X-157203Y-103353D02*
X-159202Y-104352D01*
X-161201Y-106352D01*
Y-108351D01*
X-160202Y-109351D01*
X-158202D01*
X-157203Y-108351D01*
Y-107352D01*
X-158202Y-106352D01*
X-161201D01*
X-205997Y-109779D02*
Y-103780D01*
X-203998Y-105780D01*
X-201999Y-103780D01*
Y-109779D01*
X-199999D02*
Y-103780D01*
X-197000D01*
X-196001Y-104780D01*
Y-106780D01*
X-197000Y-107779D01*
X-199999D01*
X-190003Y-103780D02*
X-194001D01*
Y-106780D01*
X-192002Y-105780D01*
X-191002D01*
X-190003Y-106780D01*
Y-108779D01*
X-191002Y-109779D01*
X-193002D01*
X-194001Y-108779D01*
X-62932Y-101120D02*
X-63931Y-100120D01*
X-65931D01*
X-66930Y-101120D01*
Y-105119D01*
X-65931Y-106119D01*
X-63931D01*
X-62932Y-105119D01*
X-56934Y-100120D02*
X-58933Y-101120D01*
X-60932Y-103120D01*
Y-105119D01*
X-59933Y-106119D01*
X-57933D01*
X-56934Y-105119D01*
Y-104119D01*
X-57933Y-103120D01*
X-60932D01*
X-93501Y-88869D02*
Y-82871D01*
X-90502D01*
X-89503Y-83871D01*
Y-85870D01*
X-90502Y-86870D01*
X-93501D01*
X-91502D02*
X-89503Y-88869D01*
X-87503Y-87869D02*
X-86504Y-88869D01*
X-84504D01*
X-83505Y-87869D01*
Y-83871D01*
X-84504Y-82871D01*
X-86504D01*
X-87503Y-83871D01*
Y-84870D01*
X-86504Y-85870D01*
X-83505D01*
X-127612Y-321873D02*
X-126612Y-320874D01*
X-124613D01*
X-123613Y-321873D01*
Y-322873D01*
X-124613Y-323873D01*
X-125612D01*
X-124613D01*
X-123613Y-324872D01*
Y-325872D01*
X-124613Y-326872D01*
X-126612D01*
X-127612Y-325872D01*
X-121614Y-320874D02*
Y-324872D01*
X-119614Y-326872D01*
X-117615Y-324872D01*
Y-320874D01*
X-115615Y-321873D02*
X-114616Y-320874D01*
X-112617D01*
X-111617Y-321873D01*
Y-322873D01*
X-112617Y-323873D01*
X-113616D01*
X-112617D01*
X-111617Y-324872D01*
Y-325872D01*
X-112617Y-326872D01*
X-114616D01*
X-115615Y-325872D01*
X-109617Y-320874D02*
Y-326872D01*
X-105619D01*
X-99621Y-320874D02*
X-103619D01*
Y-326872D01*
X-99621D01*
X-103619Y-323873D02*
X-101620D01*
X-97621Y-320874D02*
Y-326872D01*
X-94622D01*
X-93623Y-325872D01*
Y-321873D01*
X-94622Y-320874D01*
X-97621D01*
X19542Y-320970D02*
X15543D01*
Y-323969D01*
X17542Y-322969D01*
X18542D01*
X19542Y-323969D01*
Y-325968D01*
X18542Y-326968D01*
X16543D01*
X15543Y-325968D01*
X21541Y-320970D02*
Y-324968D01*
X23540Y-326968D01*
X25540Y-324968D01*
Y-320970D01*
X27539D02*
Y-326968D01*
X31538D01*
X37536Y-320970D02*
X33537D01*
Y-326968D01*
X37536D01*
X33537Y-323969D02*
X35537D01*
X39535Y-320970D02*
Y-326968D01*
X42534D01*
X43534Y-325968D01*
Y-321969D01*
X42534Y-320970D01*
X39535D01*
X-28071Y-177505D02*
Y-171507D01*
X-25073D01*
X-24073Y-172507D01*
Y-174506D01*
X-25073Y-175506D01*
X-28071D01*
X-26072D02*
X-24073Y-177505D01*
X-22073Y-171507D02*
X-18075D01*
Y-172507D01*
X-22073Y-176505D01*
Y-177505D01*
X-188411Y-261352D02*
Y-257353D01*
X-189411Y-256354D01*
X-191410D01*
X-192410Y-257353D01*
Y-261352D01*
X-191410Y-262352D01*
X-189411D01*
X-190410Y-260352D02*
X-188411Y-262352D01*
X-189411D02*
X-188411Y-261352D01*
X-186412Y-257353D02*
X-185412Y-256354D01*
X-183413D01*
X-182413Y-257353D01*
Y-258353D01*
X-183413Y-259353D01*
X-184413D01*
X-183413D01*
X-182413Y-260352D01*
Y-261352D01*
X-183413Y-262352D01*
X-185412D01*
X-186412Y-261352D01*
X-169632Y-56767D02*
Y-52768D01*
X-170632Y-51768D01*
X-172631D01*
X-173631Y-52768D01*
Y-56767D01*
X-172631Y-57766D01*
X-170632D01*
X-171631Y-55767D02*
X-169632Y-57766D01*
X-170632D02*
X-169632Y-56767D01*
X-163634Y-57766D02*
X-167633D01*
X-163634Y-53768D01*
Y-52768D01*
X-164634Y-51768D01*
X-166633D01*
X-167633Y-52768D01*
X-102842Y-284649D02*
Y-280650D01*
X-103841Y-279651D01*
X-105841D01*
X-106840Y-280650D01*
Y-284649D01*
X-105841Y-285649D01*
X-103841D01*
X-104841Y-283649D02*
X-102842Y-285649D01*
X-103841D02*
X-102842Y-284649D01*
X-100842Y-285649D02*
X-98843D01*
X-99843D01*
Y-279651D01*
X-100842Y-280650D01*
X-174728Y-87870D02*
Y-81872D01*
X-171729D01*
X-170729Y-82872D01*
Y-84871D01*
X-171729Y-85871D01*
X-174728D01*
X-172729D02*
X-170729Y-87870D01*
X-168730D02*
X-166731D01*
X-167730D01*
Y-81872D01*
X-168730Y-82872D01*
X-163732D02*
X-162732Y-81872D01*
X-160733D01*
X-159733Y-82872D01*
Y-83871D01*
X-160733Y-84871D01*
X-161732D01*
X-160733D01*
X-159733Y-85871D01*
Y-86870D01*
X-160733Y-87870D01*
X-162732D01*
X-163732Y-86870D01*
X-176892Y-295990D02*
Y-289991D01*
X-173893D01*
X-172894Y-290991D01*
Y-292991D01*
X-173893Y-293990D01*
X-176892D01*
X-174893D02*
X-172894Y-295990D01*
X-170894D02*
X-168895D01*
X-169895D01*
Y-289991D01*
X-170894Y-290991D01*
X-161897Y-295990D02*
X-165896D01*
X-161897Y-291991D01*
Y-290991D01*
X-162897Y-289991D01*
X-164896D01*
X-165896Y-290991D01*
X-81686Y-283524D02*
Y-277526D01*
X-78687D01*
X-77688Y-278526D01*
Y-280525D01*
X-78687Y-281525D01*
X-81686D01*
X-79687D02*
X-77688Y-283524D01*
X-75688D02*
X-73689D01*
X-74689D01*
Y-277526D01*
X-75688Y-278526D01*
X-70690Y-283524D02*
X-68691D01*
X-69690D01*
Y-277526D01*
X-70690Y-278526D01*
X-112484Y-117734D02*
Y-111736D01*
X-109485D01*
X-108485Y-112736D01*
Y-114735D01*
X-109485Y-115735D01*
X-112484D01*
X-110484D02*
X-108485Y-117734D01*
X-106486Y-112736D02*
X-105486Y-111736D01*
X-103487D01*
X-102487Y-112736D01*
Y-113735D01*
X-103487Y-114735D01*
X-102487Y-115735D01*
Y-116734D01*
X-103487Y-117734D01*
X-105486D01*
X-106486Y-116734D01*
Y-115735D01*
X-105486Y-114735D01*
X-106486Y-113735D01*
Y-112736D01*
X-105486Y-114735D02*
X-103487D01*
X-60702Y-298096D02*
Y-292098D01*
X-57703D01*
X-56703Y-293098D01*
Y-295097D01*
X-57703Y-296097D01*
X-60702D01*
X-58702D02*
X-56703Y-298096D01*
X-50705Y-292098D02*
X-54704D01*
Y-295097D01*
X-52704Y-294098D01*
X-51705D01*
X-50705Y-295097D01*
Y-297097D01*
X-51705Y-298096D01*
X-53704D01*
X-54704Y-297097D01*
X-46259Y-156264D02*
X-47258Y-155265D01*
X-49258D01*
X-50257Y-156264D01*
Y-160263D01*
X-49258Y-161263D01*
X-47258D01*
X-46259Y-160263D01*
X-40261Y-155265D02*
X-44259D01*
Y-158264D01*
X-42260Y-157264D01*
X-41260D01*
X-40261Y-158264D01*
Y-160263D01*
X-41260Y-161263D01*
X-43260D01*
X-44259Y-160263D01*
X-23564Y-113008D02*
X-24563Y-112008D01*
X-26563D01*
X-27562Y-113008D01*
Y-117007D01*
X-26563Y-118006D01*
X-24563D01*
X-23564Y-117007D01*
X-21564Y-113008D02*
X-20565Y-112008D01*
X-18565D01*
X-17566Y-113008D01*
Y-114008D01*
X-18565Y-115007D01*
X-17566Y-116007D01*
Y-117007D01*
X-18565Y-118006D01*
X-20565D01*
X-21564Y-117007D01*
Y-116007D01*
X-20565Y-115007D01*
X-21564Y-114008D01*
Y-113008D01*
X-20565Y-115007D02*
X-18565D01*
X5900Y-85529D02*
X4901Y-84530D01*
X2902D01*
X1902Y-85529D01*
Y-89528D01*
X2902Y-90528D01*
X4901D01*
X5900Y-89528D01*
X7900Y-84530D02*
X11898D01*
Y-85529D01*
X7900Y-89528D01*
Y-90528D01*
X16562Y-35601D02*
X12563D01*
Y-38600D01*
X14562D01*
X12563D01*
Y-41598D01*
X22560D02*
X18561D01*
X22560Y-37600D01*
Y-36600D01*
X21560Y-35601D01*
X19561D01*
X18561Y-36600D01*
X-41852Y-74211D02*
X-45851D01*
Y-77210D01*
X-43851D01*
X-45851D01*
Y-80209D01*
X-39852D02*
X-37853D01*
X-38853D01*
Y-74211D01*
X-39852Y-75210D01*
X-99574Y-188714D02*
Y-192712D01*
X-97575Y-194712D01*
X-95575Y-192712D01*
Y-188714D01*
X-93576Y-194712D02*
Y-188714D01*
X-90577D01*
X-89577Y-189713D01*
Y-191713D01*
X-90577Y-192712D01*
X-93576D01*
X-91576D02*
X-89577Y-194712D01*
X-87578Y-189713D02*
X-86578Y-188714D01*
X-84579D01*
X-83579Y-189713D01*
Y-190713D01*
X-84579Y-191713D01*
X-85578D01*
X-84579D01*
X-83579Y-192712D01*
Y-193712D01*
X-84579Y-194712D01*
X-86578D01*
X-87578Y-193712D01*
X-67322Y-22395D02*
X-69322D01*
X-68322D01*
Y-27394D01*
X-69322Y-28393D01*
X-70322D01*
X-71321Y-27394D01*
X-65323Y-23395D02*
X-64324Y-22395D01*
X-62324D01*
X-61325Y-23395D01*
Y-24395D01*
X-62324Y-25394D01*
X-63324D01*
X-62324D01*
X-61325Y-26394D01*
Y-27394D01*
X-62324Y-28393D01*
X-64324D01*
X-65323Y-27394D01*
X45603Y-84495D02*
Y-88494D01*
X47602Y-90493D01*
X49601Y-88494D01*
Y-84495D01*
X51601Y-90493D02*
Y-84495D01*
X54600D01*
X55599Y-85495D01*
Y-87494D01*
X54600Y-88494D01*
X51601D01*
X53600D02*
X55599Y-90493D01*
X60598D02*
Y-84495D01*
X57599Y-87494D01*
X61597D01*
X45309Y-241401D02*
Y-247399D01*
X49308D01*
X51307D02*
X53307D01*
X52307D01*
Y-241401D01*
X51307Y-242401D01*
X-26996Y-244400D02*
Y-250398D01*
X-23997D01*
X-22997Y-249398D01*
Y-245400D01*
X-23997Y-244400D01*
X-26996D01*
X-20998Y-250398D02*
X-18998D01*
X-19998D01*
Y-244400D01*
X-20998Y-245400D01*
X-51534Y-241401D02*
Y-245400D01*
X-49534Y-247399D01*
X-47535Y-245400D01*
Y-241401D01*
X-45536Y-247399D02*
Y-241401D01*
X-42537D01*
X-41537Y-242401D01*
Y-244400D01*
X-42537Y-245400D01*
X-45536D01*
X-43536D02*
X-41537Y-247399D01*
X-39538D02*
X-37538D01*
X-38538D01*
Y-241401D01*
X-39538Y-242401D01*
X20890Y-150922D02*
Y-154920D01*
X22889Y-156920D01*
X24888Y-154920D01*
Y-150922D01*
X26888Y-156920D02*
Y-150922D01*
X29887D01*
X30886Y-151921D01*
Y-153921D01*
X29887Y-154920D01*
X26888D01*
X28887D02*
X30886Y-156920D01*
X36884D02*
X32886D01*
X36884Y-152921D01*
Y-151921D01*
X35885Y-150922D01*
X33885D01*
X32886Y-151921D01*
X-149027Y-60228D02*
Y-54230D01*
X-146028D01*
X-145029Y-55229D01*
Y-57229D01*
X-146028Y-58228D01*
X-149027D01*
X-147028D02*
X-145029Y-60228D01*
X-140030D02*
Y-54230D01*
X-143029Y-57229D01*
X-139031D01*
X-209017Y-61083D02*
Y-63082D01*
Y-62083D01*
X-203019D01*
X-204019Y-61083D01*
X-209017Y-70080D02*
Y-66081D01*
X-205018Y-70080D01*
X-204019D01*
X-203019Y-69080D01*
Y-67081D01*
X-204019Y-66081D01*
X-203019Y-72079D02*
X-207018D01*
X-209017Y-74079D01*
X-207018Y-76078D01*
X-203019D01*
Y-78078D02*
X-209017D01*
Y-82076D01*
X-203019Y-88074D02*
Y-84076D01*
X-209017D01*
Y-88074D01*
X-206018Y-84076D02*
Y-86075D01*
X-203019Y-90074D02*
X-209017D01*
Y-93073D01*
X-208017Y-94072D01*
X-204019D01*
X-203019Y-93073D01*
Y-90074D01*
X-209017Y-96072D02*
Y-98071D01*
Y-97071D01*
X-203019D01*
X-204019Y-96072D01*
X-210199Y-247390D02*
Y-249389D01*
Y-248390D01*
X-204201D01*
X-205201Y-247390D01*
X-210199Y-256387D02*
Y-252388D01*
X-206200Y-256387D01*
X-205201D01*
X-204201Y-255387D01*
Y-253388D01*
X-205201Y-252388D01*
X-204201Y-258386D02*
X-208200D01*
X-210199Y-260386D01*
X-208200Y-262385D01*
X-204201D01*
Y-264385D02*
X-210199D01*
Y-268383D01*
X-204201Y-274381D02*
Y-270382D01*
X-210199D01*
Y-274381D01*
X-207200Y-270382D02*
Y-272382D01*
X-204201Y-276381D02*
X-210199D01*
Y-279380D01*
X-209199Y-280379D01*
X-205201D01*
X-204201Y-279380D01*
Y-276381D01*
X-210199Y-286377D02*
Y-282379D01*
X-206200Y-286377D01*
X-205201D01*
X-204201Y-285378D01*
Y-283378D01*
X-205201Y-282379D01*
X-8963Y-151567D02*
Y-145569D01*
X-5965D01*
X-4965Y-146569D01*
Y-148568D01*
X-5965Y-149568D01*
X-8963D01*
X-6964D02*
X-4965Y-151567D01*
X-2965D02*
X-966D01*
X-1966D01*
Y-145569D01*
X-2965Y-146569D01*
X2033D02*
X3033Y-145569D01*
X5032D01*
X6032Y-146569D01*
Y-150567D01*
X5032Y-151567D01*
X3033D01*
X2033Y-150567D01*
Y-146569D01*
X-69765Y-234053D02*
Y-228054D01*
X-66766D01*
X-65766Y-229054D01*
Y-231053D01*
X-66766Y-232053D01*
X-69765D01*
X-67766D02*
X-65766Y-234053D01*
X-59768Y-228054D02*
X-61768Y-229054D01*
X-63767Y-231053D01*
Y-233053D01*
X-62767Y-234053D01*
X-60768D01*
X-59768Y-233053D01*
Y-232053D01*
X-60768Y-231053D01*
X-63767D01*
X-169669Y-268346D02*
Y-262348D01*
X-166670D01*
X-165670Y-263348D01*
Y-265347D01*
X-166670Y-266347D01*
X-169669D01*
X-167669D02*
X-165670Y-268346D01*
X-163671Y-263348D02*
X-162671Y-262348D01*
X-160672D01*
X-159672Y-263348D01*
Y-264348D01*
X-160672Y-265347D01*
X-161671D01*
X-160672D01*
X-159672Y-266347D01*
Y-267347D01*
X-160672Y-268346D01*
X-162671D01*
X-163671Y-267347D01*
X9002Y-302035D02*
Y-296037D01*
X12001D01*
X13000Y-297037D01*
Y-299036D01*
X12001Y-300036D01*
X9002D01*
X11001D02*
X13000Y-302035D01*
X18998D02*
X15000D01*
X18998Y-298037D01*
Y-297037D01*
X17999Y-296037D01*
X15999D01*
X15000Y-297037D01*
X-82373Y-257912D02*
X-83373Y-256913D01*
X-85372D01*
X-86372Y-257912D01*
Y-261911D01*
X-85372Y-262911D01*
X-83373D01*
X-82373Y-261911D01*
X-76375Y-262911D02*
X-80374D01*
X-76375Y-258912D01*
Y-257912D01*
X-77375Y-256913D01*
X-79374D01*
X-80374Y-257912D01*
X-34719Y-294615D02*
X-35719Y-293615D01*
X-37718D01*
X-38718Y-294615D01*
Y-298613D01*
X-37718Y-299613D01*
X-35719D01*
X-34719Y-298613D01*
X-32720Y-299613D02*
X-30721D01*
X-31720D01*
Y-293615D01*
X-32720Y-294615D01*
X-138010Y-301712D02*
Y-295714D01*
X-135011D01*
X-134011Y-296714D01*
Y-298713D01*
X-135011Y-299713D01*
X-138010D01*
X-136011D02*
X-134011Y-301712D01*
X-132012D02*
X-130012D01*
X-131012D01*
Y-295714D01*
X-132012Y-296714D01*
X-135377Y-69181D02*
X-137377D01*
X-136377D01*
Y-74180D01*
X-137377Y-75179D01*
X-138376D01*
X-139376Y-74180D01*
X-129379Y-75179D02*
X-133378D01*
X-129379Y-71181D01*
Y-70181D01*
X-130379Y-69181D01*
X-132378D01*
X-133378Y-70181D01*
X95589Y-69014D02*
X93589D01*
X94589D01*
Y-74012D01*
X93589Y-75012D01*
X92590D01*
X91590Y-74012D01*
X97588Y-75012D02*
X99587D01*
X98588D01*
Y-69014D01*
X97588Y-70014D01*
M02*
