G04*
G04 #@! TF.GenerationSoftware,Altium Limited,Altium Designer,24.9.1 (31)*
G04*
G04 Layer_Color=255*
%FSLAX25Y25*%
%MOIN*%
G70*
G04*
G04 #@! TF.SameCoordinates,8C3E2955-48CA-471D-9453-E4D1A35B8BF5*
G04*
G04*
G04 #@! TF.FilePolarity,Positive*
G04*
G01*
G75*
%ADD13R,0.04409X0.04803*%
%ADD25R,0.05984X0.05984*%
%ADD26C,0.05984*%
%ADD27C,0.05000*%
%ADD28C,0.06000*%
%ADD29C,0.03504*%
D13*
X127886Y294435D02*
D03*
X115288D02*
D03*
X206971Y296518D02*
D03*
X219569D02*
D03*
X121536Y61000D02*
D03*
X134135D02*
D03*
X218701Y63000D02*
D03*
X231299D02*
D03*
D25*
X115689Y318500D02*
D03*
X134200Y35200D02*
D03*
X219400Y318500D02*
D03*
X231200Y35200D02*
D03*
D26*
X127500Y318500D02*
D03*
X122389Y35200D02*
D03*
X231211Y318500D02*
D03*
X219389Y35200D02*
D03*
D27*
X103878Y326217D02*
D03*
X139311D02*
D03*
X146011Y27483D02*
D03*
X110578D02*
D03*
X207589Y326217D02*
D03*
X243022D02*
D03*
X207578Y27483D02*
D03*
X243011D02*
D03*
D28*
X20000Y334000D02*
D03*
Y20000D02*
D03*
X334000D02*
D03*
Y334000D02*
D03*
D29*
X43000Y86800D02*
D03*
Y266800D02*
D03*
X282000Y86800D02*
D03*
Y266800D02*
D03*
M02*
