G04*
G04 #@! TF.GenerationSoftware,Altium Limited,Altium Designer,24.9.1 (31)*
G04*
G04 Layer_Color=16711935*
%FSLAX25Y25*%
%MOIN*%
G70*
G04*
G04 #@! TF.SameCoordinates,8C3E2955-48CA-471D-9453-E4D1A35B8BF5*
G04*
G04*
G04 #@! TF.FilePolarity,Positive*
G04*
G01*
G75*
%ADD10C,0.00787*%
%ADD11C,0.00500*%
%ADD56C,0.00394*%
D10*
X68565Y229505D02*
X76439D01*
Y237380D01*
X68565D02*
X76439D01*
X68565Y229505D02*
Y237380D01*
X33000Y76800D02*
X53000D01*
X33000D02*
Y276800D01*
X53000D01*
Y76800D02*
Y276800D01*
X87304Y229265D02*
X95178D01*
Y237140D01*
X87304D02*
X95178D01*
X87304Y229265D02*
Y237140D01*
X272000Y76800D02*
X292000D01*
X272000D02*
Y276800D01*
X292000D01*
Y76800D02*
Y276800D01*
X238295Y237057D02*
Y256743D01*
X250106D01*
Y237057D02*
Y256743D01*
X238295Y237057D02*
X250106D01*
D11*
X96004Y320468D02*
X99941Y318500D01*
X96004Y316531D02*
Y320468D01*
X140591Y306295D02*
Y328224D01*
X102598D02*
X140591D01*
X102598Y306295D02*
Y328224D01*
Y306295D02*
X140591D01*
X96004Y316531D02*
X99941Y318500D01*
X109298Y47405D02*
X147291D01*
Y25476D02*
Y47405D01*
X109298Y25476D02*
X147291D01*
X109298D02*
Y47405D01*
X153885Y33231D02*
Y37168D01*
X149948Y35200D02*
X153885Y33231D01*
X149948Y35200D02*
X153885Y37168D01*
X206310Y306295D02*
X244302D01*
X206310D02*
Y328224D01*
X244302D01*
Y306295D02*
Y328224D01*
X199715Y316531D02*
Y320468D01*
X203652Y318500D01*
X199715Y316531D02*
X203652Y318500D01*
X246948Y35200D02*
X250885Y37168D01*
X246948Y35200D02*
X250885Y33231D01*
Y37168D01*
X206298Y25476D02*
Y47405D01*
Y25476D02*
X244290D01*
Y47405D01*
X206298D02*
X244290D01*
D56*
X143102Y174969D02*
X145661Y172410D01*
Y136780D02*
Y174969D01*
X128339Y136780D02*
X145661D01*
X128339D02*
Y174969D01*
X145661D01*
X116075Y297978D02*
X127099D01*
Y290891D02*
Y297978D01*
X116075Y290891D02*
X127099D01*
X116075D02*
Y297978D01*
Y295773D02*
X118280Y297978D01*
X216577Y292975D02*
X218782Y295180D01*
Y292975D02*
Y300062D01*
X207758D02*
X218782D01*
X207758Y292975D02*
Y300062D01*
Y292975D02*
X218782D01*
X228870Y248555D02*
Y255445D01*
X225130Y248555D02*
Y255445D01*
Y248555D02*
X228870D01*
X225130Y255445D02*
X228870D01*
X236161Y248338D02*
Y255227D01*
X232420Y248338D02*
Y255227D01*
Y248338D02*
X236161D01*
X232420Y255227D02*
X236161D01*
X237886Y136445D02*
X241626D01*
X237886Y129555D02*
X241626D01*
X237886D02*
Y136445D01*
X241626Y129555D02*
Y136445D01*
X169319Y146806D02*
X173059D01*
X169319Y140113D02*
X173059D01*
X169319D02*
Y146806D01*
X173059Y140113D02*
Y146806D01*
X234454Y180670D02*
X241146D01*
X234454Y176930D02*
X241146D01*
Y180670D01*
X234454Y176930D02*
Y180670D01*
X234601Y201170D02*
X241294D01*
X234601Y197430D02*
X241294D01*
Y201170D01*
X234601Y197430D02*
Y201170D01*
Y190630D02*
Y194370D01*
X241294Y190630D02*
Y194370D01*
X234601Y190630D02*
X241294D01*
X234601Y194370D02*
X241294D01*
X234454Y183630D02*
Y187370D01*
X241146Y183630D02*
Y187370D01*
X234454Y183630D02*
X241146D01*
X234454Y187370D02*
X241146D01*
X234454Y173670D02*
X241146D01*
X234454Y169930D02*
X241146D01*
Y173670D01*
X234454Y169930D02*
Y173670D01*
X234454Y160570D02*
X241146D01*
X234454Y156830D02*
X241146D01*
Y160570D01*
X234454Y156830D02*
Y160570D01*
X234454Y153470D02*
X241146D01*
X234454Y149730D02*
X241146D01*
Y153470D01*
X234454Y149730D02*
Y153470D01*
X234454Y167370D02*
X241146D01*
X234454Y163630D02*
X241146D01*
Y167370D01*
X234454Y163630D02*
Y167370D01*
X131143Y57457D02*
X133347Y59661D01*
Y57457D02*
Y64543D01*
X122324D02*
X133347D01*
X122324Y57457D02*
Y64543D01*
Y57457D02*
X133347D01*
X236295Y116591D02*
Y123481D01*
X232555Y116591D02*
Y123481D01*
Y116591D02*
X236295D01*
X232555Y123481D02*
X236295D01*
X231965Y236452D02*
Y240192D01*
X225076Y236452D02*
Y240192D01*
X231965D01*
X225076Y236452D02*
X231965D01*
X239184Y113526D02*
X249027D01*
Y125337D01*
X239184D02*
X249027D01*
X239184Y113526D02*
Y125337D01*
X75946Y221611D02*
Y225351D01*
X69057Y221611D02*
Y225351D01*
X75946D01*
X69057Y221611D02*
X75946D01*
X88655Y221530D02*
X95545D01*
X88655Y225270D02*
X95545D01*
X88655Y221530D02*
Y225270D01*
X95545Y221530D02*
Y225270D01*
X228307Y59457D02*
X230512Y61661D01*
Y59457D02*
Y66543D01*
X219488D02*
X230512D01*
X219488Y59457D02*
Y66543D01*
Y59457D02*
X230512D01*
M02*
