G04*
G04 #@! TF.GenerationSoftware,Altium Limited,Altium Designer,24.9.1 (31)*
G04*
G04 Layer_Color=32896*
%FSLAX25Y25*%
%MOIN*%
G70*
G04*
G04 #@! TF.SameCoordinates,7D32762B-F1F2-48CB-859E-5018DBA3761A*
G04*
G04*
G04 #@! TF.FilePolarity,Positive*
G04*
G01*
G75*
%ADD10C,0.00787*%
%ADD12C,0.01000*%
%ADD36C,0.00800*%
%ADD37C,0.00394*%
D10*
X26366Y271997D02*
G03*
X26366Y271997I-197J0D01*
G01*
X265366D02*
G03*
X265366Y271997I-197J0D01*
G01*
X237013Y173178D02*
X238587D01*
X237013Y170422D02*
X238587D01*
X237160Y197922D02*
X238735D01*
X237160Y200678D02*
X238735D01*
X237013Y152978D02*
X238587D01*
X237013Y150222D02*
X238587D01*
X237013Y166878D02*
X238587D01*
X237013Y164122D02*
X238587D01*
X237013Y180178D02*
X238587D01*
X237013Y177422D02*
X238587D01*
X237013Y160078D02*
X238587D01*
X237013Y157322D02*
X238587D01*
X150961Y183098D02*
X156769D01*
X149583Y145106D02*
Y183294D01*
X135017Y145106D02*
X149583D01*
X135017D02*
Y183294D01*
X149583D01*
X237160Y191122D02*
X238735D01*
X237160Y193878D02*
X238735D01*
X237013Y184122D02*
X238587D01*
X237013Y186878D02*
X238587D01*
X184478Y150713D02*
Y152287D01*
X181722Y150713D02*
Y152287D01*
X249027Y123369D02*
Y125337D01*
X239184Y123369D02*
Y125337D01*
Y113526D02*
Y115495D01*
X249027Y113526D02*
Y115495D01*
D12*
X249398Y234799D02*
Y229801D01*
X248399Y228801D01*
X246399D01*
X245400Y229801D01*
Y234799D01*
X239402D02*
X243400D01*
Y231800D01*
X241401Y232800D01*
X240401D01*
X239402Y231800D01*
Y229801D01*
X240401Y228801D01*
X242401D01*
X243400Y229801D01*
X295501Y290598D02*
X297501D01*
X296501D01*
Y285600D01*
X297501Y284600D01*
X298500D01*
X299500Y285600D01*
X289503Y284600D02*
X293502D01*
X289503Y288599D01*
Y289598D01*
X290503Y290598D01*
X292502D01*
X293502Y289598D01*
X147198Y192199D02*
Y187201D01*
X146199Y186201D01*
X144199D01*
X143200Y187201D01*
Y192199D01*
X137202D02*
X139201Y191199D01*
X141200Y189200D01*
Y187201D01*
X140201Y186201D01*
X138201D01*
X137202Y187201D01*
Y188200D01*
X138201Y189200D01*
X141200D01*
X106241Y237186D02*
Y232187D01*
X105242Y231188D01*
X103242D01*
X102243Y232187D01*
Y237186D01*
X100243Y236186D02*
X99244Y237186D01*
X97244D01*
X96245Y236186D01*
Y235187D01*
X97244Y234187D01*
X98244D01*
X97244D01*
X96245Y233187D01*
Y232187D01*
X97244Y231188D01*
X99244D01*
X100243Y232187D01*
X68904Y248989D02*
Y243991D01*
X67905Y242991D01*
X65905D01*
X64906Y243991D01*
Y248989D01*
X59907Y242991D02*
Y248989D01*
X62906Y245990D01*
X58908D01*
X248120Y134799D02*
Y129801D01*
X247120Y128801D01*
X245121D01*
X244121Y129801D01*
Y134799D01*
X238123Y128801D02*
X242122D01*
X238123Y132800D01*
Y133799D01*
X239123Y134799D01*
X241122D01*
X242122Y133799D01*
X32900Y291799D02*
X34899D01*
X33900D01*
Y286801D01*
X34899Y285801D01*
X35899D01*
X36899Y286801D01*
X30901Y285801D02*
X28901D01*
X29901D01*
Y291799D01*
X30901Y290799D01*
D36*
X247783Y198050D02*
Y200550D01*
X246533D01*
X246116Y200133D01*
Y199300D01*
X246533Y198883D01*
X247783D01*
X246950D02*
X246116Y198050D01*
X245284Y198467D02*
X244867Y198050D01*
X244034D01*
X243617Y198467D01*
Y200133D01*
X244034Y200550D01*
X244867D01*
X245284Y200133D01*
Y199716D01*
X244867Y199300D01*
X243617D01*
X247883Y177550D02*
Y180050D01*
X246633D01*
X246217Y179633D01*
Y178800D01*
X246633Y178384D01*
X247883D01*
X247050D02*
X246217Y177550D01*
X243717Y180050D02*
X244550Y179633D01*
X245384Y178800D01*
Y177967D01*
X244967Y177550D01*
X244134D01*
X243717Y177967D01*
Y178384D01*
X244134Y178800D01*
X245384D01*
X247883Y170550D02*
Y173050D01*
X246633D01*
X246217Y172633D01*
Y171800D01*
X246633Y171384D01*
X247883D01*
X247050D02*
X246217Y170550D01*
X243717Y173050D02*
X245384D01*
Y171800D01*
X244550Y172216D01*
X244134D01*
X243717Y171800D01*
Y170967D01*
X244134Y170550D01*
X244967D01*
X245384Y170967D01*
X247883Y164250D02*
Y166750D01*
X246633D01*
X246217Y166333D01*
Y165500D01*
X246633Y165084D01*
X247883D01*
X247050D02*
X246217Y164250D01*
X244134D02*
Y166750D01*
X245384Y165500D01*
X243717D01*
X247983Y157431D02*
Y159930D01*
X246733D01*
X246317Y159513D01*
Y158680D01*
X246733Y158264D01*
X247983D01*
X247150D02*
X246317Y157431D01*
X245483Y159513D02*
X245067Y159930D01*
X244234D01*
X243817Y159513D01*
Y159097D01*
X244234Y158680D01*
X243817Y158264D01*
Y157847D01*
X244234Y157431D01*
X245067D01*
X245483Y157847D01*
Y158264D01*
X245067Y158680D01*
X245483Y159097D01*
Y159513D01*
X245067Y158680D02*
X244234D01*
X247883Y184250D02*
Y186750D01*
X246633D01*
X246217Y186333D01*
Y185500D01*
X246633Y185083D01*
X247883D01*
X247050D02*
X246217Y184250D01*
X243717D02*
X245384D01*
X243717Y185916D01*
Y186333D01*
X244134Y186750D01*
X244967D01*
X245384Y186333D01*
X247883Y150550D02*
Y153050D01*
X246633D01*
X246217Y152633D01*
Y151800D01*
X246633Y151383D01*
X247883D01*
X247050D02*
X246217Y150550D01*
X245384Y153050D02*
X243717D01*
Y152633D01*
X245384Y150967D01*
Y150550D01*
X247908Y191250D02*
Y193750D01*
X246659D01*
X246242Y193333D01*
Y192500D01*
X246659Y192084D01*
X247908D01*
X247075D02*
X246242Y191250D01*
X245409Y193333D02*
X244992Y193750D01*
X244160D01*
X243743Y193333D01*
Y192917D01*
X244160Y192500D01*
X244576D01*
X244160D01*
X243743Y192084D01*
Y191667D01*
X244160Y191250D01*
X244992D01*
X245409Y191667D01*
X229187Y234453D02*
X229853Y235120D01*
X231186D01*
X231853Y234453D01*
Y231788D01*
X231186Y231121D01*
X229853D01*
X229187Y231788D01*
X227854Y235120D02*
X225188D01*
Y234453D01*
X227854Y231788D01*
Y231121D01*
X231166Y260333D02*
X231833Y260999D01*
X233166D01*
X233832Y260333D01*
Y257667D01*
X233166Y257001D01*
X231833D01*
X231166Y257667D01*
X227168Y260999D02*
X228501Y260333D01*
X229834Y259000D01*
Y257667D01*
X229167Y257001D01*
X227834D01*
X227168Y257667D01*
Y258334D01*
X227834Y259000D01*
X229834D01*
X221166Y260133D02*
X221833Y260799D01*
X223166D01*
X223832Y260133D01*
Y257467D01*
X223166Y256801D01*
X221833D01*
X221166Y257467D01*
X217168Y260799D02*
X219833D01*
Y258800D01*
X218501Y259466D01*
X217834D01*
X217168Y258800D01*
Y257467D01*
X217834Y256801D01*
X219167D01*
X219833Y257467D01*
X192166Y149501D02*
Y153499D01*
X190166D01*
X189500Y152833D01*
Y151500D01*
X190166Y150833D01*
X192166D01*
X190833D02*
X189500Y149501D01*
X188167D02*
X186834D01*
X187501D01*
Y153499D01*
X188167Y152833D01*
X75326Y217547D02*
X75992Y218214D01*
X77325D01*
X77991Y217547D01*
Y214882D01*
X77325Y214215D01*
X75992D01*
X75326Y214882D01*
X71993Y214215D02*
Y218214D01*
X73993Y216215D01*
X71327D01*
X91987Y217547D02*
X92653Y218214D01*
X93986D01*
X94652Y217547D01*
Y214882D01*
X93986Y214215D01*
X92653D01*
X91987Y214882D01*
X90654Y217547D02*
X89987Y218214D01*
X88655D01*
X87988Y217547D01*
Y216881D01*
X88655Y216215D01*
X89321D01*
X88655D01*
X87988Y215548D01*
Y214882D01*
X88655Y214215D01*
X89987D01*
X90654Y214882D01*
X229070Y112890D02*
X229736Y113557D01*
X231069D01*
X231735Y112890D01*
Y110225D01*
X231069Y109558D01*
X229736D01*
X229070Y110225D01*
X225071Y109558D02*
X227737D01*
X225071Y112224D01*
Y112890D01*
X225737Y113557D01*
X227070D01*
X227737Y112890D01*
D37*
X86122Y232415D02*
G03*
X86122Y232021I0J-197D01*
G01*
D02*
G03*
X86122Y232415I0J197D01*
G01*
X67383Y232261D02*
G03*
X67383Y232655I0J197D01*
G01*
D02*
G03*
X67383Y232261I0J-197D01*
G01*
X236720Y239420D02*
G03*
X236720Y239026I0J-197D01*
G01*
D02*
G03*
X236720Y239420I0J197D01*
G01*
X247058Y111951D02*
G03*
X247058Y111557I0J-197D01*
G01*
D02*
G03*
X247058Y111951I0J197D01*
G01*
X87304Y229265D02*
X87697D01*
X87304D02*
Y229659D01*
X94784Y229265D02*
X95178D01*
Y229659D01*
X87304Y237140D02*
X87697D01*
X87304Y236746D02*
Y237140D01*
X94784D02*
X95178D01*
Y236746D02*
Y237140D01*
X33000Y276800D02*
X53000D01*
X33000Y76800D02*
X53000D01*
X76439Y236986D02*
Y237380D01*
X76045D02*
X76439D01*
X68565Y236986D02*
Y237380D01*
X68958D01*
X76439Y229505D02*
Y229899D01*
X76045Y229505D02*
X76439D01*
X68565D02*
Y229899D01*
Y229505D02*
X68958D01*
X272000Y76800D02*
X292000D01*
X272000Y276800D02*
X292000D01*
X238295Y256743D02*
X250106D01*
X238295Y237057D02*
X250106D01*
M02*
