G04*
G04 #@! TF.GenerationSoftware,Altium Limited,Altium Designer,24.9.1 (31)*
G04*
G04 Layer_Color=16711935*
%FSLAX25Y25*%
%MOIN*%
G70*
G04*
G04 #@! TF.SameCoordinates,8C3E2955-48CA-471D-9453-E4D1A35B8BF5*
G04*
G04*
G04 #@! TF.FilePolarity,Negative*
G04*
G01*
G75*
%ADD15R,0.06784X0.06784*%
%ADD16C,0.06784*%
%ADD17C,0.05800*%
%ADD18C,0.17000*%
%ADD19C,0.04304*%
%ADD20C,0.03100*%
%ADD44R,0.08280X0.13398*%
%ADD45R,0.06607X0.02572*%
%ADD46R,0.02178X0.01981*%
%ADD47R,0.01981X0.02178*%
%ADD48R,0.04343X0.03950*%
%ADD49R,0.04343X0.03556*%
%ADD50R,0.03556X0.04343*%
%ADD51R,0.09816X0.05800*%
%ADD52R,0.03950X0.04343*%
%ADD53R,0.04540X0.02965*%
%ADD54R,0.03064X0.02178*%
%ADD55R,0.02178X0.03064*%
D15*
X115689Y318500D02*
D03*
X134200Y35200D02*
D03*
X219400Y318500D02*
D03*
X231200Y35200D02*
D03*
D16*
X127500Y318500D02*
D03*
X122389Y35200D02*
D03*
X231211Y318500D02*
D03*
X219389Y35200D02*
D03*
D17*
X103878Y326217D02*
D03*
X139311D02*
D03*
X146011Y27483D02*
D03*
X110578D02*
D03*
X207589Y326217D02*
D03*
X243022D02*
D03*
X207578Y27483D02*
D03*
X243011D02*
D03*
D18*
X20000Y334000D02*
D03*
Y20000D02*
D03*
X334000D02*
D03*
Y334000D02*
D03*
D19*
X43000Y86800D02*
D03*
Y266800D02*
D03*
X282000Y86800D02*
D03*
Y266800D02*
D03*
D20*
X117700Y136806D02*
D03*
Y145648D02*
D03*
Y166130D02*
D03*
Y174969D02*
D03*
X216400Y241500D02*
D03*
X111026Y166212D02*
D03*
Y145720D02*
D03*
X82802Y231550D02*
D03*
X103100Y213200D02*
D03*
X63958Y220020D02*
D03*
X75651Y241403D02*
D03*
X84455Y221940D02*
D03*
X258861Y233120D02*
D03*
X256900Y253036D02*
D03*
X111026Y136780D02*
D03*
Y174969D02*
D03*
X83400Y212500D02*
D03*
X95965Y243120D02*
D03*
X102885Y226637D02*
D03*
X72502Y246375D02*
D03*
X63611Y253731D02*
D03*
X64381Y231432D02*
D03*
X72502Y254450D02*
D03*
X83600Y133345D02*
D03*
X216400Y108500D02*
D03*
D44*
X137000Y155875D02*
D03*
D45*
X125433Y172509D02*
D03*
Y169950D02*
D03*
Y162272D02*
D03*
Y159713D02*
D03*
Y157154D02*
D03*
Y154595D02*
D03*
Y152036D02*
D03*
Y149477D02*
D03*
Y146918D02*
D03*
Y144359D02*
D03*
X148567Y139241D02*
D03*
Y141800D02*
D03*
Y144359D02*
D03*
Y146918D02*
D03*
Y149477D02*
D03*
Y152036D02*
D03*
Y154595D02*
D03*
Y157154D02*
D03*
Y159713D02*
D03*
Y162272D02*
D03*
Y164831D02*
D03*
Y167391D02*
D03*
Y169950D02*
D03*
Y172509D02*
D03*
X125433Y164831D02*
D03*
Y167391D02*
D03*
Y139241D02*
D03*
Y141800D02*
D03*
D46*
X75651Y232458D02*
D03*
X69352D02*
D03*
Y234427D02*
D03*
X75651D02*
D03*
X88091Y232218D02*
D03*
Y234187D02*
D03*
X94390D02*
D03*
Y232218D02*
D03*
D47*
X74470Y230293D02*
D03*
X72502D02*
D03*
X70533D02*
D03*
Y236592D02*
D03*
X72502D02*
D03*
X74470D02*
D03*
X89272Y236352D02*
D03*
X91241D02*
D03*
X93209D02*
D03*
Y230053D02*
D03*
X91241D02*
D03*
X89272D02*
D03*
D48*
X227000Y254756D02*
D03*
Y249244D02*
D03*
X234291Y254538D02*
D03*
Y249027D02*
D03*
X239756Y135756D02*
D03*
Y130244D02*
D03*
X234425Y117280D02*
D03*
Y122792D02*
D03*
D49*
X171189Y146412D02*
D03*
Y140506D02*
D03*
D50*
X240753Y178800D02*
D03*
X234847D02*
D03*
X234995Y199300D02*
D03*
X240900D02*
D03*
X234995Y192500D02*
D03*
X240900D02*
D03*
X234847Y185500D02*
D03*
X240753D02*
D03*
X240753Y171800D02*
D03*
X234847D02*
D03*
X240753Y158700D02*
D03*
X234847D02*
D03*
X240753Y151600D02*
D03*
X234847D02*
D03*
X240753Y165500D02*
D03*
X234847D02*
D03*
D51*
X52941Y81800D02*
D03*
X33059D02*
D03*
X52941Y271800D02*
D03*
X33059D02*
D03*
Y231800D02*
D03*
Y241800D02*
D03*
Y251800D02*
D03*
X52941Y91800D02*
D03*
Y101800D02*
D03*
Y111800D02*
D03*
Y121800D02*
D03*
Y131800D02*
D03*
Y141800D02*
D03*
Y151800D02*
D03*
Y161800D02*
D03*
Y171800D02*
D03*
Y181800D02*
D03*
Y191800D02*
D03*
Y201800D02*
D03*
Y211800D02*
D03*
Y221800D02*
D03*
Y231800D02*
D03*
Y241800D02*
D03*
Y251800D02*
D03*
Y261800D02*
D03*
X33059D02*
D03*
Y131800D02*
D03*
Y141800D02*
D03*
Y101800D02*
D03*
Y91800D02*
D03*
Y111800D02*
D03*
Y121800D02*
D03*
Y151800D02*
D03*
Y161800D02*
D03*
Y171800D02*
D03*
Y181800D02*
D03*
Y191800D02*
D03*
Y201800D02*
D03*
Y211800D02*
D03*
Y221800D02*
D03*
X291941Y261800D02*
D03*
Y251800D02*
D03*
Y241800D02*
D03*
Y231800D02*
D03*
Y221800D02*
D03*
Y211800D02*
D03*
Y201800D02*
D03*
Y191800D02*
D03*
Y181800D02*
D03*
Y171800D02*
D03*
Y151800D02*
D03*
Y141800D02*
D03*
Y131800D02*
D03*
Y121800D02*
D03*
Y111800D02*
D03*
Y101800D02*
D03*
Y91800D02*
D03*
Y161800D02*
D03*
X272059Y261800D02*
D03*
Y251800D02*
D03*
Y241800D02*
D03*
Y231800D02*
D03*
Y221800D02*
D03*
Y211800D02*
D03*
Y201800D02*
D03*
Y191800D02*
D03*
Y181800D02*
D03*
Y171800D02*
D03*
Y161800D02*
D03*
Y151800D02*
D03*
Y121800D02*
D03*
Y91800D02*
D03*
Y101800D02*
D03*
Y111800D02*
D03*
Y141800D02*
D03*
Y131800D02*
D03*
X291941Y81800D02*
D03*
X272059D02*
D03*
X291941Y271800D02*
D03*
X272059D02*
D03*
D52*
X75257Y223481D02*
D03*
X69746D02*
D03*
X89344Y223400D02*
D03*
X94856D02*
D03*
X231276Y238322D02*
D03*
X225764D02*
D03*
D53*
X248235Y254282D02*
D03*
Y249361D02*
D03*
Y239518D02*
D03*
Y244439D02*
D03*
X240165Y254282D02*
D03*
Y249361D02*
D03*
Y244439D02*
D03*
Y239518D02*
D03*
D54*
X247700Y117463D02*
D03*
Y119431D02*
D03*
Y121400D02*
D03*
X240511D02*
D03*
Y119431D02*
D03*
Y117463D02*
D03*
D55*
X247058Y124010D02*
D03*
X245090D02*
D03*
X243121D02*
D03*
X241153D02*
D03*
Y114853D02*
D03*
X243121D02*
D03*
X245090D02*
D03*
X247058D02*
D03*
M02*
