G04*
G04 #@! TF.GenerationSoftware,Altium Limited,Altium Designer,24.9.1 (31)*
G04*
G04 Layer_Color=8388736*
%FSLAX25Y25*%
%MOIN*%
G70*
G04*
G04 #@! TF.SameCoordinates,EB6CF2F9-7D6B-44DB-B584-050751D5D309*
G04*
G04*
G04 #@! TF.FilePolarity,Negative*
G04*
G01*
G75*
%ADD14R,0.05209X0.05603*%
%ADD15R,0.06784X0.06784*%
%ADD16C,0.06784*%
%ADD17C,0.05800*%
%ADD18C,0.17000*%
%ADD19C,0.04304*%
%ADD20C,0.03100*%
D14*
X127886Y294435D02*
D03*
X115288D02*
D03*
X206971Y296518D02*
D03*
X219569D02*
D03*
X121536Y61000D02*
D03*
X134135D02*
D03*
X218701Y63000D02*
D03*
X231299D02*
D03*
D15*
X115689Y318500D02*
D03*
X134200Y35200D02*
D03*
X219400Y318500D02*
D03*
X231200Y35200D02*
D03*
D16*
X127500Y318500D02*
D03*
X122389Y35200D02*
D03*
X231211Y318500D02*
D03*
X219389Y35200D02*
D03*
D17*
X103878Y326217D02*
D03*
X139311D02*
D03*
X146011Y27483D02*
D03*
X110578D02*
D03*
X207589Y326217D02*
D03*
X243022D02*
D03*
X207578Y27483D02*
D03*
X243011D02*
D03*
D18*
X20000Y334000D02*
D03*
Y20000D02*
D03*
X334000D02*
D03*
Y334000D02*
D03*
D19*
X43000Y86800D02*
D03*
Y266800D02*
D03*
X282000Y86800D02*
D03*
Y266800D02*
D03*
D20*
X117700Y136806D02*
D03*
Y145648D02*
D03*
Y166130D02*
D03*
Y174969D02*
D03*
X216400Y241500D02*
D03*
X111026Y166212D02*
D03*
Y145720D02*
D03*
X82802Y231550D02*
D03*
X103100Y213200D02*
D03*
X63958Y220020D02*
D03*
X75651Y241403D02*
D03*
X84455Y221940D02*
D03*
X258861Y233120D02*
D03*
X256900Y253036D02*
D03*
X111026Y136780D02*
D03*
Y174969D02*
D03*
X83400Y212500D02*
D03*
X95965Y243120D02*
D03*
X102885Y226637D02*
D03*
X72502Y246375D02*
D03*
X63611Y253731D02*
D03*
X64381Y231432D02*
D03*
X72502Y254450D02*
D03*
X83600Y133345D02*
D03*
X216400Y108500D02*
D03*
M02*
