G04*
G04 #@! TF.GenerationSoftware,Altium Limited,Altium Designer,24.9.1 (31)*
G04*
G04 Layer_Physical_Order=2*
G04 Layer_Color=16440176*
%FSLAX25Y25*%
%MOIN*%
G70*
G04*
G04 #@! TF.SameCoordinates,7D32762B-F1F2-48CB-859E-5018DBA3761A*
G04*
G04*
G04 #@! TF.FilePolarity,Positive*
G04*
G01*
G75*
%ADD14C,0.03504*%
%ADD15R,0.05984X0.05984*%
%ADD16C,0.05984*%
%ADD17C,0.05000*%
%ADD19C,0.02300*%
%ADD22C,0.06000*%
G36*
X348879Y352963D02*
X349988Y352503D01*
X350987Y351836D01*
X351836Y350987D01*
X352503Y349988D01*
X352963Y348879D01*
X353197Y347701D01*
Y347100D01*
Y321333D01*
X336932Y305068D01*
X336932Y305068D01*
X336758Y304807D01*
X336697Y304500D01*
Y49500D01*
X336758Y49193D01*
X336932Y48932D01*
X353197Y32667D01*
X353197Y7000D01*
Y7000D01*
Y7000D01*
X353197Y6390D01*
X352959Y5192D01*
X352492Y4064D01*
X352092Y3466D01*
X351047Y3033D01*
X349695Y2764D01*
X349005Y2764D01*
X323005D01*
X306505Y19264D01*
X51505D01*
X49544Y17303D01*
X49500D01*
X49193Y17242D01*
X48932Y17068D01*
X34629Y2764D01*
X9005D01*
X8316Y2764D01*
X6963Y3033D01*
X5690Y3561D01*
X4543Y4327D01*
X3568Y5302D01*
X2802Y6449D01*
X2274Y7722D01*
X2005Y9075D01*
X2005Y9764D01*
Y9764D01*
Y33870D01*
X17068Y48932D01*
X17068Y48932D01*
X17242Y49193D01*
X17303Y49500D01*
Y51062D01*
X18505Y52264D01*
Y307264D01*
X2005Y323764D01*
Y349764D01*
Y350454D01*
X2069Y350776D01*
X2186Y350951D01*
X3049Y351814D01*
X4064Y352492D01*
X5192Y352959D01*
X6390Y353197D01*
X32667D01*
X48932Y336932D01*
X48932Y336932D01*
X49193Y336758D01*
X49500Y336697D01*
X304500D01*
X304807Y336758D01*
X305068Y336932D01*
X321333Y353197D01*
X347701D01*
X348879Y352963D01*
D02*
G37*
%LPC*%
G36*
X334816Y342287D02*
X333184D01*
X331583Y341969D01*
X330074Y341344D01*
X328717Y340437D01*
X327563Y339283D01*
X326656Y337926D01*
X326031Y336417D01*
X325713Y334816D01*
Y333184D01*
X326031Y331583D01*
X326656Y330074D01*
X327563Y328717D01*
X328717Y327563D01*
X330074Y326656D01*
X331583Y326031D01*
X333184Y325713D01*
X334816D01*
X336417Y326031D01*
X337926Y326656D01*
X339283Y327563D01*
X340437Y328717D01*
X341344Y330074D01*
X341969Y331583D01*
X342287Y333184D01*
Y334816D01*
X341969Y336417D01*
X341344Y337926D01*
X340437Y339283D01*
X339283Y340437D01*
X337926Y341344D01*
X336417Y341969D01*
X334816Y342287D01*
D02*
G37*
G36*
X20816D02*
X19184D01*
X17583Y341969D01*
X16074Y341344D01*
X14717Y340437D01*
X13563Y339283D01*
X12656Y337926D01*
X12031Y336417D01*
X11713Y334816D01*
Y333184D01*
X12031Y331583D01*
X12656Y330074D01*
X13563Y328717D01*
X14717Y327563D01*
X16074Y326656D01*
X17583Y326031D01*
X19184Y325713D01*
X20816D01*
X22417Y326031D01*
X23926Y326656D01*
X25283Y327563D01*
X26437Y328717D01*
X27344Y330074D01*
X27969Y331583D01*
X28287Y333184D01*
Y334816D01*
X27969Y336417D01*
X27344Y337926D01*
X26437Y339283D01*
X25283Y340437D01*
X23926Y341344D01*
X22417Y341969D01*
X20816Y342287D01*
D02*
G37*
G36*
X243455Y329504D02*
X242589D01*
X241753Y329280D01*
X241003Y328847D01*
X240391Y328235D01*
X239959Y327485D01*
X239735Y326649D01*
Y325784D01*
X239959Y324948D01*
X240391Y324198D01*
X241003Y323586D01*
X241753Y323153D01*
X242589Y322929D01*
X243455D01*
X244291Y323153D01*
X245041Y323586D01*
X245653Y324198D01*
X246085Y324948D01*
X246309Y325784D01*
Y326649D01*
X246085Y327485D01*
X245653Y328235D01*
X245041Y328847D01*
X244291Y329280D01*
X243455Y329504D01*
D02*
G37*
G36*
X208022D02*
X207156D01*
X206320Y329280D01*
X205571Y328847D01*
X204958Y328235D01*
X204526Y327485D01*
X204302Y326649D01*
Y325784D01*
X204526Y324948D01*
X204958Y324198D01*
X205571Y323586D01*
X206320Y323153D01*
X207156Y322929D01*
X208022D01*
X208858Y323153D01*
X209608Y323586D01*
X210220Y324198D01*
X210652Y324948D01*
X210876Y325784D01*
Y326649D01*
X210652Y327485D01*
X210220Y328235D01*
X209608Y328847D01*
X208858Y329280D01*
X208022Y329504D01*
D02*
G37*
G36*
X139744D02*
X138878D01*
X138042Y329280D01*
X137293Y328847D01*
X136680Y328235D01*
X136248Y327485D01*
X136024Y326649D01*
Y325784D01*
X136248Y324948D01*
X136680Y324198D01*
X137293Y323586D01*
X138042Y323153D01*
X138878Y322929D01*
X139744D01*
X140580Y323153D01*
X141330Y323586D01*
X141942Y324198D01*
X142374Y324948D01*
X142598Y325784D01*
Y326649D01*
X142374Y327485D01*
X141942Y328235D01*
X141330Y328847D01*
X140580Y329280D01*
X139744Y329504D01*
D02*
G37*
G36*
X104311D02*
X103445D01*
X102609Y329280D01*
X101859Y328847D01*
X101247Y328235D01*
X100815Y327485D01*
X100591Y326649D01*
Y325784D01*
X100815Y324948D01*
X101247Y324198D01*
X101859Y323586D01*
X102609Y323153D01*
X103445Y322929D01*
X104311D01*
X105147Y323153D01*
X105896Y323586D01*
X106509Y324198D01*
X106941Y324948D01*
X107165Y325784D01*
Y326649D01*
X106941Y327485D01*
X106509Y328235D01*
X105896Y328847D01*
X105147Y329280D01*
X104311Y329504D01*
D02*
G37*
G36*
X128500Y322365D02*
Y319500D01*
X131365D01*
X131220Y320041D01*
X130694Y320951D01*
X129951Y321694D01*
X129041Y322220D01*
X128500Y322365D01*
D02*
G37*
G36*
X232211D02*
Y319500D01*
X235076D01*
X234931Y320041D01*
X234405Y320951D01*
X233662Y321694D01*
X232752Y322220D01*
X232211Y322365D01*
D02*
G37*
G36*
X126500D02*
X125959Y322220D01*
X125049Y321694D01*
X124305Y320951D01*
X123780Y320041D01*
X123635Y319500D01*
X126500D01*
Y322365D01*
D02*
G37*
G36*
X230211D02*
X229670Y322220D01*
X228760Y321694D01*
X228016Y320951D01*
X227491Y320041D01*
X227346Y319500D01*
X230211D01*
Y322365D01*
D02*
G37*
G36*
X223180Y322280D02*
X215620D01*
Y314721D01*
X223180D01*
Y322280D01*
D02*
G37*
G36*
X119468D02*
X111909D01*
Y314721D01*
X119468D01*
Y322280D01*
D02*
G37*
G36*
X235076Y317500D02*
X232211D01*
Y314635D01*
X232752Y314780D01*
X233662Y315305D01*
X234405Y316049D01*
X234931Y316959D01*
X235076Y317500D01*
D02*
G37*
G36*
X131365D02*
X128500D01*
Y314635D01*
X129041Y314780D01*
X129951Y315305D01*
X130694Y316049D01*
X131220Y316959D01*
X131365Y317500D01*
D02*
G37*
G36*
X230211D02*
X227346D01*
X227491Y316959D01*
X228016Y316049D01*
X228760Y315305D01*
X229670Y314780D01*
X230211Y314635D01*
Y317500D01*
D02*
G37*
G36*
X126500D02*
X123635D01*
X123780Y316959D01*
X124305Y316049D01*
X125049Y315305D01*
X125959Y314780D01*
X126500Y314635D01*
Y317500D01*
D02*
G37*
G36*
X33559Y281620D02*
Y280000D01*
X35179D01*
X34882Y280718D01*
X34277Y281323D01*
X33559Y281620D01*
D02*
G37*
G36*
X32559D02*
X31841Y281323D01*
X31236Y280718D01*
X30939Y280000D01*
X32559D01*
Y281620D01*
D02*
G37*
G36*
X53452Y281557D02*
Y279936D01*
X55072D01*
X54774Y280654D01*
X54170Y281259D01*
X53452Y281557D01*
D02*
G37*
G36*
X52452D02*
X51734Y281259D01*
X51129Y280654D01*
X50832Y279936D01*
X52452D01*
Y281557D01*
D02*
G37*
G36*
X292441Y281420D02*
Y279800D01*
X294061D01*
X293764Y280518D01*
X293159Y281123D01*
X292441Y281420D01*
D02*
G37*
G36*
X291441D02*
X290723Y281123D01*
X290118Y280518D01*
X289821Y279800D01*
X291441D01*
Y281420D01*
D02*
G37*
G36*
X272559D02*
Y279800D01*
X274179D01*
X273882Y280518D01*
X273277Y281123D01*
X272559Y281420D01*
D02*
G37*
G36*
X271559D02*
X270841Y281123D01*
X270236Y280518D01*
X269939Y279800D01*
X271559D01*
Y281420D01*
D02*
G37*
G36*
X35179Y279000D02*
X33559D01*
Y277380D01*
X34277Y277677D01*
X34882Y278282D01*
X35179Y279000D01*
D02*
G37*
G36*
X32559D02*
X30939D01*
X31236Y278282D01*
X31841Y277677D01*
X32559Y277380D01*
Y279000D01*
D02*
G37*
G36*
X55072Y278936D02*
X53452D01*
Y277316D01*
X54170Y277614D01*
X54774Y278219D01*
X55072Y278936D01*
D02*
G37*
G36*
X52452D02*
X50832D01*
X51129Y278219D01*
X51734Y277614D01*
X52452Y277316D01*
Y278936D01*
D02*
G37*
G36*
X294061Y278800D02*
X292441D01*
Y277180D01*
X293159Y277477D01*
X293764Y278082D01*
X294061Y278800D01*
D02*
G37*
G36*
X291441D02*
X289821D01*
X290118Y278082D01*
X290723Y277477D01*
X291441Y277180D01*
Y278800D01*
D02*
G37*
G36*
X274179D02*
X272559D01*
Y277180D01*
X273277Y277477D01*
X273882Y278082D01*
X274179Y278800D01*
D02*
G37*
G36*
X271559D02*
X269939D01*
X270236Y278082D01*
X270841Y277477D01*
X271559Y277180D01*
Y278800D01*
D02*
G37*
G36*
X214200Y277120D02*
Y275500D01*
X215820D01*
X215523Y276218D01*
X214918Y276823D01*
X214200Y277120D01*
D02*
G37*
G36*
X213200D02*
X212482Y276823D01*
X211877Y276218D01*
X211580Y275500D01*
X213200D01*
Y277120D01*
D02*
G37*
G36*
X115664Y276820D02*
Y275200D01*
X117283D01*
X116986Y275918D01*
X116381Y276523D01*
X115664Y276820D01*
D02*
G37*
G36*
X114664D02*
X113946Y276523D01*
X113341Y275918D01*
X113043Y275200D01*
X114664D01*
Y276820D01*
D02*
G37*
G36*
X215820Y274500D02*
X214200D01*
Y272880D01*
X214918Y273177D01*
X215523Y273782D01*
X215820Y274500D01*
D02*
G37*
G36*
X213200D02*
X211580D01*
X211877Y273782D01*
X212482Y273177D01*
X213200Y272880D01*
Y274500D01*
D02*
G37*
G36*
X117283Y274200D02*
X115664D01*
Y272580D01*
X116381Y272877D01*
X116986Y273482D01*
X117283Y274200D01*
D02*
G37*
G36*
X114664D02*
X113043D01*
X113341Y273482D01*
X113946Y272877D01*
X114664Y272580D01*
Y274200D01*
D02*
G37*
G36*
X282565Y271091D02*
X281435D01*
X280344Y270799D01*
X279365Y270234D01*
X278566Y269435D01*
X278001Y268456D01*
X277709Y267365D01*
Y266235D01*
X278001Y265144D01*
X278566Y264165D01*
X279365Y263366D01*
X280344Y262801D01*
X281435Y262509D01*
X282565D01*
X283656Y262801D01*
X284635Y263366D01*
X285434Y264165D01*
X285999Y265144D01*
X286291Y266235D01*
Y267365D01*
X285999Y268456D01*
X285434Y269435D01*
X284635Y270234D01*
X283656Y270799D01*
X282565Y271091D01*
D02*
G37*
G36*
X43565D02*
X42435D01*
X41344Y270799D01*
X40365Y270234D01*
X39566Y269435D01*
X39001Y268456D01*
X38709Y267365D01*
Y266235D01*
X39001Y265144D01*
X39566Y264165D01*
X40365Y263366D01*
X41344Y262801D01*
X42435Y262509D01*
X43565D01*
X44656Y262801D01*
X45635Y263366D01*
X46434Y264165D01*
X46999Y265144D01*
X47291Y266235D01*
Y267365D01*
X46999Y268456D01*
X46434Y269435D01*
X45635Y270234D01*
X44656Y270799D01*
X43565Y271091D01*
D02*
G37*
G36*
X64381Y263737D02*
X63611D01*
X62898Y263442D01*
X62353Y262897D01*
X62059Y262185D01*
Y261415D01*
X62353Y260703D01*
X62898Y260157D01*
X63611Y259863D01*
X64381D01*
X65093Y260157D01*
X65638Y260703D01*
X65933Y261415D01*
Y262185D01*
X65638Y262897D01*
X65093Y263442D01*
X64381Y263737D01*
D02*
G37*
G36*
X263185Y261537D02*
X262415D01*
X261703Y261243D01*
X261157Y260697D01*
X260863Y259985D01*
Y259215D01*
X261157Y258503D01*
X261703Y257958D01*
X262415Y257663D01*
X263185D01*
X263897Y257958D01*
X264442Y258503D01*
X264737Y259215D01*
Y259985D01*
X264442Y260697D01*
X263897Y261243D01*
X263185Y261537D01*
D02*
G37*
G36*
X91706Y260058D02*
X90935D01*
X90223Y259763D01*
X89678Y259218D01*
X89383Y258506D01*
Y257735D01*
X89678Y257023D01*
X90223Y256478D01*
X90935Y256183D01*
X91706D01*
X92418Y256478D01*
X92963Y257023D01*
X93258Y257735D01*
Y258506D01*
X92963Y259218D01*
X92418Y259763D01*
X91706Y260058D01*
D02*
G37*
G36*
X72887Y256387D02*
X72116D01*
X71404Y256092D01*
X70859Y255547D01*
X70564Y254835D01*
Y254064D01*
X70859Y253352D01*
X71404Y252807D01*
X72116Y252512D01*
X72887D01*
X73599Y252807D01*
X74144Y253352D01*
X74439Y254064D01*
Y254835D01*
X74144Y255547D01*
X73599Y256092D01*
X72887Y256387D01*
D02*
G37*
G36*
X256693Y256071D02*
X255922D01*
X255210Y255776D01*
X254665Y255231D01*
X254370Y254519D01*
Y253748D01*
X254665Y253036D01*
X255210Y252491D01*
X255922Y252196D01*
X256693D01*
X257405Y252491D01*
X257950Y253036D01*
X258245Y253748D01*
Y254519D01*
X257950Y255231D01*
X257405Y255776D01*
X256693Y256071D01*
D02*
G37*
G36*
X63996Y255669D02*
X63225D01*
X62513Y255374D01*
X61968Y254829D01*
X61673Y254117D01*
Y253346D01*
X61968Y252634D01*
X62513Y252089D01*
X63225Y251794D01*
X63996D01*
X64708Y252089D01*
X65253Y252634D01*
X65548Y253346D01*
Y254117D01*
X65253Y254829D01*
X64708Y255374D01*
X63996Y255669D01*
D02*
G37*
G36*
X231186Y246559D02*
Y244939D01*
X232806D01*
X232508Y245657D01*
X231904Y246262D01*
X231186Y246559D01*
D02*
G37*
G36*
X230186D02*
X229468Y246262D01*
X228863Y245657D01*
X228566Y244939D01*
X230186D01*
Y246559D01*
D02*
G37*
G36*
X221236D02*
Y244939D01*
X222856D01*
X222559Y245657D01*
X221954Y246262D01*
X221236Y246559D01*
D02*
G37*
G36*
X220236D02*
X219518Y246262D01*
X218913Y245657D01*
X218616Y244939D01*
X220236D01*
Y246559D01*
D02*
G37*
G36*
X72887Y248313D02*
X72116D01*
X71404Y248018D01*
X70859Y247473D01*
X70564Y246761D01*
Y245990D01*
X70859Y245278D01*
X71404Y244733D01*
X72116Y244438D01*
X72887D01*
X73599Y244733D01*
X74144Y245278D01*
X74439Y245990D01*
Y246761D01*
X74144Y247473D01*
X73599Y248018D01*
X72887Y248313D01*
D02*
G37*
G36*
X232806Y243939D02*
X231186D01*
Y242319D01*
X231904Y242617D01*
X232508Y243221D01*
X232806Y243939D01*
D02*
G37*
G36*
X230186D02*
X228566D01*
X228863Y243221D01*
X229468Y242617D01*
X230186Y242319D01*
Y243939D01*
D02*
G37*
G36*
X222856D02*
X221236D01*
Y242319D01*
X221954Y242617D01*
X222559Y243221D01*
X222856Y243939D01*
D02*
G37*
G36*
X220236D02*
X218616D01*
X218913Y243221D01*
X219518Y242617D01*
X220236Y242319D01*
Y243939D01*
D02*
G37*
G36*
X88300Y243875D02*
Y242255D01*
X89920D01*
X89623Y242973D01*
X89018Y243577D01*
X88300Y243875D01*
D02*
G37*
G36*
X87300D02*
X86582Y243577D01*
X85977Y242973D01*
X85680Y242255D01*
X87300D01*
Y243875D01*
D02*
G37*
G36*
X82685Y245137D02*
X81915D01*
X81203Y244843D01*
X80658Y244297D01*
X80363Y243585D01*
Y242815D01*
X80658Y242103D01*
X81203Y241558D01*
X81915Y241263D01*
X82685D01*
X83398Y241558D01*
X83942Y242103D01*
X84237Y242815D01*
Y243585D01*
X83942Y244297D01*
X83398Y244843D01*
X82685Y245137D01*
D02*
G37*
G36*
X96350Y245057D02*
X95580D01*
X94867Y244762D01*
X94323Y244217D01*
X94028Y243505D01*
Y242735D01*
X94323Y242023D01*
X94867Y241478D01*
X95580Y241183D01*
X96350D01*
X97062Y241478D01*
X97607Y242023D01*
X97902Y242735D01*
Y243505D01*
X97607Y244217D01*
X97062Y244762D01*
X96350Y245057D01*
D02*
G37*
G36*
X64881Y241650D02*
Y240030D01*
X66501D01*
X66204Y240747D01*
X65599Y241352D01*
X64881Y241650D01*
D02*
G37*
G36*
X63881D02*
X63163Y241352D01*
X62559Y240747D01*
X62261Y240030D01*
X63881D01*
Y241650D01*
D02*
G37*
G36*
X263285Y243737D02*
X262515D01*
X261803Y243443D01*
X261258Y242897D01*
X260963Y242185D01*
Y241415D01*
X261258Y240703D01*
X261803Y240158D01*
X262515Y239863D01*
X263285D01*
X263997Y240158D01*
X264543Y240703D01*
X264837Y241415D01*
Y242185D01*
X264543Y242897D01*
X263997Y243443D01*
X263285Y243737D01*
D02*
G37*
G36*
X76430Y243692D02*
X75660D01*
X74947Y243397D01*
X74402Y242852D01*
X74107Y242140D01*
Y241369D01*
X74402Y240657D01*
X74947Y240112D01*
X75660Y239817D01*
X76430D01*
X77142Y240112D01*
X77687Y240657D01*
X77982Y241369D01*
Y242140D01*
X77687Y242852D01*
X77142Y243397D01*
X76430Y243692D01*
D02*
G37*
G36*
X89920Y241255D02*
X88300D01*
Y239635D01*
X89018Y239932D01*
X89623Y240537D01*
X89920Y241255D01*
D02*
G37*
G36*
X87300D02*
X85680D01*
X85977Y240537D01*
X86582Y239932D01*
X87300Y239635D01*
Y241255D01*
D02*
G37*
G36*
X216785Y243437D02*
X216015D01*
X215303Y243143D01*
X214757Y242597D01*
X214463Y241885D01*
Y241115D01*
X214757Y240403D01*
X215303Y239858D01*
X216015Y239563D01*
X216785D01*
X217497Y239858D01*
X218042Y240403D01*
X218337Y241115D01*
Y241885D01*
X218042Y242597D01*
X217497Y243143D01*
X216785Y243437D01*
D02*
G37*
G36*
X221236Y240442D02*
Y238822D01*
X222856D01*
X222559Y239540D01*
X221954Y240145D01*
X221236Y240442D01*
D02*
G37*
G36*
X220236D02*
X219518Y240145D01*
X218913Y239540D01*
X218616Y238822D01*
X220236D01*
Y240442D01*
D02*
G37*
G36*
X66501Y239030D02*
X64881D01*
Y237409D01*
X65599Y237707D01*
X66204Y238312D01*
X66501Y239030D01*
D02*
G37*
G36*
X63881D02*
X62261D01*
X62559Y238312D01*
X63163Y237707D01*
X63881Y237409D01*
Y239030D01*
D02*
G37*
G36*
X222856Y237822D02*
X221236D01*
Y236202D01*
X221954Y236500D01*
X222559Y237104D01*
X222856Y237822D01*
D02*
G37*
G36*
X220236D02*
X218616D01*
X218913Y237104D01*
X219518Y236500D01*
X220236Y236202D01*
Y237822D01*
D02*
G37*
G36*
X82845Y239317D02*
X82075D01*
X81362Y239022D01*
X80818Y238477D01*
X80523Y237765D01*
Y236994D01*
X80818Y236282D01*
X81362Y235737D01*
X82075Y235442D01*
X82845D01*
X83557Y235737D01*
X84102Y236282D01*
X84397Y236994D01*
Y237765D01*
X84102Y238477D01*
X83557Y239022D01*
X82845Y239317D01*
D02*
G37*
G36*
X256693Y236623D02*
X255922D01*
X255210Y236328D01*
X254665Y235783D01*
X254370Y235071D01*
Y234300D01*
X254665Y233588D01*
X255210Y233043D01*
X255922Y232748D01*
X256693D01*
X257405Y233043D01*
X257950Y233588D01*
X258245Y234300D01*
Y235071D01*
X257950Y235783D01*
X257405Y236328D01*
X256693Y236623D01*
D02*
G37*
G36*
X83070Y233370D02*
X82299D01*
X81587Y233075D01*
X81042Y232530D01*
X80747Y231818D01*
Y231047D01*
X81042Y230335D01*
X81587Y229790D01*
X82299Y229495D01*
X83070D01*
X83782Y229790D01*
X84327Y230335D01*
X84622Y231047D01*
Y231818D01*
X84327Y232530D01*
X83782Y233075D01*
X83070Y233370D01*
D02*
G37*
G36*
X64767D02*
X63996D01*
X63284Y233075D01*
X62739Y232530D01*
X62444Y231818D01*
Y231047D01*
X62739Y230335D01*
X63284Y229790D01*
X63996Y229495D01*
X64767D01*
X65479Y229790D01*
X66024Y230335D01*
X66319Y231047D01*
Y231818D01*
X66024Y232530D01*
X65479Y233075D01*
X64767Y233370D01*
D02*
G37*
G36*
X103271Y228575D02*
X102500D01*
X101788Y228280D01*
X101243Y227735D01*
X100948Y227023D01*
Y226252D01*
X101243Y225540D01*
X101788Y224995D01*
X102500Y224700D01*
X103271D01*
X103983Y224995D01*
X104528Y225540D01*
X104823Y226252D01*
Y227023D01*
X104528Y227735D01*
X103983Y228280D01*
X103271Y228575D01*
D02*
G37*
G36*
X81133Y228522D02*
X80362D01*
X79650Y228227D01*
X79105Y227682D01*
X78810Y226970D01*
Y226200D01*
X79105Y225487D01*
X79650Y224942D01*
X80362Y224648D01*
X81133D01*
X81845Y224942D01*
X82390Y225487D01*
X82684Y226200D01*
Y226970D01*
X82390Y227682D01*
X81845Y228227D01*
X81133Y228522D01*
D02*
G37*
G36*
X64767Y228137D02*
X63996D01*
X63284Y227842D01*
X62739Y227297D01*
X62444Y226585D01*
Y225814D01*
X62739Y225102D01*
X63284Y224557D01*
X63996Y224262D01*
X64767D01*
X65479Y224557D01*
X66024Y225102D01*
X66319Y225814D01*
Y226585D01*
X66024Y227297D01*
X65479Y227842D01*
X64767Y228137D01*
D02*
G37*
G36*
X98885Y224273D02*
Y222653D01*
X100505D01*
X100208Y223371D01*
X99603Y223976D01*
X98885Y224273D01*
D02*
G37*
G36*
X97885D02*
X97167Y223976D01*
X96563Y223371D01*
X96265Y222653D01*
X97885D01*
Y224273D01*
D02*
G37*
G36*
X82362Y223920D02*
Y222300D01*
X83982D01*
X83685Y223018D01*
X83080Y223623D01*
X82362Y223920D01*
D02*
G37*
G36*
X81362D02*
X80644Y223623D01*
X80040Y223018D01*
X79742Y222300D01*
X81362D01*
Y223920D01*
D02*
G37*
G36*
X100505Y221653D02*
X98885D01*
Y220033D01*
X99603Y220330D01*
X100208Y220935D01*
X100505Y221653D01*
D02*
G37*
G36*
X97885D02*
X96265D01*
X96563Y220935D01*
X97167Y220330D01*
X97885Y220033D01*
Y221653D01*
D02*
G37*
G36*
X83982Y221300D02*
X82362D01*
Y219680D01*
X83080Y219977D01*
X83685Y220582D01*
X83982Y221300D01*
D02*
G37*
G36*
X81362D02*
X79742D01*
X80040Y220582D01*
X80644Y219977D01*
X81362Y219680D01*
Y221300D01*
D02*
G37*
G36*
X61123Y218152D02*
X60352D01*
X59640Y217857D01*
X59095Y217312D01*
X58800Y216600D01*
Y215829D01*
X59095Y215117D01*
X59640Y214572D01*
X60352Y214277D01*
X61123D01*
X61835Y214572D01*
X62380Y215117D01*
X62675Y215829D01*
Y216600D01*
X62380Y217312D01*
X61835Y217857D01*
X61123Y218152D01*
D02*
G37*
G36*
X83785Y214437D02*
X83015D01*
X82302Y214142D01*
X81758Y213597D01*
X81463Y212885D01*
Y212115D01*
X81758Y211403D01*
X82302Y210858D01*
X83015Y210563D01*
X83785D01*
X84497Y210858D01*
X85042Y211403D01*
X85337Y212115D01*
Y212885D01*
X85042Y213597D01*
X84497Y214142D01*
X83785Y214437D01*
D02*
G37*
G36*
X169900Y182954D02*
Y181334D01*
X171520D01*
X171223Y182052D01*
X170618Y182657D01*
X169900Y182954D01*
D02*
G37*
G36*
X168900D02*
X168182Y182657D01*
X167577Y182052D01*
X167280Y181334D01*
X168900D01*
Y182954D01*
D02*
G37*
G36*
X115485Y182771D02*
X114715D01*
X114003Y182476D01*
X113458Y181931D01*
X113163Y181219D01*
Y180448D01*
X113458Y179736D01*
X114003Y179191D01*
X114715Y178896D01*
X115485D01*
X116198Y179191D01*
X116743Y179736D01*
X117037Y180448D01*
Y181219D01*
X116743Y181931D01*
X116198Y182476D01*
X115485Y182771D01*
D02*
G37*
G36*
X171520Y180334D02*
X169900D01*
Y178714D01*
X170618Y179011D01*
X171223Y179616D01*
X171520Y180334D01*
D02*
G37*
G36*
X168900D02*
X167280D01*
X167577Y179616D01*
X168182Y179011D01*
X168900Y178714D01*
Y180334D01*
D02*
G37*
G36*
X115485Y176435D02*
X114715D01*
X114003Y176140D01*
X113458Y175595D01*
X113163Y174883D01*
Y174112D01*
X113458Y173400D01*
X114003Y172855D01*
X114715Y172561D01*
X115485D01*
X116198Y172855D01*
X116743Y173400D01*
X117037Y174112D01*
Y174883D01*
X116743Y175595D01*
X116198Y176140D01*
X115485Y176435D01*
D02*
G37*
G36*
Y156640D02*
X114715D01*
X114003Y156345D01*
X113458Y155800D01*
X113163Y155087D01*
Y154317D01*
X113458Y153605D01*
X114003Y153060D01*
X114715Y152765D01*
X115485D01*
X116198Y153060D01*
X116743Y153605D01*
X117037Y154317D01*
Y155087D01*
X116743Y155800D01*
X116198Y156345D01*
X115485Y156640D01*
D02*
G37*
G36*
X170000Y152245D02*
Y150625D01*
X171620D01*
X171323Y151343D01*
X170718Y151948D01*
X170000Y152245D01*
D02*
G37*
G36*
X169000D02*
X168282Y151948D01*
X167677Y151343D01*
X167380Y150625D01*
X169000D01*
Y152245D01*
D02*
G37*
G36*
X171620Y149625D02*
X170000D01*
Y148005D01*
X170718Y148302D01*
X171323Y148907D01*
X171620Y149625D01*
D02*
G37*
G36*
X169000D02*
X167380D01*
X167677Y148907D01*
X168282Y148302D01*
X169000Y148005D01*
Y149625D01*
D02*
G37*
G36*
X115485Y149504D02*
X114715D01*
X114003Y149209D01*
X113458Y148664D01*
X113163Y147951D01*
Y147181D01*
X113458Y146469D01*
X114003Y145924D01*
X114715Y145629D01*
X115485D01*
X116198Y145924D01*
X116743Y146469D01*
X117037Y147181D01*
Y147951D01*
X116743Y148664D01*
X116198Y149209D01*
X115485Y149504D01*
D02*
G37*
G36*
X83985Y135282D02*
X83215D01*
X82503Y134987D01*
X81958Y134442D01*
X81663Y133730D01*
Y132959D01*
X81958Y132247D01*
X82503Y131702D01*
X83215Y131407D01*
X83985D01*
X84698Y131702D01*
X85242Y132247D01*
X85537Y132959D01*
Y133730D01*
X85242Y134442D01*
X84698Y134987D01*
X83985Y135282D01*
D02*
G37*
G36*
X216785Y110437D02*
X216015D01*
X215303Y110143D01*
X214757Y109598D01*
X214463Y108885D01*
Y108115D01*
X214757Y107403D01*
X215303Y106858D01*
X216015Y106563D01*
X216785D01*
X217497Y106858D01*
X218042Y107403D01*
X218337Y108115D01*
Y108885D01*
X218042Y109598D01*
X217497Y110143D01*
X216785Y110437D01*
D02*
G37*
G36*
X245800Y107120D02*
Y105500D01*
X247420D01*
X247123Y106218D01*
X246518Y106823D01*
X245800Y107120D01*
D02*
G37*
G36*
X244800D02*
X244082Y106823D01*
X243477Y106218D01*
X243180Y105500D01*
X244800D01*
Y107120D01*
D02*
G37*
G36*
X247420Y104500D02*
X245800D01*
Y102880D01*
X246518Y103177D01*
X247123Y103782D01*
X247420Y104500D01*
D02*
G37*
G36*
X244800D02*
X243180D01*
X243477Y103782D01*
X244082Y103177D01*
X244800Y102880D01*
Y104500D01*
D02*
G37*
G36*
X282565Y91091D02*
X281435D01*
X280344Y90799D01*
X279365Y90234D01*
X278566Y89435D01*
X278001Y88456D01*
X277709Y87365D01*
Y86235D01*
X278001Y85144D01*
X278566Y84165D01*
X279365Y83366D01*
X280344Y82801D01*
X281435Y82509D01*
X282565D01*
X283656Y82801D01*
X284635Y83366D01*
X285434Y84165D01*
X285999Y85144D01*
X286291Y86235D01*
Y87365D01*
X285999Y88456D01*
X285434Y89435D01*
X284635Y90234D01*
X283656Y90799D01*
X282565Y91091D01*
D02*
G37*
G36*
X43565D02*
X42435D01*
X41344Y90799D01*
X40365Y90234D01*
X39566Y89435D01*
X39001Y88456D01*
X38709Y87365D01*
Y86235D01*
X39001Y85144D01*
X39566Y84165D01*
X40365Y83366D01*
X41344Y82801D01*
X42435Y82509D01*
X43565D01*
X44656Y82801D01*
X45635Y83366D01*
X46434Y84165D01*
X46999Y85144D01*
X47291Y86235D01*
Y87365D01*
X46999Y88456D01*
X46434Y89435D01*
X45635Y90234D01*
X44656Y90799D01*
X43565Y91091D01*
D02*
G37*
G36*
X191700Y75620D02*
Y74000D01*
X193320D01*
X193023Y74718D01*
X192418Y75323D01*
X191700Y75620D01*
D02*
G37*
G36*
X190700D02*
X189982Y75323D01*
X189377Y74718D01*
X189080Y74000D01*
X190700D01*
Y75620D01*
D02*
G37*
G36*
X163300Y75505D02*
Y73885D01*
X164920D01*
X164623Y74603D01*
X164018Y75208D01*
X163300Y75505D01*
D02*
G37*
G36*
X162300D02*
X161582Y75208D01*
X160977Y74603D01*
X160680Y73885D01*
X162300D01*
Y75505D01*
D02*
G37*
G36*
X193320Y73000D02*
X191700D01*
Y71380D01*
X192418Y71677D01*
X193023Y72282D01*
X193320Y73000D01*
D02*
G37*
G36*
X190700D02*
X189080D01*
X189377Y72282D01*
X189982Y71677D01*
X190700Y71380D01*
Y73000D01*
D02*
G37*
G36*
X164920Y72885D02*
X163300D01*
Y71265D01*
X164018Y71562D01*
X164623Y72167D01*
X164920Y72885D01*
D02*
G37*
G36*
X162300D02*
X160680D01*
X160977Y72167D01*
X161582Y71562D01*
X162300Y71265D01*
Y72885D01*
D02*
G37*
G36*
X220389Y39065D02*
Y36200D01*
X223254D01*
X223109Y36741D01*
X222584Y37651D01*
X221840Y38394D01*
X220930Y38920D01*
X220389Y39065D01*
D02*
G37*
G36*
X218389D02*
X217848Y38920D01*
X216938Y38394D01*
X216195Y37651D01*
X215669Y36741D01*
X215524Y36200D01*
X218389D01*
Y39065D01*
D02*
G37*
G36*
X123389D02*
Y36200D01*
X126254D01*
X126109Y36741D01*
X125584Y37651D01*
X124840Y38394D01*
X123930Y38920D01*
X123389Y39065D01*
D02*
G37*
G36*
X121389D02*
X120848Y38920D01*
X119938Y38394D01*
X119194Y37651D01*
X118669Y36741D01*
X118524Y36200D01*
X121389D01*
Y39065D01*
D02*
G37*
G36*
X234980Y38980D02*
X227420D01*
Y31420D01*
X234980D01*
Y38980D01*
D02*
G37*
G36*
X137979D02*
X130420D01*
Y31420D01*
X137979D01*
Y38980D01*
D02*
G37*
G36*
X223254Y34200D02*
X220389D01*
Y31335D01*
X220930Y31480D01*
X221840Y32006D01*
X222584Y32749D01*
X223109Y33659D01*
X223254Y34200D01*
D02*
G37*
G36*
X218389D02*
X215524D01*
X215669Y33659D01*
X216195Y32749D01*
X216938Y32006D01*
X217848Y31480D01*
X218389Y31335D01*
Y34200D01*
D02*
G37*
G36*
X126254D02*
X123389D01*
Y31335D01*
X123930Y31480D01*
X124840Y32006D01*
X125584Y32749D01*
X126109Y33659D01*
X126254Y34200D01*
D02*
G37*
G36*
X121389D02*
X118524D01*
X118669Y33659D01*
X119194Y32749D01*
X119938Y32006D01*
X120848Y31480D01*
X121389Y31335D01*
Y34200D01*
D02*
G37*
G36*
X243444Y30771D02*
X242578D01*
X241742Y30547D01*
X240992Y30114D01*
X240380Y29502D01*
X239948Y28752D01*
X239724Y27916D01*
Y27051D01*
X239948Y26215D01*
X240380Y25465D01*
X240992Y24853D01*
X241742Y24420D01*
X242578Y24196D01*
X243444D01*
X244280Y24420D01*
X245029Y24853D01*
X245642Y25465D01*
X246074Y26215D01*
X246298Y27051D01*
Y27916D01*
X246074Y28752D01*
X245642Y29502D01*
X245029Y30114D01*
X244280Y30547D01*
X243444Y30771D01*
D02*
G37*
G36*
X208011D02*
X207145D01*
X206309Y30547D01*
X205559Y30114D01*
X204947Y29502D01*
X204515Y28752D01*
X204291Y27916D01*
Y27051D01*
X204515Y26215D01*
X204947Y25465D01*
X205559Y24853D01*
X206309Y24420D01*
X207145Y24196D01*
X208011D01*
X208847Y24420D01*
X209596Y24853D01*
X210209Y25465D01*
X210641Y26215D01*
X210865Y27051D01*
Y27916D01*
X210641Y28752D01*
X210209Y29502D01*
X209596Y30114D01*
X208847Y30547D01*
X208011Y30771D01*
D02*
G37*
G36*
X146444D02*
X145578D01*
X144742Y30547D01*
X143992Y30114D01*
X143380Y29502D01*
X142948Y28752D01*
X142724Y27916D01*
Y27051D01*
X142948Y26215D01*
X143380Y25465D01*
X143992Y24853D01*
X144742Y24420D01*
X145578Y24196D01*
X146444D01*
X147280Y24420D01*
X148029Y24853D01*
X148642Y25465D01*
X149074Y26215D01*
X149298Y27051D01*
Y27916D01*
X149074Y28752D01*
X148642Y29502D01*
X148029Y30114D01*
X147280Y30547D01*
X146444Y30771D01*
D02*
G37*
G36*
X111011D02*
X110145D01*
X109309Y30547D01*
X108559Y30114D01*
X107947Y29502D01*
X107515Y28752D01*
X107291Y27916D01*
Y27051D01*
X107515Y26215D01*
X107947Y25465D01*
X108559Y24853D01*
X109309Y24420D01*
X110145Y24196D01*
X111011D01*
X111847Y24420D01*
X112596Y24853D01*
X113208Y25465D01*
X113641Y26215D01*
X113865Y27051D01*
Y27916D01*
X113641Y28752D01*
X113208Y29502D01*
X112596Y30114D01*
X111847Y30547D01*
X111011Y30771D01*
D02*
G37*
G36*
X334816Y28287D02*
X333184D01*
X331583Y27969D01*
X330074Y27344D01*
X328717Y26437D01*
X327563Y25283D01*
X326656Y23926D01*
X326031Y22417D01*
X325713Y20816D01*
Y19184D01*
X326031Y17583D01*
X326656Y16074D01*
X327563Y14717D01*
X328717Y13563D01*
X330074Y12656D01*
X331583Y12031D01*
X333184Y11713D01*
X334816D01*
X336417Y12031D01*
X337926Y12656D01*
X339283Y13563D01*
X340437Y14717D01*
X341344Y16074D01*
X341969Y17583D01*
X342287Y19184D01*
Y20816D01*
X341969Y22417D01*
X341344Y23926D01*
X340437Y25283D01*
X339283Y26437D01*
X337926Y27344D01*
X336417Y27969D01*
X334816Y28287D01*
D02*
G37*
G36*
X20816D02*
X19184D01*
X17583Y27969D01*
X16074Y27344D01*
X14717Y26437D01*
X13563Y25283D01*
X12656Y23926D01*
X12031Y22417D01*
X11713Y20816D01*
Y19184D01*
X12031Y17583D01*
X12656Y16074D01*
X13563Y14717D01*
X14717Y13563D01*
X16074Y12656D01*
X17583Y12031D01*
X19184Y11713D01*
X20816D01*
X22417Y12031D01*
X23926Y12656D01*
X25283Y13563D01*
X26437Y14717D01*
X27344Y16074D01*
X27969Y17583D01*
X28287Y19184D01*
Y20816D01*
X27969Y22417D01*
X27344Y23926D01*
X26437Y25283D01*
X25283Y26437D01*
X23926Y27344D01*
X22417Y27969D01*
X20816Y28287D01*
D02*
G37*
%LPD*%
D14*
X43000Y266800D02*
D03*
Y86800D02*
D03*
X282000D02*
D03*
Y266800D02*
D03*
D15*
X219400Y318500D02*
D03*
X134200Y35200D02*
D03*
X115689Y318500D02*
D03*
X231200Y35200D02*
D03*
D16*
X231211Y318500D02*
D03*
X122389Y35200D02*
D03*
X127500Y318500D02*
D03*
X219389Y35200D02*
D03*
D17*
X207589Y326217D02*
D03*
X243022D02*
D03*
X110578Y27483D02*
D03*
X146011D02*
D03*
X139311Y326217D02*
D03*
X103878D02*
D03*
X207578Y27483D02*
D03*
X243011D02*
D03*
D19*
X115164Y274700D02*
D03*
X81862Y221800D02*
D03*
X91320Y258120D02*
D03*
X98385Y222153D02*
D03*
X82300Y243200D02*
D03*
X83400Y212500D02*
D03*
X76045Y241755D02*
D03*
X63996Y261800D02*
D03*
X82460Y237380D02*
D03*
X87800Y241755D02*
D03*
X95965Y243120D02*
D03*
X64381Y226200D02*
D03*
X102885Y226637D02*
D03*
X80747Y226585D02*
D03*
X82684Y231432D02*
D03*
X64381Y239529D02*
D03*
X72502Y246375D02*
D03*
X63611Y253731D02*
D03*
X64381Y231432D02*
D03*
X60737Y216215D02*
D03*
X72502Y254450D02*
D03*
X115100Y174498D02*
D03*
X169400Y180834D02*
D03*
X169500Y150125D02*
D03*
X216400Y241500D02*
D03*
X162800Y73385D02*
D03*
X213700Y275000D02*
D03*
X115100Y147566D02*
D03*
Y154702D02*
D03*
Y180834D02*
D03*
X220736Y238322D02*
D03*
X245300Y105000D02*
D03*
X230686Y244439D02*
D03*
X220736D02*
D03*
X33059Y279500D02*
D03*
X52952Y279436D02*
D03*
X191200Y73500D02*
D03*
X291941Y279300D02*
D03*
X272059D02*
D03*
X83600Y133345D02*
D03*
X216400Y108500D02*
D03*
X256307Y254133D02*
D03*
Y234685D02*
D03*
X262900Y241800D02*
D03*
X262800Y259600D02*
D03*
D22*
X20000Y20000D02*
D03*
X334000D02*
D03*
Y334000D02*
D03*
X20000D02*
D03*
M02*
