G04*
G04 #@! TF.GenerationSoftware,Altium Limited,Altium Designer,24.9.1 (31)*
G04*
G04 Layer_Color=128*
%FSLAX25Y25*%
%MOIN*%
G70*
G04*
G04 #@! TF.SameCoordinates,8C3E2955-48CA-471D-9453-E4D1A35B8BF5*
G04*
G04*
G04 #@! TF.FilePolarity,Positive*
G04*
G01*
G75*
%ADD11C,0.00500*%
D11*
X113681Y318500D02*
X117697D01*
X115689Y316492D02*
Y320508D01*
X125492Y318500D02*
X129508D01*
X127500Y316492D02*
Y320508D01*
X101378Y326217D02*
X106378D01*
X103878Y323716D02*
Y328716D01*
X136811Y326217D02*
X141811D01*
X139311Y323716D02*
Y328716D01*
X12500Y334000D02*
X27500D01*
X20000Y326500D02*
Y341500D01*
X132192Y35200D02*
X136208D01*
X134200Y33192D02*
Y37208D01*
X120381Y35200D02*
X124397D01*
X122389Y33192D02*
Y37208D01*
X143511Y27483D02*
X148511D01*
X146011Y24983D02*
Y29983D01*
X108078Y27483D02*
X113078D01*
X110578Y24983D02*
Y29983D01*
X39496Y86800D02*
X46504D01*
X43000Y83296D02*
Y90304D01*
X39496Y266800D02*
X46504D01*
X43000Y263296D02*
Y270304D01*
X217392Y318500D02*
X221408D01*
X219400Y316492D02*
Y320508D01*
X229203Y318500D02*
X233219D01*
X231211Y316492D02*
Y320508D01*
X205089Y326217D02*
X210089D01*
X207589Y323716D02*
Y328716D01*
X240522Y326217D02*
X245522D01*
X243022Y323716D02*
Y328716D01*
X278496Y86800D02*
X285504D01*
X282000Y83296D02*
Y90304D01*
X278496Y266800D02*
X285504D01*
X282000Y263296D02*
Y270304D01*
X205078Y27483D02*
X210078D01*
X207578Y24983D02*
Y29983D01*
X240511Y27483D02*
X245511D01*
X243011Y24983D02*
Y29983D01*
X217381Y35200D02*
X221397D01*
X219389Y33192D02*
Y37208D01*
X229192Y35200D02*
X233208D01*
X231200Y33192D02*
Y37208D01*
X12500Y20000D02*
X27500D01*
X20000Y12500D02*
Y27500D01*
X326500Y20000D02*
X341500D01*
X334000Y12500D02*
Y27500D01*
X326500Y334000D02*
X341500D01*
X334000Y326500D02*
Y341500D01*
X117100Y136806D02*
X118300D01*
X117700Y136206D02*
Y137407D01*
X117100Y145648D02*
X118300D01*
X117700Y145047D02*
Y146247D01*
X117100Y166130D02*
X118300D01*
X117700Y165530D02*
Y166729D01*
X117100Y174969D02*
X118300D01*
X117700Y174369D02*
Y175569D01*
X200600Y106800D02*
X201800D01*
X201200Y106200D02*
Y107400D01*
X249800Y99500D02*
X251000D01*
X250400Y98900D02*
Y100100D01*
X278900Y236858D02*
X280100D01*
X279500Y236258D02*
Y237458D01*
X262900Y240400D02*
X264100D01*
X263500Y239800D02*
Y241000D01*
X42400Y243423D02*
X43600D01*
X43000Y242823D02*
Y244023D01*
X42400Y258029D02*
X43600D01*
X43000Y257429D02*
Y258629D01*
X84076Y228849D02*
X85277D01*
X84676Y228249D02*
Y229449D01*
X218100Y69200D02*
X219300D01*
X218700Y68600D02*
Y69800D01*
X120967Y66500D02*
X122167D01*
X121567Y65900D02*
Y67100D01*
X132453Y294532D02*
X133653D01*
X133053Y293932D02*
Y295132D01*
X201301Y296518D02*
X202501D01*
X201901Y295918D02*
Y297118D01*
X206370Y291000D02*
X207570D01*
X206970Y290400D02*
Y291600D01*
X127178Y289460D02*
X128378D01*
X127778Y288860D02*
Y290060D01*
X80090Y135282D02*
X81290D01*
X80690Y134682D02*
Y135882D01*
X98645Y223400D02*
X99845D01*
X99245Y222800D02*
Y224000D01*
X78887Y223481D02*
X80087D01*
X79487Y222881D02*
Y224081D01*
X87200Y241755D02*
X88400D01*
X87800Y241155D02*
Y242355D01*
X63781Y239529D02*
X64981D01*
X64381Y238930D02*
Y240129D01*
X85803Y135282D02*
X87002D01*
X86402Y134682D02*
Y135882D01*
X256685Y256357D02*
X257885D01*
X257285Y255757D02*
Y256957D01*
X259123Y254419D02*
X260323D01*
X259723Y253819D02*
Y255019D01*
X98145Y241369D02*
X99345D01*
X98745Y240769D02*
Y241969D01*
X98145Y244377D02*
X99345D01*
X98745Y243777D02*
Y244977D01*
X67646Y253074D02*
X68846D01*
X68246Y252474D02*
Y253674D01*
X75028Y255669D02*
X76228D01*
X75628Y255069D02*
Y256269D01*
X61620Y256766D02*
X62820D01*
X62220Y256166D02*
Y257366D01*
X68744Y246286D02*
X69944D01*
X69344Y245686D02*
Y246885D01*
X75142Y246375D02*
X76342D01*
X75742Y245776D02*
Y246975D01*
X61035Y229129D02*
X62235D01*
X61635Y228529D02*
Y229729D01*
X63710Y228168D02*
X64910D01*
X64310Y227568D02*
Y228768D01*
X99357Y227735D02*
X100557D01*
X99957Y227135D02*
Y228335D01*
X99266Y212103D02*
X100466D01*
X99866Y211503D02*
Y212703D01*
X105464Y211491D02*
X106664D01*
X106064Y210891D02*
Y212091D01*
X105585Y214711D02*
X106785D01*
X106185Y214111D02*
Y215311D01*
X80772Y220843D02*
X81972D01*
X81372Y220243D02*
Y221443D01*
X80863Y215523D02*
X82063D01*
X81463Y214923D02*
Y216123D01*
X84076Y215523D02*
X85277D01*
X84676Y214923D02*
Y216123D01*
X260765Y234765D02*
X261965D01*
X261365Y234165D02*
Y235365D01*
X219039Y241500D02*
X220239D01*
X219639Y240900D02*
Y242100D01*
X212804Y239400D02*
X214004D01*
X213404Y238800D02*
Y240000D01*
X212485Y242597D02*
X213685D01*
X213085Y241997D02*
Y243197D01*
X80090Y131661D02*
X81290D01*
X80690Y131061D02*
Y132261D01*
X86188Y131702D02*
X87388D01*
X86788Y131102D02*
Y132302D01*
X212985Y109598D02*
X214185D01*
X213585Y108997D02*
Y110197D01*
X216185Y105303D02*
X217385D01*
X216785Y104703D02*
Y105903D01*
X218618Y107403D02*
X219818D01*
X219218Y106802D02*
Y108002D01*
X257163Y230185D02*
X258363D01*
X257763Y229585D02*
Y230785D01*
X255163Y232735D02*
X256363D01*
X255763Y232135D02*
Y233335D01*
X178729Y140227D02*
X179929D01*
X179329Y139627D02*
Y140827D01*
X244529Y110929D02*
X245729D01*
X245129Y110329D02*
Y111529D01*
X230102Y244843D02*
X231302D01*
X230702Y244243D02*
Y245443D01*
X222929Y244824D02*
X224129D01*
X223529Y244224D02*
Y245424D01*
X215800Y241500D02*
X217000D01*
X216400Y240900D02*
Y242100D01*
X239156Y139835D02*
X240356D01*
X239756Y139235D02*
Y140435D01*
X229565Y123278D02*
X230765D01*
X230165Y122678D02*
Y123878D01*
X110426Y166212D02*
X111626D01*
X111026Y165612D02*
Y166812D01*
X110426Y145720D02*
X111626D01*
X111026Y145120D02*
Y146320D01*
X22400Y91800D02*
X23600D01*
X23000Y91200D02*
Y92400D01*
X22400Y101800D02*
X23600D01*
X23000Y101200D02*
Y102400D01*
X22400Y111800D02*
X23600D01*
X23000Y111200D02*
Y112400D01*
X22400Y121800D02*
X23600D01*
X23000Y121200D02*
Y122400D01*
X22400Y131800D02*
X23600D01*
X23000Y131200D02*
Y132400D01*
X22400Y141800D02*
X23600D01*
X23000Y141200D02*
Y142400D01*
X22400Y171800D02*
X23600D01*
X23000Y171200D02*
Y172400D01*
X22400Y181800D02*
X23600D01*
X23000Y181200D02*
Y182400D01*
X22400Y191800D02*
X23600D01*
X23000Y191200D02*
Y192400D01*
X22400Y201800D02*
X23600D01*
X23000Y201200D02*
Y202400D01*
X22400Y211800D02*
X23600D01*
X23000Y211200D02*
Y212400D01*
X22400Y221800D02*
X23600D01*
X23000Y221200D02*
Y222400D01*
X301076Y121800D02*
X302275D01*
X301676Y121200D02*
Y122400D01*
X301076Y131800D02*
X302275D01*
X301676Y131200D02*
Y132400D01*
X301076Y91800D02*
X302275D01*
X301676Y91200D02*
Y92400D01*
X301076Y101800D02*
X302275D01*
X301676Y101200D02*
Y102400D01*
X301076Y111800D02*
X302275D01*
X301676Y111200D02*
Y112400D01*
X301076Y141800D02*
X302275D01*
X301676Y141200D02*
Y142400D01*
X301076Y151800D02*
X302275D01*
X301676Y151200D02*
Y152400D01*
X301076Y161800D02*
X302275D01*
X301676Y161200D02*
Y162400D01*
X301076Y171800D02*
X302275D01*
X301676Y171200D02*
Y172400D01*
X301076Y181800D02*
X302275D01*
X301676Y181200D02*
Y182400D01*
X301076Y191800D02*
X302275D01*
X301676Y191200D02*
Y192400D01*
X301076Y201800D02*
X302275D01*
X301676Y201200D02*
Y202400D01*
X301076Y211800D02*
X302275D01*
X301676Y211200D02*
Y212400D01*
X301076Y221800D02*
X302275D01*
X301676Y221200D02*
Y222400D01*
X301076Y231835D02*
X302275D01*
X301676Y231235D02*
Y232435D01*
X301076Y241800D02*
X302275D01*
X301676Y241200D02*
Y242400D01*
X301076Y251800D02*
X302275D01*
X301676Y251200D02*
Y252400D01*
X301076Y261384D02*
X302275D01*
X301676Y260784D02*
Y261984D01*
X82202Y231550D02*
X83402D01*
X82802Y230950D02*
Y232150D01*
X102500Y213200D02*
X103700D01*
X103100Y212600D02*
Y213800D01*
X63358Y220020D02*
X64558D01*
X63958Y219420D02*
Y220620D01*
X75051Y241403D02*
X76251D01*
X75651Y240803D02*
Y242003D01*
X83855Y221940D02*
X85055D01*
X84455Y221340D02*
Y222540D01*
X131685Y132737D02*
X132885D01*
X132285Y132137D02*
Y133337D01*
X136335Y132737D02*
X137535D01*
X136935Y132137D02*
Y133337D01*
X141385Y132737D02*
X142585D01*
X141985Y132137D02*
Y133337D01*
X141456Y126003D02*
X142656D01*
X142056Y125402D02*
Y126602D01*
X136406Y126102D02*
X137606D01*
X137006Y125503D02*
Y126702D01*
X131756Y126102D02*
X132956D01*
X132356Y125503D02*
Y126702D01*
X141685Y178863D02*
X142885D01*
X142285Y178263D02*
Y179463D01*
X136785Y178863D02*
X137985D01*
X137385Y178263D02*
Y179463D01*
X131585Y178863D02*
X132785D01*
X132185Y178263D02*
Y179463D01*
X131200Y185500D02*
X132400D01*
X131800Y184900D02*
Y186100D01*
X136400Y185500D02*
X137600D01*
X137000Y184900D02*
Y186100D01*
X141300Y185500D02*
X142500D01*
X141900Y184900D02*
Y186100D01*
X258261Y233120D02*
X259461D01*
X258861Y232521D02*
Y233720D01*
X256300Y253036D02*
X257500D01*
X256900Y252436D02*
Y253636D01*
X110426Y136780D02*
X111626D01*
X111026Y136180D02*
Y137380D01*
X110426Y174969D02*
X111626D01*
X111026Y174369D02*
Y175569D01*
X163500Y172509D02*
X164700D01*
X164100Y171909D02*
Y173109D01*
X82800Y212500D02*
X84000D01*
X83400Y211900D02*
Y213100D01*
X95365Y243120D02*
X96565D01*
X95965Y242520D02*
Y243720D01*
X102285Y226637D02*
X103485D01*
X102885Y226037D02*
Y227237D01*
X71902Y246375D02*
X73102D01*
X72502Y245776D02*
Y246975D01*
X63011Y253731D02*
X64211D01*
X63611Y253131D02*
Y254331D01*
X63781Y231432D02*
X64981D01*
X64381Y230832D02*
Y232032D01*
X71902Y254450D02*
X73102D01*
X72502Y253850D02*
Y255049D01*
X116350Y60800D02*
X117551D01*
X116951Y60200D02*
Y61400D01*
X220136Y238322D02*
X221336D01*
X220736Y237722D02*
Y238922D01*
X32459Y279500D02*
X33659D01*
X33059Y278900D02*
Y280100D01*
X52352Y279436D02*
X53552D01*
X52952Y278836D02*
Y280036D01*
X212000Y62900D02*
X213200D01*
X212600Y62300D02*
Y63500D01*
X291341Y279300D02*
X292541D01*
X291941Y278700D02*
Y279900D01*
X271459Y279300D02*
X272659D01*
X272059Y278700D02*
Y279900D01*
X83000Y133345D02*
X84200D01*
X83600Y132745D02*
Y133945D01*
X215800Y108500D02*
X217000D01*
X216400Y107900D02*
Y109100D01*
M02*
