G04*
G04 #@! TF.GenerationSoftware,Altium Limited,Altium Designer,24.9.1 (31)*
G04*
G04 Layer_Physical_Order=1*
G04 Layer_Color=255*
%FSLAX25Y25*%
%MOIN*%
G70*
G04*
G04 #@! TF.SameCoordinates,8C3E2955-48CA-471D-9453-E4D1A35B8BF5*
G04*
G04*
G04 #@! TF.FilePolarity,Positive*
G04*
G01*
G75*
%ADD12C,0.01000*%
%ADD13R,0.04409X0.04803*%
%ADD21C,0.03937*%
%ADD22C,0.01200*%
%ADD23C,0.01378*%
%ADD24C,0.01800*%
%ADD25R,0.05984X0.05984*%
%ADD26C,0.05984*%
%ADD27C,0.05000*%
%ADD28C,0.06000*%
%ADD29C,0.03504*%
%ADD30C,0.02300*%
G36*
X348879Y352963D02*
X349988Y352503D01*
X350987Y351836D01*
X351836Y350987D01*
X352503Y349988D01*
X352963Y348879D01*
X353197Y347701D01*
Y347100D01*
Y321333D01*
X336932Y305068D01*
X336932Y305068D01*
X336758Y304807D01*
X336697Y304500D01*
Y49500D01*
X336758Y49193D01*
X336932Y48932D01*
X353197Y32667D01*
X353197Y7000D01*
X353197Y6390D01*
X352959Y5192D01*
X352492Y4064D01*
X351814Y3049D01*
X350951Y2186D01*
X349936Y1508D01*
X348808Y1041D01*
X347610Y803D01*
X347000Y803D01*
X321333D01*
X305068Y17068D01*
X305068Y17068D01*
X304807Y17242D01*
X304500Y17303D01*
X49500D01*
X49193Y17242D01*
X48932Y17068D01*
X32667Y803D01*
X7000D01*
X6390Y803D01*
X5192Y1041D01*
X4064Y1508D01*
X3049Y2186D01*
X2186Y3049D01*
X1508Y4064D01*
X1041Y5192D01*
X803Y6390D01*
X803Y7000D01*
Y32667D01*
X17068Y48932D01*
X17068Y48932D01*
X17242Y49193D01*
X17303Y49500D01*
Y304500D01*
X17242Y304807D01*
X17068Y305068D01*
X803Y321333D01*
Y347000D01*
Y347610D01*
X1041Y348808D01*
X1508Y349936D01*
X2186Y350951D01*
X3049Y351814D01*
X4064Y352492D01*
X5192Y352959D01*
X6390Y353197D01*
X32667D01*
X48932Y336932D01*
X48932Y336932D01*
X49193Y336758D01*
X49500Y336697D01*
X304500D01*
X304807Y336758D01*
X305068Y336932D01*
X321333Y353197D01*
X347701D01*
X348879Y352963D01*
D02*
G37*
%LPC*%
G36*
X334000Y344155D02*
X332019Y343960D01*
X330114Y343382D01*
X328358Y342444D01*
X326819Y341181D01*
X325556Y339642D01*
X324618Y337886D01*
X324040Y335981D01*
X323845Y334000D01*
X324040Y332019D01*
X324618Y330114D01*
X325556Y328358D01*
X326819Y326819D01*
X328358Y325556D01*
X330114Y324618D01*
X332019Y324040D01*
X334000Y323845D01*
X335981Y324040D01*
X337886Y324618D01*
X339642Y325556D01*
X341181Y326819D01*
X342444Y328358D01*
X343382Y330114D01*
X343960Y332019D01*
X344155Y334000D01*
X343960Y335981D01*
X343382Y337886D01*
X342444Y339642D01*
X341181Y341181D01*
X339642Y342444D01*
X337886Y343382D01*
X335981Y343960D01*
X334000Y344155D01*
D02*
G37*
G36*
X20000D02*
X18019Y343960D01*
X16114Y343382D01*
X14358Y342444D01*
X12819Y341181D01*
X11556Y339642D01*
X10618Y337886D01*
X10040Y335981D01*
X9845Y334000D01*
X10040Y332019D01*
X10618Y330114D01*
X11556Y328358D01*
X12819Y326819D01*
X14358Y325556D01*
X16114Y324618D01*
X18019Y324040D01*
X20000Y323845D01*
X21981Y324040D01*
X23886Y324618D01*
X25642Y325556D01*
X27181Y326819D01*
X28444Y328358D01*
X29382Y330114D01*
X29960Y332019D01*
X30155Y334000D01*
X29960Y335981D01*
X29382Y337886D01*
X28444Y339642D01*
X27181Y341181D01*
X25642Y342444D01*
X23886Y343382D01*
X21981Y343960D01*
X20000Y344155D01*
D02*
G37*
G36*
X243455Y329504D02*
X242589D01*
X241753Y329280D01*
X241003Y328847D01*
X240391Y328235D01*
X239959Y327485D01*
X239735Y326649D01*
Y325784D01*
X239959Y324948D01*
X240391Y324198D01*
X241003Y323586D01*
X241753Y323153D01*
X242589Y322929D01*
X243455D01*
X244291Y323153D01*
X245041Y323586D01*
X245653Y324198D01*
X246085Y324948D01*
X246309Y325784D01*
Y326649D01*
X246085Y327485D01*
X245653Y328235D01*
X245041Y328847D01*
X244291Y329280D01*
X243455Y329504D01*
D02*
G37*
G36*
X208022D02*
X207156D01*
X206320Y329280D01*
X205571Y328847D01*
X204958Y328235D01*
X204526Y327485D01*
X204302Y326649D01*
Y325784D01*
X204526Y324948D01*
X204958Y324198D01*
X205571Y323586D01*
X206320Y323153D01*
X207156Y322929D01*
X208022D01*
X208858Y323153D01*
X209608Y323586D01*
X210220Y324198D01*
X210652Y324948D01*
X210876Y325784D01*
Y326649D01*
X210652Y327485D01*
X210220Y328235D01*
X209608Y328847D01*
X208858Y329280D01*
X208022Y329504D01*
D02*
G37*
G36*
X139744D02*
X138878D01*
X138042Y329280D01*
X137293Y328847D01*
X136680Y328235D01*
X136248Y327485D01*
X136024Y326649D01*
Y325784D01*
X136248Y324948D01*
X136680Y324198D01*
X137293Y323586D01*
X138042Y323153D01*
X138878Y322929D01*
X139744D01*
X140580Y323153D01*
X141330Y323586D01*
X141942Y324198D01*
X142374Y324948D01*
X142598Y325784D01*
Y326649D01*
X142374Y327485D01*
X141942Y328235D01*
X141330Y328847D01*
X140580Y329280D01*
X139744Y329504D01*
D02*
G37*
G36*
X104311D02*
X103445D01*
X102609Y329280D01*
X101859Y328847D01*
X101247Y328235D01*
X100815Y327485D01*
X100591Y326649D01*
Y325784D01*
X100815Y324948D01*
X101247Y324198D01*
X101859Y323586D01*
X102609Y323153D01*
X103445Y322929D01*
X104311D01*
X105147Y323153D01*
X105896Y323586D01*
X106509Y324198D01*
X106941Y324948D01*
X107165Y325784D01*
Y326649D01*
X106941Y327485D01*
X106509Y328235D01*
X105896Y328847D01*
X105147Y329280D01*
X104311Y329504D01*
D02*
G37*
G36*
X128026Y322492D02*
X128000D01*
Y319000D01*
X131492D01*
Y319026D01*
X131220Y320041D01*
X130694Y320951D01*
X129951Y321694D01*
X129041Y322220D01*
X128026Y322492D01*
D02*
G37*
G36*
X231737D02*
X231711D01*
Y319000D01*
X235203D01*
Y319026D01*
X234931Y320041D01*
X234405Y320951D01*
X233662Y321694D01*
X232752Y322220D01*
X231737Y322492D01*
D02*
G37*
G36*
X127000D02*
X126974D01*
X125959Y322220D01*
X125049Y321694D01*
X124305Y320951D01*
X123780Y320041D01*
X123508Y319026D01*
Y319000D01*
X127000D01*
Y322492D01*
D02*
G37*
G36*
X230711D02*
X230685D01*
X229670Y322220D01*
X228760Y321694D01*
X228016Y320951D01*
X227491Y320041D01*
X227219Y319026D01*
Y319000D01*
X230711D01*
Y322492D01*
D02*
G37*
G36*
X235203Y318000D02*
X231711D01*
Y314508D01*
X231737D01*
X232752Y314780D01*
X233662Y315305D01*
X234405Y316049D01*
X234931Y316959D01*
X235203Y317974D01*
Y318000D01*
D02*
G37*
G36*
X230711D02*
X227219D01*
Y317974D01*
X227491Y316959D01*
X228016Y316049D01*
X228760Y315305D01*
X229670Y314780D01*
X230685Y314508D01*
X230711D01*
Y318000D01*
D02*
G37*
G36*
X131492D02*
X128000D01*
Y314508D01*
X128026D01*
X129041Y314780D01*
X129951Y315305D01*
X130694Y316049D01*
X131220Y316959D01*
X131492Y317974D01*
Y318000D01*
D02*
G37*
G36*
X127000D02*
X123508D01*
Y317974D01*
X123780Y316959D01*
X124305Y316049D01*
X125049Y315305D01*
X125959Y314780D01*
X126974Y314508D01*
X127000D01*
Y318000D01*
D02*
G37*
G36*
X210176Y299920D02*
X207471D01*
Y297018D01*
X210176D01*
Y299920D01*
D02*
G37*
G36*
X206471D02*
X203766D01*
Y297018D01*
X206471D01*
Y299920D01*
D02*
G37*
G36*
X131091Y297836D02*
X128386D01*
Y294935D01*
X131091D01*
Y297836D01*
D02*
G37*
G36*
X127386D02*
X124681D01*
Y294935D01*
X127386D01*
Y297836D01*
D02*
G37*
G36*
X223180Y322280D02*
X215620D01*
Y314721D01*
X216620D01*
Y299707D01*
X216577D01*
Y293330D01*
X222562D01*
Y299707D01*
X222180D01*
Y314721D01*
X223180D01*
Y322280D01*
D02*
G37*
G36*
X210176Y296018D02*
X207471D01*
Y293117D01*
X210176D01*
Y296018D01*
D02*
G37*
G36*
X206471D02*
X203766D01*
Y293117D01*
X206471D01*
Y296018D01*
D02*
G37*
G36*
X119468Y322280D02*
X111909D01*
Y314721D01*
X112581D01*
Y297624D01*
X112296D01*
Y291246D01*
X118280D01*
Y297624D01*
X118140D01*
Y314721D01*
X119468D01*
Y322280D01*
D02*
G37*
G36*
X131091Y293935D02*
X128386D01*
Y291033D01*
X131091D01*
Y293935D01*
D02*
G37*
G36*
X127386D02*
X124681D01*
Y291033D01*
X127386D01*
Y293935D01*
D02*
G37*
G36*
X282565Y271091D02*
X281435D01*
X280344Y270799D01*
X279365Y270234D01*
X278566Y269435D01*
X278001Y268456D01*
X277709Y267365D01*
Y266235D01*
X278001Y265144D01*
X278566Y264165D01*
X279365Y263366D01*
X280344Y262801D01*
X281435Y262509D01*
X282565D01*
X283656Y262801D01*
X284635Y263366D01*
X285434Y264165D01*
X285999Y265144D01*
X286291Y266235D01*
Y267365D01*
X285999Y268456D01*
X285434Y269435D01*
X284635Y270234D01*
X283656Y270799D01*
X282565Y271091D01*
D02*
G37*
G36*
X43565D02*
X42435D01*
X41344Y270799D01*
X40365Y270234D01*
X39566Y269435D01*
X39001Y268456D01*
X38709Y267365D01*
Y266235D01*
X39001Y265144D01*
X39566Y264165D01*
X40365Y263366D01*
X41344Y262801D01*
X42435Y262509D01*
X43565D01*
X44656Y262801D01*
X45635Y263366D01*
X46434Y264165D01*
X46999Y265144D01*
X47291Y266235D01*
Y267365D01*
X46999Y268456D01*
X46434Y269435D01*
X45635Y270234D01*
X44656Y270799D01*
X43565Y271091D01*
D02*
G37*
G36*
X84380Y259626D02*
X68000D01*
X67424Y259511D01*
X66935Y259185D01*
X63419Y255669D01*
X63225D01*
X62513Y255374D01*
X61968Y254829D01*
X61673Y254117D01*
Y253346D01*
X61968Y252634D01*
X62105Y252497D01*
Y246286D01*
X62220Y245709D01*
X62546Y245221D01*
X65832Y241936D01*
X66320Y241609D01*
X66896Y241495D01*
X73079D01*
X73825Y240748D01*
X74009Y240305D01*
X74554Y239760D01*
X75266Y239465D01*
X76037D01*
X76749Y239760D01*
X77294Y240305D01*
X77589Y241018D01*
Y241788D01*
X77294Y242500D01*
X76749Y243045D01*
X76037Y243340D01*
X75491D01*
X74767Y244064D01*
X74331Y244914D01*
X74439Y245990D01*
Y246761D01*
X74144Y247473D01*
X74007Y247610D01*
Y253215D01*
X74144Y253352D01*
X74439Y254064D01*
Y254835D01*
X75628Y256585D01*
X75670Y256615D01*
X83756D01*
X94460Y245912D01*
Y244355D01*
X94323Y244217D01*
X94028Y243505D01*
Y242735D01*
X94323Y242023D01*
X94867Y241478D01*
X95580Y241183D01*
X96350D01*
X97062Y241478D01*
X97607Y242023D01*
X97902Y242735D01*
Y243505D01*
X97607Y244217D01*
X97470Y244355D01*
Y246535D01*
X97356Y247111D01*
X97029Y247600D01*
X85444Y259185D01*
X84956Y259511D01*
X84380Y259626D01*
D02*
G37*
G36*
X257285Y254973D02*
X256515D01*
X255803Y254678D01*
X255258Y254133D01*
X254963Y253421D01*
Y252651D01*
X255258Y251939D01*
X255803Y251394D01*
X256273Y251199D01*
X256295Y251177D01*
Y234356D01*
X256409Y233780D01*
X256736Y233292D01*
X256923Y233104D01*
Y232735D01*
X257218Y232023D01*
X257763Y231478D01*
X258475Y231183D01*
X259246D01*
X259958Y231478D01*
X260503Y232023D01*
X260798Y232735D01*
Y233506D01*
X260503Y234218D01*
X259958Y234763D01*
X259305Y235033D01*
Y251800D01*
X259191Y252376D01*
X258864Y252865D01*
X258837Y252892D01*
Y253421D01*
X258542Y254133D01*
X257997Y254678D01*
X257285Y254973D01*
D02*
G37*
G36*
X83188Y233487D02*
X82417D01*
X81705Y233192D01*
X81160Y232647D01*
X80865Y231935D01*
Y231741D01*
X78166Y229042D01*
X68900D01*
X66319Y231624D01*
Y231818D01*
X66024Y232530D01*
X65479Y233075D01*
X64767Y233370D01*
X63996D01*
X63284Y233075D01*
X62739Y232530D01*
X62444Y231818D01*
Y231047D01*
X62739Y230335D01*
X63284Y229790D01*
X63996Y229495D01*
X64190D01*
X67212Y226472D01*
X67701Y226146D01*
X68277Y226032D01*
X78789D01*
X79365Y226146D01*
X79854Y226472D01*
X82994Y229612D01*
X83188D01*
X83900Y229907D01*
X84445Y230452D01*
X84740Y231165D01*
Y231935D01*
X84445Y232647D01*
X83900Y233192D01*
X83188Y233487D01*
D02*
G37*
G36*
X84840Y223878D02*
X84069D01*
X83357Y223583D01*
X82812Y223038D01*
X82517Y222326D01*
Y221555D01*
X81174Y219964D01*
X66494D01*
X65784Y220675D01*
X65601Y221117D01*
X65056Y221662D01*
X64343Y221957D01*
X63573D01*
X62861Y221662D01*
X62316Y221117D01*
X62021Y220405D01*
Y219635D01*
X62316Y218923D01*
X62861Y218378D01*
X63573Y218083D01*
X64118D01*
X64806Y217395D01*
X65295Y217068D01*
X65871Y216954D01*
X82424D01*
X83000Y217068D01*
X83489Y217395D01*
X85371Y219277D01*
X85697Y219765D01*
X85812Y220341D01*
Y220557D01*
X86097Y220843D01*
X86392Y221555D01*
Y222326D01*
X86097Y223038D01*
X85552Y223583D01*
X84840Y223878D01*
D02*
G37*
G36*
X103271Y228575D02*
X102500D01*
X101788Y228280D01*
X101243Y227735D01*
X100948Y227023D01*
Y226252D01*
X101243Y225540D01*
X101487Y225295D01*
Y214327D01*
X101458Y214297D01*
X101163Y213585D01*
Y212815D01*
X101458Y212103D01*
X102003Y211558D01*
X102715Y211263D01*
X103485D01*
X104198Y211558D01*
X104743Y212103D01*
X105037Y212815D01*
Y213585D01*
X104743Y214297D01*
X104498Y214542D01*
Y225510D01*
X104528Y225540D01*
X104823Y226252D01*
Y227023D01*
X104528Y227735D01*
X103983Y228280D01*
X103271Y228575D01*
D02*
G37*
G36*
X118085Y176907D02*
X117315D01*
X116603Y176612D01*
X116058Y176067D01*
X115763Y175355D01*
Y174584D01*
X116058Y173872D01*
X116603Y173327D01*
X117315Y173032D01*
X118085D01*
X118798Y173327D01*
X119343Y173872D01*
X119637Y174584D01*
Y175355D01*
X119343Y176067D01*
X118798Y176612D01*
X118085Y176907D01*
D02*
G37*
G36*
X111412D02*
X110641D01*
X109929Y176612D01*
X109384Y176067D01*
X109089Y175355D01*
Y174584D01*
X109384Y173872D01*
X109929Y173327D01*
X110641Y173032D01*
X111412D01*
X112124Y173327D01*
X112669Y173872D01*
X112964Y174584D01*
Y175355D01*
X112669Y176067D01*
X112124Y176612D01*
X111412Y176907D01*
D02*
G37*
G36*
Y168149D02*
X110641D01*
X109929Y167854D01*
X109384Y167309D01*
X109089Y166597D01*
Y165826D01*
X109384Y165114D01*
X109929Y164569D01*
X110641Y164274D01*
X111412D01*
X112124Y164569D01*
X112669Y165114D01*
X112964Y165826D01*
Y166597D01*
X112669Y167309D01*
X112124Y167854D01*
X111412Y168149D01*
D02*
G37*
G36*
X118085Y168067D02*
X117315D01*
X116603Y167772D01*
X116058Y167227D01*
X115763Y166515D01*
Y165744D01*
X116058Y165032D01*
X116603Y164487D01*
X117315Y164192D01*
X118085D01*
X118798Y164487D01*
X119343Y165032D01*
X119637Y165744D01*
Y166515D01*
X119343Y167227D01*
X118798Y167772D01*
X118085Y168067D01*
D02*
G37*
G36*
X111412Y147657D02*
X110641D01*
X109929Y147362D01*
X109384Y146817D01*
X109089Y146105D01*
Y145335D01*
X109384Y144623D01*
X109929Y144078D01*
X110641Y143783D01*
X111412D01*
X112124Y144078D01*
X112669Y144623D01*
X112964Y145335D01*
Y146105D01*
X112669Y146817D01*
X112124Y147362D01*
X111412Y147657D01*
D02*
G37*
G36*
X118085Y147585D02*
X117315D01*
X116603Y147290D01*
X116058Y146745D01*
X115763Y146033D01*
Y145262D01*
X116058Y144550D01*
X116603Y144005D01*
X117315Y143710D01*
X118085D01*
X118798Y144005D01*
X119343Y144550D01*
X119637Y145262D01*
Y146033D01*
X119343Y146745D01*
X118798Y147290D01*
X118085Y147585D01*
D02*
G37*
G36*
Y138744D02*
X117315D01*
X116603Y138449D01*
X116058Y137904D01*
X115763Y137192D01*
Y136421D01*
X116058Y135709D01*
X116603Y135164D01*
X117315Y134869D01*
X118085D01*
X118798Y135164D01*
X119343Y135709D01*
X119637Y136421D01*
Y137192D01*
X119343Y137904D01*
X118798Y138449D01*
X118085Y138744D01*
D02*
G37*
G36*
X111412Y138718D02*
X110641D01*
X109929Y138423D01*
X109384Y137878D01*
X109089Y137166D01*
Y136395D01*
X109384Y135683D01*
X109929Y135138D01*
X110641Y134843D01*
X111412D01*
X112124Y135138D01*
X112669Y135683D01*
X112964Y136395D01*
Y137166D01*
X112669Y137878D01*
X112124Y138423D01*
X111412Y138718D01*
D02*
G37*
G36*
X83785Y214437D02*
X83015D01*
X82302Y214142D01*
X81758Y213597D01*
X81463Y212885D01*
Y212115D01*
X81758Y211403D01*
X81995Y211165D01*
Y134479D01*
X81958Y134442D01*
X81663Y133730D01*
Y132959D01*
X81958Y132247D01*
X82503Y131702D01*
X83215Y131407D01*
X83985D01*
X84698Y131702D01*
X85242Y132247D01*
X85537Y132959D01*
Y133730D01*
X85242Y134442D01*
X85005Y134679D01*
Y211365D01*
X85042Y211403D01*
X85337Y212115D01*
Y212885D01*
X85042Y213597D01*
X84497Y214142D01*
X83785Y214437D01*
D02*
G37*
G36*
X216785Y243437D02*
X216015D01*
X215303Y243143D01*
X214757Y242597D01*
X214463Y241885D01*
Y241115D01*
X214757Y240403D01*
X214895Y240265D01*
Y236452D01*
X214895Y109735D01*
X214757Y109598D01*
X214463Y108885D01*
Y108115D01*
X214757Y107403D01*
X215303Y106858D01*
X216015Y106563D01*
X216785D01*
X217497Y106858D01*
X218042Y107403D01*
X218337Y108115D01*
Y108885D01*
X218042Y109598D01*
X217905Y109735D01*
X217905Y236452D01*
Y240265D01*
X218042Y240403D01*
X218337Y241115D01*
Y241885D01*
X218042Y242597D01*
X217497Y243143D01*
X216785Y243437D01*
D02*
G37*
G36*
X282565Y91091D02*
X281435D01*
X280344Y90799D01*
X279365Y90234D01*
X278566Y89435D01*
X278001Y88456D01*
X277709Y87365D01*
Y86235D01*
X278001Y85144D01*
X278566Y84165D01*
X279365Y83366D01*
X280344Y82801D01*
X281435Y82509D01*
X282565D01*
X283656Y82801D01*
X284635Y83366D01*
X285434Y84165D01*
X285999Y85144D01*
X286291Y86235D01*
Y87365D01*
X285999Y88456D01*
X285434Y89435D01*
X284635Y90234D01*
X283656Y90799D01*
X282565Y91091D01*
D02*
G37*
G36*
X43565D02*
X42435D01*
X41344Y90799D01*
X40365Y90234D01*
X39566Y89435D01*
X39001Y88456D01*
X38709Y87365D01*
Y86235D01*
X39001Y85144D01*
X39566Y84165D01*
X40365Y83366D01*
X41344Y82801D01*
X42435Y82509D01*
X43565D01*
X44656Y82801D01*
X45635Y83366D01*
X46434Y84165D01*
X46999Y85144D01*
X47291Y86235D01*
Y87365D01*
X46999Y88456D01*
X46434Y89435D01*
X45635Y90234D01*
X44656Y90799D01*
X43565Y91091D01*
D02*
G37*
G36*
X221905Y66402D02*
X219201D01*
Y63500D01*
X221905D01*
Y66402D01*
D02*
G37*
G36*
X218201D02*
X215496D01*
Y63500D01*
X218201D01*
Y66402D01*
D02*
G37*
G36*
X124741Y64402D02*
X122036D01*
Y61500D01*
X124741D01*
Y64402D01*
D02*
G37*
G36*
X121036D02*
X118332D01*
Y61500D01*
X121036D01*
Y64402D01*
D02*
G37*
G36*
X221905Y62500D02*
X219201D01*
Y59598D01*
X221905D01*
Y62500D01*
D02*
G37*
G36*
X218201D02*
X215496D01*
Y59598D01*
X218201D01*
Y62500D01*
D02*
G37*
G36*
X124741Y60500D02*
X122036D01*
Y57598D01*
X124741D01*
Y60500D01*
D02*
G37*
G36*
X121036D02*
X118332D01*
Y57598D01*
X121036D01*
Y60500D01*
D02*
G37*
G36*
X219915Y39192D02*
X219889D01*
Y35700D01*
X223381D01*
Y35726D01*
X223109Y36741D01*
X222584Y37651D01*
X221840Y38394D01*
X220930Y38920D01*
X219915Y39192D01*
D02*
G37*
G36*
X218889D02*
X218863D01*
X217848Y38920D01*
X216938Y38394D01*
X216195Y37651D01*
X215669Y36741D01*
X215397Y35726D01*
Y35700D01*
X218889D01*
Y39192D01*
D02*
G37*
G36*
X122915D02*
X122889D01*
Y35700D01*
X126381D01*
Y35726D01*
X126109Y36741D01*
X125584Y37651D01*
X124840Y38394D01*
X123930Y38920D01*
X122915Y39192D01*
D02*
G37*
G36*
X121889D02*
X121863D01*
X120848Y38920D01*
X119938Y38394D01*
X119194Y37651D01*
X118669Y36741D01*
X118397Y35726D01*
Y35700D01*
X121889D01*
Y39192D01*
D02*
G37*
G36*
X234291Y66189D02*
X228307D01*
Y59811D01*
X228520D01*
Y38980D01*
X227420D01*
Y31420D01*
X234980D01*
Y38980D01*
X234079D01*
Y59811D01*
X234291D01*
Y66189D01*
D02*
G37*
G36*
X137127Y64189D02*
X131143D01*
Y57811D01*
X131420D01*
Y38980D01*
X130420D01*
Y31420D01*
X137979D01*
Y38980D01*
X136980D01*
Y57811D01*
X137127D01*
Y64189D01*
D02*
G37*
G36*
X223381Y34700D02*
X219889D01*
Y31208D01*
X219915D01*
X220930Y31480D01*
X221840Y32006D01*
X222584Y32749D01*
X223109Y33659D01*
X223381Y34674D01*
Y34700D01*
D02*
G37*
G36*
X218889D02*
X215397D01*
Y34674D01*
X215669Y33659D01*
X216195Y32749D01*
X216938Y32006D01*
X217848Y31480D01*
X218863Y31208D01*
X218889D01*
Y34700D01*
D02*
G37*
G36*
X126381D02*
X122889D01*
Y31208D01*
X122915D01*
X123930Y31480D01*
X124840Y32006D01*
X125584Y32749D01*
X126109Y33659D01*
X126381Y34674D01*
Y34700D01*
D02*
G37*
G36*
X121889D02*
X118397D01*
Y34674D01*
X118669Y33659D01*
X119194Y32749D01*
X119938Y32006D01*
X120848Y31480D01*
X121863Y31208D01*
X121889D01*
Y34700D01*
D02*
G37*
G36*
X243444Y30771D02*
X242578D01*
X241742Y30547D01*
X240992Y30114D01*
X240380Y29502D01*
X239948Y28752D01*
X239724Y27916D01*
Y27051D01*
X239948Y26215D01*
X240380Y25465D01*
X240992Y24853D01*
X241742Y24420D01*
X242578Y24196D01*
X243444D01*
X244280Y24420D01*
X245029Y24853D01*
X245642Y25465D01*
X246074Y26215D01*
X246298Y27051D01*
Y27916D01*
X246074Y28752D01*
X245642Y29502D01*
X245029Y30114D01*
X244280Y30547D01*
X243444Y30771D01*
D02*
G37*
G36*
X208011D02*
X207145D01*
X206309Y30547D01*
X205559Y30114D01*
X204947Y29502D01*
X204515Y28752D01*
X204291Y27916D01*
Y27051D01*
X204515Y26215D01*
X204947Y25465D01*
X205559Y24853D01*
X206309Y24420D01*
X207145Y24196D01*
X208011D01*
X208847Y24420D01*
X209596Y24853D01*
X210209Y25465D01*
X210641Y26215D01*
X210865Y27051D01*
Y27916D01*
X210641Y28752D01*
X210209Y29502D01*
X209596Y30114D01*
X208847Y30547D01*
X208011Y30771D01*
D02*
G37*
G36*
X146444D02*
X145578D01*
X144742Y30547D01*
X143992Y30114D01*
X143380Y29502D01*
X142948Y28752D01*
X142724Y27916D01*
Y27051D01*
X142948Y26215D01*
X143380Y25465D01*
X143992Y24853D01*
X144742Y24420D01*
X145578Y24196D01*
X146444D01*
X147280Y24420D01*
X148029Y24853D01*
X148642Y25465D01*
X149074Y26215D01*
X149298Y27051D01*
Y27916D01*
X149074Y28752D01*
X148642Y29502D01*
X148029Y30114D01*
X147280Y30547D01*
X146444Y30771D01*
D02*
G37*
G36*
X111011D02*
X110145D01*
X109309Y30547D01*
X108559Y30114D01*
X107947Y29502D01*
X107515Y28752D01*
X107291Y27916D01*
Y27051D01*
X107515Y26215D01*
X107947Y25465D01*
X108559Y24853D01*
X109309Y24420D01*
X110145Y24196D01*
X111011D01*
X111847Y24420D01*
X112596Y24853D01*
X113208Y25465D01*
X113641Y26215D01*
X113865Y27051D01*
Y27916D01*
X113641Y28752D01*
X113208Y29502D01*
X112596Y30114D01*
X111847Y30547D01*
X111011Y30771D01*
D02*
G37*
G36*
X334000Y30155D02*
X332019Y29960D01*
X330114Y29382D01*
X328358Y28444D01*
X326819Y27181D01*
X325556Y25642D01*
X324618Y23886D01*
X324040Y21981D01*
X323845Y20000D01*
X324040Y18019D01*
X324618Y16114D01*
X325556Y14358D01*
X326819Y12819D01*
X328358Y11556D01*
X330114Y10618D01*
X332019Y10040D01*
X334000Y9845D01*
X335981Y10040D01*
X337886Y10618D01*
X339642Y11556D01*
X341181Y12819D01*
X342444Y14358D01*
X343382Y16114D01*
X343960Y18019D01*
X344155Y20000D01*
X343960Y21981D01*
X343382Y23886D01*
X342444Y25642D01*
X341181Y27181D01*
X339642Y28444D01*
X337886Y29382D01*
X335981Y29960D01*
X334000Y30155D01*
D02*
G37*
G36*
X20000D02*
X18019Y29960D01*
X16114Y29382D01*
X14358Y28444D01*
X12819Y27181D01*
X11556Y25642D01*
X10618Y23886D01*
X10040Y21981D01*
X9845Y20000D01*
X10040Y18019D01*
X10618Y16114D01*
X11556Y14358D01*
X12819Y12819D01*
X14358Y11556D01*
X16114Y10618D01*
X18019Y10040D01*
X20000Y9845D01*
X21981Y10040D01*
X23886Y10618D01*
X25642Y11556D01*
X27181Y12819D01*
X28444Y14358D01*
X29382Y16114D01*
X29960Y18019D01*
X30155Y20000D01*
X29960Y21981D01*
X29382Y23886D01*
X28444Y25642D01*
X27181Y27181D01*
X25642Y28444D01*
X23886Y29382D01*
X21981Y29960D01*
X20000Y30155D01*
D02*
G37*
%LPD*%
G36*
X70123Y255484D02*
X70564Y254835D01*
Y254064D01*
X70859Y253352D01*
X70996Y253215D01*
Y247610D01*
X70859Y247473D01*
X70564Y246761D01*
Y245990D01*
X69060Y244505D01*
X67520D01*
X65116Y246909D01*
Y252497D01*
X65253Y252634D01*
X65548Y253346D01*
Y253540D01*
X67702Y255694D01*
X70123Y255484D01*
D02*
G37*
D12*
X231200Y35200D02*
X231299Y35299D01*
X134135Y61000D02*
X134200Y60935D01*
X102993Y213307D02*
X103100Y213200D01*
X102885Y226637D02*
X102993Y226530D01*
X83400Y212500D02*
X83500Y212400D01*
Y133445D02*
X83600Y133345D01*
D13*
X127886Y294435D02*
D03*
X115288D02*
D03*
X206971Y296518D02*
D03*
X219569D02*
D03*
X121536Y61000D02*
D03*
X134135D02*
D03*
X218701Y63000D02*
D03*
X231299D02*
D03*
D21*
X218401Y62900D02*
X218700Y63199D01*
Y69200D01*
X121536Y61000D02*
X121567Y61031D01*
Y66500D01*
X128496Y294228D02*
X128800Y294532D01*
X133053D01*
X206970Y291000D02*
Y296518D01*
X201901D02*
X206970D01*
X127778Y294327D02*
X127886Y294435D01*
X127778Y289460D02*
Y294327D01*
X134200Y35200D02*
Y60935D01*
X231299Y35299D02*
Y63000D01*
X117286Y61000D02*
X121536D01*
X115360Y294507D02*
Y318500D01*
X115288Y294435D02*
X115360Y294507D01*
X219400Y296688D02*
Y318500D01*
Y296688D02*
X219569Y296518D01*
X212600Y62900D02*
X218401D01*
D22*
X127886Y294435D02*
X128093Y294228D01*
X128496D01*
D23*
X63611Y246286D02*
X66896Y243000D01*
X216400Y236452D02*
Y241500D01*
X216400Y241500D01*
X216400Y236452D02*
X216400Y108500D01*
X66896Y243000D02*
X73702D01*
X64381Y231432D02*
X68277Y227537D01*
X78789D01*
X63958Y220020D02*
X64310D01*
X84306Y220341D02*
Y221792D01*
X84455Y221940D01*
X65871Y218459D02*
X82424D01*
X84306Y220341D01*
X257800Y234356D02*
X258861Y233296D01*
Y233120D02*
Y233296D01*
X257800Y234356D02*
Y251800D01*
X256900Y252700D02*
Y253036D01*
Y252700D02*
X257800Y251800D01*
X75299Y241403D02*
X75651D01*
X83500Y133445D02*
Y212400D01*
X73702Y243000D02*
X75299Y241403D01*
X63611Y246286D02*
Y253731D01*
X64310Y220020D02*
X65871Y218459D01*
X78789Y227537D02*
X82802Y231550D01*
X72502Y246375D02*
Y254450D01*
X63611Y253731D02*
X68000Y258120D01*
X84380D01*
X102993Y213307D02*
Y226530D01*
X84380Y258120D02*
X95965Y246535D01*
Y243120D02*
Y246535D01*
D24*
X116951Y60800D02*
X117086D01*
X117286Y61000D01*
D25*
X115689Y318500D02*
D03*
X134200Y35200D02*
D03*
X219400Y318500D02*
D03*
X231200Y35200D02*
D03*
D26*
X127500Y318500D02*
D03*
X122389Y35200D02*
D03*
X231211Y318500D02*
D03*
X219389Y35200D02*
D03*
D27*
X103878Y326217D02*
D03*
X139311D02*
D03*
X146011Y27483D02*
D03*
X110578D02*
D03*
X207589Y326217D02*
D03*
X243022D02*
D03*
X207578Y27483D02*
D03*
X243011D02*
D03*
D28*
X20000Y334000D02*
D03*
Y20000D02*
D03*
X334000D02*
D03*
Y334000D02*
D03*
D29*
X43000Y86800D02*
D03*
Y266800D02*
D03*
X282000Y86800D02*
D03*
Y266800D02*
D03*
D30*
X117700Y136806D02*
D03*
Y145648D02*
D03*
Y166130D02*
D03*
Y174969D02*
D03*
X201200Y106800D02*
D03*
X250400Y99500D02*
D03*
X279500Y236858D02*
D03*
X263500Y240400D02*
D03*
X43000Y243423D02*
D03*
Y258029D02*
D03*
X84676Y228849D02*
D03*
X218700Y69200D02*
D03*
X121567Y66500D02*
D03*
X133053Y294532D02*
D03*
X201901Y296518D02*
D03*
X206970Y291000D02*
D03*
X127778Y289460D02*
D03*
X80690Y135282D02*
D03*
X99245Y223400D02*
D03*
X79487Y223481D02*
D03*
X87800Y241755D02*
D03*
X64381Y239529D02*
D03*
X86402Y135282D02*
D03*
X257285Y256357D02*
D03*
X259723Y254419D02*
D03*
X98745Y241369D02*
D03*
Y244377D02*
D03*
X68246Y253074D02*
D03*
X75628Y255669D02*
D03*
X62220Y256766D02*
D03*
X69344Y246286D02*
D03*
X75742Y246375D02*
D03*
X61635Y229129D02*
D03*
X64310Y228168D02*
D03*
X99957Y227735D02*
D03*
X99866Y212103D02*
D03*
X106064Y211491D02*
D03*
X106185Y214711D02*
D03*
X81372Y220843D02*
D03*
X81463Y215523D02*
D03*
X84676D02*
D03*
X261365Y234765D02*
D03*
X219639Y241500D02*
D03*
X213404Y239400D02*
D03*
X213085Y242597D02*
D03*
X80690Y131661D02*
D03*
X86788Y131702D02*
D03*
X213585Y109598D02*
D03*
X216785Y105303D02*
D03*
X219218Y107403D02*
D03*
X257763Y230185D02*
D03*
X255763Y232735D02*
D03*
X179329Y140227D02*
D03*
X245129Y110929D02*
D03*
X230702Y244843D02*
D03*
X223529Y244824D02*
D03*
X216400Y241500D02*
D03*
X239756Y139835D02*
D03*
X230165Y123278D02*
D03*
X111026Y166212D02*
D03*
Y145720D02*
D03*
X23000Y91800D02*
D03*
Y101800D02*
D03*
Y111800D02*
D03*
Y121800D02*
D03*
Y131800D02*
D03*
Y141800D02*
D03*
Y171800D02*
D03*
Y181800D02*
D03*
Y191800D02*
D03*
Y201800D02*
D03*
Y211800D02*
D03*
Y221800D02*
D03*
X301676Y121800D02*
D03*
Y131800D02*
D03*
Y91800D02*
D03*
Y101800D02*
D03*
Y111800D02*
D03*
Y141800D02*
D03*
Y151800D02*
D03*
Y161800D02*
D03*
Y171800D02*
D03*
Y181800D02*
D03*
Y191800D02*
D03*
Y201800D02*
D03*
Y211800D02*
D03*
Y221800D02*
D03*
Y231835D02*
D03*
Y241800D02*
D03*
Y251800D02*
D03*
Y261384D02*
D03*
X82802Y231550D02*
D03*
X103100Y213200D02*
D03*
X63958Y220020D02*
D03*
X75651Y241403D02*
D03*
X84455Y221940D02*
D03*
X132285Y132737D02*
D03*
X136935D02*
D03*
X141985D02*
D03*
X142056Y126003D02*
D03*
X137006Y126102D02*
D03*
X132356D02*
D03*
X142285Y178863D02*
D03*
X137385D02*
D03*
X132185D02*
D03*
X131800Y185500D02*
D03*
X137000D02*
D03*
X141900D02*
D03*
X258861Y233120D02*
D03*
X256900Y253036D02*
D03*
X111026Y136780D02*
D03*
Y174969D02*
D03*
X164100Y172509D02*
D03*
X83400Y212500D02*
D03*
X95965Y243120D02*
D03*
X102885Y226637D02*
D03*
X72502Y246375D02*
D03*
X63611Y253731D02*
D03*
X64381Y231432D02*
D03*
X72502Y254450D02*
D03*
X116951Y60800D02*
D03*
X220736Y238322D02*
D03*
X33059Y279500D02*
D03*
X52952Y279436D02*
D03*
X212600Y62900D02*
D03*
X291941Y279300D02*
D03*
X272059D02*
D03*
X83600Y133345D02*
D03*
X216400Y108500D02*
D03*
M02*
