G04*
G04 #@! TF.GenerationSoftware,Altium Limited,Altium Designer,24.9.1 (31)*
G04*
G04 Layer_Color=16711935*
%FSLAX25Y25*%
%MOIN*%
G70*
G04*
G04 #@! TF.SameCoordinates,7D32762B-F1F2-48CB-859E-5018DBA3761A*
G04*
G04*
G04 #@! TF.FilePolarity,Negative*
G04*
G01*
G75*
%ADD14C,0.03504*%
%ADD15R,0.05984X0.05984*%
%ADD16C,0.05984*%
%ADD17C,0.05000*%
%ADD18C,0.17000*%
%ADD19C,0.02300*%
%ADD23R,0.02756X0.03543*%
%ADD24R,0.01378X0.01181*%
%ADD25R,0.01181X0.01378*%
%ADD26R,0.09016X0.05000*%
%ADD27R,0.03150X0.03543*%
%ADD28R,0.07480X0.12598*%
%ADD29R,0.05807X0.01772*%
%ADD30R,0.03543X0.02756*%
%ADD31R,0.03543X0.03150*%
%ADD32R,0.03740X0.02165*%
%ADD33R,0.02264X0.01378*%
%ADD34R,0.01378X0.02264*%
D14*
X43000Y266800D02*
D03*
Y86800D02*
D03*
X282000D02*
D03*
Y266800D02*
D03*
D15*
X219400Y318500D02*
D03*
X134200Y35200D02*
D03*
X115689Y318500D02*
D03*
X231200Y35200D02*
D03*
D16*
X231211Y318500D02*
D03*
X122389Y35200D02*
D03*
X127500Y318500D02*
D03*
X219389Y35200D02*
D03*
D17*
X207589Y326217D02*
D03*
X243022D02*
D03*
X110578Y27483D02*
D03*
X146011D02*
D03*
X139311Y326217D02*
D03*
X103878D02*
D03*
X207578Y27483D02*
D03*
X243011D02*
D03*
D18*
X20000Y20000D02*
D03*
X334000D02*
D03*
Y334000D02*
D03*
X20000D02*
D03*
D19*
X115164Y274700D02*
D03*
X81862Y221800D02*
D03*
X91320Y258120D02*
D03*
X98385Y222153D02*
D03*
X82300Y243200D02*
D03*
X83400Y212500D02*
D03*
X76045Y241755D02*
D03*
X63996Y261800D02*
D03*
X82460Y237380D02*
D03*
X87800Y241755D02*
D03*
X95965Y243120D02*
D03*
X64381Y226200D02*
D03*
X102885Y226637D02*
D03*
X80747Y226585D02*
D03*
X82684Y231432D02*
D03*
X64381Y239529D02*
D03*
X72502Y246375D02*
D03*
X63611Y253731D02*
D03*
X64381Y231432D02*
D03*
X60737Y216215D02*
D03*
X72502Y254450D02*
D03*
X115100Y174498D02*
D03*
X169400Y180834D02*
D03*
X169500Y150125D02*
D03*
X216400Y241500D02*
D03*
X162800Y73385D02*
D03*
X213700Y275000D02*
D03*
X115100Y147566D02*
D03*
Y154702D02*
D03*
Y180834D02*
D03*
X220736Y238322D02*
D03*
X245300Y105000D02*
D03*
X230686Y244439D02*
D03*
X220736D02*
D03*
X33059Y279500D02*
D03*
X52952Y279436D02*
D03*
X191200Y73500D02*
D03*
X291941Y279300D02*
D03*
X272059D02*
D03*
X83600Y133345D02*
D03*
X216400Y108500D02*
D03*
X256307Y254133D02*
D03*
Y234685D02*
D03*
X262900Y241800D02*
D03*
X262800Y259600D02*
D03*
D23*
X240753Y171800D02*
D03*
X234847D02*
D03*
X240900Y199300D02*
D03*
X234995D02*
D03*
X240753Y151600D02*
D03*
X234847D02*
D03*
X240753Y165500D02*
D03*
X234847D02*
D03*
X240753Y178800D02*
D03*
X234847D02*
D03*
X240753Y158700D02*
D03*
X234847D02*
D03*
X234995Y192500D02*
D03*
X240900D02*
D03*
X234847Y185500D02*
D03*
X240753D02*
D03*
D24*
X88091Y232218D02*
D03*
Y234187D02*
D03*
X94390D02*
D03*
Y232218D02*
D03*
X75651Y234427D02*
D03*
X69352D02*
D03*
Y232458D02*
D03*
X75651D02*
D03*
D25*
X89272Y236352D02*
D03*
X91241D02*
D03*
X93209D02*
D03*
Y230053D02*
D03*
X91241D02*
D03*
X89272D02*
D03*
X74470Y236592D02*
D03*
X72502D02*
D03*
X70533D02*
D03*
Y230293D02*
D03*
X72502D02*
D03*
X74470D02*
D03*
D26*
X33059Y221800D02*
D03*
Y211800D02*
D03*
Y201800D02*
D03*
Y191800D02*
D03*
Y181800D02*
D03*
Y171800D02*
D03*
Y161800D02*
D03*
Y151800D02*
D03*
Y121800D02*
D03*
Y111800D02*
D03*
Y91800D02*
D03*
Y101800D02*
D03*
Y141800D02*
D03*
Y131800D02*
D03*
Y261800D02*
D03*
X52941D02*
D03*
Y251800D02*
D03*
Y241800D02*
D03*
Y231800D02*
D03*
Y221800D02*
D03*
Y211800D02*
D03*
Y201800D02*
D03*
Y191800D02*
D03*
Y181800D02*
D03*
Y171800D02*
D03*
Y161800D02*
D03*
Y151800D02*
D03*
Y141800D02*
D03*
Y131800D02*
D03*
Y121800D02*
D03*
Y111800D02*
D03*
Y101800D02*
D03*
Y91800D02*
D03*
X33059Y251800D02*
D03*
Y241800D02*
D03*
Y231800D02*
D03*
Y271800D02*
D03*
X52941D02*
D03*
X33059Y81800D02*
D03*
X52941D02*
D03*
X291941Y261800D02*
D03*
Y251800D02*
D03*
Y241800D02*
D03*
Y231800D02*
D03*
Y221800D02*
D03*
Y211800D02*
D03*
Y201800D02*
D03*
Y191800D02*
D03*
Y181800D02*
D03*
Y171800D02*
D03*
Y151800D02*
D03*
Y141800D02*
D03*
Y131800D02*
D03*
Y121800D02*
D03*
Y111800D02*
D03*
Y101800D02*
D03*
Y91800D02*
D03*
Y161800D02*
D03*
X272059Y261800D02*
D03*
Y251800D02*
D03*
Y241800D02*
D03*
Y231800D02*
D03*
Y221800D02*
D03*
Y211800D02*
D03*
Y201800D02*
D03*
Y191800D02*
D03*
Y181800D02*
D03*
Y171800D02*
D03*
Y161800D02*
D03*
Y151800D02*
D03*
Y121800D02*
D03*
Y91800D02*
D03*
Y101800D02*
D03*
Y111800D02*
D03*
Y141800D02*
D03*
Y131800D02*
D03*
X291941Y81800D02*
D03*
X272059D02*
D03*
X291941Y271800D02*
D03*
X272059D02*
D03*
D27*
X76863Y221800D02*
D03*
X71352D02*
D03*
X88485Y222153D02*
D03*
X93996D02*
D03*
X231276Y238322D02*
D03*
X225764D02*
D03*
D28*
X142300Y164200D02*
D03*
D29*
X130733Y180834D02*
D03*
Y178275D02*
D03*
Y170598D02*
D03*
Y168039D02*
D03*
Y165480D02*
D03*
Y162920D02*
D03*
Y160361D02*
D03*
Y157802D02*
D03*
Y155243D02*
D03*
Y152684D02*
D03*
X153867Y147566D02*
D03*
Y150125D02*
D03*
Y152684D02*
D03*
Y155243D02*
D03*
Y157802D02*
D03*
Y160361D02*
D03*
Y162920D02*
D03*
Y165480D02*
D03*
Y168039D02*
D03*
Y170598D02*
D03*
Y173157D02*
D03*
Y175716D02*
D03*
Y178275D02*
D03*
Y180834D02*
D03*
X130733Y173157D02*
D03*
Y175716D02*
D03*
Y147566D02*
D03*
Y150125D02*
D03*
D30*
X183100Y148547D02*
D03*
Y154453D02*
D03*
D31*
X228600Y116844D02*
D03*
Y122356D02*
D03*
X220736Y248544D02*
D03*
Y254056D02*
D03*
X230686Y248544D02*
D03*
Y254056D02*
D03*
D32*
X248235Y254282D02*
D03*
Y249361D02*
D03*
Y239518D02*
D03*
Y244439D02*
D03*
X240165Y254282D02*
D03*
Y249361D02*
D03*
Y244439D02*
D03*
Y239518D02*
D03*
D33*
X247700Y117463D02*
D03*
Y119431D02*
D03*
Y121400D02*
D03*
X240511D02*
D03*
Y119431D02*
D03*
Y117463D02*
D03*
D34*
X247058Y124010D02*
D03*
X245090D02*
D03*
X243121D02*
D03*
X241153D02*
D03*
Y114853D02*
D03*
X243121D02*
D03*
X245090D02*
D03*
X247058D02*
D03*
M02*
