G04*
G04 #@! TF.GenerationSoftware,Altium Limited,Altium Designer,24.9.1 (31)*
G04*
G04 Layer_Color=128*
%FSLAX25Y25*%
%MOIN*%
G70*
G04*
G04 #@! TF.SameCoordinates,EB6CF2F9-7D6B-44DB-B584-050751D5D309*
G04*
G04*
G04 #@! TF.FilePolarity,Positive*
G04*
G01*
G75*
%ADD31R,0.07480X0.12598*%
%ADD32R,0.05807X0.01772*%
%ADD33R,0.01378X0.01181*%
%ADD34R,0.01181X0.01378*%
%ADD35R,0.03543X0.03150*%
%ADD36R,0.03543X0.02756*%
%ADD37R,0.02756X0.03543*%
%ADD38R,0.09016X0.05000*%
%ADD39R,0.03150X0.03543*%
%ADD40R,0.03740X0.02165*%
%ADD41R,0.02264X0.01378*%
%ADD42R,0.01378X0.02264*%
D31*
X137000Y155875D02*
D03*
D32*
X125433Y172509D02*
D03*
Y169950D02*
D03*
Y162272D02*
D03*
Y159713D02*
D03*
Y157154D02*
D03*
Y154595D02*
D03*
Y152036D02*
D03*
Y149477D02*
D03*
Y146918D02*
D03*
Y144359D02*
D03*
X148567Y139241D02*
D03*
Y141800D02*
D03*
Y144359D02*
D03*
Y146918D02*
D03*
Y149477D02*
D03*
Y152036D02*
D03*
Y154595D02*
D03*
Y157154D02*
D03*
Y159713D02*
D03*
Y162272D02*
D03*
Y164831D02*
D03*
Y167391D02*
D03*
Y169950D02*
D03*
Y172509D02*
D03*
X125433Y164831D02*
D03*
Y167391D02*
D03*
Y139241D02*
D03*
Y141800D02*
D03*
D33*
X75651Y232458D02*
D03*
X69352D02*
D03*
Y234427D02*
D03*
X75651D02*
D03*
X88091Y232218D02*
D03*
Y234187D02*
D03*
X94390D02*
D03*
Y232218D02*
D03*
D34*
X74470Y230293D02*
D03*
X72502D02*
D03*
X70533D02*
D03*
Y236592D02*
D03*
X72502D02*
D03*
X74470D02*
D03*
X89272Y236352D02*
D03*
X91241D02*
D03*
X93209D02*
D03*
Y230053D02*
D03*
X91241D02*
D03*
X89272D02*
D03*
D35*
X227000Y254756D02*
D03*
Y249244D02*
D03*
X234291Y254538D02*
D03*
Y249027D02*
D03*
X239756Y135756D02*
D03*
Y130244D02*
D03*
X234425Y117280D02*
D03*
Y122792D02*
D03*
D36*
X171189Y146412D02*
D03*
Y140506D02*
D03*
D37*
X240753Y178800D02*
D03*
X234847D02*
D03*
X234995Y199300D02*
D03*
X240900D02*
D03*
X234995Y192500D02*
D03*
X240900D02*
D03*
X234847Y185500D02*
D03*
X240753D02*
D03*
X240753Y171800D02*
D03*
X234847D02*
D03*
X240753Y158700D02*
D03*
X234847D02*
D03*
X240753Y151600D02*
D03*
X234847D02*
D03*
X240753Y165500D02*
D03*
X234847D02*
D03*
D38*
X52941Y81800D02*
D03*
X33059D02*
D03*
X52941Y271800D02*
D03*
X33059D02*
D03*
Y231800D02*
D03*
Y241800D02*
D03*
Y251800D02*
D03*
X52941Y91800D02*
D03*
Y101800D02*
D03*
Y111800D02*
D03*
Y121800D02*
D03*
Y131800D02*
D03*
Y141800D02*
D03*
Y151800D02*
D03*
Y161800D02*
D03*
Y171800D02*
D03*
Y181800D02*
D03*
Y191800D02*
D03*
Y201800D02*
D03*
Y211800D02*
D03*
Y221800D02*
D03*
Y231800D02*
D03*
Y241800D02*
D03*
Y251800D02*
D03*
Y261800D02*
D03*
X33059D02*
D03*
Y131800D02*
D03*
Y141800D02*
D03*
Y101800D02*
D03*
Y91800D02*
D03*
Y111800D02*
D03*
Y121800D02*
D03*
Y151800D02*
D03*
Y161800D02*
D03*
Y171800D02*
D03*
Y181800D02*
D03*
Y191800D02*
D03*
Y201800D02*
D03*
Y211800D02*
D03*
Y221800D02*
D03*
X291941Y261800D02*
D03*
Y251800D02*
D03*
Y241800D02*
D03*
Y231800D02*
D03*
Y221800D02*
D03*
Y211800D02*
D03*
Y201800D02*
D03*
Y191800D02*
D03*
Y181800D02*
D03*
Y171800D02*
D03*
Y151800D02*
D03*
Y141800D02*
D03*
Y131800D02*
D03*
Y121800D02*
D03*
Y111800D02*
D03*
Y101800D02*
D03*
Y91800D02*
D03*
Y161800D02*
D03*
X272059Y261800D02*
D03*
Y251800D02*
D03*
Y241800D02*
D03*
Y231800D02*
D03*
Y221800D02*
D03*
Y211800D02*
D03*
Y201800D02*
D03*
Y191800D02*
D03*
Y181800D02*
D03*
Y171800D02*
D03*
Y161800D02*
D03*
Y151800D02*
D03*
Y121800D02*
D03*
Y91800D02*
D03*
Y101800D02*
D03*
Y111800D02*
D03*
Y141800D02*
D03*
Y131800D02*
D03*
X291941Y81800D02*
D03*
X272059D02*
D03*
X291941Y271800D02*
D03*
X272059D02*
D03*
D39*
X75257Y223481D02*
D03*
X69746D02*
D03*
X89344Y223400D02*
D03*
X94856D02*
D03*
X231276Y238322D02*
D03*
X225764D02*
D03*
D40*
X248235Y254282D02*
D03*
Y249361D02*
D03*
Y239518D02*
D03*
Y244439D02*
D03*
X240165Y254282D02*
D03*
Y249361D02*
D03*
Y244439D02*
D03*
Y239518D02*
D03*
D41*
X247700Y117463D02*
D03*
Y119431D02*
D03*
Y121400D02*
D03*
X240511D02*
D03*
Y119431D02*
D03*
Y117463D02*
D03*
D42*
X247058Y124010D02*
D03*
X245090D02*
D03*
X243121D02*
D03*
X241153D02*
D03*
Y114853D02*
D03*
X243121D02*
D03*
X245090D02*
D03*
X247058D02*
D03*
M02*
