M48
;Layer_Color=9474304
;FILE_FORMAT=2:4
INCH,TZ
;TYPE=PLATED
T01F00S00C0.0120
T02F00S00C0.0402
;TYPE=NON_PLATED
T03F00S00C0.0500
T04F00S00C0.0701
T05F00S00C0.1500
%
T01
X21260Y6290
X21870Y6920
X21679Y10530
X21640Y10850
X21359Y10960
X21922Y10740
X23017Y12328
X23976Y13983
X24513Y11093
X25040Y9950
X30168Y10180
Y9180
Y11180
Y12180
Y13180
Y14180
Y15180
Y16180
Y17180
Y18180
Y19180
Y20180
Y21180
X16410Y17251
X14229Y17886
X13739
X13219
X13180Y18550
X13700
X14190
X11770Y17497
X11103
Y16621
X11770Y16613
Y14565
X11103Y14572
Y13678
X11770Y13681
X13229Y13274
X13694
X14199
X14206Y12600
X13701Y12610
X13236
X8679Y13170
X8640Y13528
X8360Y13334
X8069Y13166
Y13528
X9987Y21210
X10606Y21149
X17933Y14023
X20120Y10680
X12157Y6650
X11695Y6080
X2300Y9180
Y10180
Y11180
Y12180
Y13180
Y14180
Y17180
Y18180
Y19180
Y20180
Y21180
Y22180
X4300Y24342
Y25803
X5295Y27944
X3306Y27950
X6222Y25677
X6361Y25373
X6825Y25307
X7250Y25445
X7563Y25567
X7574Y24638
X7250
X6934Y24629
X7565Y24140
X8780Y24175
X9596Y24312
X9874Y24438
Y24137
X9996Y22773
X10289Y22664
X9924Y22340
X10310Y21320
X10619Y21471
X8468Y21552
X8146
X8340Y21250
X8137Y22084
X8445Y22194
X7949Y22348
X8468Y22885
X8280Y23155
X6438Y23143
X6431Y22817
X6164Y22913
X6396Y22002
X6438Y23953
X12778Y28946
X13305Y29453
X20190Y29652
X20697Y29100
X21309Y24260
X21340Y23940
X21640Y24150
X21964
X22074Y23832
X22353Y24482
X23070Y24484
X25690Y25304
X25729Y25636
X25972Y25442
X26350Y24040
X26137Y23476
X25886Y23312
X25576Y23274
X25776Y23019
X27950Y23686
X30168Y24180
Y23183
Y22180
Y25180
Y26138
X29194Y27930
X27206
T02
X12239Y3520
X13420
X21939
X23120
X12750Y31850
X11569
X21940
X23121
T03
X11058Y2748
X14601
X20758
X24301
X20759Y32622
X13931
X10388
X24302
T04
X28200Y8680
X4300
Y26680
X28200
T05
X2000Y2000
X33400
X2000Y33400
X33400
M30
