M48
;Layer_Color=9474304
;FILE_FORMAT=2:4
INCH,TZ
;TYPE=PLATED
T01F00S00C0.0120
T03F00S00C0.0354
;TYPE=NON_PLATED
T04F00S00C0.0701
T05F00S00C0.1500
%
T01
X8933Y5467
X21290Y4436
X21942Y3730
X25950Y4476
X26300Y5300
X28800Y5050
X27850Y2500
X30473Y2515
X29750Y7450
X25295Y8837
X24220Y8650
X24000Y9550
X22120Y9273
Y10270
X22847Y12002
X22979Y12544
X23883Y12975
X24052Y11815
X25250Y11250
X25014Y13195
X24964Y15198
X24512Y15318
X23927Y14650
X23120Y14930
X22870Y15497
X22633Y16088
X21507Y15891
X21463Y17483
X21277Y17950
X21342Y20222
Y20566
X23020Y20935
X23677Y20266
X24568Y18850
X20150Y17950
X14780Y17820
X13050Y18647
X12730Y17072
X13310Y16482
X12950Y15750
X11547Y15300
X11179Y14874
X10763Y13974
X11304Y13376
X12719Y13332
X12730Y13736
X13550Y12250
X14467Y12609
X12592Y11442
X12250Y9643
X11250Y9840
Y9380
X10100Y10300
X10706Y11994
X9650Y14654
X10398Y15758
X10343Y16806
X9606Y16650
X9940Y17566
X11450Y16605
X11470Y19854
X10146Y19920
X11250Y21225
X12772Y20424
X15240Y20812
X15830Y20855
X16407Y20892
X17405Y12150
X18795
X18675Y10839
X17616Y10837
X17185Y10843
X15888Y10837
X15977Y6928
X17750Y6885
X17200Y6056
X20000Y8700
X20450Y9020
X20446Y9720
X19875Y10100
X20168Y11026
X11750Y7050
X9750Y7175
X10051Y8000
X7147Y7520
X6450Y9339
X2400Y23150
X5524Y28100
X4283Y31740
X9450Y32240
X9080Y28050
X10800Y27150
X12400Y26856
X14402Y26902
X14358Y27494
X15152Y25529
X15705Y25433
X14845Y24500
X13862Y22425
X13486Y22100
X12900Y23020
X10650Y23100
X11850Y21350
X16627Y22500
X19050Y22284
X20354Y22251
X19900Y24250
X20430Y25670
X17676Y26250
X17012Y26209
X17660Y28405
X16395Y29265
X15300Y30400
X13800Y30760
X19699Y30996
X20250Y30864
X19885Y30100
X10173Y25750
X21500Y22362
X23677Y22068
X25380Y23150
X25200Y24150
X24833Y24474
X26250Y29300
X23360Y30750
X29224Y27900
T03
X5019Y4250
X6200
X7381
T04
X28193Y8680
X31100
X13250Y6305
X11250
X8196Y8680
X4297Y8680
Y26680
X8196Y26680
X28193Y26680
X31100
T05
X2000Y2000
X33400
X2000Y33400
X33400
M30
