M48
;Layer_Color=9474304
;FILE_FORMAT=2:5
INCH,TZ
;TYPE=PLATED
T1F00S00C0.01200
T2F00S00C0.05630
;TYPE=NON_PLATED
T3F00S00C0.09900
T4F00S00C0.15000
%
T01
X-267301Y-267437
X-176671Y-325337
X-73801Y-214645
X-153501Y-160337
X-181751Y-172121
X-215880Y-97485
T02
X-264803Y-316195
X-189999
X-115196
X-40393
X-190000Y-38480
X-264803
X-115197
X-40394
T03
X-316041Y-255938
X10823
Y-98400
X-316041
T04
X-309602Y-334126
X4385
X-309602Y-20200
X4385
M30
