G04*
G04 #@! TF.GenerationSoftware,Altium Limited,Altium Designer,22.9.1 (49)*
G04*
G04 Layer_Color=65535*
%FSLAX25Y25*%
%MOIN*%
G70*
G04*
G04 #@! TF.SameCoordinates,80F2EAEC-CDE7-43A4-84F7-7BEF4F4580BA*
G04*
G04*
G04 #@! TF.FilePolarity,Positive*
G04*
G01*
G75*
%ADD10C,0.00394*%
%ADD11C,0.00787*%
%ADD12C,0.01000*%
D10*
X-258898Y-38480D02*
X-252303D01*
Y-54031D02*
Y-38480D01*
X-277303Y-54031D02*
X-252303D01*
X-277303D02*
Y-38480D01*
X-270709D01*
X-258897Y-316195D02*
X-252303D01*
Y-300643D01*
X-277303D02*
X-252303D01*
X-277303Y-316195D02*
Y-300643D01*
Y-316195D02*
X-270708D01*
X-127697Y-38480D02*
X-121102D01*
X-127697Y-54031D02*
Y-38480D01*
Y-54031D02*
X-102697D01*
Y-38480D01*
X-109292D02*
X-102697D01*
X-52893Y-316195D02*
X-46299D01*
X-52893D02*
Y-300643D01*
X-27893D01*
Y-316195D02*
Y-300643D01*
X-34488Y-316195D02*
X-27893D01*
X-34488Y-38480D02*
X-27894D01*
Y-54031D02*
Y-38480D01*
X-52894Y-54031D02*
X-27894D01*
X-52894D02*
Y-38480D01*
X-46299D01*
X-127696Y-316195D02*
X-121102D01*
X-127696D02*
Y-300643D01*
X-102696D01*
Y-316195D02*
Y-300643D01*
X-109291Y-316195D02*
X-102696D01*
X-202500D02*
X-195905D01*
X-202500D02*
Y-300643D01*
X-177499D01*
Y-316195D02*
Y-300643D01*
X-184094Y-316195D02*
X-177499D01*
X-184095Y-38480D02*
X-177500D01*
Y-54031D02*
Y-38480D01*
X-202500Y-54031D02*
X-177500D01*
X-202500D02*
Y-38480D01*
X-195906D01*
D11*
X-167736Y-324559D02*
X-166161D01*
X-167736Y-327315D02*
X-166161D01*
X-151925Y-329471D02*
X-140901D01*
X-151925D02*
Y-321203D01*
X-140901D01*
D12*
X-175293Y-319881D02*
Y-313883D01*
X-172294D01*
X-171294Y-314883D01*
Y-316882D01*
X-172294Y-317882D01*
X-175293D01*
X-173294D02*
X-171294Y-319881D01*
X-165296Y-313883D02*
X-167296Y-314883D01*
X-169295Y-316882D01*
Y-318882D01*
X-168295Y-319881D01*
X-166296D01*
X-165296Y-318882D01*
Y-317882D01*
X-166296Y-316882D01*
X-169295D01*
X-158301Y-311739D02*
Y-317737D01*
X-154302D01*
X-148304Y-311739D02*
X-152303D01*
Y-317737D01*
X-148304D01*
X-152303Y-314738D02*
X-150303D01*
X-146305Y-311739D02*
Y-317737D01*
X-143306D01*
X-142306Y-316738D01*
Y-312739D01*
X-143306Y-311739D01*
X-146305D01*
X-140307Y-317737D02*
X-138307D01*
X-139307D01*
Y-311739D01*
X-140307Y-312739D01*
X-280401Y-287539D02*
Y-292538D01*
X-279401Y-293537D01*
X-277402D01*
X-276402Y-292538D01*
Y-287539D01*
X-274403Y-293537D02*
X-272404D01*
X-273403D01*
Y-287539D01*
X-274403Y-288539D01*
X-269405Y-293537D02*
X-267405D01*
X-268405D01*
Y-287539D01*
X-269405Y-288539D01*
X-280401Y-21139D02*
Y-26138D01*
X-279401Y-27137D01*
X-277402D01*
X-276402Y-26138D01*
Y-21139D01*
X-274403Y-27137D02*
X-272404D01*
X-273403D01*
Y-21139D01*
X-274403Y-22139D01*
X-269405D02*
X-268405Y-21139D01*
X-266406D01*
X-265406Y-22139D01*
Y-26138D01*
X-266406Y-27137D01*
X-268405D01*
X-269405Y-26138D01*
Y-22139D01*
X-205601Y-287539D02*
Y-292538D01*
X-204601Y-293537D01*
X-202602D01*
X-201602Y-292538D01*
Y-287539D01*
X-199603Y-292538D02*
X-198603Y-293537D01*
X-196604D01*
X-195604Y-292538D01*
Y-288539D01*
X-196604Y-287539D01*
X-198603D01*
X-199603Y-288539D01*
Y-289539D01*
X-198603Y-290538D01*
X-195604D01*
X-205601Y-21139D02*
Y-26138D01*
X-204601Y-27137D01*
X-202602D01*
X-201602Y-26138D01*
Y-21139D01*
X-199603Y-22139D02*
X-198603Y-21139D01*
X-196604D01*
X-195604Y-22139D01*
Y-23139D01*
X-196604Y-24138D01*
X-195604Y-25138D01*
Y-26138D01*
X-196604Y-27137D01*
X-198603D01*
X-199603Y-26138D01*
Y-25138D01*
X-198603Y-24138D01*
X-199603Y-23139D01*
Y-22139D01*
X-198603Y-24138D02*
X-196604D01*
X-130801Y-287539D02*
Y-292538D01*
X-129801Y-293537D01*
X-127802D01*
X-126802Y-292538D01*
Y-287539D01*
X-124803D02*
X-120804D01*
Y-288539D01*
X-124803Y-292538D01*
Y-293537D01*
X-130801Y-21139D02*
Y-26138D01*
X-129801Y-27137D01*
X-127802D01*
X-126802Y-26138D01*
Y-21139D01*
X-120804D02*
X-122803Y-22139D01*
X-124803Y-24138D01*
Y-26138D01*
X-123803Y-27137D01*
X-121804D01*
X-120804Y-26138D01*
Y-25138D01*
X-121804Y-24138D01*
X-124803D01*
X-56001Y-287539D02*
Y-292538D01*
X-55001Y-293537D01*
X-53002D01*
X-52002Y-292538D01*
Y-287539D01*
X-46004D02*
X-50003D01*
Y-290538D01*
X-48004Y-289539D01*
X-47004D01*
X-46004Y-290538D01*
Y-292538D01*
X-47004Y-293537D01*
X-49003D01*
X-50003Y-292538D01*
X-56001Y-21139D02*
Y-26138D01*
X-55001Y-27137D01*
X-53002D01*
X-52002Y-26138D01*
Y-21139D01*
X-47004Y-27137D02*
Y-21139D01*
X-50003Y-24138D01*
X-46004D01*
M02*
