G04*
G04 #@! TF.GenerationSoftware,Altium Limited,Altium Designer,22.9.1 (49)*
G04*
G04 Layer_Color=8388736*
%FSLAX25Y25*%
%MOIN*%
G70*
G04*
G04 #@! TF.SameCoordinates,80F2EAEC-CDE7-43A4-84F7-7BEF4F4580BA*
G04*
G04*
G04 #@! TF.FilePolarity,Negative*
G04*
G01*
G75*
%ADD13R,0.04756X0.05543*%
%ADD14R,0.05543X0.07512*%
%ADD15C,0.10445*%
%ADD16C,0.17000*%
%ADD17C,0.11900*%
%ADD18C,0.04300*%
D13*
X-169901Y-325937D02*
D03*
X-163995D02*
D03*
D14*
X-140901Y-325337D02*
D03*
X-148775D02*
D03*
D15*
X-264803Y-38480D02*
D03*
X-40393Y-316195D02*
D03*
X-115196D02*
D03*
X-264803D02*
D03*
X-115197Y-38480D02*
D03*
X-40394D02*
D03*
X-189999Y-316195D02*
D03*
X-190000Y-38480D02*
D03*
D16*
X4385Y-334126D02*
D03*
X-309602D02*
D03*
X4385Y-20200D02*
D03*
X-309602D02*
D03*
D17*
X10823Y-255938D02*
D03*
Y-98400D02*
D03*
X-316041Y-255938D02*
D03*
X-316041Y-98400D02*
D03*
D18*
X-181751Y-172121D02*
D03*
X-215880Y-97485D02*
D03*
X-153501Y-160337D02*
D03*
X-73801Y-214645D02*
D03*
X-176671Y-325337D02*
D03*
X-267301Y-267437D02*
D03*
M02*
