G04*
G04 #@! TF.GenerationSoftware,Altium Limited,Altium Designer,22.9.1 (49)*
G04*
G04 Layer_Color=16711935*
%FSLAX25Y25*%
%MOIN*%
G70*
G04*
G04 #@! TF.SameCoordinates,80F2EAEC-CDE7-43A4-84F7-7BEF4F4580BA*
G04*
G04*
G04 #@! TF.FilePolarity,Negative*
G04*
G01*
G75*
%ADD13R,0.04756X0.05543*%
%ADD15C,0.10445*%
%ADD16C,0.17000*%
%ADD17C,0.11900*%
%ADD18C,0.04300*%
%ADD28R,0.02100X0.09000*%
%ADD31R,0.10600X0.03350*%
%ADD32R,0.08584X0.08701*%
%ADD33R,0.03200X0.01000*%
%ADD34R,0.42200X0.40800*%
%ADD35R,0.03800X0.13800*%
%ADD36R,0.06900X0.10630*%
%ADD37R,0.08693X0.06331*%
%ADD38R,0.11016X0.07000*%
%ADD39R,0.11646X0.13614*%
%ADD40R,0.05543X0.04756*%
%ADD41R,0.06331X0.08693*%
D13*
X-214108Y-122437D02*
D03*
X-208203D02*
D03*
X-214108Y-113038D02*
D03*
X-208203D02*
D03*
Y-103586D02*
D03*
X-170254Y-82699D02*
D03*
X-164348D02*
D03*
X-214108Y-103586D02*
D03*
D15*
X-264803Y-38480D02*
D03*
X-40393Y-316195D02*
D03*
X-115196D02*
D03*
X-264803D02*
D03*
X-115197Y-38480D02*
D03*
X-40394D02*
D03*
X-189999Y-316195D02*
D03*
X-190000Y-38480D02*
D03*
D16*
X4385Y-334126D02*
D03*
X-309602D02*
D03*
X4385Y-20200D02*
D03*
X-309602D02*
D03*
D17*
X10823Y-255938D02*
D03*
Y-98400D02*
D03*
X-316041Y-255938D02*
D03*
X-316041Y-98400D02*
D03*
D18*
X-181751Y-172121D02*
D03*
X-215880Y-97485D02*
D03*
X-153501Y-160337D02*
D03*
X-73801Y-214645D02*
D03*
X-176671Y-325337D02*
D03*
X-267301Y-267437D02*
D03*
D28*
X-177701Y-138526D02*
D03*
X-182701D02*
D03*
X-187701D02*
D03*
X-192701D02*
D03*
Y-118726D02*
D03*
X-187701D02*
D03*
X-182701D02*
D03*
X-177701D02*
D03*
D31*
Y-154787D02*
D03*
Y-164837D02*
D03*
D32*
X-139970Y-138919D02*
D03*
X-154593D02*
D03*
D33*
X-113729Y-97485D02*
D03*
Y-95516D02*
D03*
Y-93547D02*
D03*
Y-91578D02*
D03*
Y-89609D02*
D03*
X-125329Y-97485D02*
D03*
Y-95516D02*
D03*
Y-93547D02*
D03*
Y-91578D02*
D03*
Y-89609D02*
D03*
D34*
X-114214Y-176845D02*
D03*
D35*
Y-214845D02*
D03*
X-120907D02*
D03*
X-127600D02*
D03*
X-100829D02*
D03*
X-107521D02*
D03*
D36*
X-119529Y-93547D02*
D03*
D37*
X-160285Y-164837D02*
D03*
Y-175467D02*
D03*
X-226701Y-133604D02*
D03*
Y-144234D02*
D03*
X-211155Y-133604D02*
D03*
Y-144234D02*
D03*
X-82916Y-202637D02*
D03*
X-145001Y-106145D02*
D03*
X-164348Y-105555D02*
D03*
X-143706Y-214842D02*
D03*
X-164348Y-94925D02*
D03*
X-145001Y-95515D02*
D03*
X-143706Y-204212D02*
D03*
X-82916Y-213267D02*
D03*
D38*
X-7155Y-162170D02*
D03*
Y-122170D02*
D03*
Y-142170D02*
D03*
Y-152170D02*
D03*
Y-132170D02*
D03*
Y-212170D02*
D03*
Y-172170D02*
D03*
Y-182170D02*
D03*
X-27037D02*
D03*
X-7155Y-202170D02*
D03*
Y-192170D02*
D03*
X-27037Y-142170D02*
D03*
Y-152170D02*
D03*
Y-132170D02*
D03*
Y-162170D02*
D03*
Y-172170D02*
D03*
Y-192170D02*
D03*
Y-202170D02*
D03*
Y-212170D02*
D03*
X-7155Y-242170D02*
D03*
Y-222170D02*
D03*
X-27037Y-232170D02*
D03*
Y-222170D02*
D03*
X-7155Y-232170D02*
D03*
X-27037Y-252170D02*
D03*
Y-242170D02*
D03*
X-7155Y-272170D02*
D03*
Y-252170D02*
D03*
Y-262170D02*
D03*
X-27037D02*
D03*
Y-272170D02*
D03*
Y-122170D02*
D03*
X-7155Y-112170D02*
D03*
X-27037D02*
D03*
X-7155Y-102170D02*
D03*
X-27037D02*
D03*
X-7155Y-92170D02*
D03*
X-27037D02*
D03*
X-7155Y-82170D02*
D03*
X-27037D02*
D03*
X-298063D02*
D03*
X-278181D02*
D03*
X-298063Y-92170D02*
D03*
X-278181D02*
D03*
X-298063Y-102170D02*
D03*
X-278181D02*
D03*
X-298063Y-112170D02*
D03*
X-278181D02*
D03*
X-298063Y-122170D02*
D03*
X-278181Y-272170D02*
D03*
X-298063Y-262170D02*
D03*
Y-272170D02*
D03*
Y-252170D02*
D03*
Y-232170D02*
D03*
Y-242170D02*
D03*
Y-222170D02*
D03*
Y-212170D02*
D03*
X-278181Y-262170D02*
D03*
Y-252170D02*
D03*
Y-242170D02*
D03*
Y-232170D02*
D03*
Y-202170D02*
D03*
Y-222170D02*
D03*
Y-212170D02*
D03*
X-298063Y-192170D02*
D03*
Y-202170D02*
D03*
Y-162170D02*
D03*
Y-182170D02*
D03*
Y-172170D02*
D03*
Y-152170D02*
D03*
Y-142170D02*
D03*
Y-132170D02*
D03*
X-278181Y-182170D02*
D03*
Y-192170D02*
D03*
Y-172170D02*
D03*
Y-162170D02*
D03*
Y-132170D02*
D03*
Y-152170D02*
D03*
Y-142170D02*
D03*
Y-122170D02*
D03*
D39*
X-233316Y-297937D02*
D03*
X-222686D02*
D03*
X-233316Y-285338D02*
D03*
X-222686D02*
D03*
X-233316Y-250137D02*
D03*
X-222686Y-237538D02*
D03*
Y-250137D02*
D03*
X-233316Y-237538D02*
D03*
X-82756Y-250137D02*
D03*
X-72126Y-237538D02*
D03*
Y-250137D02*
D03*
X-82756Y-237538D02*
D03*
X-82916Y-297937D02*
D03*
X-72286Y-285338D02*
D03*
Y-297937D02*
D03*
X-82916Y-285338D02*
D03*
D40*
X-102601Y-99059D02*
D03*
Y-104964D02*
D03*
X-143701Y-173137D02*
D03*
Y-179043D02*
D03*
D41*
X-114214Y-75078D02*
D03*
X-124844D02*
D03*
Y-108704D02*
D03*
X-114214D02*
D03*
M02*
