G04*
G04 #@! TF.GenerationSoftware,Altium Limited,Altium Designer,22.9.1 (49)*
G04*
G04 Layer_Physical_Order=2*
G04 Layer_Color=16711680*
%FSLAX25Y25*%
%MOIN*%
G70*
G04*
G04 #@! TF.SameCoordinates,80F2EAEC-CDE7-43A4-84F7-7BEF4F4580BA*
G04*
G04*
G04 #@! TF.FilePolarity,Positive*
G04*
G01*
G75*
%ADD12C,0.01000*%
%ADD19R,0.02756X0.03543*%
%ADD21C,0.02800*%
%ADD22C,0.08445*%
%ADD23C,0.06000*%
%ADD24C,0.02300*%
%ADD25R,0.06693X0.04331*%
%ADD26R,0.09016X0.05000*%
%ADD27R,0.09646X0.11614*%
%ADD28R,0.02100X0.09000*%
%ADD29R,0.03543X0.02756*%
%ADD30R,0.04331X0.06693*%
%ADD31R,0.10600X0.03350*%
%ADD32R,0.08584X0.08701*%
%ADD33R,0.03200X0.01000*%
%ADD34R,0.42200X0.40800*%
%ADD35R,0.03800X0.13800*%
%ADD36R,0.06900X0.10630*%
G36*
X24590Y-8280D02*
Y-345359D01*
X15612Y-354338D01*
X-8601D01*
X-25801Y-337138D01*
X-279401D01*
Y-337138D01*
X-296601Y-354338D01*
X-296601Y-354337D01*
X-320333D01*
X-329853Y-344817D01*
X-329806Y-344770D01*
Y-9030D01*
X-329362D01*
X-320322Y11D01*
X-320311Y-0D01*
X-296938D01*
X-278601Y-18337D01*
X-26520D01*
X-8165Y17D01*
X16292D01*
X24590Y-8280D01*
D02*
G37*
%LPC*%
G36*
X5173Y-12200D02*
X3597D01*
X2051Y-12507D01*
X595Y-13111D01*
X-715Y-13986D01*
X-1829Y-15100D01*
X-2705Y-16411D01*
X-3308Y-17867D01*
X-3615Y-19412D01*
Y-20988D01*
X-3308Y-22534D01*
X-2705Y-23990D01*
X-1829Y-25300D01*
X-715Y-26414D01*
X595Y-27290D01*
X2051Y-27893D01*
X3597Y-28200D01*
X5173D01*
X6718Y-27893D01*
X8174Y-27290D01*
X9485Y-26414D01*
X10599Y-25300D01*
X11474Y-23990D01*
X12077Y-22534D01*
X12385Y-20988D01*
Y-19412D01*
X12077Y-17867D01*
X11474Y-16411D01*
X10599Y-15100D01*
X9485Y-13986D01*
X8174Y-13111D01*
X6718Y-12507D01*
X5173Y-12200D01*
D02*
G37*
G36*
X-308814D02*
X-310390D01*
X-311936Y-12507D01*
X-313392Y-13111D01*
X-314702Y-13986D01*
X-315816Y-15100D01*
X-316692Y-16411D01*
X-317295Y-17867D01*
X-317602Y-19412D01*
Y-20988D01*
X-317295Y-22534D01*
X-316692Y-23990D01*
X-315816Y-25300D01*
X-314702Y-26414D01*
X-313392Y-27290D01*
X-311936Y-27893D01*
X-310390Y-28200D01*
X-308814D01*
X-307269Y-27893D01*
X-305813Y-27290D01*
X-304503Y-26414D01*
X-303388Y-25300D01*
X-302513Y-23990D01*
X-301910Y-22534D01*
X-301602Y-20988D01*
Y-19412D01*
X-301910Y-17867D01*
X-302513Y-16411D01*
X-303388Y-15100D01*
X-304503Y-13986D01*
X-305813Y-13111D01*
X-307269Y-12507D01*
X-308814Y-12200D01*
D02*
G37*
G36*
X-39772Y-33758D02*
X-41016D01*
X-42217Y-34080D01*
X-43293Y-34701D01*
X-44173Y-35581D01*
X-44794Y-36657D01*
X-45116Y-37858D01*
Y-39102D01*
X-44794Y-40303D01*
X-44173Y-41380D01*
X-43293Y-42259D01*
X-42217Y-42881D01*
X-41016Y-43203D01*
X-39772D01*
X-38571Y-42881D01*
X-37494Y-42259D01*
X-36615Y-41380D01*
X-35993Y-40303D01*
X-35671Y-39102D01*
Y-37858D01*
X-35993Y-36657D01*
X-36615Y-35581D01*
X-37494Y-34701D01*
X-38571Y-34080D01*
X-39772Y-33758D01*
D02*
G37*
G36*
X-114575D02*
X-115819D01*
X-117020Y-34080D01*
X-118097Y-34701D01*
X-118976Y-35581D01*
X-119598Y-36657D01*
X-119919Y-37858D01*
Y-39102D01*
X-119598Y-40303D01*
X-118976Y-41380D01*
X-118097Y-42259D01*
X-117020Y-42881D01*
X-115819Y-43203D01*
X-114575D01*
X-113374Y-42881D01*
X-112297Y-42259D01*
X-111418Y-41380D01*
X-110796Y-40303D01*
X-110475Y-39102D01*
Y-37858D01*
X-110796Y-36657D01*
X-111418Y-35581D01*
X-112297Y-34701D01*
X-113374Y-34080D01*
X-114575Y-33758D01*
D02*
G37*
G36*
X-264182D02*
X-265425D01*
X-266626Y-34080D01*
X-267703Y-34701D01*
X-268582Y-35581D01*
X-269204Y-36657D01*
X-269526Y-37858D01*
Y-39102D01*
X-269204Y-40303D01*
X-268582Y-41380D01*
X-267703Y-42259D01*
X-266626Y-42881D01*
X-265425Y-43203D01*
X-264182D01*
X-262981Y-42881D01*
X-261904Y-42259D01*
X-261024Y-41380D01*
X-260403Y-40303D01*
X-260081Y-39102D01*
Y-37858D01*
X-260403Y-36657D01*
X-261024Y-35581D01*
X-261904Y-34701D01*
X-262981Y-34080D01*
X-264182Y-33758D01*
D02*
G37*
G36*
X-111049Y-70732D02*
X-113714D01*
Y-74578D01*
X-111049D01*
Y-70732D01*
D02*
G37*
G36*
X-114714D02*
X-117380D01*
Y-74578D01*
X-114714D01*
Y-70732D01*
D02*
G37*
G36*
X-111049Y-75578D02*
X-113714D01*
Y-79425D01*
X-111049D01*
Y-75578D01*
D02*
G37*
G36*
X-114714D02*
X-117380D01*
Y-79425D01*
X-114714D01*
Y-75578D01*
D02*
G37*
G36*
X-2147Y-79170D02*
X-12163D01*
Y-85170D01*
X-2147D01*
Y-79170D01*
D02*
G37*
G36*
X-22029D02*
X-32045D01*
Y-85170D01*
X-22029D01*
Y-79170D01*
D02*
G37*
G36*
X-273174D02*
X-283189D01*
Y-85170D01*
X-273174D01*
Y-79170D01*
D02*
G37*
G36*
X-293056D02*
X-303071D01*
Y-85170D01*
X-293056D01*
Y-79170D01*
D02*
G37*
G36*
X-189378Y-33758D02*
X-190622D01*
X-191823Y-34080D01*
X-192900Y-34701D01*
X-193779Y-35581D01*
X-194401Y-36657D01*
X-194723Y-37858D01*
Y-39102D01*
X-194401Y-40303D01*
X-193779Y-41380D01*
X-192900Y-42259D01*
X-191823Y-42881D01*
X-190622Y-43203D01*
X-189378D01*
X-188177Y-42881D01*
X-187101Y-42259D01*
X-186221Y-41380D01*
X-185666Y-40417D01*
X-161064D01*
X-127510Y-73971D01*
Y-78925D01*
X-125864D01*
Y-86367D01*
X-125786Y-86757D01*
X-125565Y-87088D01*
X-124506Y-88147D01*
X-124697Y-88609D01*
X-125231D01*
X-125329Y-88589D01*
X-126429D01*
X-126528Y-88609D01*
X-127429D01*
Y-89167D01*
X-132758Y-94496D01*
X-141155D01*
Y-92850D01*
X-147405D01*
X-158277Y-81978D01*
X-158608Y-81757D01*
X-158998Y-81680D01*
X-162470D01*
Y-80428D01*
X-166226D01*
Y-84971D01*
X-162470D01*
Y-83719D01*
X-159420D01*
X-148847Y-94292D01*
Y-96739D01*
X-150068Y-97960D01*
X-150289Y-98291D01*
X-150367Y-98681D01*
Y-134069D01*
X-159385D01*
Y-137900D01*
X-176151D01*
Y-133526D01*
X-179251D01*
Y-143526D01*
X-178720D01*
Y-152612D01*
X-183501D01*
Y-156962D01*
X-171901D01*
Y-152612D01*
X-176681D01*
Y-143526D01*
X-176151D01*
Y-139939D01*
X-159385D01*
Y-143770D01*
X-149801D01*
Y-141240D01*
X-149339Y-141048D01*
X-144720Y-145667D01*
Y-171259D01*
X-145973D01*
Y-175015D01*
X-141429D01*
Y-171259D01*
X-142681D01*
Y-145245D01*
X-142759Y-144854D01*
X-142815Y-144770D01*
X-142548Y-144270D01*
X-140469D01*
Y-139419D01*
X-145262D01*
Y-141589D01*
X-145723Y-141780D01*
X-148281Y-139222D01*
Y-134155D01*
X-148328Y-133921D01*
Y-109311D01*
X-145501D01*
Y-106145D01*
Y-102980D01*
X-148328D01*
Y-99103D01*
X-147405Y-98181D01*
X-141155D01*
Y-96535D01*
X-132336D01*
X-131946Y-96457D01*
X-131615Y-96236D01*
X-127910Y-92532D01*
X-127429Y-92758D01*
Y-94547D01*
Y-98485D01*
X-126349D01*
Y-98967D01*
X-126271Y-99358D01*
X-126050Y-99688D01*
X-121881Y-103858D01*
X-122088Y-104358D01*
X-124344D01*
Y-108204D01*
X-121679D01*
Y-104767D01*
X-121179Y-104560D01*
X-120549Y-105190D01*
Y-112903D01*
X-120471Y-113293D01*
X-120250Y-113624D01*
X-118737Y-115137D01*
X-118406Y-115358D01*
X-118016Y-115436D01*
X-108680D01*
X-108290Y-115358D01*
X-107959Y-115137D01*
X-101880Y-109058D01*
X-101659Y-108728D01*
X-101581Y-108337D01*
Y-106842D01*
X-100329D01*
Y-103086D01*
X-104873D01*
Y-106842D01*
X-103621D01*
Y-107915D01*
X-109102Y-113397D01*
X-117593D01*
X-118510Y-112480D01*
Y-104767D01*
X-118587Y-104377D01*
X-118808Y-104046D01*
X-122993Y-99862D01*
X-122786Y-99362D01*
X-115579D01*
Y-98985D01*
X-114229D01*
Y-97485D01*
X-113229D01*
Y-98985D01*
X-112149D01*
Y-104016D01*
X-112991Y-104858D01*
X-116880D01*
Y-112551D01*
X-111549D01*
Y-106300D01*
X-110408Y-105159D01*
X-110187Y-104828D01*
X-110110Y-104438D01*
Y-96571D01*
X-110187Y-96180D01*
X-110408Y-95850D01*
X-111463Y-94795D01*
X-111629Y-94684D01*
Y-92598D01*
X-110898D01*
X-104873Y-98623D01*
Y-100937D01*
X-100329D01*
Y-97181D01*
X-103431D01*
X-109755Y-90857D01*
X-110085Y-90636D01*
X-110475Y-90558D01*
X-111629D01*
Y-88609D01*
X-115579D01*
Y-87732D01*
X-122037D01*
X-123825Y-85945D01*
Y-78925D01*
X-122179D01*
Y-71232D01*
X-124770D01*
X-158891Y-37110D01*
X-159520Y-36690D01*
X-160261Y-36543D01*
X-185666D01*
X-186221Y-35581D01*
X-187101Y-34701D01*
X-188177Y-34080D01*
X-189378Y-33758D01*
D02*
G37*
G36*
X-2147Y-89170D02*
X-12163D01*
Y-95170D01*
X-2147D01*
Y-89170D01*
D02*
G37*
G36*
X-22029D02*
X-32045D01*
Y-95170D01*
X-22029D01*
Y-89170D01*
D02*
G37*
G36*
X-273174D02*
X-283189D01*
Y-95170D01*
X-273174D01*
Y-89170D01*
D02*
G37*
G36*
X-293056D02*
X-303071D01*
Y-95170D01*
X-293056D01*
Y-89170D01*
D02*
G37*
G36*
X11541Y-92950D02*
X10106D01*
X8720Y-93322D01*
X7477Y-94039D01*
X6462Y-95054D01*
X5745Y-96297D01*
X5373Y-97683D01*
Y-99118D01*
X5745Y-100504D01*
X6462Y-101746D01*
X7477Y-102761D01*
X8720Y-103479D01*
X10106Y-103850D01*
X11541D01*
X12927Y-103479D01*
X14170Y-102761D01*
X15184Y-101746D01*
X15902Y-100504D01*
X16273Y-99118D01*
Y-97683D01*
X15902Y-96297D01*
X15184Y-95054D01*
X14170Y-94039D01*
X12927Y-93322D01*
X11541Y-92950D01*
D02*
G37*
G36*
X-315323D02*
X-316758D01*
X-318144Y-93322D01*
X-319387Y-94039D01*
X-320402Y-95054D01*
X-321119Y-96297D01*
X-321491Y-97683D01*
Y-99118D01*
X-321119Y-100504D01*
X-320402Y-101746D01*
X-319387Y-102761D01*
X-318144Y-103479D01*
X-316758Y-103850D01*
X-315323D01*
X-313937Y-103479D01*
X-312695Y-102761D01*
X-311680Y-101746D01*
X-310962Y-100504D01*
X-310591Y-99118D01*
Y-97683D01*
X-310962Y-96297D01*
X-311680Y-95054D01*
X-312695Y-94039D01*
X-313937Y-93322D01*
X-315323Y-92950D01*
D02*
G37*
G36*
X-160002Y-102389D02*
X-163848D01*
Y-105055D01*
X-160002D01*
Y-102389D01*
D02*
G37*
G36*
X-164848D02*
X-168695D01*
Y-105055D01*
X-164848D01*
Y-102389D01*
D02*
G37*
G36*
X-2147Y-99170D02*
X-12163D01*
Y-105170D01*
X-2147D01*
Y-99170D01*
D02*
G37*
G36*
X-22029D02*
X-32045D01*
Y-105170D01*
X-22029D01*
Y-99170D01*
D02*
G37*
G36*
X-273174D02*
X-283189D01*
Y-105170D01*
X-273174D01*
Y-99170D01*
D02*
G37*
G36*
X-293056D02*
X-303071D01*
Y-105170D01*
X-293056D01*
Y-99170D01*
D02*
G37*
G36*
X-140655Y-102980D02*
X-144501D01*
Y-105645D01*
X-140655D01*
Y-102980D01*
D02*
G37*
G36*
X-215551Y-95835D02*
X-216208D01*
X-216814Y-96086D01*
X-217279Y-96550D01*
X-217530Y-97157D01*
Y-97813D01*
X-217279Y-98420D01*
X-216814Y-98884D01*
X-216208Y-99135D01*
X-215672D01*
X-215128Y-99679D01*
Y-101315D01*
X-215986D01*
Y-105858D01*
X-212230D01*
Y-101315D01*
X-213088D01*
Y-99257D01*
X-213166Y-98866D01*
X-213387Y-98536D01*
X-214230Y-97693D01*
Y-97157D01*
X-214481Y-96550D01*
X-214945Y-96086D01*
X-215551Y-95835D01*
D02*
G37*
G36*
X-125344Y-104358D02*
X-128010D01*
Y-108204D01*
X-125344D01*
Y-104358D01*
D02*
G37*
G36*
X-160002Y-106055D02*
X-163848D01*
Y-108720D01*
X-160002D01*
Y-106055D01*
D02*
G37*
G36*
X-164848D02*
X-168695D01*
Y-108720D01*
X-164848D01*
Y-106055D01*
D02*
G37*
G36*
X-140655Y-106645D02*
X-144501D01*
Y-109311D01*
X-140655D01*
Y-106645D01*
D02*
G37*
G36*
X-211730Y-110267D02*
X-213608D01*
Y-112538D01*
X-211730D01*
Y-110267D01*
D02*
G37*
G36*
X-214608D02*
X-216486D01*
Y-112538D01*
X-214608D01*
Y-110267D01*
D02*
G37*
G36*
X-121679Y-109204D02*
X-124344D01*
Y-113051D01*
X-121679D01*
Y-109204D01*
D02*
G37*
G36*
X-125344D02*
X-128010D01*
Y-113051D01*
X-125344D01*
Y-109204D01*
D02*
G37*
G36*
X-2147Y-109170D02*
X-12163D01*
Y-115170D01*
X-2147D01*
Y-109170D01*
D02*
G37*
G36*
X-22029D02*
X-32045D01*
Y-115170D01*
X-22029D01*
Y-109170D01*
D02*
G37*
G36*
X-273174D02*
X-283189D01*
Y-115170D01*
X-273174D01*
Y-109170D01*
D02*
G37*
G36*
X-293056D02*
X-303071D01*
Y-115170D01*
X-293056D01*
Y-109170D01*
D02*
G37*
G36*
X-211730Y-113538D02*
X-213608D01*
Y-115810D01*
X-211730D01*
Y-113538D01*
D02*
G37*
G36*
X-214608D02*
X-216486D01*
Y-115810D01*
X-214608D01*
Y-113538D01*
D02*
G37*
G36*
X-180651Y-113226D02*
X-182201D01*
Y-118226D01*
X-180651D01*
Y-113226D01*
D02*
G37*
G36*
X-183201D02*
X-184751D01*
Y-118226D01*
X-183201D01*
Y-113226D01*
D02*
G37*
G36*
X-1647Y-118670D02*
X-6655D01*
Y-121670D01*
X-1647D01*
Y-118670D01*
D02*
G37*
G36*
X-7655D02*
X-12663D01*
Y-121670D01*
X-7655D01*
Y-118670D01*
D02*
G37*
G36*
X-272674D02*
X-277681D01*
Y-121670D01*
X-272674D01*
Y-118670D01*
D02*
G37*
G36*
X-278681D02*
X-283689D01*
Y-121670D01*
X-278681D01*
Y-118670D01*
D02*
G37*
G36*
X-205824Y-119666D02*
X-207702D01*
Y-121937D01*
X-205824D01*
Y-119666D01*
D02*
G37*
G36*
X-208702D02*
X-210580D01*
Y-121937D01*
X-208702D01*
Y-119666D01*
D02*
G37*
G36*
X-168376Y-80428D02*
X-172132D01*
Y-84971D01*
X-171273D01*
Y-90200D01*
X-171196Y-90591D01*
X-170975Y-90921D01*
X-168195Y-93701D01*
Y-96148D01*
X-178422Y-106376D01*
X-178643Y-106706D01*
X-178720Y-107097D01*
Y-113726D01*
X-179251D01*
Y-123726D01*
X-176151D01*
Y-113726D01*
X-176681D01*
Y-107519D01*
X-166753Y-97590D01*
X-160502D01*
Y-92260D01*
X-166753D01*
X-169234Y-89778D01*
Y-84971D01*
X-168376D01*
Y-80428D01*
D02*
G37*
G36*
X-186151Y-113726D02*
X-189251D01*
Y-123726D01*
X-186151D01*
Y-113726D01*
D02*
G37*
G36*
X-206325Y-101315D02*
X-210080D01*
Y-105858D01*
X-209222D01*
Y-110767D01*
X-210080D01*
Y-115310D01*
X-207766D01*
X-203630Y-119447D01*
X-203299Y-119667D01*
X-202909Y-119745D01*
X-194251D01*
Y-123726D01*
X-191151D01*
Y-113726D01*
X-194251D01*
Y-117706D01*
X-202487D01*
X-206325Y-113868D01*
Y-110767D01*
X-207183D01*
Y-105858D01*
X-206325D01*
Y-101315D01*
D02*
G37*
G36*
X-180651Y-119226D02*
X-182201D01*
Y-124226D01*
X-180651D01*
Y-119226D01*
D02*
G37*
G36*
X-183201D02*
X-184751D01*
Y-124226D01*
X-183201D01*
Y-119226D01*
D02*
G37*
G36*
X-22029Y-119170D02*
X-32045D01*
Y-125170D01*
X-22029D01*
Y-119170D01*
D02*
G37*
G36*
X-293056D02*
X-303071D01*
Y-125170D01*
X-293056D01*
Y-119170D01*
D02*
G37*
G36*
X-205824Y-122937D02*
X-207702D01*
Y-125209D01*
X-205824D01*
Y-122937D01*
D02*
G37*
G36*
X-208702D02*
X-210580D01*
Y-125209D01*
X-208702D01*
Y-122937D01*
D02*
G37*
G36*
X-1647Y-122670D02*
X-6655D01*
Y-125670D01*
X-1647D01*
Y-122670D01*
D02*
G37*
G36*
X-7655D02*
X-12663D01*
Y-125670D01*
X-7655D01*
Y-122670D01*
D02*
G37*
G36*
X-272674Y-122670D02*
X-277681D01*
Y-125670D01*
X-272674D01*
Y-122670D01*
D02*
G37*
G36*
X-278681D02*
X-283689D01*
Y-125670D01*
X-278681D01*
Y-122670D01*
D02*
G37*
G36*
X-292555Y-128670D02*
X-297563D01*
Y-131670D01*
X-292555D01*
Y-128670D01*
D02*
G37*
G36*
X-298563D02*
X-303571D01*
Y-131670D01*
X-298563D01*
Y-128670D01*
D02*
G37*
G36*
X-1647D02*
X-6655D01*
Y-131670D01*
X-1647D01*
Y-128670D01*
D02*
G37*
G36*
X-7655D02*
X-12663D01*
Y-131670D01*
X-7655D01*
Y-128670D01*
D02*
G37*
G36*
X-272674D02*
X-277681D01*
Y-131670D01*
X-272674D01*
Y-128670D01*
D02*
G37*
G36*
X-278681D02*
X-283689D01*
Y-131670D01*
X-278681D01*
Y-128670D01*
D02*
G37*
G36*
X-21529D02*
X-26537D01*
Y-131670D01*
X-21529D01*
Y-128670D01*
D02*
G37*
G36*
X-27537D02*
X-32545D01*
Y-131670D01*
X-27537D01*
Y-128670D01*
D02*
G37*
G36*
X-222355Y-130439D02*
X-226201D01*
Y-133104D01*
X-222355D01*
Y-130439D01*
D02*
G37*
G36*
X-227201D02*
X-231047D01*
Y-133104D01*
X-227201D01*
Y-130439D01*
D02*
G37*
G36*
X-1647Y-132670D02*
X-6655D01*
Y-135670D01*
X-1647D01*
Y-132670D01*
D02*
G37*
G36*
X-7655D02*
X-12663D01*
Y-135670D01*
X-7655D01*
Y-132670D01*
D02*
G37*
G36*
X-21529Y-132670D02*
X-26537D01*
Y-135670D01*
X-21529D01*
Y-132670D01*
D02*
G37*
G36*
X-27537D02*
X-32545D01*
Y-135670D01*
X-27537D01*
Y-132670D01*
D02*
G37*
G36*
X-272674Y-132670D02*
X-277681D01*
Y-135670D01*
X-272674D01*
Y-132670D01*
D02*
G37*
G36*
X-278681D02*
X-283689D01*
Y-135670D01*
X-278681D01*
Y-132670D01*
D02*
G37*
G36*
X-292555Y-132670D02*
X-297563D01*
Y-135670D01*
X-292555D01*
Y-132670D01*
D02*
G37*
G36*
X-298563D02*
X-303571D01*
Y-135670D01*
X-298563D01*
Y-132670D01*
D02*
G37*
G36*
X-212230Y-120166D02*
X-215986D01*
Y-124709D01*
X-215128D01*
Y-131833D01*
X-215050Y-132223D01*
X-215002Y-132295D01*
Y-136270D01*
X-207309D01*
Y-130939D01*
X-213088D01*
Y-124709D01*
X-212230D01*
Y-120166D01*
D02*
G37*
G36*
X-222355Y-134104D02*
X-226201D01*
Y-136770D01*
X-222355D01*
Y-134104D01*
D02*
G37*
G36*
X-227201D02*
X-231047D01*
Y-136770D01*
X-227201D01*
Y-134104D01*
D02*
G37*
G36*
X-134677Y-133569D02*
X-139469D01*
Y-138419D01*
X-134677D01*
Y-133569D01*
D02*
G37*
G36*
X-140469D02*
X-145262D01*
Y-138419D01*
X-140469D01*
Y-133569D01*
D02*
G37*
G36*
X-292555Y-138670D02*
X-297563D01*
Y-141670D01*
X-292555D01*
Y-138670D01*
D02*
G37*
G36*
X-298563D02*
X-303571D01*
Y-141670D01*
X-298563D01*
Y-138670D01*
D02*
G37*
G36*
X-1647D02*
X-6655D01*
Y-141670D01*
X-1647D01*
Y-138670D01*
D02*
G37*
G36*
X-7655D02*
X-12663D01*
Y-141670D01*
X-7655D01*
Y-138670D01*
D02*
G37*
G36*
X-272674D02*
X-277681D01*
Y-141670D01*
X-272674D01*
Y-138670D01*
D02*
G37*
G36*
X-278681D02*
X-283689D01*
Y-141670D01*
X-278681D01*
Y-138670D01*
D02*
G37*
G36*
X-21529D02*
X-26537D01*
Y-141670D01*
X-21529D01*
Y-138670D01*
D02*
G37*
G36*
X-27537D02*
X-32545D01*
Y-141670D01*
X-27537D01*
Y-138670D01*
D02*
G37*
G36*
X-191151Y-133526D02*
X-194251D01*
Y-142084D01*
X-195382Y-143215D01*
X-207309D01*
Y-141569D01*
X-215002D01*
Y-143215D01*
X-222854D01*
Y-141569D01*
X-230547D01*
Y-146900D01*
X-222854D01*
Y-145254D01*
X-215002D01*
Y-146900D01*
X-207309D01*
Y-145254D01*
X-194960D01*
X-194569Y-145176D01*
X-194239Y-144955D01*
X-192809Y-143526D01*
X-191151D01*
Y-133526D01*
D02*
G37*
G36*
X-181151D02*
X-184251D01*
Y-143526D01*
X-181151D01*
Y-133526D01*
D02*
G37*
G36*
X-134677Y-139419D02*
X-139469D01*
Y-144270D01*
X-134677D01*
Y-139419D01*
D02*
G37*
G36*
X-1647Y-142670D02*
X-6655D01*
Y-145670D01*
X-1647D01*
Y-142670D01*
D02*
G37*
G36*
X-7655D02*
X-12663D01*
Y-145670D01*
X-7655D01*
Y-142670D01*
D02*
G37*
G36*
X-21529Y-142670D02*
X-26537D01*
Y-145670D01*
X-21529D01*
Y-142670D01*
D02*
G37*
G36*
X-27537D02*
X-32545D01*
Y-145670D01*
X-27537D01*
Y-142670D01*
D02*
G37*
G36*
X-272674Y-142670D02*
X-277681D01*
Y-145670D01*
X-272674D01*
Y-142670D01*
D02*
G37*
G36*
X-278681D02*
X-283689D01*
Y-145670D01*
X-278681D01*
Y-142670D01*
D02*
G37*
G36*
X-292555Y-142670D02*
X-297563D01*
Y-145670D01*
X-292555D01*
Y-142670D01*
D02*
G37*
G36*
X-298563D02*
X-303571D01*
Y-145670D01*
X-298563D01*
Y-142670D01*
D02*
G37*
G36*
X-292555Y-148670D02*
X-297563D01*
Y-151670D01*
X-292555D01*
Y-148670D01*
D02*
G37*
G36*
X-298563D02*
X-303571D01*
Y-151670D01*
X-298563D01*
Y-148670D01*
D02*
G37*
G36*
X-1647D02*
X-6655D01*
Y-151670D01*
X-1647D01*
Y-148670D01*
D02*
G37*
G36*
X-7655D02*
X-12663D01*
Y-151670D01*
X-7655D01*
Y-148670D01*
D02*
G37*
G36*
X-272674D02*
X-277681D01*
Y-151670D01*
X-272674D01*
Y-148670D01*
D02*
G37*
G36*
X-278681D02*
X-283689D01*
Y-151670D01*
X-278681D01*
Y-148670D01*
D02*
G37*
G36*
X-21529D02*
X-26537D01*
Y-151670D01*
X-21529D01*
Y-148670D01*
D02*
G37*
G36*
X-27537D02*
X-32545D01*
Y-151670D01*
X-27537D01*
Y-148670D01*
D02*
G37*
G36*
X-1647Y-152670D02*
X-6655D01*
Y-155670D01*
X-1647D01*
Y-152670D01*
D02*
G37*
G36*
X-7655D02*
X-12663D01*
Y-155670D01*
X-7655D01*
Y-152670D01*
D02*
G37*
G36*
X-21529Y-152670D02*
X-26537D01*
Y-155670D01*
X-21529D01*
Y-152670D01*
D02*
G37*
G36*
X-27537D02*
X-32545D01*
Y-155670D01*
X-27537D01*
Y-152670D01*
D02*
G37*
G36*
X-272674Y-152670D02*
X-277681D01*
Y-155670D01*
X-272674D01*
Y-152670D01*
D02*
G37*
G36*
X-278681D02*
X-283689D01*
Y-155670D01*
X-278681D01*
Y-152670D01*
D02*
G37*
G36*
X-292555Y-152670D02*
X-297563D01*
Y-155670D01*
X-292555D01*
Y-152670D01*
D02*
G37*
G36*
X-298563D02*
X-303571D01*
Y-155670D01*
X-298563D01*
Y-152670D01*
D02*
G37*
G36*
X-292555Y-158670D02*
X-297563D01*
Y-161670D01*
X-292555D01*
Y-158670D01*
D02*
G37*
G36*
X-298563D02*
X-303571D01*
Y-161670D01*
X-298563D01*
Y-158670D01*
D02*
G37*
G36*
X-1647D02*
X-6655D01*
Y-161670D01*
X-1647D01*
Y-158670D01*
D02*
G37*
G36*
X-7655D02*
X-12663D01*
Y-161670D01*
X-7655D01*
Y-158670D01*
D02*
G37*
G36*
X-272674D02*
X-277681D01*
Y-161670D01*
X-272674D01*
Y-158670D01*
D02*
G37*
G36*
X-278681D02*
X-283689D01*
Y-161670D01*
X-278681D01*
Y-158670D01*
D02*
G37*
G36*
X-21529D02*
X-26537D01*
Y-161670D01*
X-21529D01*
Y-158670D01*
D02*
G37*
G36*
X-27537D02*
X-32545D01*
Y-161670D01*
X-27537D01*
Y-158670D01*
D02*
G37*
G36*
X-153173Y-158687D02*
X-153829D01*
X-154436Y-158939D01*
X-154900Y-159403D01*
X-154957Y-159541D01*
X-155186Y-159587D01*
X-155516Y-159808D01*
X-157881Y-162172D01*
X-164132D01*
Y-163818D01*
X-171901D01*
Y-162662D01*
X-183501D01*
Y-167012D01*
X-178720D01*
Y-167648D01*
X-181543Y-170471D01*
X-182079D01*
X-182686Y-170722D01*
X-183150Y-171186D01*
X-183401Y-171793D01*
Y-172449D01*
X-183150Y-173056D01*
X-182686Y-173520D01*
X-182079Y-173771D01*
X-181423D01*
X-180816Y-173520D01*
X-180352Y-173056D01*
X-180101Y-172449D01*
Y-171913D01*
X-176980Y-168792D01*
X-176759Y-168461D01*
X-176681Y-168071D01*
Y-167012D01*
X-171901D01*
Y-165857D01*
X-164132D01*
Y-167503D01*
X-156439D01*
Y-163614D01*
X-154498Y-161673D01*
X-154436Y-161736D01*
X-153829Y-161987D01*
X-153173D01*
X-152566Y-161736D01*
X-152102Y-161272D01*
X-151851Y-160666D01*
Y-160009D01*
X-152102Y-159403D01*
X-152566Y-158939D01*
X-153173Y-158687D01*
D02*
G37*
G36*
X-1647Y-162670D02*
X-6655D01*
Y-165670D01*
X-1647D01*
Y-162670D01*
D02*
G37*
G36*
X-7655D02*
X-12663D01*
Y-165670D01*
X-7655D01*
Y-162670D01*
D02*
G37*
G36*
X-21529Y-162670D02*
X-26537D01*
Y-165670D01*
X-21529D01*
Y-162670D01*
D02*
G37*
G36*
X-27537D02*
X-32545D01*
Y-165670D01*
X-27537D01*
Y-162670D01*
D02*
G37*
G36*
X-272674Y-162670D02*
X-277681D01*
Y-165670D01*
X-272674D01*
Y-162670D01*
D02*
G37*
G36*
X-278681D02*
X-283689D01*
Y-165670D01*
X-278681D01*
Y-162670D01*
D02*
G37*
G36*
X-292555Y-162670D02*
X-297563D01*
Y-165670D01*
X-292555D01*
Y-162670D01*
D02*
G37*
G36*
X-298563D02*
X-303571D01*
Y-165670D01*
X-298563D01*
Y-162670D01*
D02*
G37*
G36*
X-292555Y-168670D02*
X-297563D01*
Y-171670D01*
X-292555D01*
Y-168670D01*
D02*
G37*
G36*
X-298563D02*
X-303571D01*
Y-171670D01*
X-298563D01*
Y-168670D01*
D02*
G37*
G36*
X-1647D02*
X-6655D01*
Y-171670D01*
X-1647D01*
Y-168670D01*
D02*
G37*
G36*
X-7655D02*
X-12663D01*
Y-171670D01*
X-7655D01*
Y-168670D01*
D02*
G37*
G36*
X-272674D02*
X-277681D01*
Y-171670D01*
X-272674D01*
Y-168670D01*
D02*
G37*
G36*
X-278681D02*
X-283689D01*
Y-171670D01*
X-278681D01*
Y-168670D01*
D02*
G37*
G36*
X-21529D02*
X-26537D01*
Y-171670D01*
X-21529D01*
Y-168670D01*
D02*
G37*
G36*
X-27537D02*
X-32545D01*
Y-171670D01*
X-27537D01*
Y-168670D01*
D02*
G37*
G36*
X-155939Y-172302D02*
X-159785D01*
Y-174967D01*
X-155939D01*
Y-172302D01*
D02*
G37*
G36*
X-160785D02*
X-164632D01*
Y-174967D01*
X-160785D01*
Y-172302D01*
D02*
G37*
G36*
X-1647Y-172670D02*
X-6655D01*
Y-175670D01*
X-1647D01*
Y-172670D01*
D02*
G37*
G36*
X-7655D02*
X-12663D01*
Y-175670D01*
X-7655D01*
Y-172670D01*
D02*
G37*
G36*
X-21529Y-172670D02*
X-26537D01*
Y-175670D01*
X-21529D01*
Y-172670D01*
D02*
G37*
G36*
X-27537D02*
X-32545D01*
Y-175670D01*
X-27537D01*
Y-172670D01*
D02*
G37*
G36*
X-272674Y-172670D02*
X-277681D01*
Y-175670D01*
X-272674D01*
Y-172670D01*
D02*
G37*
G36*
X-278681D02*
X-283689D01*
Y-175670D01*
X-278681D01*
Y-172670D01*
D02*
G37*
G36*
X-292555Y-172670D02*
X-297563D01*
Y-175670D01*
X-292555D01*
Y-172670D01*
D02*
G37*
G36*
X-298563D02*
X-303571D01*
Y-175670D01*
X-298563D01*
Y-172670D01*
D02*
G37*
G36*
X-92114Y-155445D02*
X-113714D01*
Y-176345D01*
X-92114D01*
Y-155445D01*
D02*
G37*
G36*
X-114714D02*
X-136314D01*
Y-176345D01*
X-114714D01*
Y-155445D01*
D02*
G37*
G36*
X-155939Y-175967D02*
X-159785D01*
Y-178633D01*
X-155939D01*
Y-175967D01*
D02*
G37*
G36*
X-160785D02*
X-164632D01*
Y-178633D01*
X-160785D01*
Y-175967D01*
D02*
G37*
G36*
X-292555Y-178670D02*
X-297563D01*
Y-181670D01*
X-292555D01*
Y-178670D01*
D02*
G37*
G36*
X-298563D02*
X-303571D01*
Y-181670D01*
X-298563D01*
Y-178670D01*
D02*
G37*
G36*
X-1647D02*
X-6655D01*
Y-181670D01*
X-1647D01*
Y-178670D01*
D02*
G37*
G36*
X-7655D02*
X-12663D01*
Y-181670D01*
X-7655D01*
Y-178670D01*
D02*
G37*
G36*
X-272674D02*
X-277681D01*
Y-181670D01*
X-272674D01*
Y-178670D01*
D02*
G37*
G36*
X-278681D02*
X-283689D01*
Y-181670D01*
X-278681D01*
Y-178670D01*
D02*
G37*
G36*
X-21529D02*
X-26537D01*
Y-181670D01*
X-21529D01*
Y-178670D01*
D02*
G37*
G36*
X-27537D02*
X-32545D01*
Y-181670D01*
X-27537D01*
Y-178670D01*
D02*
G37*
G36*
X-1647Y-182670D02*
X-6655D01*
Y-185670D01*
X-1647D01*
Y-182670D01*
D02*
G37*
G36*
X-7655D02*
X-12663D01*
Y-185670D01*
X-7655D01*
Y-182670D01*
D02*
G37*
G36*
X-21529Y-182670D02*
X-26537D01*
Y-185670D01*
X-21529D01*
Y-182670D01*
D02*
G37*
G36*
X-27537D02*
X-32545D01*
Y-185670D01*
X-27537D01*
Y-182670D01*
D02*
G37*
G36*
X-272674Y-182670D02*
X-277681D01*
Y-185670D01*
X-272674D01*
Y-182670D01*
D02*
G37*
G36*
X-278681D02*
X-283689D01*
Y-185670D01*
X-278681D01*
Y-182670D01*
D02*
G37*
G36*
X-292555Y-182670D02*
X-297563D01*
Y-185670D01*
X-292555D01*
Y-182670D01*
D02*
G37*
G36*
X-298563D02*
X-303571D01*
Y-185670D01*
X-298563D01*
Y-182670D01*
D02*
G37*
G36*
X-292555Y-188670D02*
X-297563D01*
Y-191670D01*
X-292555D01*
Y-188670D01*
D02*
G37*
G36*
X-298563D02*
X-303571D01*
Y-191670D01*
X-298563D01*
Y-188670D01*
D02*
G37*
G36*
X-1647D02*
X-6655D01*
Y-191670D01*
X-1647D01*
Y-188670D01*
D02*
G37*
G36*
X-7655D02*
X-12663D01*
Y-191670D01*
X-7655D01*
Y-188670D01*
D02*
G37*
G36*
X-272674D02*
X-277681D01*
Y-191670D01*
X-272674D01*
Y-188670D01*
D02*
G37*
G36*
X-278681D02*
X-283689D01*
Y-191670D01*
X-278681D01*
Y-188670D01*
D02*
G37*
G36*
X-21529D02*
X-26537D01*
Y-191670D01*
X-21529D01*
Y-188670D01*
D02*
G37*
G36*
X-27537D02*
X-32545D01*
Y-191670D01*
X-27537D01*
Y-188670D01*
D02*
G37*
G36*
X-1647Y-192670D02*
X-6655D01*
Y-195670D01*
X-1647D01*
Y-192670D01*
D02*
G37*
G36*
X-7655D02*
X-12663D01*
Y-195670D01*
X-7655D01*
Y-192670D01*
D02*
G37*
G36*
X-21529Y-192670D02*
X-26537D01*
Y-195670D01*
X-21529D01*
Y-192670D01*
D02*
G37*
G36*
X-27537D02*
X-32545D01*
Y-195670D01*
X-27537D01*
Y-192670D01*
D02*
G37*
G36*
X-272674Y-192670D02*
X-277681D01*
Y-195670D01*
X-272674D01*
Y-192670D01*
D02*
G37*
G36*
X-278681D02*
X-283689D01*
Y-195670D01*
X-278681D01*
Y-192670D01*
D02*
G37*
G36*
X-292555Y-192670D02*
X-297563D01*
Y-195670D01*
X-292555D01*
Y-192670D01*
D02*
G37*
G36*
X-298563D02*
X-303571D01*
Y-195670D01*
X-298563D01*
Y-192670D01*
D02*
G37*
G36*
X-92114Y-177345D02*
X-113714D01*
Y-198245D01*
X-92114D01*
Y-177345D01*
D02*
G37*
G36*
X-114714D02*
X-136314D01*
Y-198245D01*
X-114714D01*
Y-177345D01*
D02*
G37*
G36*
X-292555Y-198670D02*
X-297563D01*
Y-201670D01*
X-292555D01*
Y-198670D01*
D02*
G37*
G36*
X-298563D02*
X-303571D01*
Y-201670D01*
X-298563D01*
Y-198670D01*
D02*
G37*
G36*
X-1647D02*
X-6655D01*
Y-201670D01*
X-1647D01*
Y-198670D01*
D02*
G37*
G36*
X-7655D02*
X-12663D01*
Y-201670D01*
X-7655D01*
Y-198670D01*
D02*
G37*
G36*
X-272674D02*
X-277681D01*
Y-201670D01*
X-272674D01*
Y-198670D01*
D02*
G37*
G36*
X-278681D02*
X-283689D01*
Y-201670D01*
X-278681D01*
Y-198670D01*
D02*
G37*
G36*
X-21529D02*
X-26537D01*
Y-201670D01*
X-21529D01*
Y-198670D01*
D02*
G37*
G36*
X-27537D02*
X-32545D01*
Y-201670D01*
X-27537D01*
Y-198670D01*
D02*
G37*
G36*
X-78569Y-199472D02*
X-82416D01*
Y-202137D01*
X-78569D01*
Y-199472D01*
D02*
G37*
G36*
X-83416D02*
X-87262D01*
Y-202137D01*
X-83416D01*
Y-199472D01*
D02*
G37*
G36*
X-1647Y-202670D02*
X-6655D01*
Y-205670D01*
X-1647D01*
Y-202670D01*
D02*
G37*
G36*
X-7655D02*
X-12663D01*
Y-205670D01*
X-7655D01*
Y-202670D01*
D02*
G37*
G36*
X-21529Y-202670D02*
X-26537D01*
Y-205670D01*
X-21529D01*
Y-202670D01*
D02*
G37*
G36*
X-27537D02*
X-32545D01*
Y-205670D01*
X-27537D01*
Y-202670D01*
D02*
G37*
G36*
X-272674Y-202670D02*
X-277681D01*
Y-205670D01*
X-272674D01*
Y-202670D01*
D02*
G37*
G36*
X-278681D02*
X-283689D01*
Y-205670D01*
X-278681D01*
Y-202670D01*
D02*
G37*
G36*
X-292555Y-202670D02*
X-297563D01*
Y-205670D01*
X-292555D01*
Y-202670D01*
D02*
G37*
G36*
X-298563D02*
X-303571D01*
Y-205670D01*
X-298563D01*
Y-202670D01*
D02*
G37*
G36*
X-78569Y-203137D02*
X-82416D01*
Y-205803D01*
X-78569D01*
Y-203137D01*
D02*
G37*
G36*
X-83416D02*
X-87262D01*
Y-205803D01*
X-83416D01*
Y-203137D01*
D02*
G37*
G36*
X-292555Y-208670D02*
X-297563D01*
Y-211670D01*
X-292555D01*
Y-208670D01*
D02*
G37*
G36*
X-298563D02*
X-303571D01*
Y-211670D01*
X-298563D01*
Y-208670D01*
D02*
G37*
G36*
X-1647D02*
X-6655D01*
Y-211670D01*
X-1647D01*
Y-208670D01*
D02*
G37*
G36*
X-7655D02*
X-12663D01*
Y-211670D01*
X-7655D01*
Y-208670D01*
D02*
G37*
G36*
X-272674D02*
X-277681D01*
Y-211670D01*
X-272674D01*
Y-208670D01*
D02*
G37*
G36*
X-278681D02*
X-283689D01*
Y-211670D01*
X-278681D01*
Y-208670D01*
D02*
G37*
G36*
X-21529D02*
X-26537D01*
Y-211670D01*
X-21529D01*
Y-208670D01*
D02*
G37*
G36*
X-27537D02*
X-32545D01*
Y-211670D01*
X-27537D01*
Y-208670D01*
D02*
G37*
G36*
X-139359Y-211677D02*
X-143206D01*
Y-214342D01*
X-139359D01*
Y-211677D01*
D02*
G37*
G36*
X-144206D02*
X-148052D01*
Y-214342D01*
X-144206D01*
Y-211677D01*
D02*
G37*
G36*
X-111314Y-206945D02*
X-113714D01*
Y-214345D01*
X-111314D01*
Y-206945D01*
D02*
G37*
G36*
X-114714D02*
X-117114D01*
Y-214345D01*
X-114714D01*
Y-206945D01*
D02*
G37*
G36*
X-1647Y-212670D02*
X-6655D01*
Y-215670D01*
X-1647D01*
Y-212670D01*
D02*
G37*
G36*
X-7655D02*
X-12663D01*
Y-215670D01*
X-7655D01*
Y-212670D01*
D02*
G37*
G36*
X-21529Y-212670D02*
X-26537D01*
Y-215670D01*
X-21529D01*
Y-212670D01*
D02*
G37*
G36*
X-27537D02*
X-32545D01*
Y-215670D01*
X-27537D01*
Y-212670D01*
D02*
G37*
G36*
X-272674Y-212670D02*
X-277681D01*
Y-215670D01*
X-272674D01*
Y-212670D01*
D02*
G37*
G36*
X-278681D02*
X-283689D01*
Y-215670D01*
X-278681D01*
Y-212670D01*
D02*
G37*
G36*
X-292555Y-212670D02*
X-297563D01*
Y-215670D01*
X-292555D01*
Y-212670D01*
D02*
G37*
G36*
X-298563D02*
X-303571D01*
Y-215670D01*
X-298563D01*
Y-212670D01*
D02*
G37*
G36*
X-98428Y-207445D02*
X-103228D01*
Y-222245D01*
X-98428D01*
Y-215865D01*
X-86762D01*
Y-215933D01*
X-79069D01*
Y-214287D01*
X-75872D01*
X-75451Y-214708D01*
Y-214973D01*
X-75200Y-215580D01*
X-74736Y-216044D01*
X-74129Y-216295D01*
X-73473D01*
X-72866Y-216044D01*
X-72402Y-215580D01*
X-72151Y-214973D01*
Y-214317D01*
X-72402Y-213711D01*
X-72866Y-213246D01*
X-73473Y-212995D01*
X-74129D01*
X-74235Y-213039D01*
X-74729Y-212546D01*
X-75059Y-212325D01*
X-75450Y-212248D01*
X-79069D01*
Y-210602D01*
X-86762D01*
Y-213826D01*
X-98428D01*
Y-207445D01*
D02*
G37*
G36*
X-139359Y-215342D02*
X-143206D01*
Y-218007D01*
X-139359D01*
Y-215342D01*
D02*
G37*
G36*
X-144206D02*
X-148052D01*
Y-218007D01*
X-144206D01*
Y-215342D01*
D02*
G37*
G36*
X-292555Y-218670D02*
X-297563D01*
Y-221670D01*
X-292555D01*
Y-218670D01*
D02*
G37*
G36*
X-298563D02*
X-303571D01*
Y-221670D01*
X-298563D01*
Y-218670D01*
D02*
G37*
G36*
X-1647D02*
X-6655D01*
Y-221670D01*
X-1647D01*
Y-218670D01*
D02*
G37*
G36*
X-7655D02*
X-12663D01*
Y-221670D01*
X-7655D01*
Y-218670D01*
D02*
G37*
G36*
X-272674D02*
X-277681D01*
Y-221670D01*
X-272674D01*
Y-218670D01*
D02*
G37*
G36*
X-278681D02*
X-283689D01*
Y-221670D01*
X-278681D01*
Y-218670D01*
D02*
G37*
G36*
X-21529D02*
X-26537D01*
Y-221670D01*
X-21529D01*
Y-218670D01*
D02*
G37*
G36*
X-27537D02*
X-32545D01*
Y-221670D01*
X-27537D01*
Y-218670D01*
D02*
G37*
G36*
X-105121Y-207445D02*
X-109921D01*
Y-222245D01*
X-105121D01*
Y-207445D01*
D02*
G37*
G36*
X-111314Y-215345D02*
X-113714D01*
Y-222745D01*
X-111314D01*
Y-215345D01*
D02*
G37*
G36*
X-1647Y-222670D02*
X-6655D01*
Y-225670D01*
X-1647D01*
Y-222670D01*
D02*
G37*
G36*
X-7655D02*
X-12663D01*
Y-225670D01*
X-7655D01*
Y-222670D01*
D02*
G37*
G36*
X-21529Y-222670D02*
X-26537D01*
Y-225670D01*
X-21529D01*
Y-222670D01*
D02*
G37*
G36*
X-27537D02*
X-32545D01*
Y-225670D01*
X-27537D01*
Y-222670D01*
D02*
G37*
G36*
X-272674Y-222670D02*
X-277681D01*
Y-225670D01*
X-272674D01*
Y-222670D01*
D02*
G37*
G36*
X-278681D02*
X-283689D01*
Y-225670D01*
X-278681D01*
Y-222670D01*
D02*
G37*
G36*
X-292555Y-222670D02*
X-297563D01*
Y-225670D01*
X-292555D01*
Y-222670D01*
D02*
G37*
G36*
X-298563D02*
X-303571D01*
Y-225670D01*
X-298563D01*
Y-222670D01*
D02*
G37*
G36*
X-292555Y-228670D02*
X-297563D01*
Y-231670D01*
X-292555D01*
Y-228670D01*
D02*
G37*
G36*
X-298563D02*
X-303571D01*
Y-231670D01*
X-298563D01*
Y-228670D01*
D02*
G37*
G36*
X-1647D02*
X-6655D01*
Y-231670D01*
X-1647D01*
Y-228670D01*
D02*
G37*
G36*
X-7655D02*
X-12663D01*
Y-231670D01*
X-7655D01*
Y-228670D01*
D02*
G37*
G36*
X-272674D02*
X-277681D01*
Y-231670D01*
X-272674D01*
Y-228670D01*
D02*
G37*
G36*
X-278681D02*
X-283689D01*
Y-231670D01*
X-278681D01*
Y-228670D01*
D02*
G37*
G36*
X-21529D02*
X-26537D01*
Y-231670D01*
X-21529D01*
Y-228670D01*
D02*
G37*
G36*
X-27537D02*
X-32545D01*
Y-231670D01*
X-27537D01*
Y-228670D01*
D02*
G37*
G36*
X-1647Y-232670D02*
X-6655D01*
Y-235670D01*
X-1647D01*
Y-232670D01*
D02*
G37*
G36*
X-7655D02*
X-12663D01*
Y-235670D01*
X-7655D01*
Y-232670D01*
D02*
G37*
G36*
X-21529Y-232670D02*
X-26537D01*
Y-235670D01*
X-21529D01*
Y-232670D01*
D02*
G37*
G36*
X-27537D02*
X-32545D01*
Y-235670D01*
X-27537D01*
Y-232670D01*
D02*
G37*
G36*
X-272674Y-232670D02*
X-277681D01*
Y-235670D01*
X-272674D01*
Y-232670D01*
D02*
G37*
G36*
X-278681D02*
X-283689D01*
Y-235670D01*
X-278681D01*
Y-232670D01*
D02*
G37*
G36*
X-292555Y-232670D02*
X-297563D01*
Y-235670D01*
X-292555D01*
Y-232670D01*
D02*
G37*
G36*
X-298563D02*
X-303571D01*
Y-235670D01*
X-298563D01*
Y-232670D01*
D02*
G37*
G36*
X-292555Y-238670D02*
X-297563D01*
Y-241670D01*
X-292555D01*
Y-238670D01*
D02*
G37*
G36*
X-298563D02*
X-303571D01*
Y-241670D01*
X-298563D01*
Y-238670D01*
D02*
G37*
G36*
X-1647D02*
X-6655D01*
Y-241670D01*
X-1647D01*
Y-238670D01*
D02*
G37*
G36*
X-7655D02*
X-12663D01*
Y-241670D01*
X-7655D01*
Y-238670D01*
D02*
G37*
G36*
X-272674D02*
X-277681D01*
Y-241670D01*
X-272674D01*
Y-238670D01*
D02*
G37*
G36*
X-278681D02*
X-283689D01*
Y-241670D01*
X-278681D01*
Y-238670D01*
D02*
G37*
G36*
X-21529D02*
X-26537D01*
Y-241670D01*
X-21529D01*
Y-238670D01*
D02*
G37*
G36*
X-27537D02*
X-32545D01*
Y-241670D01*
X-27537D01*
Y-238670D01*
D02*
G37*
G36*
X-1647Y-242670D02*
X-6655D01*
Y-245670D01*
X-1647D01*
Y-242670D01*
D02*
G37*
G36*
X-7655D02*
X-12663D01*
Y-245670D01*
X-7655D01*
Y-242670D01*
D02*
G37*
G36*
X-21529Y-242670D02*
X-26537D01*
Y-245670D01*
X-21529D01*
Y-242670D01*
D02*
G37*
G36*
X-27537D02*
X-32545D01*
Y-245670D01*
X-27537D01*
Y-242670D01*
D02*
G37*
G36*
X-272674Y-242670D02*
X-277681D01*
Y-245670D01*
X-272674D01*
Y-242670D01*
D02*
G37*
G36*
X-278681D02*
X-283689D01*
Y-245670D01*
X-278681D01*
Y-242670D01*
D02*
G37*
G36*
X-292555Y-242670D02*
X-297563D01*
Y-245670D01*
X-292555D01*
Y-242670D01*
D02*
G37*
G36*
X-298563D02*
X-303571D01*
Y-245670D01*
X-298563D01*
Y-242670D01*
D02*
G37*
G36*
X-292555Y-248670D02*
X-297563D01*
Y-251670D01*
X-292555D01*
Y-248670D01*
D02*
G37*
G36*
X-298563D02*
X-303571D01*
Y-251670D01*
X-298563D01*
Y-248670D01*
D02*
G37*
G36*
X-1647D02*
X-6655D01*
Y-251670D01*
X-1647D01*
Y-248670D01*
D02*
G37*
G36*
X-7655D02*
X-12663D01*
Y-251670D01*
X-7655D01*
Y-248670D01*
D02*
G37*
G36*
X-272674D02*
X-277681D01*
Y-251670D01*
X-272674D01*
Y-248670D01*
D02*
G37*
G36*
X-278681D02*
X-283689D01*
Y-251670D01*
X-278681D01*
Y-248670D01*
D02*
G37*
G36*
X-21529D02*
X-26537D01*
Y-251670D01*
X-21529D01*
Y-248670D01*
D02*
G37*
G36*
X-27537D02*
X-32545D01*
Y-251670D01*
X-27537D01*
Y-248670D01*
D02*
G37*
G36*
X-1647Y-252670D02*
X-6655D01*
Y-255670D01*
X-1647D01*
Y-252670D01*
D02*
G37*
G36*
X-7655D02*
X-12663D01*
Y-255670D01*
X-7655D01*
Y-252670D01*
D02*
G37*
G36*
X-21529Y-252670D02*
X-26537D01*
Y-255670D01*
X-21529D01*
Y-252670D01*
D02*
G37*
G36*
X-27537D02*
X-32545D01*
Y-255670D01*
X-27537D01*
Y-252670D01*
D02*
G37*
G36*
X-272674Y-252670D02*
X-277681D01*
Y-255670D01*
X-272674D01*
Y-252670D01*
D02*
G37*
G36*
X-278681D02*
X-283689D01*
Y-255670D01*
X-278681D01*
Y-252670D01*
D02*
G37*
G36*
X-292555Y-252670D02*
X-297563D01*
Y-255670D01*
X-292555D01*
Y-252670D01*
D02*
G37*
G36*
X-298563D02*
X-303571D01*
Y-255670D01*
X-298563D01*
Y-252670D01*
D02*
G37*
G36*
X-118507Y-207445D02*
X-123307D01*
Y-222245D01*
X-119949D01*
X-109242Y-232952D01*
X-108912Y-233173D01*
X-108521Y-233251D01*
X-88079D01*
Y-243845D01*
Y-256444D01*
X-66803D01*
Y-243845D01*
Y-231231D01*
X-86980D01*
X-87079Y-231211D01*
X-108099D01*
X-116103Y-223207D01*
X-115912Y-222745D01*
X-114714D01*
Y-215345D01*
X-117114D01*
Y-221543D01*
X-117576Y-221734D01*
X-118507Y-220803D01*
Y-207445D01*
D02*
G37*
G36*
X-186151Y-133526D02*
X-189251D01*
Y-143526D01*
X-188721D01*
Y-201147D01*
X-218805Y-231231D01*
X-238639D01*
Y-243845D01*
Y-256444D01*
X-217363D01*
Y-243845D01*
Y-232673D01*
X-186980Y-202290D01*
X-186759Y-201959D01*
X-186681Y-201569D01*
Y-143526D01*
X-186151D01*
Y-133526D01*
D02*
G37*
G36*
X11541Y-250487D02*
X10106D01*
X8720Y-250859D01*
X7477Y-251576D01*
X6462Y-252591D01*
X5745Y-253834D01*
X5373Y-255220D01*
Y-256655D01*
X5745Y-258041D01*
X6462Y-259284D01*
X7477Y-260299D01*
X8720Y-261016D01*
X10106Y-261387D01*
X11541D01*
X12927Y-261016D01*
X14170Y-260299D01*
X15184Y-259284D01*
X15902Y-258041D01*
X16273Y-256655D01*
Y-255220D01*
X15902Y-253834D01*
X15184Y-252591D01*
X14170Y-251576D01*
X12927Y-250859D01*
X11541Y-250487D01*
D02*
G37*
G36*
X-315323D02*
X-316758D01*
X-318144Y-250859D01*
X-319387Y-251576D01*
X-320402Y-252591D01*
X-321119Y-253834D01*
X-321491Y-255220D01*
Y-256655D01*
X-321119Y-258041D01*
X-320402Y-259284D01*
X-319387Y-260299D01*
X-318144Y-261016D01*
X-316758Y-261387D01*
X-315323D01*
X-313937Y-261016D01*
X-312694Y-260299D01*
X-311680Y-259284D01*
X-310962Y-258041D01*
X-310591Y-256655D01*
Y-255220D01*
X-310962Y-253834D01*
X-311680Y-252591D01*
X-312694Y-251576D01*
X-313937Y-250859D01*
X-315323Y-250487D01*
D02*
G37*
G36*
X-292555Y-258670D02*
X-297563D01*
Y-261670D01*
X-292555D01*
Y-258670D01*
D02*
G37*
G36*
X-298563D02*
X-303571D01*
Y-261670D01*
X-298563D01*
Y-258670D01*
D02*
G37*
G36*
X-1647D02*
X-6655D01*
Y-261670D01*
X-1647D01*
Y-258670D01*
D02*
G37*
G36*
X-7655D02*
X-12663D01*
Y-261670D01*
X-7655D01*
Y-258670D01*
D02*
G37*
G36*
X-272674D02*
X-277681D01*
Y-261670D01*
X-272674D01*
Y-258670D01*
D02*
G37*
G36*
X-278681D02*
X-283689D01*
Y-261670D01*
X-278681D01*
Y-258670D01*
D02*
G37*
G36*
X-21529D02*
X-26537D01*
Y-261670D01*
X-21529D01*
Y-258670D01*
D02*
G37*
G36*
X-27537D02*
X-32545D01*
Y-261670D01*
X-27537D01*
Y-258670D01*
D02*
G37*
G36*
X-1647Y-262670D02*
X-6655D01*
Y-265670D01*
X-1647D01*
Y-262670D01*
D02*
G37*
G36*
X-7655D02*
X-12663D01*
Y-265670D01*
X-7655D01*
Y-262670D01*
D02*
G37*
G36*
X-21529Y-262670D02*
X-26537D01*
Y-265670D01*
X-21529D01*
Y-262670D01*
D02*
G37*
G36*
X-27537D02*
X-32545D01*
Y-265670D01*
X-27537D01*
Y-262670D01*
D02*
G37*
G36*
X-272674Y-262670D02*
X-277681D01*
Y-265670D01*
X-272674D01*
Y-262670D01*
D02*
G37*
G36*
X-278681D02*
X-283689D01*
Y-265670D01*
X-278681D01*
Y-262670D01*
D02*
G37*
G36*
X-292555Y-262670D02*
X-297563D01*
Y-265670D01*
X-292555D01*
Y-262670D01*
D02*
G37*
G36*
X-298563D02*
X-303571D01*
Y-265670D01*
X-298563D01*
Y-262670D01*
D02*
G37*
G36*
X-266973Y-265787D02*
X-267629D01*
X-268236Y-266039D01*
X-268700Y-266503D01*
X-268951Y-267109D01*
Y-267645D01*
X-270723Y-269418D01*
X-273174D01*
Y-269170D01*
X-283189D01*
Y-275170D01*
X-273174D01*
Y-271457D01*
X-270301D01*
X-269911Y-271379D01*
X-269580Y-271158D01*
X-267509Y-269087D01*
X-266973D01*
X-266366Y-268836D01*
X-265902Y-268372D01*
X-265651Y-267766D01*
Y-267109D01*
X-265902Y-266503D01*
X-266366Y-266039D01*
X-266973Y-265787D01*
D02*
G37*
G36*
X-292555Y-268670D02*
X-297563D01*
Y-271670D01*
X-292555D01*
Y-268670D01*
D02*
G37*
G36*
X-298563D02*
X-303571D01*
Y-271670D01*
X-298563D01*
Y-268670D01*
D02*
G37*
G36*
X-1647D02*
X-6655D01*
Y-271670D01*
X-1647D01*
Y-268670D01*
D02*
G37*
G36*
X-7655D02*
X-12663D01*
Y-271670D01*
X-7655D01*
Y-268670D01*
D02*
G37*
G36*
X-21529D02*
X-26537D01*
Y-271670D01*
X-21529D01*
Y-268670D01*
D02*
G37*
G36*
X-27537D02*
X-32545D01*
Y-271670D01*
X-27537D01*
Y-268670D01*
D02*
G37*
G36*
X-1647Y-272670D02*
X-6655D01*
Y-275670D01*
X-1647D01*
Y-272670D01*
D02*
G37*
G36*
X-7655D02*
X-12663D01*
Y-275670D01*
X-7655D01*
Y-272670D01*
D02*
G37*
G36*
X-292555Y-272670D02*
X-297563D01*
Y-275670D01*
X-292555D01*
Y-272670D01*
D02*
G37*
G36*
X-298563D02*
X-303571D01*
Y-275670D01*
X-298563D01*
Y-272670D01*
D02*
G37*
G36*
X-216863Y-278531D02*
X-222186D01*
Y-284838D01*
X-216863D01*
Y-278531D01*
D02*
G37*
G36*
X-233816D02*
X-239139D01*
Y-284838D01*
X-233816D01*
Y-278531D01*
D02*
G37*
G36*
X-141429Y-177165D02*
X-145973D01*
Y-180921D01*
X-144725D01*
Y-201547D01*
X-147552D01*
Y-206877D01*
X-141301D01*
X-132612Y-215566D01*
X-132282Y-215787D01*
X-131892Y-215865D01*
X-130000D01*
Y-222245D01*
X-128620D01*
Y-239670D01*
X-128542Y-240060D01*
X-128321Y-240391D01*
X-88239Y-280473D01*
Y-291645D01*
Y-304244D01*
X-66963D01*
Y-291645D01*
Y-279031D01*
X-86797D01*
X-126581Y-239247D01*
Y-222245D01*
X-125200D01*
Y-207445D01*
X-130000D01*
Y-213826D01*
X-131469D01*
X-139859Y-205436D01*
Y-201547D01*
X-142686D01*
Y-180921D01*
X-141429D01*
Y-177165D01*
D02*
G37*
G36*
X-216863Y-298437D02*
X-222186D01*
Y-304744D01*
X-216863D01*
Y-298437D01*
D02*
G37*
G36*
X-223186Y-278531D02*
X-232816D01*
Y-285338D01*
X-233316D01*
Y-285838D01*
X-239139D01*
Y-292145D01*
Y-297437D01*
X-233316D01*
Y-297937D01*
X-232816D01*
Y-304744D01*
X-223186D01*
Y-297937D01*
X-222686D01*
Y-297437D01*
X-216863D01*
Y-292145D01*
Y-285838D01*
X-222686D01*
Y-285338D01*
X-223186D01*
Y-278531D01*
D02*
G37*
G36*
X-233816Y-298437D02*
X-239139D01*
Y-304744D01*
X-233816D01*
Y-298437D01*
D02*
G37*
G36*
X-21529Y-272670D02*
X-27037D01*
X-32545D01*
Y-275670D01*
X-29160D01*
Y-302222D01*
X-38307Y-311369D01*
X-38377Y-311328D01*
X-39706Y-310972D01*
X-39893D01*
Y-315695D01*
X-35171D01*
Y-315507D01*
X-35527Y-314179D01*
X-35567Y-314108D01*
X-25853Y-304394D01*
X-25433Y-303766D01*
X-25286Y-303024D01*
Y-275670D01*
X-21529D01*
Y-272670D01*
D02*
G37*
G36*
X-40893Y-310972D02*
X-41081D01*
X-42409Y-311328D01*
X-43600Y-312016D01*
X-44572Y-312988D01*
X-45260Y-314179D01*
X-45616Y-315507D01*
Y-315695D01*
X-40893D01*
Y-310972D01*
D02*
G37*
G36*
X-114509D02*
X-114696D01*
Y-315695D01*
X-109974D01*
Y-315507D01*
X-110330Y-314179D01*
X-111017Y-312988D01*
X-111990Y-312016D01*
X-113181Y-311328D01*
X-114509Y-310972D01*
D02*
G37*
G36*
X-115696D02*
X-115884D01*
X-117212Y-311328D01*
X-118403Y-312016D01*
X-119375Y-312988D01*
X-120063Y-314179D01*
X-120419Y-315507D01*
Y-315695D01*
X-115696D01*
Y-310972D01*
D02*
G37*
G36*
X-189378Y-311472D02*
X-190621D01*
X-191822Y-311794D01*
X-192899Y-312416D01*
X-193778Y-313295D01*
X-194400Y-314372D01*
X-194722Y-315573D01*
Y-316816D01*
X-194400Y-318018D01*
X-193778Y-319094D01*
X-192899Y-319973D01*
X-191822Y-320595D01*
X-190621Y-320917D01*
X-189378D01*
X-188177Y-320595D01*
X-187100Y-319973D01*
X-186221Y-319094D01*
X-185599Y-318018D01*
X-185277Y-316816D01*
Y-315573D01*
X-185599Y-314372D01*
X-186221Y-313295D01*
X-187100Y-312416D01*
X-188177Y-311794D01*
X-189378Y-311472D01*
D02*
G37*
G36*
X-264181D02*
X-265424D01*
X-266625Y-311794D01*
X-267702Y-312416D01*
X-268582Y-313295D01*
X-269203Y-314372D01*
X-269525Y-315573D01*
Y-316816D01*
X-269203Y-318018D01*
X-268582Y-319094D01*
X-267702Y-319973D01*
X-266625Y-320595D01*
X-265424Y-320917D01*
X-264181D01*
X-262980Y-320595D01*
X-261903Y-319973D01*
X-261024Y-319094D01*
X-260402Y-318018D01*
X-260080Y-316816D01*
Y-315573D01*
X-260402Y-314372D01*
X-261024Y-313295D01*
X-261903Y-312416D01*
X-262980Y-311794D01*
X-264181Y-311472D01*
D02*
G37*
G36*
X-35171Y-316695D02*
X-39893D01*
Y-321417D01*
X-39706D01*
X-38377Y-321061D01*
X-37187Y-320374D01*
X-36214Y-319401D01*
X-35527Y-318210D01*
X-35171Y-316882D01*
Y-316695D01*
D02*
G37*
G36*
X-40893D02*
X-45616D01*
Y-316882D01*
X-45260Y-318210D01*
X-44572Y-319401D01*
X-43600Y-320374D01*
X-42409Y-321061D01*
X-41081Y-321417D01*
X-40893D01*
Y-316695D01*
D02*
G37*
G36*
X-109974D02*
X-114696D01*
Y-321417D01*
X-114509D01*
X-113181Y-321061D01*
X-111990Y-320374D01*
X-111017Y-319401D01*
X-110330Y-318210D01*
X-109974Y-316882D01*
Y-316695D01*
D02*
G37*
G36*
X-115696D02*
X-120419D01*
Y-316882D01*
X-120063Y-318210D01*
X-119375Y-319401D01*
X-118403Y-320374D01*
X-117212Y-321061D01*
X-115884Y-321417D01*
X-115696D01*
Y-316695D01*
D02*
G37*
G36*
X5173Y-326126D02*
X3597D01*
X2051Y-326434D01*
X595Y-327037D01*
X-715Y-327912D01*
X-1829Y-329027D01*
X-2705Y-330337D01*
X-3308Y-331793D01*
X-3615Y-333338D01*
Y-334914D01*
X-3308Y-336460D01*
X-2705Y-337916D01*
X-1829Y-339226D01*
X-715Y-340340D01*
X595Y-341216D01*
X2051Y-341819D01*
X3597Y-342126D01*
X5173D01*
X6718Y-341819D01*
X8174Y-341216D01*
X9485Y-340340D01*
X10599Y-339226D01*
X11474Y-337916D01*
X12077Y-336460D01*
X12385Y-334914D01*
Y-333338D01*
X12077Y-331793D01*
X11474Y-330337D01*
X10599Y-329027D01*
X9485Y-327912D01*
X8174Y-327037D01*
X6718Y-326434D01*
X5173Y-326126D01*
D02*
G37*
G36*
X-308814D02*
X-310390D01*
X-311936Y-326434D01*
X-313392Y-327037D01*
X-314702Y-327912D01*
X-315816Y-329027D01*
X-316692Y-330337D01*
X-317295Y-331793D01*
X-317602Y-333338D01*
Y-334914D01*
X-317295Y-336460D01*
X-316692Y-337916D01*
X-315816Y-339226D01*
X-314702Y-340340D01*
X-313392Y-341216D01*
X-311936Y-341819D01*
X-310390Y-342126D01*
X-308814D01*
X-307269Y-341819D01*
X-305813Y-341216D01*
X-304503Y-340340D01*
X-303388Y-339226D01*
X-302513Y-337916D01*
X-301910Y-336460D01*
X-301602Y-334914D01*
Y-333338D01*
X-301910Y-331793D01*
X-302513Y-330337D01*
X-303388Y-329027D01*
X-304503Y-327912D01*
X-305813Y-327037D01*
X-307269Y-326434D01*
X-308814Y-326126D01*
D02*
G37*
%LPD*%
D12*
X-181751Y-172121D02*
X-177701Y-168071D01*
Y-164837D01*
X-222686Y-236554D02*
X-187701Y-201569D01*
Y-138526D01*
X-159104Y-164837D02*
X-154796Y-160529D01*
X-153692D01*
X-153501Y-160337D01*
X-177701Y-164837D02*
X-160285D01*
X-159104D01*
X-233316Y-250137D02*
X-222686D01*
X-233316D02*
Y-237538D01*
X-222686D01*
Y-236554D01*
X-82756Y-250137D02*
X-72126D01*
Y-237538D01*
X-82756D02*
X-72126D01*
X-82756D02*
Y-236554D01*
X-120907Y-219845D02*
Y-214845D01*
Y-219845D02*
X-108521Y-232231D01*
X-87079D01*
X-82756Y-236554D01*
X-82916Y-285338D02*
Y-284354D01*
X-127600Y-239670D02*
X-82916Y-284354D01*
X-127600Y-239670D02*
Y-214845D01*
X-82916Y-285338D02*
X-72286D01*
Y-297937D02*
Y-285338D01*
X-82916Y-297937D02*
X-72286D01*
X-149347Y-134108D02*
Y-98681D01*
Y-134108D02*
X-149301Y-134155D01*
Y-139645D02*
Y-134155D01*
Y-139645D02*
X-143701Y-145245D01*
X-146182Y-95515D02*
X-145001D01*
X-143701Y-173137D02*
Y-145245D01*
X-149347Y-98681D02*
X-146182Y-95515D01*
X-143706Y-204212D02*
Y-179048D01*
X-143701Y-179043D01*
X-131892Y-214845D02*
X-127600D01*
X-143706Y-204212D02*
X-142525D01*
X-131892Y-214845D01*
X-100829D02*
X-84494D01*
X-82916Y-213267D01*
X-74072Y-214645D02*
X-73801D01*
X-82916Y-213267D02*
X-75450D01*
X-74072Y-214645D01*
X-215880Y-97485D02*
X-214108Y-99257D01*
Y-103586D02*
Y-99257D01*
X-177701Y-154787D02*
Y-138526D01*
X-177307Y-138919D01*
X-154593D01*
X-143701Y-179043D02*
X-143229Y-179515D01*
X-270301Y-270437D02*
X-267301Y-267437D01*
X-277719Y-272437D02*
X-275719Y-270437D01*
X-270301D01*
X-208203Y-113432D02*
X-202909Y-118726D01*
X-208203Y-113432D02*
Y-113038D01*
X-202909Y-118726D02*
X-192701D01*
X-194960Y-144234D02*
X-192701Y-141976D01*
X-211155Y-144234D02*
X-194960D01*
X-192701Y-141976D02*
Y-138526D01*
X-226701Y-144234D02*
X-211155D01*
X-214108Y-131833D02*
Y-122437D01*
Y-131833D02*
X-212336Y-133604D01*
X-211155D01*
X-208203Y-113038D02*
Y-103586D01*
X-177701Y-118726D02*
Y-107097D01*
X-165529Y-94925D01*
X-164348D01*
X-170254Y-90200D02*
X-165529Y-94925D01*
X-170254Y-90200D02*
Y-82699D01*
X-158998D02*
X-146182Y-95515D01*
X-164348Y-82699D02*
X-158998D01*
X-124844Y-86367D02*
Y-75078D01*
Y-86367D02*
X-119529Y-91682D01*
Y-93547D02*
Y-91682D01*
X-132336Y-95515D02*
X-126429Y-89609D01*
X-125329D01*
X-145001Y-95515D02*
X-132336D01*
X-125329Y-91578D02*
Y-89609D01*
Y-93547D02*
Y-91578D01*
Y-95516D02*
Y-93547D01*
Y-97485D02*
Y-95516D01*
X-119529Y-112903D02*
Y-104767D01*
Y-112903D02*
X-118016Y-114416D01*
X-108680D01*
X-102601Y-108337D02*
Y-104964D01*
X-108680Y-114416D02*
X-102601Y-108337D01*
X-125329Y-98967D02*
Y-97485D01*
Y-98967D02*
X-119529Y-104767D01*
X-113729Y-91578D02*
X-110475D01*
X-102995Y-99059D01*
X-102601D01*
X-113729Y-95516D02*
X-112184D01*
X-111129Y-96571D01*
Y-104438D02*
Y-96571D01*
X-114214Y-107523D02*
X-111129Y-104438D01*
X-114214Y-108704D02*
Y-107523D01*
D19*
X-214108Y-122437D02*
D03*
X-208203D02*
D03*
X-214108Y-113038D02*
D03*
X-208203D02*
D03*
Y-103586D02*
D03*
X-170254Y-82699D02*
D03*
X-164348D02*
D03*
X-214108Y-103586D02*
D03*
D21*
X-189739Y-38480D02*
X-160261D01*
X-124844Y-73897D01*
X-40393Y-316195D02*
X-27223Y-303024D01*
Y-272814D01*
X-124844Y-75078D02*
Y-73897D01*
D22*
X-264803Y-38480D02*
D03*
X-40393Y-316195D02*
D03*
X-115196D02*
D03*
X-264803D02*
D03*
X-115197Y-38480D02*
D03*
X-40394D02*
D03*
X-189999Y-316195D02*
D03*
X-190000Y-38480D02*
D03*
D23*
X4385Y-334126D02*
D03*
X10823Y-255938D02*
D03*
Y-98400D02*
D03*
X-316041Y-255938D02*
D03*
X-316041Y-98400D02*
D03*
X-309602Y-334126D02*
D03*
X4385Y-20200D02*
D03*
X-309602D02*
D03*
D24*
X-181751Y-172121D02*
D03*
X-215880Y-97485D02*
D03*
X-153501Y-160337D02*
D03*
X-73801Y-214645D02*
D03*
X-176671Y-325337D02*
D03*
X-267301Y-267437D02*
D03*
D25*
X-160285Y-164837D02*
D03*
Y-175467D02*
D03*
X-226701Y-133604D02*
D03*
Y-144234D02*
D03*
X-211155Y-133604D02*
D03*
Y-144234D02*
D03*
X-82916Y-202637D02*
D03*
X-145001Y-106145D02*
D03*
X-164348Y-105555D02*
D03*
X-143706Y-214842D02*
D03*
X-164348Y-94925D02*
D03*
X-145001Y-95515D02*
D03*
X-143706Y-204212D02*
D03*
X-82916Y-213267D02*
D03*
D26*
X-7155Y-162170D02*
D03*
Y-122170D02*
D03*
Y-142170D02*
D03*
Y-152170D02*
D03*
Y-132170D02*
D03*
Y-212170D02*
D03*
Y-172170D02*
D03*
Y-182170D02*
D03*
X-27037D02*
D03*
X-7155Y-202170D02*
D03*
Y-192170D02*
D03*
X-27037Y-142170D02*
D03*
Y-152170D02*
D03*
Y-132170D02*
D03*
Y-162170D02*
D03*
Y-172170D02*
D03*
Y-192170D02*
D03*
Y-202170D02*
D03*
Y-212170D02*
D03*
X-7155Y-242170D02*
D03*
Y-222170D02*
D03*
X-27037Y-232170D02*
D03*
Y-222170D02*
D03*
X-7155Y-232170D02*
D03*
X-27037Y-252170D02*
D03*
Y-242170D02*
D03*
X-7155Y-272170D02*
D03*
Y-252170D02*
D03*
Y-262170D02*
D03*
X-27037D02*
D03*
Y-272170D02*
D03*
Y-122170D02*
D03*
X-7155Y-112170D02*
D03*
X-27037D02*
D03*
X-7155Y-102170D02*
D03*
X-27037D02*
D03*
X-7155Y-92170D02*
D03*
X-27037D02*
D03*
X-7155Y-82170D02*
D03*
X-27037D02*
D03*
X-298063D02*
D03*
X-278181D02*
D03*
X-298063Y-92170D02*
D03*
X-278181D02*
D03*
X-298063Y-102170D02*
D03*
X-278181D02*
D03*
X-298063Y-112170D02*
D03*
X-278181D02*
D03*
X-298063Y-122170D02*
D03*
X-278181Y-272170D02*
D03*
X-298063Y-262170D02*
D03*
Y-272170D02*
D03*
Y-252170D02*
D03*
Y-232170D02*
D03*
Y-242170D02*
D03*
Y-222170D02*
D03*
Y-212170D02*
D03*
X-278181Y-262170D02*
D03*
Y-252170D02*
D03*
Y-242170D02*
D03*
Y-232170D02*
D03*
Y-202170D02*
D03*
Y-222170D02*
D03*
Y-212170D02*
D03*
X-298063Y-192170D02*
D03*
Y-202170D02*
D03*
Y-162170D02*
D03*
Y-182170D02*
D03*
Y-172170D02*
D03*
Y-152170D02*
D03*
Y-142170D02*
D03*
Y-132170D02*
D03*
X-278181Y-182170D02*
D03*
Y-192170D02*
D03*
Y-172170D02*
D03*
Y-162170D02*
D03*
Y-132170D02*
D03*
Y-152170D02*
D03*
Y-142170D02*
D03*
Y-122170D02*
D03*
D27*
X-233316Y-297937D02*
D03*
X-222686D02*
D03*
X-233316Y-285338D02*
D03*
X-222686D02*
D03*
X-233316Y-250137D02*
D03*
X-222686Y-237538D02*
D03*
Y-250137D02*
D03*
X-233316Y-237538D02*
D03*
X-82756Y-250137D02*
D03*
X-72126Y-237538D02*
D03*
Y-250137D02*
D03*
X-82756Y-237538D02*
D03*
X-82916Y-297937D02*
D03*
X-72286Y-285338D02*
D03*
Y-297937D02*
D03*
X-82916Y-285338D02*
D03*
D28*
X-177701Y-138526D02*
D03*
X-182701D02*
D03*
X-187701D02*
D03*
X-192701D02*
D03*
Y-118726D02*
D03*
X-187701D02*
D03*
X-182701D02*
D03*
X-177701D02*
D03*
D29*
X-102601Y-99059D02*
D03*
Y-104964D02*
D03*
X-143701Y-173137D02*
D03*
Y-179043D02*
D03*
D30*
X-114214Y-75078D02*
D03*
X-124844D02*
D03*
Y-108704D02*
D03*
X-114214D02*
D03*
D31*
X-177701Y-154787D02*
D03*
Y-164837D02*
D03*
D32*
X-139970Y-138919D02*
D03*
X-154593D02*
D03*
D33*
X-113729Y-97485D02*
D03*
Y-95516D02*
D03*
Y-93547D02*
D03*
Y-91578D02*
D03*
Y-89609D02*
D03*
X-125329Y-97485D02*
D03*
Y-95516D02*
D03*
Y-93547D02*
D03*
Y-91578D02*
D03*
Y-89609D02*
D03*
D34*
X-114214Y-176845D02*
D03*
D35*
Y-214845D02*
D03*
X-120907D02*
D03*
X-127600D02*
D03*
X-100829D02*
D03*
X-107521D02*
D03*
D36*
X-119529Y-93547D02*
D03*
M02*
