G04*
G04 #@! TF.GenerationSoftware,Altium Limited,Altium Designer,22.9.1 (49)*
G04*
G04 Layer_Color=8388736*
%FSLAX25Y25*%
%MOIN*%
G70*
G04*
G04 #@! TF.SameCoordinates,80F2EAEC-CDE7-43A4-84F7-7BEF4F4580BA*
G04*
G04*
G04 #@! TF.FilePolarity,Positive*
G04*
G01*
G75*
%ADD10C,0.00394*%
%ADD11C,0.00787*%
%ADD43C,0.00300*%
%ADD44C,0.00000*%
%ADD45C,0.00100*%
D10*
X-163829Y-176845D02*
Y-163459D01*
X-156742Y-176845D02*
Y-163459D01*
X-163829D02*
X-156742D01*
X-163829Y-176845D02*
X-156742D01*
X-27096Y-77170D02*
X-7096D01*
Y-277170D02*
Y-77170D01*
X-27096Y-277170D02*
X-7096D01*
X-27096D02*
Y-77170D01*
X-7096D01*
Y-277170D02*
Y-77170D01*
X-27096Y-277170D02*
X-7096D01*
X-298122D02*
X-278122D01*
Y-77170D01*
X-298122D02*
X-278122D01*
X-298122Y-277170D02*
Y-77170D01*
Y-277170D02*
X-278122D01*
Y-77170D01*
X-298122D02*
X-278122D01*
X-104471Y-98665D02*
X-100731D01*
X-104471Y-105358D02*
X-100731D01*
X-104471D02*
Y-98665D01*
X-100731Y-105358D02*
Y-98665D01*
X-126222Y-71535D02*
X-112836D01*
X-126222Y-78622D02*
X-112836D01*
Y-71535D01*
X-126222Y-78622D02*
Y-71535D01*
X-145571Y-172744D02*
X-141831D01*
X-145571Y-179437D02*
X-141831D01*
X-145571D02*
Y-172744D01*
X-141831Y-179437D02*
Y-172744D01*
X-230244Y-132226D02*
X-223158D01*
X-230244Y-145612D02*
X-223158D01*
X-230244D02*
Y-132226D01*
X-223158Y-145612D02*
Y-132226D01*
X-214699D02*
X-207612D01*
X-214699Y-145612D02*
X-207612D01*
X-214699D02*
Y-132226D01*
X-207612Y-145612D02*
Y-132226D01*
X-214502Y-124308D02*
X-207809D01*
X-214502Y-120567D02*
X-207809D01*
X-214502Y-124308D02*
Y-120567D01*
X-207809Y-124308D02*
Y-120567D01*
X-214502Y-114909D02*
X-207809D01*
X-214502Y-111168D02*
X-207809D01*
X-214502Y-114909D02*
Y-111168D01*
X-207809Y-114909D02*
Y-111168D01*
X-167891Y-106933D02*
Y-93547D01*
X-160805Y-106933D02*
Y-93547D01*
X-167891D02*
X-160805D01*
X-167891Y-106933D02*
X-160805D01*
X-126222Y-112248D02*
X-112836D01*
X-126222Y-105161D02*
X-112836D01*
X-126222Y-112248D02*
Y-105161D01*
X-112836Y-112248D02*
Y-105161D01*
X-141458Y-107523D02*
Y-94138D01*
X-148544Y-107523D02*
Y-94138D01*
Y-107523D02*
X-141458D01*
X-148544Y-94138D02*
X-141458D01*
X-170647Y-84570D02*
X-163954D01*
X-170647Y-80829D02*
X-163954D01*
X-170647Y-84570D02*
Y-80829D01*
X-163954Y-84570D02*
Y-80829D01*
X-214502Y-101716D02*
X-207809D01*
X-214502Y-105456D02*
X-207809D01*
Y-101716D01*
X-214502Y-105456D02*
Y-101716D01*
X-147249Y-216220D02*
X-140162D01*
X-147249Y-202834D02*
X-140162D01*
Y-216220D02*
Y-202834D01*
X-147249Y-216220D02*
Y-202834D01*
X-86459Y-201259D02*
X-79373D01*
X-86459Y-214645D02*
X-79373D01*
X-86459D02*
Y-201259D01*
X-79373Y-214645D02*
Y-201259D01*
D11*
X-26643Y-74611D02*
G03*
X-26643Y-74611I-394J0D01*
G01*
X-297670D02*
G03*
X-297670Y-74611I-394J0D01*
G01*
D43*
X-176486Y-136276D02*
X-179818Y-132943D01*
Y-136276D02*
X-176486Y-132943D01*
X-178152Y-136276D02*
Y-132943D01*
X-179818Y-134609D02*
X-176486D01*
X-99578Y-193180D02*
X-102911Y-196512D01*
X-99578D02*
X-102911Y-193180D01*
X-99578Y-194846D02*
X-102911D01*
X-101245Y-196512D02*
Y-193180D01*
D44*
X-175351Y-127426D02*
G03*
X-175351Y-129826I0J-1200D01*
G01*
X-177401Y-166312D02*
G03*
X-177401Y-166312I-300J0D01*
G01*
X-118329Y-99747D02*
G03*
X-120729Y-99747I-1200J0D01*
G01*
X-123429Y-97485D02*
G03*
X-123429Y-97485I-300J0D01*
G01*
D45*
X-178651Y-136526D02*
X-176751D01*
Y-140826D02*
Y-136526D01*
X-178651Y-140826D02*
X-176751D01*
X-178651D02*
Y-136526D01*
X-183651D02*
X-181751D01*
Y-140826D02*
Y-136526D01*
X-183651Y-140826D02*
X-181751D01*
X-183651D02*
Y-136526D01*
X-188651D02*
X-186751D01*
Y-140826D02*
Y-136526D01*
X-188651Y-140826D02*
X-186751D01*
X-188651D02*
Y-136526D01*
X-193651D02*
X-191751D01*
Y-140826D02*
Y-136526D01*
X-193651Y-140826D02*
X-191751D01*
X-193651D02*
Y-136526D01*
Y-120726D02*
X-191751D01*
X-193651D02*
Y-116426D01*
X-191751D01*
Y-120726D02*
Y-116426D01*
X-188651Y-120726D02*
X-186751D01*
X-188651D02*
Y-116426D01*
X-186751D01*
Y-120726D02*
Y-116426D01*
X-183651Y-120726D02*
X-181751D01*
X-183651D02*
Y-116426D01*
X-181751D01*
Y-120726D02*
Y-116426D01*
X-178651Y-120726D02*
X-176751D01*
X-178651D02*
Y-116426D01*
X-176751D01*
Y-120726D02*
Y-116426D01*
X-195051Y-136526D02*
Y-120726D01*
X-175351D01*
Y-136526D02*
Y-120726D01*
X-195051Y-136526D02*
X-175351D01*
X-183001Y-166612D02*
X-172401D01*
Y-153012D01*
X-183001D02*
X-172401D01*
X-183001Y-166612D02*
Y-153012D01*
X-125729Y-99747D02*
Y-87347D01*
Y-99747D02*
X-113329D01*
Y-87347D01*
X-125729D02*
X-113329D01*
X-165285Y-138919D02*
X-160285D01*
X-164285Y-141419D02*
Y-136419D01*
Y-138919D02*
X-161285Y-141419D01*
X-164285Y-138919D02*
X-161285Y-140919D01*
X-164285Y-138919D02*
X-161285Y-140419D01*
X-164285Y-138919D02*
X-161285Y-139919D01*
X-164285Y-138919D02*
X-161285Y-139419D01*
X-164285Y-138919D02*
X-161285Y-136419D01*
X-164285Y-138919D02*
X-161285Y-136919D01*
X-164285Y-138919D02*
X-161285Y-137419D01*
X-164285Y-138919D02*
X-161285Y-137919D01*
X-164285Y-138919D02*
X-161285Y-138419D01*
Y-141419D02*
Y-136419D01*
X-158285Y-131163D02*
X-136277D01*
Y-146675D02*
Y-131163D01*
X-158285Y-146675D02*
X-136277D01*
X-158285D02*
Y-131163D01*
X-102629Y-195845D02*
X-99028D01*
Y-220345D02*
Y-195845D01*
X-102629Y-220345D02*
X-99028D01*
X-102629D02*
Y-195845D01*
X-109321D02*
X-105721D01*
Y-220345D02*
Y-195845D01*
X-109321Y-220345D02*
X-105721D01*
X-109321D02*
Y-195845D01*
X-116014D02*
X-112414D01*
Y-220345D02*
Y-195845D01*
X-116014Y-220345D02*
X-112414D01*
X-116014D02*
Y-195845D01*
X-122707D02*
X-119107D01*
Y-220345D02*
Y-195845D01*
X-122707Y-220345D02*
X-119107D01*
X-122707D02*
Y-195845D01*
X-129400D02*
X-125800D01*
Y-220345D02*
Y-195845D01*
X-129400Y-220345D02*
X-125800D01*
X-129400D02*
Y-195845D01*
X-135214D02*
X-93214D01*
X-135214D02*
Y-157845D01*
X-93214D01*
Y-195845D02*
Y-157845D01*
M02*
