G04*
G04 #@! TF.GenerationSoftware,Altium Limited,Altium Designer,22.9.1 (49)*
G04*
G04 Layer_Physical_Order=1*
G04 Layer_Color=255*
%FSLAX25Y25*%
%MOIN*%
G70*
G04*
G04 #@! TF.SameCoordinates,80F2EAEC-CDE7-43A4-84F7-7BEF4F4580BA*
G04*
G04*
G04 #@! TF.FilePolarity,Positive*
G04*
G01*
G75*
%ADD12C,0.01000*%
%ADD19R,0.02756X0.03543*%
%ADD20R,0.03543X0.05512*%
%ADD21C,0.02800*%
%ADD22C,0.08445*%
%ADD23C,0.06000*%
%ADD24C,0.02300*%
D12*
X-140901Y-325337D02*
Y-304934D01*
X-73801Y-237834D02*
Y-214645D01*
X-140901Y-304934D02*
X-73801Y-237834D01*
Y-214645D02*
Y-176567D01*
X-194720Y-97485D02*
X-181751Y-110454D01*
X-215880Y-97485D02*
X-194720D01*
X-181751Y-172121D02*
Y-110454D01*
Y-202336D02*
Y-172121D01*
X-267301Y-267437D02*
X-246852D01*
X-181751Y-202336D01*
X-153501Y-160337D02*
X-90031D01*
X-73801Y-176567D01*
X-149375Y-325937D02*
X-148775Y-325337D01*
X-163995Y-325937D02*
X-149375D01*
X-175800D02*
X-169901D01*
X-176400Y-325337D02*
X-175800Y-325937D01*
X-176671Y-325337D02*
X-176400D01*
D19*
X-169901Y-325937D02*
D03*
X-163995D02*
D03*
D20*
X-140901Y-325337D02*
D03*
X-148775D02*
D03*
D21*
X-189999Y-316195D02*
X-167891Y-294087D01*
Y-91175D02*
X-115197Y-38480D01*
X-167891Y-294087D02*
Y-91175D01*
X-264744Y-316195D02*
X-189999D01*
X-115196D02*
X-40196D01*
X-115197Y-38480D02*
X-40394D01*
X-265000D02*
X-190000D01*
D22*
X-264803D02*
D03*
X-40393Y-316195D02*
D03*
X-115196D02*
D03*
X-264803D02*
D03*
X-115197Y-38480D02*
D03*
X-40394D02*
D03*
X-189999Y-316195D02*
D03*
X-190000Y-38480D02*
D03*
D23*
X4385Y-334126D02*
D03*
X10823Y-255938D02*
D03*
Y-98400D02*
D03*
X-316041Y-255938D02*
D03*
X-316041Y-98400D02*
D03*
X-309602Y-334126D02*
D03*
X4385Y-20200D02*
D03*
X-309602D02*
D03*
D24*
X-181751Y-172121D02*
D03*
X-215880Y-97485D02*
D03*
X-153501Y-160337D02*
D03*
X-73801Y-214645D02*
D03*
X-176671Y-325337D02*
D03*
X-267301Y-267437D02*
D03*
M02*
