G04*
G04 #@! TF.GenerationSoftware,Altium Limited,Altium Designer,22.2.1 (43)*
G04*
G04 Layer_Color=8388736*
%FSLAX25Y25*%
%MOIN*%
G70*
G04*
G04 #@! TF.SameCoordinates,2BD9F523-0FC0-4ADC-A514-1134C6E00D61*
G04*
G04*
G04 #@! TF.FilePolarity,Positive*
G04*
G01*
G75*
%ADD10C,0.00394*%
%ADD38C,0.00787*%
%ADD40C,0.00300*%
%ADD41C,0.00000*%
%ADD42C,0.00100*%
D10*
X118101Y-169130D02*
X124794D01*
X118101Y-172870D02*
X124794D01*
Y-169130D01*
X118101Y-172870D02*
Y-169130D01*
X31941Y-77100D02*
X51941D01*
Y-277100D02*
Y-77100D01*
X31941Y-277100D02*
X51941D01*
X31941D02*
Y-77100D01*
X51941D01*
Y-277100D02*
Y-77100D01*
X31941Y-277100D02*
X51941D01*
X135178Y-194943D02*
Y-187857D01*
X121792Y-194943D02*
Y-187857D01*
X135178D01*
X121792Y-194943D02*
X135178D01*
X264708Y-219243D02*
Y-212157D01*
X251322Y-219243D02*
Y-212157D01*
X264708D01*
X251322Y-219243D02*
X264708D01*
X212630Y-240751D02*
Y-234058D01*
X216370Y-240751D02*
Y-234058D01*
X212630D02*
X216370D01*
X212630Y-240751D02*
X216370D01*
X207217Y-215843D02*
Y-208757D01*
X220602Y-215843D02*
Y-208757D01*
X207217Y-215843D02*
X220602D01*
X207217Y-208757D02*
X220602D01*
X232639Y-241637D02*
X239725D01*
X232639Y-228251D02*
X239725D01*
Y-241637D02*
Y-228251D01*
X232639Y-241637D02*
Y-228251D01*
X181357Y-187293D02*
X188443D01*
X181357Y-173907D02*
X188443D01*
Y-187293D02*
Y-173907D01*
X181357Y-187293D02*
Y-173907D01*
X241157Y-174692D02*
X248243D01*
X241157Y-188078D02*
X248243D01*
X241157D02*
Y-174692D01*
X248243Y-188078D02*
Y-174692D01*
X97853Y-168730D02*
X104546D01*
X97853Y-172470D02*
X104546D01*
Y-168730D01*
X97853Y-172470D02*
Y-168730D01*
X123833Y-128644D02*
Y-121558D01*
X110447Y-128644D02*
Y-121558D01*
X123833D01*
X110447Y-128644D02*
X123833D01*
X301941Y-77300D02*
X321941D01*
Y-277300D02*
Y-77300D01*
X301941Y-277300D02*
X321941D01*
X301941D02*
Y-77300D01*
X321941D01*
Y-277300D02*
Y-77300D01*
X301941Y-277300D02*
X321941D01*
D38*
X32394Y-74541D02*
G03*
X32394Y-74541I-394J0D01*
G01*
X302394Y-74741D02*
G03*
X302394Y-74741I-394J0D01*
G01*
D40*
X108000Y-135085D02*
X104668Y-138417D01*
X108000D02*
X104668Y-135085D01*
X108000Y-136751D02*
X104668D01*
X106334Y-138417D02*
Y-135085D01*
X230336Y-157935D02*
X227004Y-161267D01*
X230336D02*
X227004Y-157935D01*
X230336Y-159601D02*
X227004D01*
X228670Y-161267D02*
Y-157935D01*
D41*
X98000Y-133950D02*
G03*
X100400Y-133950I1200J0D01*
G01*
X261800Y-236124D02*
G03*
X261800Y-236124I-300J0D01*
G01*
X256100Y-233862D02*
G03*
X258500Y-233862I1200J0D01*
G01*
D42*
X144400Y-146292D02*
Y-141292D01*
X141900Y-145292D02*
X146900D01*
X144400D02*
X146900Y-142292D01*
X144400Y-145292D02*
X146400Y-142292D01*
X144400Y-145292D02*
X145900Y-142292D01*
X144400Y-145292D02*
X145400Y-142292D01*
X144400Y-145292D02*
X144900Y-142292D01*
X141900D02*
X144400Y-145292D01*
X142400Y-142292D02*
X144400Y-145292D01*
X142900Y-142292D02*
X144400Y-145292D01*
X143400Y-142292D02*
X144400Y-145292D01*
X143900Y-142292D02*
X144400Y-145292D01*
X141900Y-142292D02*
X146900D01*
X136644Y-139292D02*
Y-117284D01*
X152156D01*
Y-139292D02*
Y-117284D01*
X136644Y-139292D02*
X152156D01*
X108250Y-138300D02*
Y-136300D01*
X112000D01*
Y-138300D02*
Y-136300D01*
X108250Y-138300D02*
X112000D01*
X108250Y-143300D02*
Y-141300D01*
X112000D01*
Y-143300D02*
Y-141300D01*
X108250Y-143300D02*
X112000D01*
X108250Y-148300D02*
Y-146300D01*
X112000D01*
Y-148300D02*
Y-146300D01*
X108250Y-148300D02*
X112000D01*
X108250Y-153300D02*
Y-151300D01*
X112000D01*
Y-153300D02*
Y-151300D01*
X108250Y-153300D02*
X112000D01*
X90150D02*
Y-151300D01*
X86400Y-153300D02*
X90150D01*
X86400D02*
Y-151300D01*
X90150D01*
Y-148300D02*
Y-146300D01*
X86400Y-148300D02*
X90150D01*
X86400D02*
Y-146300D01*
X90150D01*
Y-143300D02*
Y-141300D01*
X86400Y-143300D02*
X90150D01*
X86400D02*
Y-141300D01*
X90150D01*
Y-138300D02*
Y-136300D01*
X86400Y-138300D02*
X90150D01*
X86400D02*
Y-136300D01*
X90150D01*
Y-155650D02*
X108250D01*
X90150D02*
Y-133950D01*
X108250D01*
Y-155650D02*
Y-133950D01*
X227286Y-160600D02*
X230886D01*
Y-185100D02*
Y-160600D01*
X227286Y-185100D02*
X230886D01*
X227286D02*
Y-160600D01*
X220593D02*
X224193D01*
Y-185100D02*
Y-160600D01*
X220593Y-185100D02*
X224193D01*
X220593D02*
Y-160600D01*
X213900D02*
X217500D01*
Y-185100D02*
Y-160600D01*
X213900Y-185100D02*
X217500D01*
X213900D02*
Y-160600D01*
X207207D02*
X210807D01*
Y-185100D02*
Y-160600D01*
X207207Y-185100D02*
X210807D01*
X207207D02*
Y-160600D01*
X200514D02*
X204114D01*
Y-185100D02*
Y-160600D01*
X200514Y-185100D02*
X204114D01*
X200514D02*
Y-160600D01*
X194700D02*
X236700D01*
X194700D02*
Y-122600D01*
X236700D01*
Y-160600D02*
Y-122600D01*
X140050Y-164650D02*
X148750D01*
X140050D02*
Y-161350D01*
X148750D01*
Y-164650D02*
Y-161350D01*
X140050Y-168650D02*
X148750D01*
Y-171950D02*
Y-168650D01*
X140050Y-171950D02*
X148750D01*
X140050D02*
Y-168650D01*
X148750Y-171950D02*
Y-161350D01*
X140050Y-171950D02*
X148750D01*
X140050D02*
Y-161350D01*
X148750D01*
X251100Y-246262D02*
X263500D01*
X251100D02*
Y-233862D01*
X263500D01*
Y-246262D02*
Y-233862D01*
M02*
