G04*
G04 #@! TF.GenerationSoftware,Altium Limited,Altium Designer,22.2.1 (43)*
G04*
G04 Layer_Color=128*
%FSLAX25Y25*%
%MOIN*%
G70*
G04*
G04 #@! TF.SameCoordinates,2BD9F523-0FC0-4ADC-A514-1134C6E00D61*
G04*
G04*
G04 #@! TF.FilePolarity,Positive*
G04*
G01*
G75*
%ADD21R,0.08701X0.08584*%
%ADD24R,0.04600X0.02200*%
%ADD27R,0.03800X0.13800*%
%ADD28R,0.42200X0.40800*%
%ADD30R,0.08700X0.04700*%
%ADD31R,0.03200X0.01000*%
%ADD32R,0.06900X0.10630*%
%ADD33R,0.04756X0.05543*%
%ADD34R,0.11016X0.07000*%
%ADD35R,0.06331X0.08693*%
%ADD36R,0.05543X0.04756*%
%ADD37R,0.08693X0.06331*%
G36*
X254244Y-240456D02*
X260356D01*
Y-244983D01*
X254244D01*
Y-240456D01*
D02*
G37*
G36*
Y-235141D02*
X260356D01*
Y-239668D01*
X254244D01*
Y-235141D01*
D02*
G37*
D21*
X144400Y-135600D02*
D03*
Y-120976D02*
D03*
D24*
X111100Y-137300D02*
D03*
Y-142300D02*
D03*
Y-147300D02*
D03*
Y-152300D02*
D03*
X87300D02*
D03*
Y-147300D02*
D03*
Y-142300D02*
D03*
Y-137300D02*
D03*
D27*
X229086Y-179600D02*
D03*
X222393D02*
D03*
X215700D02*
D03*
X209007D02*
D03*
X202314D02*
D03*
D28*
X215700Y-141600D02*
D03*
D30*
X144400Y-162300D02*
D03*
Y-171000D02*
D03*
D31*
X263100Y-236124D02*
D03*
Y-238093D02*
D03*
Y-240062D02*
D03*
Y-242031D02*
D03*
Y-244000D02*
D03*
X251500D02*
D03*
Y-242031D02*
D03*
Y-240062D02*
D03*
Y-238093D02*
D03*
Y-236124D02*
D03*
D32*
X257300Y-240062D02*
D03*
D33*
X124400Y-171000D02*
D03*
X118494D02*
D03*
X104153Y-170600D02*
D03*
X98247D02*
D03*
D34*
X51882Y-272100D02*
D03*
X32000D02*
D03*
X51882Y-262100D02*
D03*
X32000D02*
D03*
X51882Y-252100D02*
D03*
X32000D02*
D03*
X51882Y-242100D02*
D03*
X32000D02*
D03*
X51882Y-232100D02*
D03*
X32000D02*
D03*
X51882Y-222100D02*
D03*
X32000D02*
D03*
X51882Y-212100D02*
D03*
X32000D02*
D03*
X51882Y-202100D02*
D03*
X32000D02*
D03*
X51882Y-192100D02*
D03*
X32000D02*
D03*
X51882Y-182100D02*
D03*
X32000D02*
D03*
X51882Y-172100D02*
D03*
X32000D02*
D03*
X51882Y-162100D02*
D03*
X32000D02*
D03*
X51882Y-152100D02*
D03*
X32000D02*
D03*
X51882Y-142100D02*
D03*
X32000D02*
D03*
X51882Y-132100D02*
D03*
X32000D02*
D03*
X51882Y-122100D02*
D03*
X32000D02*
D03*
X51882Y-112100D02*
D03*
X32000D02*
D03*
X51882Y-102100D02*
D03*
X32000D02*
D03*
X51882Y-92100D02*
D03*
X32000D02*
D03*
X51882Y-82100D02*
D03*
X32000D02*
D03*
X321882Y-272300D02*
D03*
X302000D02*
D03*
X321882Y-262300D02*
D03*
X302000D02*
D03*
X321882Y-252300D02*
D03*
X302000D02*
D03*
X321882Y-242300D02*
D03*
X302000D02*
D03*
X321882Y-232300D02*
D03*
X302000D02*
D03*
X321882Y-222300D02*
D03*
X302000D02*
D03*
X321882Y-212300D02*
D03*
X302000D02*
D03*
X321882Y-202300D02*
D03*
X302000D02*
D03*
X321882Y-192300D02*
D03*
X302000D02*
D03*
X321882Y-182300D02*
D03*
X302000D02*
D03*
X321882Y-172300D02*
D03*
X302000D02*
D03*
X321882Y-162300D02*
D03*
X302000D02*
D03*
X321882Y-152300D02*
D03*
X302000D02*
D03*
X321882Y-142300D02*
D03*
X302000D02*
D03*
X321882Y-132300D02*
D03*
X302000D02*
D03*
X321882Y-122300D02*
D03*
X302000D02*
D03*
X321882Y-112300D02*
D03*
X302000D02*
D03*
X321882Y-102300D02*
D03*
X302000D02*
D03*
X321882Y-92300D02*
D03*
X302000D02*
D03*
X321882Y-82300D02*
D03*
X302000D02*
D03*
D35*
X133800Y-191400D02*
D03*
X123170D02*
D03*
X263330Y-215700D02*
D03*
X252700D02*
D03*
X208594Y-212300D02*
D03*
X219224D02*
D03*
X122455Y-125101D02*
D03*
X111825D02*
D03*
D36*
X214500Y-234452D02*
D03*
Y-240357D02*
D03*
D37*
X236182Y-240259D02*
D03*
Y-229629D02*
D03*
X184900Y-185915D02*
D03*
Y-175285D02*
D03*
X244700Y-176070D02*
D03*
Y-186700D02*
D03*
M02*
