M48
;Layer_Color=9474304
;FILE_FORMAT=2:5
INCH,LZ
;TYPE=PLATED
T1F00S00C0.01000
T2F00S00C0.02800
T3F00S00C0.05630
T4F00S00C0.10000
T5F00S00C0.15000
%
T01
X00599Y-02719
X0251322Y-01867
X0153156Y-01709
X00935Y-01704
T02
X02893Y-03151
T03
X00645Y-0301
X01395
X02145
X02895
X01395Y-0046
X00645
X02145
X02895
T04
X0014Y-0255
X0341
Y-0098
X0014
T05
X002Y-0334
X0334
X002Y-002
X0334
M30
