G04*
G04 #@! TF.GenerationSoftware,Altium Limited,Altium Designer,22.2.1 (43)*
G04*
G04 Layer_Color=16711935*
%FSLAX25Y25*%
%MOIN*%
G70*
G04*
G04 #@! TF.SameCoordinates,2BD9F523-0FC0-4ADC-A514-1134C6E00D61*
G04*
G04*
G04 #@! TF.FilePolarity,Positive*
G04*
G01*
G75*
%ADD38C,0.00787*%
D38*
X52000Y-301000D02*
Y-285449D01*
Y-301000D02*
X77000D01*
Y-285449D01*
X52000D02*
X77000D01*
X227000Y-61551D02*
Y-46000D01*
X202000D02*
X227000D01*
X202000Y-61551D02*
Y-46000D01*
Y-61551D02*
X227000D01*
X77000D02*
Y-46000D01*
X52000D02*
X77000D01*
X52000Y-61551D02*
Y-46000D01*
Y-61551D02*
X77000D01*
X277000Y-285449D02*
X302000D01*
Y-301000D02*
Y-285449D01*
X277000Y-301000D02*
X302000D01*
X277000D02*
Y-285449D01*
Y-61551D02*
X302000D01*
X277000D02*
Y-46000D01*
X302000D01*
Y-61551D02*
Y-46000D01*
X202000Y-285449D02*
X227000D01*
Y-301000D02*
Y-285449D01*
X202000Y-301000D02*
X227000D01*
X202000D02*
Y-285449D01*
X127000D02*
X152000D01*
Y-301000D02*
Y-285449D01*
X127000Y-301000D02*
X152000D01*
X127000D02*
Y-285449D01*
Y-61551D02*
X152000D01*
X127000D02*
Y-46000D01*
X152000D01*
Y-61551D02*
Y-46000D01*
M02*
