G04*
G04 #@! TF.GenerationSoftware,Altium Limited,Altium Designer,22.2.1 (43)*
G04*
G04 Layer_Color=32896*
%FSLAX25Y25*%
%MOIN*%
G70*
G04*
G04 #@! TF.SameCoordinates,2BD9F523-0FC0-4ADC-A514-1134C6E00D61*
G04*
G04*
G04 #@! TF.FilePolarity,Positive*
G04*
G01*
G75*
%ADD11C,0.01000*%
%ADD38C,0.00787*%
%ADD39C,0.00600*%
%ADD40C,0.00300*%
D11*
X303401Y-65002D02*
X305401D01*
X304401D01*
Y-70000D01*
X305401Y-71000D01*
X306400D01*
X307400Y-70000D01*
X297403Y-71000D02*
X301402D01*
X297403Y-67001D01*
Y-66002D01*
X298403Y-65002D01*
X300402D01*
X301402Y-66002D01*
X31401Y-64802D02*
X33401D01*
X32401D01*
Y-69800D01*
X33401Y-70800D01*
X34400D01*
X35400Y-69800D01*
X29402Y-70800D02*
X27402D01*
X28402D01*
Y-64802D01*
X29402Y-65802D01*
X259400Y-223402D02*
Y-228400D01*
X258400Y-229400D01*
X256401D01*
X255401Y-228400D01*
Y-223402D01*
X253402Y-224402D02*
X252402Y-223402D01*
X250403D01*
X249403Y-224402D01*
Y-225401D01*
X250403Y-226401D01*
X251402D01*
X250403D01*
X249403Y-227401D01*
Y-228400D01*
X250403Y-229400D01*
X252402D01*
X253402Y-228400D01*
X93500Y-122102D02*
Y-127100D01*
X92500Y-128100D01*
X90501D01*
X89501Y-127100D01*
Y-122102D01*
X83503Y-128100D02*
X87502D01*
X83503Y-124101D01*
Y-123102D01*
X84503Y-122102D01*
X86502D01*
X87502Y-123102D01*
X202100Y-109702D02*
Y-114700D01*
X201100Y-115700D01*
X199101D01*
X198101Y-114700D01*
Y-109702D01*
X196102Y-115700D02*
X194103D01*
X195102D01*
Y-109702D01*
X196102Y-110702D01*
X222700Y-229100D02*
Y-223102D01*
X219701D01*
X218701Y-224102D01*
Y-226101D01*
X219701Y-227101D01*
X222700D01*
X220701D02*
X218701Y-229100D01*
X216702Y-224102D02*
X215702Y-223102D01*
X213703D01*
X212703Y-224102D01*
Y-225101D01*
X213703Y-226101D01*
X214703D01*
X213703D01*
X212703Y-227101D01*
Y-228100D01*
X213703Y-229100D01*
X215702D01*
X216702Y-228100D01*
X126346Y-165499D02*
Y-159501D01*
X123347D01*
X122347Y-160501D01*
Y-162500D01*
X123347Y-163500D01*
X126346D01*
X124346D02*
X122347Y-165499D01*
X116349D02*
X120348D01*
X116349Y-161500D01*
Y-160501D01*
X117349Y-159501D01*
X119348D01*
X120348Y-160501D01*
X104900Y-164800D02*
Y-158802D01*
X101901D01*
X100901Y-159802D01*
Y-161801D01*
X101901Y-162801D01*
X104900D01*
X102901D02*
X100901Y-164800D01*
X98902D02*
X96903D01*
X97902D01*
Y-158802D01*
X98902Y-159802D01*
X147500Y-149402D02*
Y-155400D01*
X143501D01*
X141502D02*
X139503D01*
X140502D01*
Y-149402D01*
X141502Y-150402D01*
X146101Y-106202D02*
X147101Y-105202D01*
X149100D01*
X150100Y-106202D01*
Y-110200D01*
X149100Y-111200D01*
X147101D01*
X146101Y-110200D01*
X144102Y-111200D02*
Y-105202D01*
X141103D01*
X140103Y-106202D01*
Y-108201D01*
X141103Y-109201D01*
X144102D01*
X142103D02*
X140103Y-111200D01*
X138104D02*
X136105D01*
X137104D01*
Y-105202D01*
X138104Y-106202D01*
X238801Y-218502D02*
X239801Y-217502D01*
X241800D01*
X242800Y-218502D01*
Y-222500D01*
X241800Y-223500D01*
X239801D01*
X238801Y-222500D01*
X236802Y-217502D02*
X232803D01*
Y-218502D01*
X236802Y-222500D01*
Y-223500D01*
X212401Y-200002D02*
X213401Y-199002D01*
X215400D01*
X216400Y-200002D01*
Y-204000D01*
X215400Y-205000D01*
X213401D01*
X212401Y-204000D01*
X206403Y-199002D02*
X208402Y-200002D01*
X210402Y-202001D01*
Y-204000D01*
X209402Y-205000D01*
X207403D01*
X206403Y-204000D01*
Y-203001D01*
X207403Y-202001D01*
X210402D01*
X256501Y-203402D02*
X257501Y-202402D01*
X259500D01*
X260500Y-203402D01*
Y-207400D01*
X259500Y-208400D01*
X257501D01*
X256501Y-207400D01*
X250503Y-202402D02*
X254502D01*
Y-205401D01*
X252502Y-204401D01*
X251503D01*
X250503Y-205401D01*
Y-207400D01*
X251503Y-208400D01*
X253502D01*
X254502Y-207400D01*
X115701Y-112802D02*
X116701Y-111802D01*
X118700D01*
X119700Y-112802D01*
Y-116800D01*
X118700Y-117800D01*
X116701D01*
X115701Y-116800D01*
X110703Y-117800D02*
Y-111802D01*
X113702Y-114801D01*
X109703D01*
X127001Y-179102D02*
X128001Y-178102D01*
X130000D01*
X131000Y-179102D01*
Y-183100D01*
X130000Y-184100D01*
X128001D01*
X127001Y-183100D01*
X125002Y-179102D02*
X124002Y-178102D01*
X122003D01*
X121003Y-179102D01*
Y-180101D01*
X122003Y-181101D01*
X123003D01*
X122003D01*
X121003Y-182101D01*
Y-183100D01*
X122003Y-184100D01*
X124002D01*
X125002Y-183100D01*
X187601Y-164102D02*
X188601Y-163102D01*
X190600D01*
X191600Y-164102D01*
Y-168100D01*
X190600Y-169100D01*
X188601D01*
X187601Y-168100D01*
X181603Y-169100D02*
X185602D01*
X181603Y-165101D01*
Y-164102D01*
X182603Y-163102D01*
X184602D01*
X185602Y-164102D01*
X245401Y-164902D02*
X246401Y-163902D01*
X248400D01*
X249400Y-164902D01*
Y-168900D01*
X248400Y-169900D01*
X246401D01*
X245401Y-168900D01*
X243402Y-169900D02*
X241403D01*
X242402D01*
Y-163902D01*
X243402Y-164902D01*
D38*
X32394Y-74541D02*
G03*
X32394Y-74541I-394J0D01*
G01*
X302394Y-74741D02*
G03*
X302394Y-74741I-394J0D01*
G01*
X120660Y-169622D02*
X122235D01*
X120660Y-172378D02*
X122235D01*
X31941Y-78222D02*
Y-77100D01*
X51941Y-78222D02*
Y-77100D01*
X31941Y-277100D02*
Y-275978D01*
X51941Y-277100D02*
Y-275978D01*
X31941Y-77100D02*
X51941D01*
X31941Y-277100D02*
X51941D01*
X126910Y-188447D02*
X130060D01*
X126910Y-194353D02*
X130060D01*
X256440Y-212747D02*
X259590D01*
X256440Y-218653D02*
X259590D01*
X213122Y-238192D02*
Y-236617D01*
X215878Y-238192D02*
Y-236617D01*
X212335Y-215253D02*
X215484D01*
X212335Y-209347D02*
X215484D01*
X239135Y-236519D02*
Y-233369D01*
X233229Y-236519D02*
Y-233369D01*
X187853Y-182175D02*
Y-179025D01*
X181947Y-182175D02*
Y-179025D01*
X241747Y-182960D02*
Y-179810D01*
X247653Y-182960D02*
Y-179810D01*
X100413Y-169222D02*
X101987D01*
X100413Y-171978D02*
X101987D01*
X115565Y-122148D02*
X118715D01*
X115565Y-128054D02*
X118715D01*
X301941Y-78422D02*
Y-77300D01*
X321941Y-78422D02*
Y-77300D01*
X301941Y-277300D02*
Y-276178D01*
X321941Y-277300D02*
Y-276178D01*
X301941Y-77300D02*
X321941D01*
X301941Y-277300D02*
X321941D01*
D39*
X267269Y-236124D02*
G03*
X267269Y-236124I-400J0D01*
G01*
X150060Y-116784D02*
X152656D01*
X144400Y-146292D02*
Y-141292D01*
X141900Y-145292D02*
X146900D01*
X144400D02*
X146900Y-142292D01*
X144400Y-145292D02*
X146400Y-142292D01*
X144400Y-145292D02*
X145900Y-142292D01*
X144400Y-145292D02*
X145400Y-142292D01*
X144400Y-145292D02*
X144900Y-142292D01*
X141900D02*
X144400Y-145292D01*
X142400Y-142292D02*
X144400Y-145292D01*
X142900Y-142292D02*
X144400Y-145292D01*
X143400Y-142292D02*
X144400Y-145292D01*
X143900Y-142292D02*
X144400Y-145292D01*
X141900Y-142292D02*
X146900D01*
X136144Y-139792D02*
Y-116784D01*
X138740D01*
X152656Y-139792D02*
Y-116784D01*
X150060Y-139792D02*
X152656D01*
X136144D02*
X138740D01*
X89650Y-134891D02*
Y-133450D01*
Y-156150D02*
X108750D01*
X89650D02*
Y-154709D01*
Y-133450D02*
X108750D01*
Y-134891D02*
Y-133450D01*
Y-156150D02*
Y-154709D01*
X230886Y-171300D02*
Y-163310D01*
X224193Y-171300D02*
Y-163310D01*
X217500Y-171300D02*
Y-163310D01*
X210807Y-171300D02*
Y-163310D01*
X204114Y-171300D02*
Y-163310D01*
X227286Y-171300D02*
Y-163310D01*
X220593Y-171300D02*
Y-163310D01*
X213900Y-171300D02*
Y-163310D01*
X207207Y-171300D02*
Y-163310D01*
X200514Y-171300D02*
Y-163310D01*
X149250Y-167439D02*
Y-165861D01*
X139550Y-167439D02*
Y-165861D01*
X250600Y-246762D02*
X264000D01*
X250600D02*
Y-245810D01*
Y-233362D02*
X264000D01*
Y-234314D02*
Y-233362D01*
Y-246762D02*
Y-245810D01*
X250600Y-234314D02*
Y-233362D01*
D40*
X113350Y-131435D02*
X110018Y-134767D01*
X113350D02*
X110018Y-131435D01*
X113350Y-133101D02*
X110018D01*
X111684Y-134767D02*
Y-131435D01*
X236182Y-177935D02*
X232850Y-181267D01*
X236182D02*
X232850Y-177935D01*
X236182Y-179601D02*
X232850D01*
X234516Y-181267D02*
Y-177935D01*
M02*
