G04*
G04 #@! TF.GenerationSoftware,Altium Limited,Altium Designer,22.2.1 (43)*
G04*
G04 Layer_Physical_Order=2*
G04 Layer_Color=16711680*
%FSLAX25Y25*%
%MOIN*%
G70*
G04*
G04 #@! TF.SameCoordinates,2BD9F523-0FC0-4ADC-A514-1134C6E00D61*
G04*
G04*
G04 #@! TF.FilePolarity,Positive*
G04*
G01*
G75*
%ADD11C,0.01000*%
%ADD16C,0.02800*%
%ADD17C,0.08445*%
%ADD18C,0.06000*%
%ADD19C,0.03800*%
%ADD20C,0.02000*%
%ADD21R,0.08701X0.08584*%
%ADD22R,0.02756X0.03543*%
%ADD23R,0.09016X0.05000*%
%ADD24R,0.04600X0.02200*%
%ADD25R,0.04331X0.06693*%
%ADD26R,0.03543X0.02756*%
%ADD27R,0.03800X0.13800*%
%ADD28R,0.42200X0.40800*%
%ADD29R,0.06693X0.04331*%
%ADD30R,0.08700X0.04700*%
%ADD31R,0.03200X0.01000*%
%ADD32R,0.06900X0.10630*%
G36*
X51000Y-18000D02*
X303000D01*
X321000Y0D01*
X321000Y0D01*
X346788D01*
X354000Y-7212D01*
X354000Y-7212D01*
Y-346788D01*
X346788Y-354000D01*
X346788Y-354000D01*
X321000D01*
X303000Y-336000D01*
X51000D01*
X33000Y-354000D01*
X7212D01*
X-0Y-346788D01*
Y-7212D01*
X788D01*
X8000Y0D01*
X33000D01*
X51000Y-18000D01*
D02*
G37*
%LPC*%
G36*
X334788Y-12000D02*
X333212D01*
X331666Y-12307D01*
X330211Y-12911D01*
X328900Y-13786D01*
X327786Y-14900D01*
X326910Y-16211D01*
X326307Y-17666D01*
X326000Y-19212D01*
Y-20788D01*
X326307Y-22333D01*
X326910Y-23789D01*
X327786Y-25100D01*
X328900Y-26214D01*
X330211Y-27090D01*
X331666Y-27693D01*
X333212Y-28000D01*
X334788D01*
X336333Y-27693D01*
X337789Y-27090D01*
X339100Y-26214D01*
X340214Y-25100D01*
X341090Y-23789D01*
X341693Y-22333D01*
X342000Y-20788D01*
Y-19212D01*
X341693Y-17666D01*
X341090Y-16211D01*
X340214Y-14900D01*
X339100Y-13786D01*
X337789Y-12911D01*
X336333Y-12307D01*
X334788Y-12000D01*
D02*
G37*
G36*
X20788D02*
X19212D01*
X17666Y-12307D01*
X16211Y-12911D01*
X14900Y-13786D01*
X13786Y-14900D01*
X12911Y-16211D01*
X12307Y-17666D01*
X12000Y-19212D01*
Y-20788D01*
X12307Y-22333D01*
X12911Y-23789D01*
X13786Y-25100D01*
X14900Y-26214D01*
X16211Y-27090D01*
X17666Y-27693D01*
X19212Y-28000D01*
X20788D01*
X22333Y-27693D01*
X23789Y-27090D01*
X25100Y-26214D01*
X26214Y-25100D01*
X27090Y-23789D01*
X27693Y-22333D01*
X28000Y-20788D01*
Y-19212D01*
X27693Y-17666D01*
X27090Y-16211D01*
X26214Y-14900D01*
X25100Y-13786D01*
X23789Y-12911D01*
X22333Y-12307D01*
X20788Y-12000D01*
D02*
G37*
G36*
X290122Y-41278D02*
X288878D01*
X287677Y-41599D01*
X286600Y-42221D01*
X285721Y-43100D01*
X285099Y-44177D01*
X284778Y-45378D01*
Y-46622D01*
X285099Y-47823D01*
X285721Y-48900D01*
X286600Y-49779D01*
X287677Y-50401D01*
X288878Y-50722D01*
X290122D01*
X291323Y-50401D01*
X292400Y-49779D01*
X293279Y-48900D01*
X293901Y-47823D01*
X294222Y-46622D01*
Y-45378D01*
X293901Y-44177D01*
X293279Y-43100D01*
X292400Y-42221D01*
X291323Y-41599D01*
X290122Y-41278D01*
D02*
G37*
G36*
X215122D02*
X213878D01*
X212677Y-41599D01*
X211600Y-42221D01*
X210721Y-43100D01*
X210099Y-44177D01*
X209778Y-45378D01*
Y-46622D01*
X210099Y-47823D01*
X210721Y-48900D01*
X211600Y-49779D01*
X212677Y-50401D01*
X213878Y-50722D01*
X215122D01*
X216323Y-50401D01*
X217400Y-49779D01*
X218279Y-48900D01*
X218901Y-47823D01*
X219222Y-46622D01*
Y-45378D01*
X218901Y-44177D01*
X218279Y-43100D01*
X217400Y-42221D01*
X216323Y-41599D01*
X215122Y-41278D01*
D02*
G37*
G36*
X65122D02*
X63878D01*
X62677Y-41599D01*
X61600Y-42221D01*
X60721Y-43100D01*
X60099Y-44177D01*
X59778Y-45378D01*
Y-46622D01*
X60099Y-47823D01*
X60721Y-48900D01*
X61600Y-49779D01*
X62677Y-50401D01*
X63878Y-50722D01*
X65122D01*
X66323Y-50401D01*
X67400Y-49779D01*
X68279Y-48900D01*
X68901Y-47823D01*
X69222Y-46622D01*
Y-45378D01*
X68901Y-44177D01*
X68279Y-43100D01*
X67400Y-42221D01*
X66323Y-41599D01*
X65122Y-41278D01*
D02*
G37*
G36*
X56890Y-79100D02*
X46874D01*
Y-85100D01*
X56890D01*
Y-79100D01*
D02*
G37*
G36*
X37008D02*
X26992D01*
Y-85100D01*
X37008D01*
Y-79100D01*
D02*
G37*
G36*
X326890Y-79300D02*
X316874D01*
Y-85300D01*
X326890D01*
Y-79300D01*
D02*
G37*
G36*
X307008D02*
X296992D01*
Y-85300D01*
X307008D01*
Y-79300D01*
D02*
G37*
G36*
X56890Y-89100D02*
X46874D01*
Y-95100D01*
X56890D01*
Y-89100D01*
D02*
G37*
G36*
X37008D02*
X26992D01*
Y-95100D01*
X37008D01*
Y-89100D01*
D02*
G37*
G36*
X326890Y-89300D02*
X316874D01*
Y-95300D01*
X326890D01*
Y-89300D01*
D02*
G37*
G36*
X307008D02*
X296992D01*
Y-95300D01*
X307008D01*
Y-89300D01*
D02*
G37*
G36*
X341724Y-92500D02*
X340276D01*
X338877Y-92875D01*
X337623Y-93599D01*
X336599Y-94623D01*
X335875Y-95877D01*
X335500Y-97276D01*
Y-98724D01*
X335875Y-100123D01*
X336599Y-101377D01*
X337623Y-102401D01*
X338877Y-103125D01*
X340276Y-103500D01*
X341724D01*
X343123Y-103125D01*
X344377Y-102401D01*
X345401Y-101377D01*
X346125Y-100123D01*
X346500Y-98724D01*
Y-97276D01*
X346125Y-95877D01*
X345401Y-94623D01*
X344377Y-93599D01*
X343123Y-92875D01*
X341724Y-92500D01*
D02*
G37*
G36*
X14724D02*
X13276D01*
X11877Y-92875D01*
X10623Y-93599D01*
X9599Y-94623D01*
X8875Y-95877D01*
X8500Y-97276D01*
Y-98724D01*
X8875Y-100123D01*
X9599Y-101377D01*
X10623Y-102401D01*
X11877Y-103125D01*
X13276Y-103500D01*
X14724D01*
X16123Y-103125D01*
X17377Y-102401D01*
X18401Y-101377D01*
X19125Y-100123D01*
X19500Y-98724D01*
Y-97276D01*
X19125Y-95877D01*
X18401Y-94623D01*
X17377Y-93599D01*
X16123Y-92875D01*
X14724Y-92500D01*
D02*
G37*
G36*
X56890Y-99100D02*
X46874D01*
Y-105100D01*
X56890D01*
Y-99100D01*
D02*
G37*
G36*
X37008D02*
X26992D01*
Y-105100D01*
X37008D01*
Y-99100D01*
D02*
G37*
G36*
X326890Y-99300D02*
X316874D01*
Y-105300D01*
X326890D01*
Y-99300D01*
D02*
G37*
G36*
X307008D02*
X296992D01*
Y-105300D01*
X307008D01*
Y-99300D01*
D02*
G37*
G36*
X56890Y-109100D02*
X46874D01*
Y-115100D01*
X56890D01*
Y-109100D01*
D02*
G37*
G36*
X37008D02*
X26992D01*
Y-115100D01*
X37008D01*
Y-109100D01*
D02*
G37*
G36*
X326890Y-109300D02*
X316874D01*
Y-115300D01*
X326890D01*
Y-109300D01*
D02*
G37*
G36*
X307008D02*
X296992D01*
Y-115300D01*
X307008D01*
Y-109300D01*
D02*
G37*
G36*
X149750Y-115684D02*
X144900D01*
Y-120476D01*
X149750D01*
Y-115684D01*
D02*
G37*
G36*
X143900D02*
X139050D01*
Y-120476D01*
X143900D01*
Y-115684D01*
D02*
G37*
G36*
X57390Y-118600D02*
X52382D01*
Y-121600D01*
X57390D01*
Y-118600D01*
D02*
G37*
G36*
X51382D02*
X46374D01*
Y-121600D01*
X51382D01*
Y-118600D01*
D02*
G37*
G36*
X327390Y-118800D02*
X322382D01*
Y-121800D01*
X327390D01*
Y-118800D01*
D02*
G37*
G36*
X114990Y-120755D02*
X112325D01*
Y-124601D01*
X114990D01*
Y-120755D01*
D02*
G37*
G36*
X111325D02*
X108660D01*
Y-124601D01*
X111325D01*
Y-120755D01*
D02*
G37*
G36*
X37008Y-119100D02*
X26992D01*
Y-125100D01*
X37008D01*
Y-119100D01*
D02*
G37*
G36*
X307008Y-119300D02*
X296992D01*
Y-125300D01*
X307008D01*
Y-119300D01*
D02*
G37*
G36*
X149750Y-121476D02*
X144900D01*
Y-126268D01*
X149750D01*
Y-121476D01*
D02*
G37*
G36*
X143900D02*
X139050D01*
Y-126268D01*
X143900D01*
Y-121476D01*
D02*
G37*
G36*
X114990Y-125601D02*
X112325D01*
Y-129447D01*
X114990D01*
Y-125601D01*
D02*
G37*
G36*
X111325D02*
X108660D01*
Y-129447D01*
X111325D01*
Y-125601D01*
D02*
G37*
G36*
X31500Y-128600D02*
X26492D01*
Y-131600D01*
X31500D01*
Y-128600D01*
D02*
G37*
G36*
X57390Y-122600D02*
X51882D01*
X46374D01*
Y-124158D01*
X39452Y-131080D01*
X37508D01*
Y-128600D01*
X32500D01*
Y-132100D01*
X32000D01*
Y-132600D01*
X26492D01*
Y-135600D01*
X30980D01*
Y-138600D01*
X26492D01*
Y-141600D01*
X32000D01*
X37508D01*
Y-138600D01*
X33020D01*
Y-135600D01*
X37508D01*
Y-133120D01*
X39874D01*
X40264Y-133042D01*
X40595Y-132821D01*
X47816Y-125600D01*
X50862D01*
Y-128600D01*
X46374D01*
Y-131600D01*
X51882D01*
X57390D01*
Y-128600D01*
X52901D01*
Y-125600D01*
X57390D01*
Y-122600D01*
D02*
G37*
G36*
X301500Y-128800D02*
X296492D01*
Y-131800D01*
X301500D01*
Y-128800D01*
D02*
G37*
G36*
X321382Y-118800D02*
X316374D01*
Y-121280D01*
X314008D01*
X313618Y-121358D01*
X313287Y-121579D01*
X306066Y-128800D01*
X302500D01*
Y-131800D01*
X307508D01*
Y-130242D01*
X314430Y-123320D01*
X316374D01*
Y-125800D01*
X320862D01*
Y-128800D01*
X316374D01*
Y-131800D01*
X321882D01*
X327390D01*
Y-128800D01*
X322902D01*
Y-125800D01*
X327390D01*
Y-122800D01*
X321882D01*
Y-122300D01*
X321382D01*
Y-118800D01*
D02*
G37*
G36*
X114400Y-135200D02*
X111600D01*
Y-136800D01*
X114400D01*
Y-135200D01*
D02*
G37*
G36*
X86800D02*
X84000D01*
Y-136800D01*
X86800D01*
Y-135200D01*
D02*
G37*
G36*
X57390Y-132600D02*
X51882D01*
X46374D01*
Y-135600D01*
X50862D01*
Y-138600D01*
X46374D01*
Y-141600D01*
X51882D01*
Y-142600D01*
X46374D01*
Y-145600D01*
X50862D01*
Y-148600D01*
X46374D01*
Y-151600D01*
X51882D01*
X57390D01*
Y-148600D01*
X52901D01*
Y-145600D01*
X57390D01*
Y-143320D01*
X84000D01*
Y-144400D01*
X86280D01*
Y-145200D01*
X84000D01*
Y-146800D01*
X87300D01*
X90600D01*
Y-145200D01*
X88320D01*
Y-144400D01*
X90600D01*
Y-142800D01*
X87300D01*
Y-141800D01*
X90600D01*
Y-140200D01*
X88320D01*
Y-139400D01*
X90600D01*
Y-138320D01*
X107800D01*
Y-139400D01*
X110600D01*
Y-137300D01*
Y-135200D01*
X107800D01*
Y-136280D01*
X90600D01*
Y-135200D01*
X87800D01*
Y-137300D01*
X87300D01*
Y-137800D01*
X84000D01*
Y-139400D01*
X86280D01*
Y-140200D01*
X84000D01*
Y-141280D01*
X57390D01*
Y-138600D01*
X52901D01*
Y-135600D01*
X57390D01*
Y-132600D01*
D02*
G37*
G36*
X215200Y-120200D02*
X193600D01*
Y-141100D01*
X215200D01*
Y-120200D01*
D02*
G37*
G36*
X307508Y-132800D02*
X302000D01*
X296492D01*
Y-135800D01*
X300980D01*
Y-138800D01*
X296492D01*
Y-141800D01*
X302000D01*
X307508D01*
Y-138800D01*
X303020D01*
Y-135800D01*
X307508D01*
Y-132800D01*
D02*
G37*
G36*
X327390Y-132800D02*
X321882D01*
X316374D01*
Y-135800D01*
X320862D01*
Y-138800D01*
X316374D01*
Y-141800D01*
X321882D01*
X327390D01*
Y-138800D01*
X322902D01*
Y-135800D01*
X327390D01*
Y-132800D01*
D02*
G37*
G36*
X37508Y-142600D02*
X32000D01*
X26492D01*
Y-145600D01*
X30980D01*
Y-148600D01*
X26492D01*
Y-151600D01*
X32000D01*
X37508D01*
Y-148600D01*
X33020D01*
Y-145600D01*
X37508D01*
Y-142600D01*
D02*
G37*
G36*
X307508Y-142800D02*
X302000D01*
X296492D01*
Y-145800D01*
X300980D01*
Y-148800D01*
X296492D01*
Y-151800D01*
X302000D01*
X307508D01*
Y-148800D01*
X303020D01*
Y-145800D01*
X307508D01*
Y-142800D01*
D02*
G37*
G36*
X327390Y-142800D02*
X321882D01*
X316374D01*
Y-145800D01*
X320862D01*
Y-148800D01*
X316374D01*
Y-151800D01*
X321882D01*
X327390D01*
Y-148800D01*
X322902D01*
Y-145800D01*
X327390D01*
Y-142800D01*
D02*
G37*
G36*
X90600Y-147800D02*
X87300D01*
X84000D01*
Y-149400D01*
X86280D01*
Y-150200D01*
X84000D01*
Y-151800D01*
X87300D01*
X90600D01*
Y-150200D01*
X88320D01*
Y-149400D01*
X90600D01*
Y-147800D01*
D02*
G37*
G36*
Y-152800D02*
X87800D01*
Y-154400D01*
X90600D01*
Y-152800D01*
D02*
G37*
G36*
X86800D02*
X84000D01*
Y-154400D01*
X86800D01*
Y-152800D01*
D02*
G37*
G36*
X37508Y-152600D02*
X32000D01*
X26492D01*
Y-155600D01*
X30980D01*
Y-158600D01*
X26492D01*
Y-161600D01*
X32000D01*
X37508D01*
Y-158600D01*
X33020D01*
Y-155600D01*
X37508D01*
Y-152600D01*
D02*
G37*
G36*
X57390Y-152600D02*
X51882D01*
X46374D01*
Y-155600D01*
X50862D01*
Y-158600D01*
X46374D01*
Y-161600D01*
X51882D01*
X57390D01*
Y-158600D01*
X52901D01*
Y-155600D01*
X57390D01*
Y-152600D01*
D02*
G37*
G36*
X307508Y-152800D02*
X302000D01*
X296492D01*
Y-155800D01*
X300980D01*
Y-158800D01*
X296492D01*
Y-161800D01*
X302000D01*
X307508D01*
Y-158800D01*
X303020D01*
Y-155800D01*
X307508D01*
Y-152800D01*
D02*
G37*
G36*
X327390Y-152800D02*
X321882D01*
X316374D01*
Y-155800D01*
X320862D01*
Y-158800D01*
X316374D01*
Y-161800D01*
X321882D01*
X327390D01*
Y-158800D01*
X322902D01*
Y-155800D01*
X327390D01*
Y-152800D01*
D02*
G37*
G36*
X237800Y-142100D02*
X216200D01*
Y-163000D01*
X237800D01*
Y-142100D01*
D02*
G37*
G36*
X215200D02*
X193600D01*
Y-163000D01*
X215200D01*
Y-142100D01*
D02*
G37*
G36*
X100125Y-168328D02*
X96369D01*
Y-169380D01*
X94602D01*
X94350Y-169128D01*
X93798Y-168900D01*
X93202D01*
X92650Y-169128D01*
X92228Y-169550D01*
X92000Y-170102D01*
Y-170698D01*
X92228Y-171250D01*
X92650Y-171672D01*
X93202Y-171900D01*
X93798D01*
X94350Y-171672D01*
X94602Y-171420D01*
X96369D01*
Y-172872D01*
X100125D01*
Y-168328D01*
D02*
G37*
G36*
X126778Y-168228D02*
X124900D01*
Y-170500D01*
X126778D01*
Y-168228D01*
D02*
G37*
G36*
X123900D02*
X122022D01*
Y-170500D01*
X123900D01*
Y-168228D01*
D02*
G37*
G36*
X37508Y-162600D02*
X32000D01*
X26492D01*
Y-165600D01*
X30980D01*
Y-168600D01*
X26492D01*
Y-171600D01*
X32000D01*
X37508D01*
Y-168600D01*
X33020D01*
Y-165600D01*
X37508D01*
Y-162600D01*
D02*
G37*
G36*
X57390Y-162600D02*
X51882D01*
X46374D01*
Y-165600D01*
X50862D01*
Y-168600D01*
X46374D01*
Y-171600D01*
X51882D01*
X57390D01*
Y-168600D01*
X52901D01*
Y-165600D01*
X57390D01*
Y-162600D01*
D02*
G37*
G36*
X307508Y-162800D02*
X302000D01*
X296492D01*
Y-165800D01*
X300980D01*
Y-168800D01*
X296492D01*
Y-171800D01*
X302000D01*
X307508D01*
Y-168800D01*
X303020D01*
Y-165800D01*
X307508D01*
Y-162800D01*
D02*
G37*
G36*
X327390Y-162800D02*
X321882D01*
X316374D01*
Y-165800D01*
X320862D01*
Y-168800D01*
X316374D01*
Y-171800D01*
X321882D01*
X327390D01*
Y-168800D01*
X322902D01*
Y-165800D01*
X327390D01*
Y-162800D01*
D02*
G37*
G36*
X149250Y-168150D02*
X139550D01*
Y-172408D01*
X133079Y-178879D01*
X132858Y-179210D01*
X132780Y-179600D01*
Y-187554D01*
X131135D01*
Y-195247D01*
X136465D01*
Y-187554D01*
X134820D01*
Y-180022D01*
X140992Y-173850D01*
X149250D01*
Y-171920D01*
X152054D01*
X152306Y-172172D01*
X152857Y-172400D01*
X153454D01*
X154006Y-172172D01*
X154428Y-171750D01*
X154656Y-171198D01*
Y-170602D01*
X154428Y-170050D01*
X154006Y-169628D01*
X153454Y-169400D01*
X152857D01*
X152306Y-169628D01*
X152054Y-169880D01*
X149250D01*
Y-168150D01*
D02*
G37*
G36*
X113900Y-150700D02*
X108300D01*
Y-152458D01*
X103432Y-157326D01*
X103211Y-157657D01*
X103133Y-158047D01*
Y-168328D01*
X102275D01*
Y-172872D01*
X106031D01*
Y-172020D01*
X116616D01*
Y-173272D01*
X120372D01*
Y-168728D01*
X116616D01*
Y-169980D01*
X106031D01*
Y-168328D01*
X105172D01*
Y-158470D01*
X109742Y-153900D01*
X113900D01*
Y-150700D01*
D02*
G37*
G36*
X126778Y-171500D02*
X124900D01*
Y-173772D01*
X126778D01*
Y-171500D01*
D02*
G37*
G36*
X123900D02*
X122022D01*
Y-173772D01*
X123900D01*
Y-171500D01*
D02*
G37*
G36*
X249046Y-172905D02*
X245200D01*
Y-175570D01*
X249046D01*
Y-172905D01*
D02*
G37*
G36*
X244200D02*
X240353D01*
Y-175570D01*
X244200D01*
Y-172905D01*
D02*
G37*
G36*
X218600Y-171700D02*
X216200D01*
Y-179100D01*
X218600D01*
Y-171700D01*
D02*
G37*
G36*
X215200D02*
X212800D01*
Y-179100D01*
X215200D01*
Y-171700D01*
D02*
G37*
G36*
X249046Y-176570D02*
X245200D01*
Y-179235D01*
X249046D01*
Y-176570D01*
D02*
G37*
G36*
X244200D02*
X240353D01*
Y-179235D01*
X244200D01*
Y-176570D01*
D02*
G37*
G36*
X37508Y-172600D02*
X32000D01*
X26492D01*
Y-175600D01*
X30980D01*
Y-178600D01*
X26492D01*
Y-181600D01*
X32000D01*
X37508D01*
Y-178600D01*
X33020D01*
Y-175600D01*
X37508D01*
Y-172600D01*
D02*
G37*
G36*
X57390Y-172600D02*
X51882D01*
X46374D01*
Y-175600D01*
X50862D01*
Y-178600D01*
X46374D01*
Y-181600D01*
X51882D01*
X57390D01*
Y-178600D01*
X52901D01*
Y-175600D01*
X57390D01*
Y-172600D01*
D02*
G37*
G36*
X307508Y-172800D02*
X302000D01*
X296492D01*
Y-175800D01*
X300980D01*
Y-178800D01*
X296492D01*
Y-181800D01*
X302000D01*
X307508D01*
Y-178800D01*
X303020D01*
Y-175800D01*
X307508D01*
Y-172800D01*
D02*
G37*
G36*
X327390Y-172800D02*
X321882D01*
X316374D01*
Y-175800D01*
X320862D01*
Y-178800D01*
X316374D01*
Y-181800D01*
X321882D01*
X327390D01*
Y-178800D01*
X322902D01*
Y-175800D01*
X327390D01*
Y-172800D01*
D02*
G37*
G36*
X189246Y-182750D02*
X185400D01*
Y-185415D01*
X189246D01*
Y-182750D01*
D02*
G37*
G36*
X184400D02*
X180553D01*
Y-185415D01*
X184400D01*
Y-182750D01*
D02*
G37*
G36*
X224793Y-172200D02*
X219993D01*
Y-187000D01*
X224793D01*
Y-172200D01*
D02*
G37*
G36*
X218600Y-180100D02*
X216200D01*
Y-187500D01*
X218600D01*
Y-180100D01*
D02*
G37*
G36*
X215200D02*
X212800D01*
Y-187500D01*
X215200D01*
Y-180100D01*
D02*
G37*
G36*
X231486Y-172200D02*
X226686D01*
Y-187000D01*
X231486D01*
Y-180620D01*
X235997D01*
X240854Y-185477D01*
Y-189365D01*
X248547D01*
Y-187720D01*
X250220D01*
X250472Y-187972D01*
X251024Y-188200D01*
X251620D01*
X252172Y-187972D01*
X252594Y-187550D01*
X252822Y-186998D01*
Y-186402D01*
X252594Y-185850D01*
X252172Y-185428D01*
X251620Y-185200D01*
X251024D01*
X250472Y-185428D01*
X250220Y-185680D01*
X248547D01*
Y-184035D01*
X242296D01*
X237140Y-178879D01*
X236809Y-178658D01*
X236419Y-178580D01*
X231486D01*
Y-172200D01*
D02*
G37*
G36*
X189246Y-186415D02*
X185400D01*
Y-189080D01*
X189246D01*
Y-186415D01*
D02*
G37*
G36*
X184400D02*
X180553D01*
Y-189080D01*
X184400D01*
Y-186415D01*
D02*
G37*
G36*
X126335Y-187054D02*
X123670D01*
Y-190900D01*
X126335D01*
Y-187054D01*
D02*
G37*
G36*
X122670D02*
X120005D01*
Y-190900D01*
X122670D01*
Y-187054D01*
D02*
G37*
G36*
X37508Y-182600D02*
X32000D01*
X26492D01*
Y-185600D01*
X30980D01*
Y-188600D01*
X26492D01*
Y-191600D01*
X32000D01*
X37508D01*
Y-188600D01*
X33020D01*
Y-185600D01*
X37508D01*
Y-182600D01*
D02*
G37*
G36*
X57390Y-182600D02*
X51882D01*
X46374D01*
Y-185600D01*
X50862D01*
Y-188600D01*
X46374D01*
Y-191600D01*
X51882D01*
X57390D01*
Y-188600D01*
X52901D01*
Y-185600D01*
X57390D01*
Y-182600D01*
D02*
G37*
G36*
X307508Y-182800D02*
X302000D01*
X296492D01*
Y-185800D01*
X300980D01*
Y-188800D01*
X296492D01*
Y-191800D01*
X302000D01*
X307508D01*
Y-188800D01*
X303020D01*
Y-185800D01*
X307508D01*
Y-182800D01*
D02*
G37*
G36*
X327390Y-182800D02*
X321882D01*
X316374D01*
Y-185800D01*
X320862D01*
Y-188800D01*
X316374D01*
Y-191800D01*
X321882D01*
X327390D01*
Y-188800D01*
X322902D01*
Y-185800D01*
X327390D01*
Y-182800D01*
D02*
G37*
G36*
X126335Y-191900D02*
X123670D01*
Y-195747D01*
X126335D01*
Y-191900D01*
D02*
G37*
G36*
X122670D02*
X120005D01*
Y-195747D01*
X122670D01*
Y-191900D01*
D02*
G37*
G36*
X37508Y-192600D02*
X32000D01*
X26492D01*
Y-195600D01*
X30980D01*
Y-198600D01*
X26492D01*
Y-201600D01*
X32000D01*
X37508D01*
Y-198600D01*
X33020D01*
Y-195600D01*
X37508D01*
Y-192600D01*
D02*
G37*
G36*
X57390Y-192600D02*
X51882D01*
X46374D01*
Y-195600D01*
X50862D01*
Y-198600D01*
X46374D01*
Y-201600D01*
X51882D01*
X57390D01*
Y-198600D01*
X52901D01*
Y-195600D01*
X57390D01*
Y-192600D01*
D02*
G37*
G36*
X307508Y-192800D02*
X302000D01*
X296492D01*
Y-195800D01*
X300980D01*
Y-198800D01*
X296492D01*
Y-201800D01*
X302000D01*
X307508D01*
Y-198800D01*
X303020D01*
Y-195800D01*
X307508D01*
Y-192800D01*
D02*
G37*
G36*
X327390Y-192800D02*
X321882D01*
X316374D01*
Y-195800D01*
X320862D01*
Y-198800D01*
X316374D01*
Y-201800D01*
X321882D01*
X327390D01*
Y-198800D01*
X322902D01*
Y-195800D01*
X327390D01*
Y-192800D01*
D02*
G37*
G36*
X37508Y-202600D02*
X32000D01*
X26492D01*
Y-205600D01*
X30980D01*
Y-208600D01*
X26492D01*
Y-211600D01*
X32000D01*
X37508D01*
Y-208600D01*
X33020D01*
Y-205600D01*
X37508D01*
Y-202600D01*
D02*
G37*
G36*
X57390Y-202600D02*
X51882D01*
X46374D01*
Y-205600D01*
X50862D01*
Y-208600D01*
X46374D01*
Y-211600D01*
X51882D01*
X57390D01*
Y-208600D01*
X52901D01*
Y-205600D01*
X57390D01*
Y-202600D01*
D02*
G37*
G36*
X307508Y-202800D02*
X302000D01*
X296492D01*
Y-205800D01*
X300980D01*
Y-208800D01*
X296492D01*
Y-211800D01*
X302000D01*
X307508D01*
Y-208800D01*
X303020D01*
Y-205800D01*
X307508D01*
Y-202800D01*
D02*
G37*
G36*
X222390Y-207954D02*
X219724D01*
Y-211800D01*
X222390D01*
Y-207954D01*
D02*
G37*
G36*
X218724D02*
X216059D01*
Y-211800D01*
X218724D01*
Y-207954D01*
D02*
G37*
G36*
X327390Y-202800D02*
X321882D01*
X316374D01*
Y-205800D01*
X320862D01*
Y-208800D01*
X316374D01*
Y-211800D01*
X321882D01*
X327390D01*
Y-208800D01*
X322902D01*
Y-205800D01*
X327390D01*
Y-202800D01*
D02*
G37*
G36*
X255865Y-211353D02*
X253200D01*
Y-215200D01*
X255865D01*
Y-211353D01*
D02*
G37*
G36*
X252200D02*
X249535D01*
Y-215200D01*
X252200D01*
Y-211353D01*
D02*
G37*
G36*
X222390Y-212800D02*
X219724D01*
Y-216647D01*
X222390D01*
Y-212800D01*
D02*
G37*
G36*
X218724D02*
X216059D01*
Y-216647D01*
X218724D01*
Y-212800D01*
D02*
G37*
G36*
X255865Y-216200D02*
X253200D01*
Y-220046D01*
X255865D01*
Y-216200D01*
D02*
G37*
G36*
X252200D02*
X249535D01*
Y-220046D01*
X252200D01*
Y-216200D01*
D02*
G37*
G36*
X37508Y-212600D02*
X32000D01*
X26492D01*
Y-215600D01*
X30980D01*
Y-218600D01*
X26492D01*
Y-221600D01*
X32000D01*
X37508D01*
Y-218600D01*
X33020D01*
Y-215600D01*
X37508D01*
Y-212600D01*
D02*
G37*
G36*
X57390Y-212600D02*
X51882D01*
X46374D01*
Y-215600D01*
X50862D01*
Y-218600D01*
X46374D01*
Y-221600D01*
X51882D01*
X57390D01*
Y-218600D01*
X52901D01*
Y-215600D01*
X57390D01*
Y-212600D01*
D02*
G37*
G36*
X307508Y-212800D02*
X302000D01*
X296492D01*
Y-215800D01*
X300980D01*
Y-218800D01*
X296492D01*
Y-221800D01*
X302000D01*
X307508D01*
Y-218800D01*
X303020D01*
Y-215800D01*
X307508D01*
Y-212800D01*
D02*
G37*
G36*
X327390Y-212800D02*
X321882D01*
X316374D01*
Y-215800D01*
X320862D01*
Y-218800D01*
X316374D01*
Y-221800D01*
X321882D01*
X327390D01*
Y-218800D01*
X322902D01*
Y-215800D01*
X327390D01*
Y-212800D01*
D02*
G37*
G36*
X240529Y-226464D02*
X236682D01*
Y-229129D01*
X240529D01*
Y-226464D01*
D02*
G37*
G36*
X235682D02*
X231836D01*
Y-229129D01*
X235682D01*
Y-226464D01*
D02*
G37*
G36*
X37508Y-222600D02*
X32000D01*
X26492D01*
Y-225600D01*
X30980D01*
Y-228600D01*
X26492D01*
Y-231600D01*
X32000D01*
X37508D01*
Y-228600D01*
X33020D01*
Y-225600D01*
X37508D01*
Y-222600D01*
D02*
G37*
G36*
X57390Y-222600D02*
X51882D01*
X46374D01*
Y-225600D01*
X50862D01*
Y-228600D01*
X46374D01*
Y-231600D01*
X51882D01*
X57390D01*
Y-228600D01*
X52901D01*
Y-225600D01*
X57390D01*
Y-222600D01*
D02*
G37*
G36*
X307508Y-222800D02*
X302000D01*
X296492D01*
Y-225800D01*
X300980D01*
Y-228800D01*
X296492D01*
Y-231800D01*
X302000D01*
X307508D01*
Y-228800D01*
X303020D01*
Y-225800D01*
X307508D01*
Y-222800D01*
D02*
G37*
G36*
X327390Y-222800D02*
X321882D01*
X316374D01*
Y-225800D01*
X320862D01*
Y-228800D01*
X316374D01*
Y-231800D01*
X321882D01*
X327390D01*
Y-228800D01*
X322902D01*
Y-225800D01*
X327390D01*
Y-222800D01*
D02*
G37*
G36*
X240529Y-230129D02*
X236682D01*
Y-232794D01*
X240529D01*
Y-230129D01*
D02*
G37*
G36*
X235682D02*
X231836D01*
Y-232794D01*
X235682D01*
Y-230129D01*
D02*
G37*
G36*
X251000Y-234624D02*
X248900D01*
Y-235624D01*
X251000D01*
Y-234624D01*
D02*
G37*
G36*
X37508Y-232600D02*
X32000D01*
X26492D01*
Y-235600D01*
X30980D01*
Y-238600D01*
X26492D01*
Y-241600D01*
X32000D01*
X37508D01*
Y-238600D01*
X33020D01*
Y-235600D01*
X37508D01*
Y-232600D01*
D02*
G37*
G36*
X57390Y-232600D02*
X51882D01*
X46374D01*
Y-235600D01*
X50862D01*
Y-238600D01*
X46374D01*
Y-241600D01*
X51882D01*
X57390D01*
Y-238600D01*
X52901D01*
Y-235600D01*
X57390D01*
Y-232600D01*
D02*
G37*
G36*
X307508Y-232800D02*
X302000D01*
X296492D01*
Y-235800D01*
X300980D01*
Y-238800D01*
X296492D01*
Y-241800D01*
X302000D01*
X307508D01*
Y-238800D01*
X303020D01*
Y-235800D01*
X307508D01*
Y-232800D01*
D02*
G37*
G36*
X327390Y-232800D02*
X321882D01*
X316374D01*
Y-235800D01*
X320862D01*
Y-238800D01*
X316374D01*
Y-241800D01*
X321882D01*
X327390D01*
Y-238800D01*
X322902D01*
Y-235800D01*
X327390D01*
Y-232800D01*
D02*
G37*
G36*
X140122Y-41278D02*
X138878D01*
X137677Y-41599D01*
X136600Y-42221D01*
X135721Y-43100D01*
X135099Y-44177D01*
X134778Y-45378D01*
Y-46622D01*
X135099Y-47823D01*
X135721Y-48900D01*
X136600Y-49779D01*
X137677Y-50401D01*
X138878Y-50722D01*
X140122D01*
X141323Y-50401D01*
X142400Y-49779D01*
X143279Y-48900D01*
X143834Y-47937D01*
X163485D01*
X235285Y-119738D01*
X235094Y-120200D01*
X216200D01*
Y-141100D01*
X237800D01*
Y-122906D01*
X238262Y-122715D01*
X261393Y-145845D01*
Y-211854D01*
X260665D01*
Y-218105D01*
X256579Y-222190D01*
X256358Y-222521D01*
X256280Y-222911D01*
Y-234247D01*
X253350D01*
Y-234624D01*
X252000D01*
Y-236124D01*
X251500D01*
Y-236624D01*
X248900D01*
Y-237073D01*
X239529D01*
X239139Y-237151D01*
X238808Y-237372D01*
X238587Y-237594D01*
X232336D01*
Y-242924D01*
X240029D01*
Y-239113D01*
X249400D01*
Y-241011D01*
X248385D01*
X247995Y-241089D01*
X247664Y-241310D01*
X245232Y-243742D01*
X219721D01*
X216772Y-240793D01*
Y-238479D01*
X212228D01*
X212228Y-238479D01*
X212148Y-237852D01*
X213670Y-236330D01*
X216772D01*
Y-232574D01*
X215520D01*
Y-219387D01*
X215442Y-218996D01*
X215221Y-218666D01*
X211260Y-214704D01*
Y-208453D01*
X210027D01*
Y-187000D01*
X211407D01*
Y-172200D01*
X206607D01*
Y-178580D01*
X204714D01*
Y-172200D01*
X199914D01*
Y-174266D01*
X188747D01*
Y-172620D01*
X185920D01*
Y-160100D01*
X185842Y-159710D01*
X185621Y-159379D01*
X154165Y-127923D01*
X153834Y-127702D01*
X153444Y-127625D01*
X137259D01*
X136869Y-127702D01*
X136538Y-127923D01*
X120189Y-144272D01*
X114515D01*
X113900Y-143658D01*
Y-142142D01*
X123176Y-132866D01*
X123397Y-132535D01*
X123475Y-132145D01*
Y-128947D01*
X125120D01*
Y-121255D01*
X119790D01*
Y-128947D01*
X121435D01*
Y-131723D01*
X114862Y-138296D01*
X114400Y-138105D01*
Y-137800D01*
X111600D01*
Y-139400D01*
X113105D01*
X113296Y-139862D01*
X112458Y-140700D01*
X108300D01*
Y-143900D01*
X111258D01*
X112596Y-145238D01*
X112405Y-145700D01*
X108300D01*
Y-148900D01*
X113900D01*
Y-148320D01*
X120725D01*
X121115Y-148242D01*
X121446Y-148021D01*
X132847Y-136620D01*
X139550D01*
Y-140392D01*
X143380D01*
Y-159450D01*
X139550D01*
Y-165150D01*
X149250D01*
Y-159450D01*
X145420D01*
Y-140392D01*
X149250D01*
Y-130808D01*
X139550D01*
Y-134580D01*
X133418D01*
X133227Y-134118D01*
X137681Y-129664D01*
X153022D01*
X183880Y-160522D01*
Y-172620D01*
X181053D01*
Y-177950D01*
X188747D01*
Y-176305D01*
X199914D01*
Y-187000D01*
X204714D01*
Y-180620D01*
X206607D01*
Y-187000D01*
X207987D01*
Y-208453D01*
X205929D01*
Y-216146D01*
X209818D01*
X213480Y-219809D01*
Y-232574D01*
X212228D01*
Y-234888D01*
X210086Y-237030D01*
X209865Y-237361D01*
X209787Y-237751D01*
Y-243406D01*
X209865Y-243796D01*
X210086Y-244126D01*
X214443Y-248483D01*
X214773Y-248704D01*
X215164Y-248782D01*
X259779D01*
X260169Y-248704D01*
X260500Y-248483D01*
X262721Y-246262D01*
X262942Y-245931D01*
X263020Y-245541D01*
Y-245020D01*
X263100D01*
X263198Y-245000D01*
X265200D01*
Y-243031D01*
Y-239093D01*
Y-235124D01*
X263198D01*
X263100Y-235104D01*
X263001Y-235124D01*
X261250D01*
Y-234247D01*
X258320D01*
Y-223333D01*
X262106Y-219547D01*
X265995D01*
Y-211854D01*
X265267D01*
Y-145043D01*
X265120Y-144302D01*
X264700Y-143673D01*
X165657Y-44630D01*
X165028Y-44210D01*
X164287Y-44063D01*
X143834D01*
X143279Y-43100D01*
X142400Y-42221D01*
X141323Y-41599D01*
X140122Y-41278D01*
D02*
G37*
G36*
X37508Y-242600D02*
X32000D01*
X26492D01*
Y-245600D01*
X30980D01*
Y-248600D01*
X26492D01*
Y-251600D01*
X32000D01*
X37508D01*
Y-248600D01*
X33020D01*
Y-245600D01*
X37508D01*
Y-242600D01*
D02*
G37*
G36*
X57390Y-242600D02*
X51882D01*
X46374D01*
Y-245600D01*
X50862D01*
Y-248600D01*
X46374D01*
Y-251600D01*
X51882D01*
X57390D01*
Y-248600D01*
X52901D01*
Y-245600D01*
X57390D01*
Y-242600D01*
D02*
G37*
G36*
X307508Y-242800D02*
X302000D01*
X296492D01*
Y-245800D01*
X300980D01*
Y-248800D01*
X296492D01*
Y-251800D01*
X302000D01*
X307508D01*
Y-248800D01*
X303020D01*
Y-245800D01*
X307508D01*
Y-242800D01*
D02*
G37*
G36*
X327390Y-242800D02*
X321882D01*
X316374D01*
Y-245800D01*
X320862D01*
Y-248800D01*
X316374D01*
Y-251800D01*
X321882D01*
X327390D01*
Y-248800D01*
X322902D01*
Y-245800D01*
X327390D01*
Y-242800D01*
D02*
G37*
G36*
X341724Y-249500D02*
X340276D01*
X338877Y-249875D01*
X337623Y-250599D01*
X336599Y-251623D01*
X335875Y-252877D01*
X335500Y-254276D01*
Y-255724D01*
X335875Y-257123D01*
X336599Y-258377D01*
X337623Y-259401D01*
X338877Y-260125D01*
X340276Y-260500D01*
X341724D01*
X343123Y-260125D01*
X344377Y-259401D01*
X345401Y-258377D01*
X346125Y-257123D01*
X346500Y-255724D01*
Y-254276D01*
X346125Y-252877D01*
X345401Y-251623D01*
X344377Y-250599D01*
X343123Y-249875D01*
X341724Y-249500D01*
D02*
G37*
G36*
X14724D02*
X13276D01*
X11877Y-249875D01*
X10623Y-250599D01*
X9599Y-251623D01*
X8875Y-252877D01*
X8500Y-254276D01*
Y-255724D01*
X8875Y-257123D01*
X9599Y-258377D01*
X10623Y-259401D01*
X11877Y-260125D01*
X13276Y-260500D01*
X14724D01*
X16123Y-260125D01*
X17377Y-259401D01*
X18401Y-258377D01*
X19125Y-257123D01*
X19500Y-255724D01*
Y-254276D01*
X19125Y-252877D01*
X18401Y-251623D01*
X17377Y-250599D01*
X16123Y-249875D01*
X14724Y-249500D01*
D02*
G37*
G36*
X37508Y-252600D02*
X32000D01*
X26492D01*
Y-255600D01*
X30980D01*
Y-258600D01*
X26492D01*
Y-261600D01*
X32000D01*
X37508D01*
Y-258600D01*
X33020D01*
Y-255600D01*
X37508D01*
Y-252600D01*
D02*
G37*
G36*
X57390Y-252600D02*
X51882D01*
X46374D01*
Y-255600D01*
X50862D01*
Y-258600D01*
X46374D01*
Y-261600D01*
X51882D01*
X57390D01*
Y-258600D01*
X52901D01*
Y-255600D01*
X57390D01*
Y-252600D01*
D02*
G37*
G36*
X307508Y-252800D02*
X302000D01*
X296492D01*
Y-255800D01*
X300980D01*
Y-258800D01*
X296492D01*
Y-261800D01*
X302000D01*
X307508D01*
Y-258800D01*
X303020D01*
Y-255800D01*
X307508D01*
Y-252800D01*
D02*
G37*
G36*
X327390Y-252800D02*
X321882D01*
X316374D01*
Y-255800D01*
X320862D01*
Y-258800D01*
X316374D01*
Y-261800D01*
X321882D01*
X327390D01*
Y-258800D01*
X322902D01*
Y-255800D01*
X327390D01*
Y-252800D01*
D02*
G37*
G36*
X57390Y-262600D02*
X52382D01*
Y-265600D01*
X57390D01*
Y-262600D01*
D02*
G37*
G36*
X307508Y-262800D02*
X302000D01*
X296492D01*
Y-265800D01*
X300980D01*
Y-268800D01*
X296492D01*
Y-271800D01*
X302000D01*
X307508D01*
Y-268800D01*
X303020D01*
Y-265800D01*
X307508D01*
Y-262800D01*
D02*
G37*
G36*
X327390Y-262800D02*
X321882D01*
X316374D01*
Y-265800D01*
X320862D01*
Y-268800D01*
X316374D01*
Y-271800D01*
X321882D01*
X327390D01*
Y-268800D01*
X322902D01*
Y-265800D01*
X327390D01*
Y-262800D01*
D02*
G37*
G36*
X56890Y-269100D02*
X46874D01*
Y-275100D01*
X56890D01*
Y-272920D01*
X58798D01*
X59050Y-273172D01*
X59602Y-273400D01*
X60198D01*
X60750Y-273172D01*
X61172Y-272750D01*
X61400Y-272198D01*
Y-271602D01*
X61172Y-271050D01*
X60750Y-270628D01*
X60198Y-270400D01*
X59602D01*
X59050Y-270628D01*
X58798Y-270880D01*
X56890D01*
Y-269100D01*
D02*
G37*
G36*
X37508Y-262600D02*
X32000D01*
X26492D01*
Y-265600D01*
X30980D01*
Y-268600D01*
X26492D01*
Y-271600D01*
X32000D01*
Y-272100D01*
X32500D01*
Y-275600D01*
X37508D01*
Y-273120D01*
X39874D01*
X40264Y-273042D01*
X40595Y-272821D01*
X47816Y-265600D01*
X51382D01*
Y-262600D01*
X46374D01*
Y-264158D01*
X39452Y-271080D01*
X37508D01*
Y-268600D01*
X33020D01*
Y-265600D01*
X37508D01*
Y-262600D01*
D02*
G37*
G36*
X31500Y-272600D02*
X26492D01*
Y-275600D01*
X31500D01*
Y-272600D01*
D02*
G37*
G36*
X327390Y-272800D02*
X322382D01*
Y-275800D01*
X327390D01*
Y-272800D01*
D02*
G37*
G36*
X321382D02*
X316374D01*
Y-275800D01*
X321382D01*
Y-272800D01*
D02*
G37*
G36*
X307508Y-272800D02*
X302000D01*
X296492D01*
Y-275800D01*
X300980D01*
Y-288078D01*
X292409Y-296649D01*
X291516Y-296133D01*
X290188Y-295778D01*
X290000D01*
Y-300500D01*
X294722D01*
Y-300312D01*
X294367Y-298984D01*
X293851Y-298091D01*
X302721Y-289221D01*
X302942Y-288890D01*
X303020Y-288500D01*
Y-275800D01*
X307508D01*
Y-272800D01*
D02*
G37*
G36*
X289000Y-295778D02*
X288812D01*
X287484Y-296133D01*
X286293Y-296821D01*
X285321Y-297793D01*
X284633Y-298984D01*
X284278Y-300312D01*
Y-300500D01*
X289000D01*
Y-295778D01*
D02*
G37*
G36*
X215188D02*
X215000D01*
Y-300500D01*
X219722D01*
Y-300312D01*
X219367Y-298984D01*
X218679Y-297793D01*
X217707Y-296821D01*
X216516Y-296133D01*
X215188Y-295778D01*
D02*
G37*
G36*
X214000D02*
X213812D01*
X212484Y-296133D01*
X211293Y-296821D01*
X210321Y-297793D01*
X209633Y-298984D01*
X209278Y-300312D01*
Y-300500D01*
X214000D01*
Y-295778D01*
D02*
G37*
G36*
X140122Y-296278D02*
X138878D01*
X137677Y-296599D01*
X136600Y-297221D01*
X135721Y-298100D01*
X135099Y-299177D01*
X134778Y-300378D01*
Y-301622D01*
X135099Y-302823D01*
X135721Y-303900D01*
X136600Y-304779D01*
X137677Y-305401D01*
X138878Y-305722D01*
X140122D01*
X141323Y-305401D01*
X142400Y-304779D01*
X143279Y-303900D01*
X143901Y-302823D01*
X144222Y-301622D01*
Y-300378D01*
X143901Y-299177D01*
X143279Y-298100D01*
X142400Y-297221D01*
X141323Y-296599D01*
X140122Y-296278D01*
D02*
G37*
G36*
X65122D02*
X63878D01*
X62677Y-296599D01*
X61600Y-297221D01*
X60721Y-298100D01*
X60099Y-299177D01*
X59778Y-300378D01*
Y-301622D01*
X60099Y-302823D01*
X60721Y-303900D01*
X61600Y-304779D01*
X62677Y-305401D01*
X63878Y-305722D01*
X65122D01*
X66323Y-305401D01*
X67400Y-304779D01*
X68279Y-303900D01*
X68901Y-302823D01*
X69222Y-301622D01*
Y-300378D01*
X68901Y-299177D01*
X68279Y-298100D01*
X67400Y-297221D01*
X66323Y-296599D01*
X65122Y-296278D01*
D02*
G37*
G36*
X294722Y-301500D02*
X290000D01*
Y-306222D01*
X290188D01*
X291516Y-305867D01*
X292707Y-305179D01*
X293679Y-304207D01*
X294367Y-303016D01*
X294722Y-301688D01*
Y-301500D01*
D02*
G37*
G36*
X289000D02*
X284278D01*
Y-301688D01*
X284633Y-303016D01*
X285321Y-304207D01*
X286293Y-305179D01*
X287484Y-305867D01*
X288812Y-306222D01*
X289000D01*
Y-301500D01*
D02*
G37*
G36*
X219722D02*
X215000D01*
Y-306222D01*
X215188D01*
X216516Y-305867D01*
X217707Y-305179D01*
X218679Y-304207D01*
X219367Y-303016D01*
X219722Y-301688D01*
Y-301500D01*
D02*
G37*
G36*
X214000D02*
X209278D01*
Y-301688D01*
X209633Y-303016D01*
X210321Y-304207D01*
X211293Y-305179D01*
X212484Y-305867D01*
X213812Y-306222D01*
X214000D01*
Y-301500D01*
D02*
G37*
G36*
X334788Y-326000D02*
X333212D01*
X331666Y-326307D01*
X330211Y-326910D01*
X328900Y-327786D01*
X327786Y-328900D01*
X326910Y-330211D01*
X326307Y-331666D01*
X326000Y-333212D01*
Y-334788D01*
X326307Y-336333D01*
X326910Y-337789D01*
X327786Y-339100D01*
X328900Y-340214D01*
X330211Y-341090D01*
X331666Y-341693D01*
X333212Y-342000D01*
X334788D01*
X336333Y-341693D01*
X337789Y-341090D01*
X339100Y-340214D01*
X340214Y-339100D01*
X341090Y-337789D01*
X341693Y-336333D01*
X342000Y-334788D01*
Y-333212D01*
X341693Y-331666D01*
X341090Y-330211D01*
X340214Y-328900D01*
X339100Y-327786D01*
X337789Y-326910D01*
X336333Y-326307D01*
X334788Y-326000D01*
D02*
G37*
G36*
X20788D02*
X19212D01*
X17666Y-326307D01*
X16211Y-326910D01*
X14900Y-327786D01*
X13786Y-328900D01*
X12911Y-330211D01*
X12307Y-331666D01*
X12000Y-333212D01*
Y-334788D01*
X12307Y-336333D01*
X12911Y-337789D01*
X13786Y-339100D01*
X14900Y-340214D01*
X16211Y-341090D01*
X17666Y-341693D01*
X19212Y-342000D01*
X20788D01*
X22333Y-341693D01*
X23789Y-341090D01*
X25100Y-340214D01*
X26214Y-339100D01*
X27090Y-337789D01*
X27693Y-336333D01*
X28000Y-334788D01*
Y-333212D01*
X27693Y-331666D01*
X27090Y-330211D01*
X26214Y-328900D01*
X25100Y-327786D01*
X23789Y-326910D01*
X22333Y-326307D01*
X20788Y-326000D01*
D02*
G37*
%LPD*%
G36*
X218578Y-245483D02*
X218908Y-245704D01*
X219298Y-245782D01*
X245654D01*
X246044Y-245704D01*
X246375Y-245483D01*
X248808Y-243051D01*
X249400D01*
Y-245000D01*
X253350D01*
Y-245877D01*
X259569D01*
X259760Y-246339D01*
X259357Y-246742D01*
X215586D01*
X211827Y-242983D01*
Y-242473D01*
X212228Y-242235D01*
X215330D01*
X218578Y-245483D01*
D02*
G37*
D11*
X120611Y-145292D02*
X137259Y-128644D01*
X114092Y-145292D02*
X120611D01*
X111100Y-142300D02*
X114092Y-145292D01*
X111100Y-142300D02*
X112300D01*
X184900Y-175285D02*
Y-160100D01*
X153444Y-128644D02*
X184900Y-160100D01*
X137259Y-128644D02*
X153444D01*
X120725Y-147300D02*
X132425Y-135600D01*
X144400D01*
X111100Y-147300D02*
X120725D01*
X93500Y-170400D02*
X98047D01*
X51882Y-272100D02*
X52082Y-271900D01*
X59900D01*
X243519Y-186700D02*
X251322D01*
X144500Y-170900D02*
X153156D01*
X302000Y-242300D02*
Y-232300D01*
X87300Y-137300D02*
X111100D01*
X87300Y-152300D02*
Y-147300D01*
Y-142300D01*
Y-137300D01*
X51882Y-132100D02*
Y-122100D01*
Y-142100D02*
Y-132100D01*
X52082Y-142300D02*
X87300D01*
X51882Y-142100D02*
X52082Y-142300D01*
X51882Y-152100D02*
Y-142100D01*
Y-162100D02*
Y-152100D01*
Y-172100D02*
Y-162100D01*
Y-182100D02*
Y-172100D01*
Y-192100D02*
Y-182100D01*
Y-202100D02*
Y-192100D01*
Y-212100D02*
Y-202100D01*
Y-222100D02*
Y-212100D01*
Y-232100D02*
Y-222100D01*
Y-242100D02*
Y-232100D01*
Y-252100D02*
Y-242100D01*
Y-262100D02*
Y-252100D01*
X39874Y-272100D02*
X49874Y-262100D01*
X32000Y-272100D02*
X39874D01*
X49874Y-262100D02*
X51882D01*
X32000Y-272100D02*
Y-262100D01*
Y-252100D01*
Y-242100D01*
Y-232100D01*
Y-222100D01*
Y-212100D01*
Y-202100D01*
Y-192100D02*
Y-182100D01*
Y-202100D02*
Y-192100D01*
Y-182100D02*
Y-172100D01*
Y-162100D01*
Y-152100D01*
Y-142100D01*
Y-132100D01*
X39874D01*
X49874Y-122100D02*
X51882D01*
X39874Y-132100D02*
X49874Y-122100D01*
X289500Y-301000D02*
X302000Y-288500D01*
Y-272300D01*
X321882D02*
Y-262300D01*
Y-252300D01*
Y-242300D01*
Y-232300D01*
Y-222300D01*
Y-212300D01*
Y-202300D01*
Y-192300D01*
Y-182300D01*
Y-172300D01*
Y-162300D01*
Y-152300D01*
Y-142300D01*
Y-132300D01*
Y-122300D01*
X314008D02*
X321882D01*
X302000Y-132300D02*
X304008D01*
X314008Y-122300D01*
X302000Y-142300D02*
Y-132300D01*
Y-152300D02*
Y-142300D01*
Y-162300D02*
Y-152300D01*
Y-172300D02*
Y-162300D01*
Y-182300D02*
Y-172300D01*
Y-192300D02*
Y-182300D01*
Y-202300D02*
Y-192300D01*
Y-212300D02*
Y-202300D01*
X257300Y-222911D02*
X263330Y-216881D01*
Y-215700D01*
X302000Y-222300D02*
Y-212300D01*
Y-232300D02*
Y-222300D01*
Y-262300D02*
Y-252300D01*
Y-242300D01*
Y-272300D02*
Y-262300D01*
X98047Y-170400D02*
X98247Y-170600D01*
X144400Y-171000D02*
X144500Y-170900D01*
X133800Y-191400D02*
Y-179600D01*
X142400Y-171000D01*
X144400D01*
X104153Y-158047D02*
X109900Y-152300D01*
X104153Y-170600D02*
Y-158047D01*
X109900Y-152300D02*
X111100D01*
X104153Y-170600D02*
X104553Y-171000D01*
X118494D01*
X144400Y-162300D02*
Y-135600D01*
X208594Y-212300D02*
X209007Y-211887D01*
Y-179600D01*
X202314D02*
X209007D01*
X210807Y-237751D02*
X214106Y-234452D01*
X210807Y-243406D02*
X215164Y-247762D01*
X210807Y-243406D02*
Y-237751D01*
X215164Y-247762D02*
X259779D01*
X262000Y-245541D01*
Y-244000D01*
X263100D01*
X214106Y-234452D02*
X214500D01*
X219298Y-244762D02*
X245654D01*
X214894Y-240357D02*
X219298Y-244762D01*
X214500Y-240357D02*
X214894D01*
X245654Y-244762D02*
X248385Y-242031D01*
X208594Y-213481D02*
X214500Y-219387D01*
Y-234452D02*
Y-219387D01*
X208594Y-213481D02*
Y-212300D01*
X248385Y-242031D02*
X251500D01*
X237363Y-240259D02*
X239529Y-238093D01*
X251500D01*
X236182Y-240259D02*
X237363D01*
X257300Y-240062D02*
Y-222911D01*
X263100Y-240062D02*
Y-238093D01*
Y-244000D02*
Y-242031D01*
Y-240062D01*
Y-238093D02*
Y-236124D01*
X236419Y-179600D02*
X243519Y-186700D01*
X229086Y-179600D02*
X236419D01*
X202314D02*
Y-176685D01*
X184900Y-175285D02*
X200914D01*
X202314Y-176685D01*
X112300Y-142300D02*
X122455Y-132145D01*
Y-125101D01*
X118394Y-170900D02*
X118494Y-171000D01*
D16*
X139500Y-46000D02*
X164287D01*
X263330Y-145043D01*
Y-215700D02*
Y-145043D01*
D17*
X64500Y-301000D02*
D03*
X214500Y-46000D02*
D03*
X64500D02*
D03*
X289500Y-301000D02*
D03*
Y-46000D02*
D03*
X214500Y-301000D02*
D03*
X139500D02*
D03*
Y-46000D02*
D03*
D18*
X341000Y-255000D02*
D03*
Y-98000D02*
D03*
X14000Y-255000D02*
D03*
Y-98000D02*
D03*
X20000Y-334000D02*
D03*
X334000D02*
D03*
Y-20000D02*
D03*
X20000D02*
D03*
D19*
X289300Y-315100D02*
D03*
D20*
X93500Y-170400D02*
D03*
X59900Y-271900D02*
D03*
X251322Y-186700D02*
D03*
X153156Y-170900D02*
D03*
D21*
X144400Y-135600D02*
D03*
Y-120976D02*
D03*
D22*
X124400Y-171000D02*
D03*
X118494D02*
D03*
X104153Y-170600D02*
D03*
X98247D02*
D03*
D23*
X51882Y-272100D02*
D03*
X32000D02*
D03*
X51882Y-262100D02*
D03*
X32000D02*
D03*
X51882Y-252100D02*
D03*
X32000D02*
D03*
X51882Y-242100D02*
D03*
X32000D02*
D03*
X51882Y-232100D02*
D03*
X32000D02*
D03*
X51882Y-222100D02*
D03*
X32000D02*
D03*
X51882Y-212100D02*
D03*
X32000D02*
D03*
X51882Y-202100D02*
D03*
X32000D02*
D03*
X51882Y-192100D02*
D03*
X32000D02*
D03*
X51882Y-182100D02*
D03*
X32000D02*
D03*
X51882Y-172100D02*
D03*
X32000D02*
D03*
X51882Y-162100D02*
D03*
X32000D02*
D03*
X51882Y-152100D02*
D03*
X32000D02*
D03*
X51882Y-142100D02*
D03*
X32000D02*
D03*
X51882Y-132100D02*
D03*
X32000D02*
D03*
X51882Y-122100D02*
D03*
X32000D02*
D03*
X51882Y-112100D02*
D03*
X32000D02*
D03*
X51882Y-102100D02*
D03*
X32000D02*
D03*
X51882Y-92100D02*
D03*
X32000D02*
D03*
X51882Y-82100D02*
D03*
X32000D02*
D03*
X321882Y-272300D02*
D03*
X302000D02*
D03*
X321882Y-262300D02*
D03*
X302000D02*
D03*
X321882Y-252300D02*
D03*
X302000D02*
D03*
X321882Y-242300D02*
D03*
X302000D02*
D03*
X321882Y-232300D02*
D03*
X302000D02*
D03*
X321882Y-222300D02*
D03*
X302000D02*
D03*
X321882Y-212300D02*
D03*
X302000D02*
D03*
X321882Y-202300D02*
D03*
X302000D02*
D03*
X321882Y-192300D02*
D03*
X302000D02*
D03*
X321882Y-182300D02*
D03*
X302000D02*
D03*
X321882Y-172300D02*
D03*
X302000D02*
D03*
X321882Y-162300D02*
D03*
X302000D02*
D03*
X321882Y-152300D02*
D03*
X302000D02*
D03*
X321882Y-142300D02*
D03*
X302000D02*
D03*
X321882Y-132300D02*
D03*
X302000D02*
D03*
X321882Y-122300D02*
D03*
X302000D02*
D03*
X321882Y-112300D02*
D03*
X302000D02*
D03*
X321882Y-102300D02*
D03*
X302000D02*
D03*
X321882Y-92300D02*
D03*
X302000D02*
D03*
X321882Y-82300D02*
D03*
X302000D02*
D03*
D24*
X111100Y-137300D02*
D03*
Y-142300D02*
D03*
Y-147300D02*
D03*
Y-152300D02*
D03*
X87300D02*
D03*
Y-147300D02*
D03*
Y-142300D02*
D03*
Y-137300D02*
D03*
D25*
X133800Y-191400D02*
D03*
X123170D02*
D03*
X263330Y-215700D02*
D03*
X252700D02*
D03*
X208594Y-212300D02*
D03*
X219224D02*
D03*
X122455Y-125101D02*
D03*
X111825D02*
D03*
D26*
X214500Y-234452D02*
D03*
Y-240357D02*
D03*
D27*
X229086Y-179600D02*
D03*
X222393D02*
D03*
X215700D02*
D03*
X209007D02*
D03*
X202314D02*
D03*
D28*
X215700Y-141600D02*
D03*
D29*
X236182Y-240259D02*
D03*
Y-229629D02*
D03*
X184900Y-185915D02*
D03*
Y-175285D02*
D03*
X244700Y-176070D02*
D03*
Y-186700D02*
D03*
D30*
X144400Y-162300D02*
D03*
Y-171000D02*
D03*
D31*
X263100Y-236124D02*
D03*
Y-238093D02*
D03*
Y-240062D02*
D03*
Y-242031D02*
D03*
Y-244000D02*
D03*
X251500D02*
D03*
Y-242031D02*
D03*
Y-240062D02*
D03*
Y-238093D02*
D03*
Y-236124D02*
D03*
D32*
X257300Y-240062D02*
D03*
M02*
