G04*
G04 #@! TF.GenerationSoftware,Altium Limited,Altium Designer,22.2.1 (43)*
G04*
G04 Layer_Physical_Order=1*
G04 Layer_Color=255*
%FSLAX25Y25*%
%MOIN*%
G70*
G04*
G04 #@! TF.SameCoordinates,2BD9F523-0FC0-4ADC-A514-1134C6E00D61*
G04*
G04*
G04 #@! TF.FilePolarity,Positive*
G04*
G01*
G75*
%ADD16C,0.02800*%
%ADD17C,0.08445*%
%ADD18C,0.06000*%
%ADD19C,0.03800*%
%ADD20C,0.02000*%
G36*
X321000Y0D02*
X346788D01*
Y0D01*
X354000Y-7212D01*
Y-346788D01*
X354000D01*
X346788Y-354000D01*
X346788Y-354000D01*
X321000D01*
X303000Y-336000D01*
X51000D01*
X33000Y-354000D01*
X7212D01*
X-0Y-346788D01*
Y-7212D01*
X788D01*
X8000Y0D01*
X33000D01*
X51000Y-18000D01*
X303000D01*
X321000Y0D01*
X321000Y0D01*
D02*
G37*
%LPC*%
G36*
X334788Y-12000D02*
X333212D01*
X331666Y-12307D01*
X330211Y-12911D01*
X328900Y-13786D01*
X327786Y-14900D01*
X326910Y-16211D01*
X326307Y-17666D01*
X326000Y-19212D01*
Y-20788D01*
X326307Y-22333D01*
X326910Y-23789D01*
X327786Y-25100D01*
X328900Y-26214D01*
X330211Y-27090D01*
X331666Y-27693D01*
X333212Y-28000D01*
X334788D01*
X336333Y-27693D01*
X337789Y-27090D01*
X339100Y-26214D01*
X340214Y-25100D01*
X341090Y-23789D01*
X341693Y-22333D01*
X342000Y-20788D01*
Y-19212D01*
X341693Y-17666D01*
X341090Y-16211D01*
X340214Y-14900D01*
X339100Y-13786D01*
X337789Y-12911D01*
X336333Y-12307D01*
X334788Y-12000D01*
D02*
G37*
G36*
X20788D02*
X19212D01*
X17666Y-12307D01*
X16211Y-12911D01*
X14900Y-13786D01*
X13786Y-14900D01*
X12911Y-16211D01*
X12307Y-17666D01*
X12000Y-19212D01*
Y-20788D01*
X12307Y-22333D01*
X12911Y-23789D01*
X13786Y-25100D01*
X14900Y-26214D01*
X16211Y-27090D01*
X17666Y-27693D01*
X19212Y-28000D01*
X20788D01*
X22333Y-27693D01*
X23789Y-27090D01*
X25100Y-26214D01*
X26214Y-25100D01*
X27090Y-23789D01*
X27693Y-22333D01*
X28000Y-20788D01*
Y-19212D01*
X27693Y-17666D01*
X27090Y-16211D01*
X26214Y-14900D01*
X25100Y-13786D01*
X23789Y-12911D01*
X22333Y-12307D01*
X20788Y-12000D01*
D02*
G37*
G36*
X290122Y-41278D02*
X288878D01*
X287677Y-41599D01*
X286600Y-42221D01*
X285721Y-43100D01*
X285166Y-44063D01*
X218834D01*
X218279Y-43100D01*
X217400Y-42221D01*
X216323Y-41599D01*
X215122Y-41278D01*
X213878D01*
X212677Y-41599D01*
X211600Y-42221D01*
X210721Y-43100D01*
X210099Y-44177D01*
X209778Y-45378D01*
Y-46622D01*
X210065Y-47695D01*
X177530Y-80230D01*
X177110Y-80859D01*
X176963Y-81600D01*
Y-260798D01*
X141195Y-296565D01*
X140122Y-296278D01*
X138878D01*
X137677Y-296599D01*
X136600Y-297221D01*
X135721Y-298100D01*
X135166Y-299063D01*
X68835D01*
X68279Y-298100D01*
X67400Y-297221D01*
X66323Y-296599D01*
X65122Y-296278D01*
X63878D01*
X62677Y-296599D01*
X61600Y-297221D01*
X60721Y-298100D01*
X60099Y-299177D01*
X59778Y-300378D01*
Y-301622D01*
X60099Y-302823D01*
X60721Y-303900D01*
X61600Y-304779D01*
X62677Y-305401D01*
X63878Y-305722D01*
X65122D01*
X66323Y-305401D01*
X67400Y-304779D01*
X68279Y-303900D01*
X68835Y-302937D01*
X135166D01*
X135721Y-303900D01*
X136600Y-304779D01*
X137677Y-305401D01*
X138878Y-305722D01*
X140122D01*
X141323Y-305401D01*
X142400Y-304779D01*
X143279Y-303900D01*
X143901Y-302823D01*
X144222Y-301622D01*
Y-300378D01*
X143935Y-299305D01*
X180270Y-262970D01*
X180690Y-262341D01*
X180837Y-261600D01*
Y-82402D01*
X212805Y-50435D01*
X213878Y-50722D01*
X215122D01*
X216323Y-50401D01*
X217400Y-49779D01*
X218279Y-48900D01*
X218834Y-47937D01*
X285166D01*
X285721Y-48900D01*
X286600Y-49779D01*
X287677Y-50401D01*
X288878Y-50722D01*
X290122D01*
X291323Y-50401D01*
X292400Y-49779D01*
X293279Y-48900D01*
X293901Y-47823D01*
X294222Y-46622D01*
Y-45378D01*
X293901Y-44177D01*
X293279Y-43100D01*
X292400Y-42221D01*
X291323Y-41599D01*
X290122Y-41278D01*
D02*
G37*
G36*
X140122D02*
X138878D01*
X137677Y-41599D01*
X136600Y-42221D01*
X135721Y-43100D01*
X135166Y-44063D01*
X68835D01*
X68279Y-43100D01*
X67400Y-42221D01*
X66323Y-41599D01*
X65122Y-41278D01*
X63878D01*
X62677Y-41599D01*
X61600Y-42221D01*
X60721Y-43100D01*
X60099Y-44177D01*
X59778Y-45378D01*
Y-46622D01*
X60099Y-47823D01*
X60721Y-48900D01*
X61600Y-49779D01*
X62677Y-50401D01*
X63878Y-50722D01*
X65122D01*
X66323Y-50401D01*
X67400Y-49779D01*
X68279Y-48900D01*
X68835Y-47937D01*
X135166D01*
X135721Y-48900D01*
X136600Y-49779D01*
X137677Y-50401D01*
X138878Y-50722D01*
X140122D01*
X141323Y-50401D01*
X142400Y-49779D01*
X143279Y-48900D01*
X143901Y-47823D01*
X144222Y-46622D01*
Y-45378D01*
X143901Y-44177D01*
X143279Y-43100D01*
X142400Y-42221D01*
X141323Y-41599D01*
X140122Y-41278D01*
D02*
G37*
G36*
X341724Y-92500D02*
X340276D01*
X338877Y-92875D01*
X337623Y-93599D01*
X336599Y-94623D01*
X335875Y-95877D01*
X335500Y-97276D01*
Y-98724D01*
X335875Y-100123D01*
X336599Y-101377D01*
X337623Y-102401D01*
X338877Y-103125D01*
X340276Y-103500D01*
X341724D01*
X343123Y-103125D01*
X344377Y-102401D01*
X345401Y-101377D01*
X346125Y-100123D01*
X346500Y-98724D01*
Y-97276D01*
X346125Y-95877D01*
X345401Y-94623D01*
X344377Y-93599D01*
X343123Y-92875D01*
X341724Y-92500D01*
D02*
G37*
G36*
X14724D02*
X13276D01*
X11877Y-92875D01*
X10623Y-93599D01*
X9599Y-94623D01*
X8875Y-95877D01*
X8500Y-97276D01*
Y-98724D01*
X8875Y-100123D01*
X9599Y-101377D01*
X10623Y-102401D01*
X11877Y-103125D01*
X13276Y-103500D01*
X14724D01*
X16123Y-103125D01*
X17377Y-102401D01*
X18401Y-101377D01*
X19125Y-100123D01*
X19500Y-98724D01*
Y-97276D01*
X19125Y-95877D01*
X18401Y-94623D01*
X17377Y-93599D01*
X16123Y-92875D01*
X14724Y-92500D01*
D02*
G37*
G36*
X341724Y-249500D02*
X340276D01*
X338877Y-249875D01*
X337623Y-250599D01*
X336599Y-251623D01*
X335875Y-252877D01*
X335500Y-254276D01*
Y-255724D01*
X335875Y-257123D01*
X336599Y-258377D01*
X337623Y-259401D01*
X338877Y-260125D01*
X340276Y-260500D01*
X341724D01*
X343123Y-260125D01*
X344377Y-259401D01*
X345401Y-258377D01*
X346125Y-257123D01*
X346500Y-255724D01*
Y-254276D01*
X346125Y-252877D01*
X345401Y-251623D01*
X344377Y-250599D01*
X343123Y-249875D01*
X341724Y-249500D01*
D02*
G37*
G36*
X14724D02*
X13276D01*
X11877Y-249875D01*
X10623Y-250599D01*
X9599Y-251623D01*
X8875Y-252877D01*
X8500Y-254276D01*
Y-255724D01*
X8875Y-257123D01*
X9599Y-258377D01*
X10623Y-259401D01*
X11877Y-260125D01*
X13276Y-260500D01*
X14724D01*
X16123Y-260125D01*
X17377Y-259401D01*
X18401Y-258377D01*
X19125Y-257123D01*
X19500Y-255724D01*
Y-254276D01*
X19125Y-252877D01*
X18401Y-251623D01*
X17377Y-250599D01*
X16123Y-249875D01*
X14724Y-249500D01*
D02*
G37*
G36*
X290122Y-296278D02*
X288878D01*
X287677Y-296599D01*
X286600Y-297221D01*
X285721Y-298100D01*
X285166Y-299063D01*
X218834D01*
X218279Y-298100D01*
X217400Y-297221D01*
X216323Y-296599D01*
X215122Y-296278D01*
X213878D01*
X212677Y-296599D01*
X211600Y-297221D01*
X210721Y-298100D01*
X210099Y-299177D01*
X209778Y-300378D01*
Y-301622D01*
X210099Y-302823D01*
X210721Y-303900D01*
X211600Y-304779D01*
X212677Y-305401D01*
X213878Y-305722D01*
X215122D01*
X216323Y-305401D01*
X217400Y-304779D01*
X218279Y-303900D01*
X218834Y-302937D01*
X285166D01*
X285721Y-303900D01*
X286600Y-304779D01*
X287463Y-305277D01*
Y-313543D01*
X287265Y-313740D01*
X286900Y-314623D01*
Y-315577D01*
X287265Y-316459D01*
X287941Y-317135D01*
X288823Y-317500D01*
X289777D01*
X290659Y-317135D01*
X291335Y-316459D01*
X291700Y-315577D01*
Y-314623D01*
X291337Y-313747D01*
Y-305392D01*
X292400Y-304779D01*
X293279Y-303900D01*
X293901Y-302823D01*
X294222Y-301622D01*
Y-300378D01*
X293901Y-299177D01*
X293279Y-298100D01*
X292400Y-297221D01*
X291323Y-296599D01*
X290122Y-296278D01*
D02*
G37*
G36*
X334788Y-326000D02*
X333212D01*
X331666Y-326307D01*
X330211Y-326910D01*
X328900Y-327786D01*
X327786Y-328900D01*
X326910Y-330211D01*
X326307Y-331666D01*
X326000Y-333212D01*
Y-334788D01*
X326307Y-336333D01*
X326910Y-337789D01*
X327786Y-339100D01*
X328900Y-340214D01*
X330211Y-341090D01*
X331666Y-341693D01*
X333212Y-342000D01*
X334788D01*
X336333Y-341693D01*
X337789Y-341090D01*
X339100Y-340214D01*
X340214Y-339100D01*
X341090Y-337789D01*
X341693Y-336333D01*
X342000Y-334788D01*
Y-333212D01*
X341693Y-331666D01*
X341090Y-330211D01*
X340214Y-328900D01*
X339100Y-327786D01*
X337789Y-326910D01*
X336333Y-326307D01*
X334788Y-326000D01*
D02*
G37*
G36*
X20788D02*
X19212D01*
X17666Y-326307D01*
X16211Y-326910D01*
X14900Y-327786D01*
X13786Y-328900D01*
X12911Y-330211D01*
X12307Y-331666D01*
X12000Y-333212D01*
Y-334788D01*
X12307Y-336333D01*
X12911Y-337789D01*
X13786Y-339100D01*
X14900Y-340214D01*
X16211Y-341090D01*
X17666Y-341693D01*
X19212Y-342000D01*
X20788D01*
X22333Y-341693D01*
X23789Y-341090D01*
X25100Y-340214D01*
X26214Y-339100D01*
X27090Y-337789D01*
X27693Y-336333D01*
X28000Y-334788D01*
Y-333212D01*
X27693Y-331666D01*
X27090Y-330211D01*
X26214Y-328900D01*
X25100Y-327786D01*
X23789Y-326910D01*
X22333Y-326307D01*
X20788Y-326000D01*
D02*
G37*
%LPD*%
D16*
X289400Y-301100D02*
X289500Y-301000D01*
X289300Y-315100D02*
X289400Y-315000D01*
Y-301100D01*
X139500Y-301000D02*
X178900Y-261600D01*
Y-81600D02*
X214500Y-46000D01*
X178900Y-261600D02*
Y-81600D01*
X64500Y-46000D02*
X139500D01*
X64500Y-301000D02*
X139500D01*
X214500D02*
X289500D01*
X214500Y-46000D02*
X289500D01*
D17*
X64500Y-301000D02*
D03*
X214500Y-46000D02*
D03*
X64500D02*
D03*
X289500Y-301000D02*
D03*
Y-46000D02*
D03*
X214500Y-301000D02*
D03*
X139500D02*
D03*
Y-46000D02*
D03*
D18*
X341000Y-255000D02*
D03*
Y-98000D02*
D03*
X14000Y-255000D02*
D03*
Y-98000D02*
D03*
X20000Y-334000D02*
D03*
X334000D02*
D03*
Y-20000D02*
D03*
X20000D02*
D03*
D19*
X289300Y-315100D02*
D03*
D20*
X93500Y-170400D02*
D03*
X59900Y-271900D02*
D03*
X251322Y-186700D02*
D03*
X153156Y-170900D02*
D03*
M02*
